%TF.GenerationSoftware,KiCad,Pcbnew,(5.1.6)-1*%
%TF.CreationDate,2021-11-16T12:50:12-05:00*%
%TF.ProjectId,AmbaSat-1_Satellite,416d6261-5361-4742-9d31-5f536174656c,KiCad_1.0*%
%TF.SameCoordinates,PX7ceeb0cPY74d41b0*%
%TF.FileFunction,Paste,Top*%
%TF.FilePolarity,Positive*%
%FSLAX46Y46*%
G04 Gerber Fmt 4.6, Leading zero omitted, Abs format (unit mm)*
G04 Created by KiCad (PCBNEW (5.1.6)-1) date 2021-11-16 12:50:12*
%MOMM*%
%LPD*%
G01*
G04 APERTURE LIST*
%ADD10C,0.100000*%
%ADD11R,2.000000X1.270000*%
%ADD12R,1.050000X1.000000*%
%ADD13R,2.200000X0.850000*%
%ADD14R,0.400000X1.600000*%
G04 APERTURE END LIST*
D10*
%TO.C,Y1*%
G36*
X6012000Y34193000D02*
G01*
X5212000Y34193000D01*
X5212000Y33693000D01*
X6012000Y33693000D01*
X6012000Y34193000D01*
G37*
G36*
X7512000Y34193000D02*
G01*
X6712000Y34193000D01*
X6712000Y33693000D01*
X7512000Y33693000D01*
X7512000Y34193000D01*
G37*
G36*
X9012000Y34193000D02*
G01*
X8212000Y34193000D01*
X8212000Y33693000D01*
X9012000Y33693000D01*
X9012000Y34193000D01*
G37*
G36*
X6012000Y32093000D02*
G01*
X5212000Y32093000D01*
X5212000Y31593000D01*
X6012000Y31593000D01*
X6012000Y32093000D01*
G37*
G36*
X7512000Y32093000D02*
G01*
X6712000Y32093000D01*
X6712000Y31593000D01*
X7512000Y31593000D01*
X7512000Y32093000D01*
G37*
G36*
X9012000Y32093000D02*
G01*
X8212000Y32093000D01*
X8212000Y31593000D01*
X9012000Y31593000D01*
X9012000Y32093000D01*
G37*
%TD*%
D11*
%TO.C,U4*%
X17520500Y9400000D03*
X17520500Y11400000D03*
X17520500Y7400000D03*
X33520500Y7387800D03*
X33520500Y11305000D03*
X33520500Y9400000D03*
X33520500Y5400000D03*
X33520500Y3400000D03*
X33520500Y15400000D03*
X33520500Y1400000D03*
X17520500Y13400000D03*
X33520500Y13400000D03*
X17520500Y1400000D03*
X17520500Y3400000D03*
X17520500Y5400000D03*
X17520500Y15400000D03*
%TD*%
D12*
%TO.C,P1*%
X10286000Y14224000D03*
X13336000Y14224000D03*
D13*
X11811000Y12849000D03*
X11811000Y15599000D03*
%TD*%
%TO.C,U2*%
G36*
G01*
X12179978Y30584000D02*
X12470022Y30584000D01*
G75*
G02*
X12620000Y30434022I0J-149978D01*
G01*
X12620000Y29133978D01*
G75*
G02*
X12470022Y28984000I-149978J0D01*
G01*
X12179978Y28984000D01*
G75*
G02*
X12030000Y29133978I0J149978D01*
G01*
X12030000Y30434022D01*
G75*
G02*
X12179978Y30584000I149978J0D01*
G01*
G37*
G36*
G01*
X11379978Y30584000D02*
X11670022Y30584000D01*
G75*
G02*
X11820000Y30434022I0J-149978D01*
G01*
X11820000Y29133978D01*
G75*
G02*
X11670022Y28984000I-149978J0D01*
G01*
X11379978Y28984000D01*
G75*
G02*
X11230000Y29133978I0J149978D01*
G01*
X11230000Y30434022D01*
G75*
G02*
X11379978Y30584000I149978J0D01*
G01*
G37*
G36*
G01*
X10579978Y30584000D02*
X10870022Y30584000D01*
G75*
G02*
X11020000Y30434022I0J-149978D01*
G01*
X11020000Y29133978D01*
G75*
G02*
X10870022Y28984000I-149978J0D01*
G01*
X10579978Y28984000D01*
G75*
G02*
X10430000Y29133978I0J149978D01*
G01*
X10430000Y30434022D01*
G75*
G02*
X10579978Y30584000I149978J0D01*
G01*
G37*
G36*
G01*
X9779978Y30584000D02*
X10070022Y30584000D01*
G75*
G02*
X10220000Y30434022I0J-149978D01*
G01*
X10220000Y29133978D01*
G75*
G02*
X10070022Y28984000I-149978J0D01*
G01*
X9779978Y28984000D01*
G75*
G02*
X9630000Y29133978I0J149978D01*
G01*
X9630000Y30434022D01*
G75*
G02*
X9779978Y30584000I149978J0D01*
G01*
G37*
G36*
G01*
X8979978Y30584000D02*
X9270022Y30584000D01*
G75*
G02*
X9420000Y30434022I0J-149978D01*
G01*
X9420000Y29133978D01*
G75*
G02*
X9270022Y28984000I-149978J0D01*
G01*
X8979978Y28984000D01*
G75*
G02*
X8830000Y29133978I0J149978D01*
G01*
X8830000Y30434022D01*
G75*
G02*
X8979978Y30584000I149978J0D01*
G01*
G37*
G36*
G01*
X8179978Y30584000D02*
X8470022Y30584000D01*
G75*
G02*
X8620000Y30434022I0J-149978D01*
G01*
X8620000Y29133978D01*
G75*
G02*
X8470022Y28984000I-149978J0D01*
G01*
X8179978Y28984000D01*
G75*
G02*
X8030000Y29133978I0J149978D01*
G01*
X8030000Y30434022D01*
G75*
G02*
X8179978Y30584000I149978J0D01*
G01*
G37*
G36*
G01*
X7379978Y30584000D02*
X7670022Y30584000D01*
G75*
G02*
X7820000Y30434022I0J-149978D01*
G01*
X7820000Y29133978D01*
G75*
G02*
X7670022Y28984000I-149978J0D01*
G01*
X7379978Y28984000D01*
G75*
G02*
X7230000Y29133978I0J149978D01*
G01*
X7230000Y30434022D01*
G75*
G02*
X7379978Y30584000I149978J0D01*
G01*
G37*
G36*
G01*
X6579978Y30584000D02*
X6870022Y30584000D01*
G75*
G02*
X7020000Y30434022I0J-149978D01*
G01*
X7020000Y29133978D01*
G75*
G02*
X6870022Y28984000I-149978J0D01*
G01*
X6579978Y28984000D01*
G75*
G02*
X6430000Y29133978I0J149978D01*
G01*
X6430000Y30434022D01*
G75*
G02*
X6579978Y30584000I149978J0D01*
G01*
G37*
G36*
G01*
X6195000Y28599022D02*
X6195000Y28308978D01*
G75*
G02*
X6045022Y28159000I-149978J0D01*
G01*
X4744978Y28159000D01*
G75*
G02*
X4595000Y28308978I0J149978D01*
G01*
X4595000Y28599022D01*
G75*
G02*
X4744978Y28749000I149978J0D01*
G01*
X6045022Y28749000D01*
G75*
G02*
X6195000Y28599022I0J-149978D01*
G01*
G37*
G36*
G01*
X6195000Y27799022D02*
X6195000Y27508978D01*
G75*
G02*
X6045022Y27359000I-149978J0D01*
G01*
X4744978Y27359000D01*
G75*
G02*
X4595000Y27508978I0J149978D01*
G01*
X4595000Y27799022D01*
G75*
G02*
X4744978Y27949000I149978J0D01*
G01*
X6045022Y27949000D01*
G75*
G02*
X6195000Y27799022I0J-149978D01*
G01*
G37*
G36*
G01*
X6195000Y26999022D02*
X6195000Y26708978D01*
G75*
G02*
X6045022Y26559000I-149978J0D01*
G01*
X4744978Y26559000D01*
G75*
G02*
X4595000Y26708978I0J149978D01*
G01*
X4595000Y26999022D01*
G75*
G02*
X4744978Y27149000I149978J0D01*
G01*
X6045022Y27149000D01*
G75*
G02*
X6195000Y26999022I0J-149978D01*
G01*
G37*
G36*
G01*
X6195000Y26199022D02*
X6195000Y25908978D01*
G75*
G02*
X6045022Y25759000I-149978J0D01*
G01*
X4744978Y25759000D01*
G75*
G02*
X4595000Y25908978I0J149978D01*
G01*
X4595000Y26199022D01*
G75*
G02*
X4744978Y26349000I149978J0D01*
G01*
X6045022Y26349000D01*
G75*
G02*
X6195000Y26199022I0J-149978D01*
G01*
G37*
G36*
G01*
X6195000Y25399022D02*
X6195000Y25108978D01*
G75*
G02*
X6045022Y24959000I-149978J0D01*
G01*
X4744978Y24959000D01*
G75*
G02*
X4595000Y25108978I0J149978D01*
G01*
X4595000Y25399022D01*
G75*
G02*
X4744978Y25549000I149978J0D01*
G01*
X6045022Y25549000D01*
G75*
G02*
X6195000Y25399022I0J-149978D01*
G01*
G37*
G36*
G01*
X6195000Y24599022D02*
X6195000Y24308978D01*
G75*
G02*
X6045022Y24159000I-149978J0D01*
G01*
X4744978Y24159000D01*
G75*
G02*
X4595000Y24308978I0J149978D01*
G01*
X4595000Y24599022D01*
G75*
G02*
X4744978Y24749000I149978J0D01*
G01*
X6045022Y24749000D01*
G75*
G02*
X6195000Y24599022I0J-149978D01*
G01*
G37*
G36*
G01*
X6195000Y23799022D02*
X6195000Y23508978D01*
G75*
G02*
X6045022Y23359000I-149978J0D01*
G01*
X4744978Y23359000D01*
G75*
G02*
X4595000Y23508978I0J149978D01*
G01*
X4595000Y23799022D01*
G75*
G02*
X4744978Y23949000I149978J0D01*
G01*
X6045022Y23949000D01*
G75*
G02*
X6195000Y23799022I0J-149978D01*
G01*
G37*
G36*
G01*
X6195000Y22999022D02*
X6195000Y22708978D01*
G75*
G02*
X6045022Y22559000I-149978J0D01*
G01*
X4744978Y22559000D01*
G75*
G02*
X4595000Y22708978I0J149978D01*
G01*
X4595000Y22999022D01*
G75*
G02*
X4744978Y23149000I149978J0D01*
G01*
X6045022Y23149000D01*
G75*
G02*
X6195000Y22999022I0J-149978D01*
G01*
G37*
G36*
G01*
X6579978Y22324000D02*
X6870022Y22324000D01*
G75*
G02*
X7020000Y22174022I0J-149978D01*
G01*
X7020000Y20873978D01*
G75*
G02*
X6870022Y20724000I-149978J0D01*
G01*
X6579978Y20724000D01*
G75*
G02*
X6430000Y20873978I0J149978D01*
G01*
X6430000Y22174022D01*
G75*
G02*
X6579978Y22324000I149978J0D01*
G01*
G37*
G36*
G01*
X7379978Y22324000D02*
X7670022Y22324000D01*
G75*
G02*
X7820000Y22174022I0J-149978D01*
G01*
X7820000Y20873978D01*
G75*
G02*
X7670022Y20724000I-149978J0D01*
G01*
X7379978Y20724000D01*
G75*
G02*
X7230000Y20873978I0J149978D01*
G01*
X7230000Y22174022D01*
G75*
G02*
X7379978Y22324000I149978J0D01*
G01*
G37*
G36*
G01*
X8179978Y22324000D02*
X8470022Y22324000D01*
G75*
G02*
X8620000Y22174022I0J-149978D01*
G01*
X8620000Y20873978D01*
G75*
G02*
X8470022Y20724000I-149978J0D01*
G01*
X8179978Y20724000D01*
G75*
G02*
X8030000Y20873978I0J149978D01*
G01*
X8030000Y22174022D01*
G75*
G02*
X8179978Y22324000I149978J0D01*
G01*
G37*
G36*
G01*
X8979978Y22324000D02*
X9270022Y22324000D01*
G75*
G02*
X9420000Y22174022I0J-149978D01*
G01*
X9420000Y20873978D01*
G75*
G02*
X9270022Y20724000I-149978J0D01*
G01*
X8979978Y20724000D01*
G75*
G02*
X8830000Y20873978I0J149978D01*
G01*
X8830000Y22174022D01*
G75*
G02*
X8979978Y22324000I149978J0D01*
G01*
G37*
G36*
G01*
X9779978Y22324000D02*
X10070022Y22324000D01*
G75*
G02*
X10220000Y22174022I0J-149978D01*
G01*
X10220000Y20873978D01*
G75*
G02*
X10070022Y20724000I-149978J0D01*
G01*
X9779978Y20724000D01*
G75*
G02*
X9630000Y20873978I0J149978D01*
G01*
X9630000Y22174022D01*
G75*
G02*
X9779978Y22324000I149978J0D01*
G01*
G37*
G36*
G01*
X10579978Y22324000D02*
X10870022Y22324000D01*
G75*
G02*
X11020000Y22174022I0J-149978D01*
G01*
X11020000Y20873978D01*
G75*
G02*
X10870022Y20724000I-149978J0D01*
G01*
X10579978Y20724000D01*
G75*
G02*
X10430000Y20873978I0J149978D01*
G01*
X10430000Y22174022D01*
G75*
G02*
X10579978Y22324000I149978J0D01*
G01*
G37*
G36*
G01*
X11379978Y22324000D02*
X11670022Y22324000D01*
G75*
G02*
X11820000Y22174022I0J-149978D01*
G01*
X11820000Y20873978D01*
G75*
G02*
X11670022Y20724000I-149978J0D01*
G01*
X11379978Y20724000D01*
G75*
G02*
X11230000Y20873978I0J149978D01*
G01*
X11230000Y22174022D01*
G75*
G02*
X11379978Y22324000I149978J0D01*
G01*
G37*
G36*
G01*
X12179978Y22324000D02*
X12470022Y22324000D01*
G75*
G02*
X12620000Y22174022I0J-149978D01*
G01*
X12620000Y20873978D01*
G75*
G02*
X12470022Y20724000I-149978J0D01*
G01*
X12179978Y20724000D01*
G75*
G02*
X12030000Y20873978I0J149978D01*
G01*
X12030000Y22174022D01*
G75*
G02*
X12179978Y22324000I149978J0D01*
G01*
G37*
G36*
G01*
X14455000Y22999022D02*
X14455000Y22708978D01*
G75*
G02*
X14305022Y22559000I-149978J0D01*
G01*
X13004978Y22559000D01*
G75*
G02*
X12855000Y22708978I0J149978D01*
G01*
X12855000Y22999022D01*
G75*
G02*
X13004978Y23149000I149978J0D01*
G01*
X14305022Y23149000D01*
G75*
G02*
X14455000Y22999022I0J-149978D01*
G01*
G37*
G36*
G01*
X14455000Y23799022D02*
X14455000Y23508978D01*
G75*
G02*
X14305022Y23359000I-149978J0D01*
G01*
X13004978Y23359000D01*
G75*
G02*
X12855000Y23508978I0J149978D01*
G01*
X12855000Y23799022D01*
G75*
G02*
X13004978Y23949000I149978J0D01*
G01*
X14305022Y23949000D01*
G75*
G02*
X14455000Y23799022I0J-149978D01*
G01*
G37*
G36*
G01*
X14455000Y24599022D02*
X14455000Y24308978D01*
G75*
G02*
X14305022Y24159000I-149978J0D01*
G01*
X13004978Y24159000D01*
G75*
G02*
X12855000Y24308978I0J149978D01*
G01*
X12855000Y24599022D01*
G75*
G02*
X13004978Y24749000I149978J0D01*
G01*
X14305022Y24749000D01*
G75*
G02*
X14455000Y24599022I0J-149978D01*
G01*
G37*
G36*
G01*
X14455000Y25399022D02*
X14455000Y25108978D01*
G75*
G02*
X14305022Y24959000I-149978J0D01*
G01*
X13004978Y24959000D01*
G75*
G02*
X12855000Y25108978I0J149978D01*
G01*
X12855000Y25399022D01*
G75*
G02*
X13004978Y25549000I149978J0D01*
G01*
X14305022Y25549000D01*
G75*
G02*
X14455000Y25399022I0J-149978D01*
G01*
G37*
G36*
G01*
X14455000Y26199022D02*
X14455000Y25908978D01*
G75*
G02*
X14305022Y25759000I-149978J0D01*
G01*
X13004978Y25759000D01*
G75*
G02*
X12855000Y25908978I0J149978D01*
G01*
X12855000Y26199022D01*
G75*
G02*
X13004978Y26349000I149978J0D01*
G01*
X14305022Y26349000D01*
G75*
G02*
X14455000Y26199022I0J-149978D01*
G01*
G37*
G36*
G01*
X14455000Y26999022D02*
X14455000Y26708978D01*
G75*
G02*
X14305022Y26559000I-149978J0D01*
G01*
X13004978Y26559000D01*
G75*
G02*
X12855000Y26708978I0J149978D01*
G01*
X12855000Y26999022D01*
G75*
G02*
X13004978Y27149000I149978J0D01*
G01*
X14305022Y27149000D01*
G75*
G02*
X14455000Y26999022I0J-149978D01*
G01*
G37*
G36*
G01*
X14455000Y27799022D02*
X14455000Y27508978D01*
G75*
G02*
X14305022Y27359000I-149978J0D01*
G01*
X13004978Y27359000D01*
G75*
G02*
X12855000Y27508978I0J149978D01*
G01*
X12855000Y27799022D01*
G75*
G02*
X13004978Y27949000I149978J0D01*
G01*
X14305022Y27949000D01*
G75*
G02*
X14455000Y27799022I0J-149978D01*
G01*
G37*
G36*
G01*
X14455000Y28599022D02*
X14455000Y28308978D01*
G75*
G02*
X14305022Y28159000I-149978J0D01*
G01*
X13004978Y28159000D01*
G75*
G02*
X12855000Y28308978I0J149978D01*
G01*
X12855000Y28599022D01*
G75*
G02*
X13004978Y28749000I149978J0D01*
G01*
X14305022Y28749000D01*
G75*
G02*
X14455000Y28599022I0J-149978D01*
G01*
G37*
%TD*%
D14*
%TO.C,Y1*%
X5612000Y32893000D03*
X7112000Y32893000D03*
X8612000Y32893000D03*
%TD*%
%TO.C,D1*%
G36*
G01*
X6723000Y14856000D02*
X5723000Y14856000D01*
G75*
G02*
X5483000Y15096000I0J240000D01*
G01*
X5483000Y15576000D01*
G75*
G02*
X5723000Y15816000I240000J0D01*
G01*
X6723000Y15816000D01*
G75*
G02*
X6963000Y15576000I0J-240000D01*
G01*
X6963000Y15096000D01*
G75*
G02*
X6723000Y14856000I-240000J0D01*
G01*
G37*
G36*
G01*
X6723000Y12886000D02*
X5723000Y12886000D01*
G75*
G02*
X5483000Y13126000I0J240000D01*
G01*
X5483000Y13606000D01*
G75*
G02*
X5723000Y13846000I240000J0D01*
G01*
X6723000Y13846000D01*
G75*
G02*
X6963000Y13606000I0J-240000D01*
G01*
X6963000Y13126000D01*
G75*
G02*
X6723000Y12886000I-240000J0D01*
G01*
G37*
%TD*%
%TO.C,U3*%
G36*
G01*
X7839000Y11335999D02*
X7839000Y11646001D01*
G75*
G02*
X7988999Y11796000I149999J0D01*
G01*
X8949001Y11796000D01*
G75*
G02*
X9099000Y11646001I0J-149999D01*
G01*
X9099000Y11335999D01*
G75*
G02*
X8949001Y11186000I-149999J0D01*
G01*
X7988999Y11186000D01*
G75*
G02*
X7839000Y11335999I0J149999D01*
G01*
G37*
G36*
G01*
X7839000Y9435999D02*
X7839000Y9746001D01*
G75*
G02*
X7988999Y9896000I149999J0D01*
G01*
X8949001Y9896000D01*
G75*
G02*
X9099000Y9746001I0J-149999D01*
G01*
X9099000Y9435999D01*
G75*
G02*
X8949001Y9286000I-149999J0D01*
G01*
X7988999Y9286000D01*
G75*
G02*
X7839000Y9435999I0J149999D01*
G01*
G37*
G36*
G01*
X5379000Y9435999D02*
X5379000Y9746001D01*
G75*
G02*
X5528999Y9896000I149999J0D01*
G01*
X6489001Y9896000D01*
G75*
G02*
X6639000Y9746001I0J-149999D01*
G01*
X6639000Y9435999D01*
G75*
G02*
X6489001Y9286000I-149999J0D01*
G01*
X5528999Y9286000D01*
G75*
G02*
X5379000Y9435999I0J149999D01*
G01*
G37*
G36*
G01*
X5379000Y10385999D02*
X5379000Y10696001D01*
G75*
G02*
X5528999Y10846000I149999J0D01*
G01*
X6489001Y10846000D01*
G75*
G02*
X6639000Y10696001I0J-149999D01*
G01*
X6639000Y10385999D01*
G75*
G02*
X6489001Y10236000I-149999J0D01*
G01*
X5528999Y10236000D01*
G75*
G02*
X5379000Y10385999I0J149999D01*
G01*
G37*
G36*
G01*
X5379000Y11335999D02*
X5379000Y11646001D01*
G75*
G02*
X5528999Y11796000I149999J0D01*
G01*
X6489001Y11796000D01*
G75*
G02*
X6639000Y11646001I0J-149999D01*
G01*
X6639000Y11335999D01*
G75*
G02*
X6489001Y11186000I-149999J0D01*
G01*
X5528999Y11186000D01*
G75*
G02*
X5379000Y11335999I0J149999D01*
G01*
G37*
%TD*%
%TO.C,U1*%
G36*
G01*
X10285000Y3821000D02*
X10425000Y3821000D01*
G75*
G02*
X10495000Y3751000I0J-70000D01*
G01*
X10495000Y3261000D01*
G75*
G02*
X10425000Y3191000I-70000J0D01*
G01*
X10285000Y3191000D01*
G75*
G02*
X10215000Y3261000I0J70000D01*
G01*
X10215000Y3751000D01*
G75*
G02*
X10285000Y3821000I70000J0D01*
G01*
G37*
G36*
G01*
X10715000Y3821000D02*
X10855000Y3821000D01*
G75*
G02*
X10925000Y3751000I0J-70000D01*
G01*
X10925000Y3261000D01*
G75*
G02*
X10855000Y3191000I-70000J0D01*
G01*
X10715000Y3191000D01*
G75*
G02*
X10645000Y3261000I0J70000D01*
G01*
X10645000Y3751000D01*
G75*
G02*
X10715000Y3821000I70000J0D01*
G01*
G37*
G36*
G01*
X11145000Y3821000D02*
X11285000Y3821000D01*
G75*
G02*
X11355000Y3751000I0J-70000D01*
G01*
X11355000Y3261000D01*
G75*
G02*
X11285000Y3191000I-70000J0D01*
G01*
X11145000Y3191000D01*
G75*
G02*
X11075000Y3261000I0J70000D01*
G01*
X11075000Y3751000D01*
G75*
G02*
X11145000Y3821000I70000J0D01*
G01*
G37*
G36*
G01*
X11575000Y3821000D02*
X11715000Y3821000D01*
G75*
G02*
X11785000Y3751000I0J-70000D01*
G01*
X11785000Y3261000D01*
G75*
G02*
X11715000Y3191000I-70000J0D01*
G01*
X11575000Y3191000D01*
G75*
G02*
X11505000Y3261000I0J70000D01*
G01*
X11505000Y3751000D01*
G75*
G02*
X11575000Y3821000I70000J0D01*
G01*
G37*
G36*
G01*
X12005000Y3821000D02*
X12145000Y3821000D01*
G75*
G02*
X12215000Y3751000I0J-70000D01*
G01*
X12215000Y3261000D01*
G75*
G02*
X12145000Y3191000I-70000J0D01*
G01*
X12005000Y3191000D01*
G75*
G02*
X11935000Y3261000I0J70000D01*
G01*
X11935000Y3751000D01*
G75*
G02*
X12005000Y3821000I70000J0D01*
G01*
G37*
G36*
G01*
X12435000Y3821000D02*
X12575000Y3821000D01*
G75*
G02*
X12645000Y3751000I0J-70000D01*
G01*
X12645000Y3261000D01*
G75*
G02*
X12575000Y3191000I-70000J0D01*
G01*
X12435000Y3191000D01*
G75*
G02*
X12365000Y3261000I0J70000D01*
G01*
X12365000Y3751000D01*
G75*
G02*
X12435000Y3821000I70000J0D01*
G01*
G37*
G36*
G01*
X12865000Y3813500D02*
X13005000Y3813500D01*
G75*
G02*
X13075000Y3743500I0J-70000D01*
G01*
X13075000Y3268500D01*
G75*
G02*
X13005000Y3198500I-70000J0D01*
G01*
X12865000Y3198500D01*
G75*
G02*
X12795000Y3268500I0J70000D01*
G01*
X12795000Y3743500D01*
G75*
G02*
X12865000Y3813500I70000J0D01*
G01*
G37*
G36*
G01*
X12585000Y2861000D02*
X12585000Y3001000D01*
G75*
G02*
X12655000Y3071000I70000J0D01*
G01*
X13145000Y3071000D01*
G75*
G02*
X13215000Y3001000I0J-70000D01*
G01*
X13215000Y2861000D01*
G75*
G02*
X13145000Y2791000I-70000J0D01*
G01*
X12655000Y2791000D01*
G75*
G02*
X12585000Y2861000I0J70000D01*
G01*
G37*
G36*
G01*
X12585000Y2431000D02*
X12585000Y2571000D01*
G75*
G02*
X12655000Y2641000I70000J0D01*
G01*
X13145000Y2641000D01*
G75*
G02*
X13215000Y2571000I0J-70000D01*
G01*
X13215000Y2431000D01*
G75*
G02*
X13145000Y2361000I-70000J0D01*
G01*
X12655000Y2361000D01*
G75*
G02*
X12585000Y2431000I0J70000D01*
G01*
G37*
G36*
G01*
X12585000Y2001000D02*
X12585000Y2141000D01*
G75*
G02*
X12655000Y2211000I70000J0D01*
G01*
X13145000Y2211000D01*
G75*
G02*
X13215000Y2141000I0J-70000D01*
G01*
X13215000Y2001000D01*
G75*
G02*
X13145000Y1931000I-70000J0D01*
G01*
X12655000Y1931000D01*
G75*
G02*
X12585000Y2001000I0J70000D01*
G01*
G37*
G36*
G01*
X12585000Y1571000D02*
X12585000Y1711000D01*
G75*
G02*
X12655000Y1781000I70000J0D01*
G01*
X13145000Y1781000D01*
G75*
G02*
X13215000Y1711000I0J-70000D01*
G01*
X13215000Y1571000D01*
G75*
G02*
X13145000Y1501000I-70000J0D01*
G01*
X12655000Y1501000D01*
G75*
G02*
X12585000Y1571000I0J70000D01*
G01*
G37*
G36*
G01*
X12865000Y1373500D02*
X13005000Y1373500D01*
G75*
G02*
X13075000Y1303500I0J-70000D01*
G01*
X13075000Y828500D01*
G75*
G02*
X13005000Y758500I-70000J0D01*
G01*
X12865000Y758500D01*
G75*
G02*
X12795000Y828500I0J70000D01*
G01*
X12795000Y1303500D01*
G75*
G02*
X12865000Y1373500I70000J0D01*
G01*
G37*
G36*
G01*
X12435000Y1381000D02*
X12575000Y1381000D01*
G75*
G02*
X12645000Y1311000I0J-70000D01*
G01*
X12645000Y821000D01*
G75*
G02*
X12575000Y751000I-70000J0D01*
G01*
X12435000Y751000D01*
G75*
G02*
X12365000Y821000I0J70000D01*
G01*
X12365000Y1311000D01*
G75*
G02*
X12435000Y1381000I70000J0D01*
G01*
G37*
G36*
G01*
X12005000Y1381000D02*
X12145000Y1381000D01*
G75*
G02*
X12215000Y1311000I0J-70000D01*
G01*
X12215000Y821000D01*
G75*
G02*
X12145000Y751000I-70000J0D01*
G01*
X12005000Y751000D01*
G75*
G02*
X11935000Y821000I0J70000D01*
G01*
X11935000Y1311000D01*
G75*
G02*
X12005000Y1381000I70000J0D01*
G01*
G37*
G36*
G01*
X11575000Y1381000D02*
X11715000Y1381000D01*
G75*
G02*
X11785000Y1311000I0J-70000D01*
G01*
X11785000Y821000D01*
G75*
G02*
X11715000Y751000I-70000J0D01*
G01*
X11575000Y751000D01*
G75*
G02*
X11505000Y821000I0J70000D01*
G01*
X11505000Y1311000D01*
G75*
G02*
X11575000Y1381000I70000J0D01*
G01*
G37*
G36*
G01*
X11145000Y1381000D02*
X11285000Y1381000D01*
G75*
G02*
X11355000Y1311000I0J-70000D01*
G01*
X11355000Y821000D01*
G75*
G02*
X11285000Y751000I-70000J0D01*
G01*
X11145000Y751000D01*
G75*
G02*
X11075000Y821000I0J70000D01*
G01*
X11075000Y1311000D01*
G75*
G02*
X11145000Y1381000I70000J0D01*
G01*
G37*
G36*
G01*
X10715000Y1381000D02*
X10855000Y1381000D01*
G75*
G02*
X10925000Y1311000I0J-70000D01*
G01*
X10925000Y821000D01*
G75*
G02*
X10855000Y751000I-70000J0D01*
G01*
X10715000Y751000D01*
G75*
G02*
X10645000Y821000I0J70000D01*
G01*
X10645000Y1311000D01*
G75*
G02*
X10715000Y1381000I70000J0D01*
G01*
G37*
G36*
G01*
X10285000Y1381000D02*
X10425000Y1381000D01*
G75*
G02*
X10495000Y1311000I0J-70000D01*
G01*
X10495000Y821000D01*
G75*
G02*
X10425000Y751000I-70000J0D01*
G01*
X10285000Y751000D01*
G75*
G02*
X10215000Y821000I0J70000D01*
G01*
X10215000Y1311000D01*
G75*
G02*
X10285000Y1381000I70000J0D01*
G01*
G37*
G36*
G01*
X9855000Y1373500D02*
X9995000Y1373500D01*
G75*
G02*
X10065000Y1303500I0J-70000D01*
G01*
X10065000Y828500D01*
G75*
G02*
X9995000Y758500I-70000J0D01*
G01*
X9855000Y758500D01*
G75*
G02*
X9785000Y828500I0J70000D01*
G01*
X9785000Y1303500D01*
G75*
G02*
X9855000Y1373500I70000J0D01*
G01*
G37*
G36*
G01*
X9645000Y1571000D02*
X9645000Y1711000D01*
G75*
G02*
X9715000Y1781000I70000J0D01*
G01*
X10205000Y1781000D01*
G75*
G02*
X10275000Y1711000I0J-70000D01*
G01*
X10275000Y1571000D01*
G75*
G02*
X10205000Y1501000I-70000J0D01*
G01*
X9715000Y1501000D01*
G75*
G02*
X9645000Y1571000I0J70000D01*
G01*
G37*
G36*
G01*
X9645000Y2001000D02*
X9645000Y2141000D01*
G75*
G02*
X9715000Y2211000I70000J0D01*
G01*
X10205000Y2211000D01*
G75*
G02*
X10275000Y2141000I0J-70000D01*
G01*
X10275000Y2001000D01*
G75*
G02*
X10205000Y1931000I-70000J0D01*
G01*
X9715000Y1931000D01*
G75*
G02*
X9645000Y2001000I0J70000D01*
G01*
G37*
G36*
G01*
X9645000Y2431000D02*
X9645000Y2571000D01*
G75*
G02*
X9715000Y2641000I70000J0D01*
G01*
X10205000Y2641000D01*
G75*
G02*
X10275000Y2571000I0J-70000D01*
G01*
X10275000Y2431000D01*
G75*
G02*
X10205000Y2361000I-70000J0D01*
G01*
X9715000Y2361000D01*
G75*
G02*
X9645000Y2431000I0J70000D01*
G01*
G37*
G36*
G01*
X9645000Y2861000D02*
X9645000Y3001000D01*
G75*
G02*
X9715000Y3071000I70000J0D01*
G01*
X10205000Y3071000D01*
G75*
G02*
X10275000Y3001000I0J-70000D01*
G01*
X10275000Y2861000D01*
G75*
G02*
X10205000Y2791000I-70000J0D01*
G01*
X9715000Y2791000D01*
G75*
G02*
X9645000Y2861000I0J70000D01*
G01*
G37*
G36*
G01*
X9855000Y3813500D02*
X9995000Y3813500D01*
G75*
G02*
X10065000Y3743500I0J-70000D01*
G01*
X10065000Y3268500D01*
G75*
G02*
X9995000Y3198500I-70000J0D01*
G01*
X9855000Y3198500D01*
G75*
G02*
X9785000Y3268500I0J70000D01*
G01*
X9785000Y3743500D01*
G75*
G02*
X9855000Y3813500I70000J0D01*
G01*
G37*
%TD*%
%TO.C,C1*%
G36*
G01*
X7385000Y17556995D02*
X7385000Y16987005D01*
G75*
G02*
X7134995Y16737000I-250005J0D01*
G01*
X6585005Y16737000D01*
G75*
G02*
X6335000Y16987005I0J250005D01*
G01*
X6335000Y17556995D01*
G75*
G02*
X6585005Y17807000I250005J0D01*
G01*
X7134995Y17807000D01*
G75*
G02*
X7385000Y17556995I0J-250005D01*
G01*
G37*
G36*
G01*
X8905000Y17556995D02*
X8905000Y16987005D01*
G75*
G02*
X8654995Y16737000I-250005J0D01*
G01*
X8105005Y16737000D01*
G75*
G02*
X7855000Y16987005I0J250005D01*
G01*
X7855000Y17556995D01*
G75*
G02*
X8105005Y17807000I250005J0D01*
G01*
X8654995Y17807000D01*
G75*
G02*
X8905000Y17556995I0J-250005D01*
G01*
G37*
%TD*%
%TO.C,C7*%
G36*
G01*
X12222995Y6331000D02*
X11653005Y6331000D01*
G75*
G02*
X11403000Y6581005I0J250005D01*
G01*
X11403000Y7130995D01*
G75*
G02*
X11653005Y7381000I250005J0D01*
G01*
X12222995Y7381000D01*
G75*
G02*
X12473000Y7130995I0J-250005D01*
G01*
X12473000Y6581005D01*
G75*
G02*
X12222995Y6331000I-250005J0D01*
G01*
G37*
G36*
G01*
X12222995Y4811000D02*
X11653005Y4811000D01*
G75*
G02*
X11403000Y5061005I0J250005D01*
G01*
X11403000Y5610995D01*
G75*
G02*
X11653005Y5861000I250005J0D01*
G01*
X12222995Y5861000D01*
G75*
G02*
X12473000Y5610995I0J-250005D01*
G01*
X12473000Y5061005D01*
G75*
G02*
X12222995Y4811000I-250005J0D01*
G01*
G37*
%TD*%
%TO.C,C8*%
G36*
G01*
X14127995Y6331000D02*
X13558005Y6331000D01*
G75*
G02*
X13308000Y6581005I0J250005D01*
G01*
X13308000Y7130995D01*
G75*
G02*
X13558005Y7381000I250005J0D01*
G01*
X14127995Y7381000D01*
G75*
G02*
X14378000Y7130995I0J-250005D01*
G01*
X14378000Y6581005D01*
G75*
G02*
X14127995Y6331000I-250005J0D01*
G01*
G37*
G36*
G01*
X14127995Y4811000D02*
X13558005Y4811000D01*
G75*
G02*
X13308000Y5061005I0J250005D01*
G01*
X13308000Y5610995D01*
G75*
G02*
X13558005Y5861000I250005J0D01*
G01*
X14127995Y5861000D01*
G75*
G02*
X14378000Y5610995I0J-250005D01*
G01*
X14378000Y5061005D01*
G75*
G02*
X14127995Y4811000I-250005J0D01*
G01*
G37*
%TD*%
%TO.C,C9*%
G36*
G01*
X10317995Y6331000D02*
X9748005Y6331000D01*
G75*
G02*
X9498000Y6581005I0J250005D01*
G01*
X9498000Y7130995D01*
G75*
G02*
X9748005Y7381000I250005J0D01*
G01*
X10317995Y7381000D01*
G75*
G02*
X10568000Y7130995I0J-250005D01*
G01*
X10568000Y6581005D01*
G75*
G02*
X10317995Y6331000I-250005J0D01*
G01*
G37*
G36*
G01*
X10317995Y4811000D02*
X9748005Y4811000D01*
G75*
G02*
X9498000Y5061005I0J250005D01*
G01*
X9498000Y5610995D01*
G75*
G02*
X9748005Y5861000I250005J0D01*
G01*
X10317995Y5861000D01*
G75*
G02*
X10568000Y5610995I0J-250005D01*
G01*
X10568000Y5061005D01*
G75*
G02*
X10317995Y4811000I-250005J0D01*
G01*
G37*
%TD*%
%TO.C,C10*%
G36*
G01*
X7589005Y6623000D02*
X8158995Y6623000D01*
G75*
G02*
X8409000Y6372995I0J-250005D01*
G01*
X8409000Y5823005D01*
G75*
G02*
X8158995Y5573000I-250005J0D01*
G01*
X7589005Y5573000D01*
G75*
G02*
X7339000Y5823005I0J250005D01*
G01*
X7339000Y6372995D01*
G75*
G02*
X7589005Y6623000I250005J0D01*
G01*
G37*
G36*
G01*
X7589005Y8143000D02*
X8158995Y8143000D01*
G75*
G02*
X8409000Y7892995I0J-250005D01*
G01*
X8409000Y7343005D01*
G75*
G02*
X8158995Y7093000I-250005J0D01*
G01*
X7589005Y7093000D01*
G75*
G02*
X7339000Y7343005I0J250005D01*
G01*
X7339000Y7892995D01*
G75*
G02*
X7589005Y8143000I250005J0D01*
G01*
G37*
%TD*%
%TO.C,C11*%
G36*
G01*
X11538000Y10383005D02*
X11538000Y10952995D01*
G75*
G02*
X11788005Y11203000I250005J0D01*
G01*
X12337995Y11203000D01*
G75*
G02*
X12588000Y10952995I0J-250005D01*
G01*
X12588000Y10383005D01*
G75*
G02*
X12337995Y10133000I-250005J0D01*
G01*
X11788005Y10133000D01*
G75*
G02*
X11538000Y10383005I0J250005D01*
G01*
G37*
G36*
G01*
X10018000Y10383005D02*
X10018000Y10952995D01*
G75*
G02*
X10268005Y11203000I250005J0D01*
G01*
X10817995Y11203000D01*
G75*
G02*
X11068000Y10952995I0J-250005D01*
G01*
X11068000Y10383005D01*
G75*
G02*
X10817995Y10133000I-250005J0D01*
G01*
X10268005Y10133000D01*
G75*
G02*
X10018000Y10383005I0J250005D01*
G01*
G37*
%TD*%
%TO.C,C12*%
G36*
G01*
X11538000Y8478005D02*
X11538000Y9047995D01*
G75*
G02*
X11788005Y9298000I250005J0D01*
G01*
X12337995Y9298000D01*
G75*
G02*
X12588000Y9047995I0J-250005D01*
G01*
X12588000Y8478005D01*
G75*
G02*
X12337995Y8228000I-250005J0D01*
G01*
X11788005Y8228000D01*
G75*
G02*
X11538000Y8478005I0J250005D01*
G01*
G37*
G36*
G01*
X10018000Y8478005D02*
X10018000Y9047995D01*
G75*
G02*
X10268005Y9298000I250005J0D01*
G01*
X10817995Y9298000D01*
G75*
G02*
X11068000Y9047995I0J-250005D01*
G01*
X11068000Y8478005D01*
G75*
G02*
X10817995Y8228000I-250005J0D01*
G01*
X10268005Y8228000D01*
G75*
G02*
X10018000Y8478005I0J250005D01*
G01*
G37*
%TD*%
%TO.C,C14*%
G36*
G01*
X11206995Y33128000D02*
X10637005Y33128000D01*
G75*
G02*
X10387000Y33378005I0J250005D01*
G01*
X10387000Y33927995D01*
G75*
G02*
X10637005Y34178000I250005J0D01*
G01*
X11206995Y34178000D01*
G75*
G02*
X11457000Y33927995I0J-250005D01*
G01*
X11457000Y33378005D01*
G75*
G02*
X11206995Y33128000I-250005J0D01*
G01*
G37*
G36*
G01*
X11206995Y31608000D02*
X10637005Y31608000D01*
G75*
G02*
X10387000Y31858005I0J250005D01*
G01*
X10387000Y32407995D01*
G75*
G02*
X10637005Y32658000I250005J0D01*
G01*
X11206995Y32658000D01*
G75*
G02*
X11457000Y32407995I0J-250005D01*
G01*
X11457000Y31858005D01*
G75*
G02*
X11206995Y31608000I-250005J0D01*
G01*
G37*
%TD*%
%TO.C,C3*%
G36*
G01*
X7855000Y18892005D02*
X7855000Y19461995D01*
G75*
G02*
X8105005Y19712000I250005J0D01*
G01*
X8654995Y19712000D01*
G75*
G02*
X8905000Y19461995I0J-250005D01*
G01*
X8905000Y18892005D01*
G75*
G02*
X8654995Y18642000I-250005J0D01*
G01*
X8105005Y18642000D01*
G75*
G02*
X7855000Y18892005I0J250005D01*
G01*
G37*
G36*
G01*
X6335000Y18892005D02*
X6335000Y19461995D01*
G75*
G02*
X6585005Y19712000I250005J0D01*
G01*
X7134995Y19712000D01*
G75*
G02*
X7385000Y19461995I0J-250005D01*
G01*
X7385000Y18892005D01*
G75*
G02*
X7134995Y18642000I-250005J0D01*
G01*
X6585005Y18642000D01*
G75*
G02*
X6335000Y18892005I0J250005D01*
G01*
G37*
%TD*%
%TO.C,R1*%
G36*
G01*
X5258000Y18547000D02*
X4648000Y18547000D01*
G75*
G02*
X4438000Y18757000I0J210000D01*
G01*
X4438000Y19177000D01*
G75*
G02*
X4648000Y19387000I210000J0D01*
G01*
X5258000Y19387000D01*
G75*
G02*
X5468000Y19177000I0J-210000D01*
G01*
X5468000Y18757000D01*
G75*
G02*
X5258000Y18547000I-210000J0D01*
G01*
G37*
G36*
G01*
X5258000Y20237000D02*
X4648000Y20237000D01*
G75*
G02*
X4438000Y20447000I0J210000D01*
G01*
X4438000Y20867000D01*
G75*
G02*
X4648000Y21077000I210000J0D01*
G01*
X5258000Y21077000D01*
G75*
G02*
X5468000Y20867000I0J-210000D01*
G01*
X5468000Y20447000D01*
G75*
G02*
X5258000Y20237000I-210000J0D01*
G01*
G37*
%TD*%
%TO.C,R2*%
G36*
G01*
X9982000Y19680000D02*
X10592000Y19680000D01*
G75*
G02*
X10802000Y19470000I0J-210000D01*
G01*
X10802000Y19050000D01*
G75*
G02*
X10592000Y18840000I-210000J0D01*
G01*
X9982000Y18840000D01*
G75*
G02*
X9772000Y19050000I0J210000D01*
G01*
X9772000Y19470000D01*
G75*
G02*
X9982000Y19680000I210000J0D01*
G01*
G37*
G36*
G01*
X9982000Y17990000D02*
X10592000Y17990000D01*
G75*
G02*
X10802000Y17780000I0J-210000D01*
G01*
X10802000Y17360000D01*
G75*
G02*
X10592000Y17150000I-210000J0D01*
G01*
X9982000Y17150000D01*
G75*
G02*
X9772000Y17360000I0J210000D01*
G01*
X9772000Y17780000D01*
G75*
G02*
X9982000Y17990000I210000J0D01*
G01*
G37*
%TD*%
%TO.C,R3*%
G36*
G01*
X11887000Y19680000D02*
X12497000Y19680000D01*
G75*
G02*
X12707000Y19470000I0J-210000D01*
G01*
X12707000Y19050000D01*
G75*
G02*
X12497000Y18840000I-210000J0D01*
G01*
X11887000Y18840000D01*
G75*
G02*
X11677000Y19050000I0J210000D01*
G01*
X11677000Y19470000D01*
G75*
G02*
X11887000Y19680000I210000J0D01*
G01*
G37*
G36*
G01*
X11887000Y17990000D02*
X12497000Y17990000D01*
G75*
G02*
X12707000Y17780000I0J-210000D01*
G01*
X12707000Y17360000D01*
G75*
G02*
X12497000Y17150000I-210000J0D01*
G01*
X11887000Y17150000D01*
G75*
G02*
X11677000Y17360000I0J210000D01*
G01*
X11677000Y17780000D01*
G75*
G02*
X11887000Y17990000I210000J0D01*
G01*
G37*
%TD*%
%TO.C,R4*%
G36*
G01*
X13792000Y19680000D02*
X14402000Y19680000D01*
G75*
G02*
X14612000Y19470000I0J-210000D01*
G01*
X14612000Y19050000D01*
G75*
G02*
X14402000Y18840000I-210000J0D01*
G01*
X13792000Y18840000D01*
G75*
G02*
X13582000Y19050000I0J210000D01*
G01*
X13582000Y19470000D01*
G75*
G02*
X13792000Y19680000I210000J0D01*
G01*
G37*
G36*
G01*
X13792000Y17990000D02*
X14402000Y17990000D01*
G75*
G02*
X14612000Y17780000I0J-210000D01*
G01*
X14612000Y17360000D01*
G75*
G02*
X14402000Y17150000I-210000J0D01*
G01*
X13792000Y17150000D01*
G75*
G02*
X13582000Y17360000I0J210000D01*
G01*
X13582000Y17780000D01*
G75*
G02*
X13792000Y17990000I210000J0D01*
G01*
G37*
%TD*%
%TO.C,R5*%
G36*
G01*
X14910000Y1021000D02*
X14300000Y1021000D01*
G75*
G02*
X14090000Y1231000I0J210000D01*
G01*
X14090000Y1651000D01*
G75*
G02*
X14300000Y1861000I210000J0D01*
G01*
X14910000Y1861000D01*
G75*
G02*
X15120000Y1651000I0J-210000D01*
G01*
X15120000Y1231000D01*
G75*
G02*
X14910000Y1021000I-210000J0D01*
G01*
G37*
G36*
G01*
X14910000Y2711000D02*
X14300000Y2711000D01*
G75*
G02*
X14090000Y2921000I0J210000D01*
G01*
X14090000Y3341000D01*
G75*
G02*
X14300000Y3551000I210000J0D01*
G01*
X14910000Y3551000D01*
G75*
G02*
X15120000Y3341000I0J-210000D01*
G01*
X15120000Y2921000D01*
G75*
G02*
X14910000Y2711000I-210000J0D01*
G01*
G37*
%TD*%
%TO.C,C2*%
G36*
G01*
X13111995Y33128000D02*
X12542005Y33128000D01*
G75*
G02*
X12292000Y33378005I0J250005D01*
G01*
X12292000Y33927995D01*
G75*
G02*
X12542005Y34178000I250005J0D01*
G01*
X13111995Y34178000D01*
G75*
G02*
X13362000Y33927995I0J-250005D01*
G01*
X13362000Y33378005D01*
G75*
G02*
X13111995Y33128000I-250005J0D01*
G01*
G37*
G36*
G01*
X13111995Y31608000D02*
X12542005Y31608000D01*
G75*
G02*
X12292000Y31858005I0J250005D01*
G01*
X12292000Y32407995D01*
G75*
G02*
X12542005Y32658000I250005J0D01*
G01*
X13111995Y32658000D01*
G75*
G02*
X13362000Y32407995I0J-250005D01*
G01*
X13362000Y31858005D01*
G75*
G02*
X13111995Y31608000I-250005J0D01*
G01*
G37*
%TD*%
%TO.C,C4*%
G36*
G01*
X5684005Y6623000D02*
X6253995Y6623000D01*
G75*
G02*
X6504000Y6372995I0J-250005D01*
G01*
X6504000Y5823005D01*
G75*
G02*
X6253995Y5573000I-250005J0D01*
G01*
X5684005Y5573000D01*
G75*
G02*
X5434000Y5823005I0J250005D01*
G01*
X5434000Y6372995D01*
G75*
G02*
X5684005Y6623000I250005J0D01*
G01*
G37*
G36*
G01*
X5684005Y8143000D02*
X6253995Y8143000D01*
G75*
G02*
X6504000Y7892995I0J-250005D01*
G01*
X6504000Y7343005D01*
G75*
G02*
X6253995Y7093000I-250005J0D01*
G01*
X5684005Y7093000D01*
G75*
G02*
X5434000Y7343005I0J250005D01*
G01*
X5434000Y7892995D01*
G75*
G02*
X5684005Y8143000I250005J0D01*
G01*
G37*
%TD*%
%TO.C,C5*%
G36*
G01*
X8666995Y14459000D02*
X8097005Y14459000D01*
G75*
G02*
X7847000Y14709005I0J250005D01*
G01*
X7847000Y15258995D01*
G75*
G02*
X8097005Y15509000I250005J0D01*
G01*
X8666995Y15509000D01*
G75*
G02*
X8917000Y15258995I0J-250005D01*
G01*
X8917000Y14709005D01*
G75*
G02*
X8666995Y14459000I-250005J0D01*
G01*
G37*
G36*
G01*
X8666995Y12939000D02*
X8097005Y12939000D01*
G75*
G02*
X7847000Y13189005I0J250005D01*
G01*
X7847000Y13738995D01*
G75*
G02*
X8097005Y13989000I250005J0D01*
G01*
X8666995Y13989000D01*
G75*
G02*
X8917000Y13738995I0J-250005D01*
G01*
X8917000Y13189005D01*
G75*
G02*
X8666995Y12939000I-250005J0D01*
G01*
G37*
%TD*%
%TO.C,C6*%
G36*
G01*
X14889995Y9760000D02*
X14320005Y9760000D01*
G75*
G02*
X14070000Y10010005I0J250005D01*
G01*
X14070000Y10559995D01*
G75*
G02*
X14320005Y10810000I250005J0D01*
G01*
X14889995Y10810000D01*
G75*
G02*
X15140000Y10559995I0J-250005D01*
G01*
X15140000Y10010005D01*
G75*
G02*
X14889995Y9760000I-250005J0D01*
G01*
G37*
G36*
G01*
X14889995Y8240000D02*
X14320005Y8240000D01*
G75*
G02*
X14070000Y8490005I0J250005D01*
G01*
X14070000Y9039995D01*
G75*
G02*
X14320005Y9290000I250005J0D01*
G01*
X14889995Y9290000D01*
G75*
G02*
X15140000Y9039995I0J-250005D01*
G01*
X15140000Y8490005D01*
G75*
G02*
X14889995Y8240000I-250005J0D01*
G01*
G37*
%TD*%
M02*
