M48
; DRILL file {KiCad (5.1.6)-1} date 11/16/21 12:50:15
; FORMAT={-:-/ absolute / inch / decimal}
; #@! TF.CreationDate,2021-11-16T12:50:15-05:00
; #@! TF.GenerationSoftware,Kicad,Pcbnew,(5.1.6)-1
; #@! TF.FileFunction,Plated,1,4,PTH
FMAT,2
INCH
T1C0.0120
T2C0.0394
T3C0.0400
%
G90
G05
T1
X0.19Y0.415
X0.235Y0.2
X0.245Y0.49
X0.263Y0.963
X0.27Y0.795
X0.271Y1.089
X0.28Y1.226
X0.282Y1.057
X0.2825Y0.415
X0.31Y0.2
X0.311Y0.903
X0.324Y0.04
X0.329Y1.222
X0.33Y0.72
X0.33Y0.63
X0.33Y0.485
X0.337Y0.925
X0.34Y0.42
X0.352Y0.215
X0.359Y1.123
X0.363Y0.949
X0.366Y0.042
X0.375Y0.165
X0.38Y0.6
X0.38Y0.52
X0.391Y1.223
X0.391Y0.897
X0.395Y0.635
X0.395Y0.49
X0.395Y0.305
X0.405Y0.79
X0.405Y0.723
X0.42Y0.655
X0.42Y0.465
X0.423Y1.122
X0.43Y0.09
X0.433Y0.242
X0.434Y0.175
X0.46Y0.655
X0.46Y0.465
X0.467Y1.265
X0.468Y1.325
X0.47Y0.305
X0.475Y0.09
X0.48Y1.026
X0.48Y0.79
X0.48Y0.723
X0.5Y0.655
X0.5Y0.465
X0.51Y0.42
X0.51Y0.345
X0.5325Y0.16
X0.534Y0.04
X0.54Y0.64
X0.54Y0.485
X0.545Y1.325
X0.545Y0.305
X0.555Y0.79
X0.556Y0.723
X0.575Y0.655
X0.575Y0.495
X0.575Y0.44
X0.605Y0.9625
X0.61Y0.655
X0.6125Y0.345
X0.615Y0.495
X0.615Y0.1225
X0.6275Y0.2875
X0.6325Y0.995
X0.645Y0.66
X0.68Y1.1125
X0.68Y0.66
X0.72Y0.66
X0.7525Y0.29
X0.755Y0.65
X0.76Y0.615
X0.76Y0.575
X0.76Y0.535
X0.76Y0.495
X0.77Y0.9
X0.819Y0.9
X0.855Y0.612
X0.928Y0.612
X1.26Y0.6075
X1.26Y0.055
X1.266Y0.371
X1.32Y0.6525
T2
X0.6Y0.56
T3
X0.6224Y1.2992
X0.7224Y1.2992
X0.8224Y1.2992
X0.9224Y1.2992
X1.0224Y1.2992
X1.1224Y1.2992
X1.2224Y1.2992
X1.3224Y1.2992
X0.0787Y0.665
X0.0787Y0.565
X0.0787Y0.465
X0.0787Y0.365
X0.0787Y0.265
X0.0787Y0.165
X0.0787Y0.065
T0
M30
