%TF.GenerationSoftware,KiCad,Pcbnew,(5.1.6)-1*%
%TF.CreationDate,2021-11-16T12:50:12-05:00*%
%TF.ProjectId,AmbaSat-1_Satellite,416d6261-5361-4742-9d31-5f536174656c,KiCad_1.0*%
%TF.SameCoordinates,PX7ceeb0cPY74d41b0*%
%TF.FileFunction,Legend,Bot*%
%TF.FilePolarity,Positive*%
%FSLAX46Y46*%
G04 Gerber Fmt 4.6, Leading zero omitted, Abs format (unit mm)*
G04 Created by KiCad (PCBNEW (5.1.6)-1) date 2021-11-16 12:50:12*
%MOMM*%
%LPD*%
G01*
G04 APERTURE LIST*
%ADD10C,0.146304*%
%ADD11C,0.125000*%
G04 APERTURE END LIST*
D10*
X16122468Y15497387D02*
X15754773Y15497387D01*
X16196007Y15276770D02*
X15938620Y16048930D01*
X15681234Y15276770D01*
X15423847Y15276770D02*
X15423847Y16048930D01*
X14982613Y15276770D01*
X14982613Y16048930D01*
X14725226Y16048930D02*
X14283992Y16048930D01*
X14504609Y15276770D02*
X14504609Y16048930D01*
X1687769Y18944530D02*
X2055464Y18687143D01*
X1687769Y18503296D02*
X2459929Y18503296D01*
X2459929Y18797452D01*
X2423160Y18870991D01*
X2386390Y18907760D01*
X2312851Y18944530D01*
X2202542Y18944530D01*
X2129003Y18907760D01*
X2092234Y18870991D01*
X2055464Y18797452D01*
X2055464Y18503296D01*
X2092234Y19275456D02*
X2092234Y19532842D01*
X1687769Y19643151D02*
X1687769Y19275456D01*
X2459929Y19275456D01*
X2459929Y19643151D01*
X1724539Y19937307D02*
X1687769Y20047616D01*
X1687769Y20231463D01*
X1724539Y20305002D01*
X1761308Y20341772D01*
X1834847Y20378541D01*
X1908386Y20378541D01*
X1981925Y20341772D01*
X2018695Y20305002D01*
X2055464Y20231463D01*
X2092234Y20084385D01*
X2129003Y20010846D01*
X2165773Y19974077D01*
X2239312Y19937307D01*
X2312851Y19937307D01*
X2386390Y19974077D01*
X2423160Y20010846D01*
X2459929Y20084385D01*
X2459929Y20268233D01*
X2423160Y20378541D01*
X2092234Y20709467D02*
X2092234Y20966854D01*
X1687769Y21077162D02*
X1687769Y20709467D01*
X2459929Y20709467D01*
X2459929Y21077162D01*
X2459929Y21297780D02*
X2459929Y21739014D01*
X1687769Y21518397D02*
X2459929Y21518397D01*
X4771329Y5885301D02*
X3999169Y6142688D01*
X4771329Y6400075D01*
X3999169Y6657461D02*
X4771329Y6657461D01*
X3999169Y7025157D02*
X4771329Y7025157D01*
X3999169Y7466391D01*
X4771329Y7466391D01*
X4695129Y11197288D02*
X4695129Y11638522D01*
X3922969Y11417905D02*
X4695129Y11417905D01*
X4695129Y11822370D02*
X3922969Y12337143D01*
X4695129Y12337143D02*
X3922969Y11822370D01*
X4035939Y3577288D02*
X3999169Y3687597D01*
X3999169Y3871444D01*
X4035939Y3944983D01*
X4072708Y3981753D01*
X4146247Y4018522D01*
X4219786Y4018522D01*
X4293325Y3981753D01*
X4330095Y3944983D01*
X4366864Y3871444D01*
X4403634Y3724366D01*
X4440403Y3650827D01*
X4477173Y3614058D01*
X4550712Y3577288D01*
X4624251Y3577288D01*
X4697790Y3614058D01*
X4734560Y3650827D01*
X4771329Y3724366D01*
X4771329Y3908214D01*
X4734560Y4018522D01*
X4035939Y4312679D02*
X3999169Y4422987D01*
X3999169Y4606835D01*
X4035939Y4680374D01*
X4072708Y4717143D01*
X4146247Y4753913D01*
X4219786Y4753913D01*
X4293325Y4717143D01*
X4330095Y4680374D01*
X4366864Y4606835D01*
X4403634Y4459757D01*
X4440403Y4386218D01*
X4477173Y4349448D01*
X4550712Y4312679D01*
X4624251Y4312679D01*
X4697790Y4349448D01*
X4734560Y4386218D01*
X4771329Y4459757D01*
X4771329Y4643604D01*
X4734560Y4753913D01*
X4836160Y1037288D02*
X4872929Y963749D01*
X4872929Y853440D01*
X4836160Y743132D01*
X4762620Y669593D01*
X4689081Y632823D01*
X4542003Y596054D01*
X4431695Y596054D01*
X4284617Y632823D01*
X4211078Y669593D01*
X4137539Y743132D01*
X4100769Y853440D01*
X4100769Y926980D01*
X4137539Y1037288D01*
X4174308Y1074058D01*
X4431695Y1074058D01*
X4431695Y926980D01*
X4100769Y1404983D02*
X4872929Y1404983D01*
X4100769Y1846218D01*
X4872929Y1846218D01*
X4100769Y2213913D02*
X4872929Y2213913D01*
X4872929Y2397760D01*
X4836160Y2508069D01*
X4762620Y2581608D01*
X4689081Y2618378D01*
X4542003Y2655147D01*
X4431695Y2655147D01*
X4284617Y2618378D01*
X4211078Y2581608D01*
X4137539Y2508069D01*
X4100769Y2397760D01*
X4100769Y2213913D01*
X3973769Y9040707D02*
X4341464Y8783320D01*
X3973769Y8599473D02*
X4745929Y8599473D01*
X4745929Y8893629D01*
X4709160Y8967168D01*
X4672390Y9003938D01*
X4598851Y9040707D01*
X4488542Y9040707D01*
X4415003Y9003938D01*
X4378234Y8967168D01*
X4341464Y8893629D01*
X4341464Y8599473D01*
X4745929Y9298094D02*
X3973769Y9812867D01*
X4745929Y9812867D02*
X3973769Y9298094D01*
X3897569Y13443132D02*
X4669729Y13443132D01*
X4669729Y13626980D01*
X4632960Y13737288D01*
X4559420Y13810827D01*
X4485881Y13847597D01*
X4338803Y13884366D01*
X4228495Y13884366D01*
X4081417Y13847597D01*
X4007878Y13810827D01*
X3934339Y13737288D01*
X3897569Y13626980D01*
X3897569Y13443132D01*
X4669729Y14104983D02*
X4669729Y14546218D01*
X3897569Y14325600D02*
X4669729Y14325600D01*
X3897569Y15244839D02*
X4265264Y14987452D01*
X3897569Y14803604D02*
X4669729Y14803604D01*
X4669729Y15097760D01*
X4632960Y15171300D01*
X4596190Y15208069D01*
X4522651Y15244839D01*
X4412342Y15244839D01*
X4338803Y15208069D01*
X4302034Y15171300D01*
X4265264Y15097760D01*
X4265264Y14803604D01*
X15303379Y28887271D02*
X15266609Y28997579D01*
X15266609Y29181427D01*
X15303379Y29254966D01*
X15340148Y29291735D01*
X15413687Y29328505D01*
X15487226Y29328505D01*
X15560765Y29291735D01*
X15597535Y29254966D01*
X15634304Y29181427D01*
X15671074Y29034349D01*
X15707843Y28960810D01*
X15744613Y28924040D01*
X15818152Y28887271D01*
X15891691Y28887271D01*
X15965230Y28924040D01*
X16002000Y28960810D01*
X16038769Y29034349D01*
X16038769Y29218196D01*
X16002000Y29328505D01*
X15340148Y30100665D02*
X15303379Y30063895D01*
X15266609Y29953587D01*
X15266609Y29880048D01*
X15303379Y29769739D01*
X15376918Y29696200D01*
X15450457Y29659431D01*
X15597535Y29622661D01*
X15707843Y29622661D01*
X15854921Y29659431D01*
X15928460Y29696200D01*
X16002000Y29769739D01*
X16038769Y29880048D01*
X16038769Y29953587D01*
X16002000Y30063895D01*
X15965230Y30100665D01*
X15266609Y30431591D02*
X16038769Y30431591D01*
X15266609Y30872825D02*
X15707843Y30541899D01*
X16038769Y30872825D02*
X15597535Y30431591D01*
X17806609Y28409267D02*
X18578769Y28409267D01*
X18027226Y28666653D01*
X18578769Y28924040D01*
X17806609Y28924040D01*
X17806609Y29291735D02*
X18578769Y29291735D01*
X17843379Y29622661D02*
X17806609Y29732970D01*
X17806609Y29916817D01*
X17843379Y29990356D01*
X17880148Y30027126D01*
X17953687Y30063895D01*
X18027226Y30063895D01*
X18100765Y30027126D01*
X18137535Y29990356D01*
X18174304Y29916817D01*
X18211074Y29769739D01*
X18247843Y29696200D01*
X18284613Y29659431D01*
X18358152Y29622661D01*
X18431691Y29622661D01*
X18505230Y29659431D01*
X18542000Y29696200D01*
X18578769Y29769739D01*
X18578769Y29953587D01*
X18542000Y30063895D01*
X18578769Y30541899D02*
X18578769Y30688977D01*
X18542000Y30762516D01*
X18468460Y30836055D01*
X18321382Y30872825D01*
X18063996Y30872825D01*
X17916918Y30836055D01*
X17843379Y30762516D01*
X17806609Y30688977D01*
X17806609Y30541899D01*
X17843379Y30468360D01*
X17916918Y30394821D01*
X18063996Y30358051D01*
X18321382Y30358051D01*
X18468460Y30394821D01*
X18542000Y30468360D01*
X18578769Y30541899D01*
X20473609Y28409267D02*
X21245769Y28409267D01*
X20694226Y28666653D01*
X21245769Y28924040D01*
X20473609Y28924040D01*
X21245769Y29438813D02*
X21245769Y29585891D01*
X21209000Y29659431D01*
X21135460Y29732970D01*
X20988382Y29769739D01*
X20730996Y29769739D01*
X20583918Y29732970D01*
X20510379Y29659431D01*
X20473609Y29585891D01*
X20473609Y29438813D01*
X20510379Y29365274D01*
X20583918Y29291735D01*
X20730996Y29254966D01*
X20988382Y29254966D01*
X21135460Y29291735D01*
X21209000Y29365274D01*
X21245769Y29438813D01*
X20510379Y30063895D02*
X20473609Y30174204D01*
X20473609Y30358051D01*
X20510379Y30431591D01*
X20547148Y30468360D01*
X20620687Y30505130D01*
X20694226Y30505130D01*
X20767765Y30468360D01*
X20804535Y30431591D01*
X20841304Y30358051D01*
X20878074Y30210973D01*
X20914843Y30137434D01*
X20951613Y30100665D01*
X21025152Y30063895D01*
X21098691Y30063895D01*
X21172230Y30100665D01*
X21209000Y30137434D01*
X21245769Y30210973D01*
X21245769Y30394821D01*
X21209000Y30505130D01*
X20473609Y30836055D02*
X21245769Y30836055D01*
X25600539Y28870579D02*
X25563769Y28980888D01*
X25563769Y29164735D01*
X25600539Y29238274D01*
X25637308Y29275044D01*
X25710847Y29311813D01*
X25784386Y29311813D01*
X25857925Y29275044D01*
X25894695Y29238274D01*
X25931464Y29164735D01*
X25968234Y29017657D01*
X26005003Y28944118D01*
X26041773Y28907349D01*
X26115312Y28870579D01*
X26188851Y28870579D01*
X26262390Y28907349D01*
X26299160Y28944118D01*
X26335929Y29017657D01*
X26335929Y29201505D01*
X26299160Y29311813D01*
X25563769Y29642739D02*
X26335929Y29642739D01*
X26335929Y29826587D01*
X26299160Y29936895D01*
X26225620Y30010434D01*
X26152081Y30047204D01*
X26005003Y30083973D01*
X25894695Y30083973D01*
X25747617Y30047204D01*
X25674078Y30010434D01*
X25600539Y29936895D01*
X25563769Y29826587D01*
X25563769Y29642739D01*
X25784386Y30378130D02*
X25784386Y30745825D01*
X25563769Y30304591D02*
X26335929Y30561977D01*
X25563769Y30819364D01*
X33955929Y28502884D02*
X33955929Y28980888D01*
X33661773Y28723501D01*
X33661773Y28833810D01*
X33625003Y28907349D01*
X33588234Y28944118D01*
X33514695Y28980888D01*
X33330847Y28980888D01*
X33257308Y28944118D01*
X33220539Y28907349D01*
X33183769Y28833810D01*
X33183769Y28613192D01*
X33220539Y28539653D01*
X33257308Y28502884D01*
X33257308Y29311813D02*
X33220539Y29348583D01*
X33183769Y29311813D01*
X33220539Y29275044D01*
X33257308Y29311813D01*
X33183769Y29311813D01*
X33955929Y29605970D02*
X33955929Y30083973D01*
X33661773Y29826587D01*
X33661773Y29936895D01*
X33625003Y30010434D01*
X33588234Y30047204D01*
X33514695Y30083973D01*
X33330847Y30083973D01*
X33257308Y30047204D01*
X33220539Y30010434D01*
X33183769Y29936895D01*
X33183769Y29716278D01*
X33220539Y29642739D01*
X33257308Y29605970D01*
X33955929Y30304591D02*
X33183769Y30561977D01*
X33955929Y30819364D01*
X28267539Y28907349D02*
X28230769Y29017657D01*
X28230769Y29201505D01*
X28267539Y29275044D01*
X28304308Y29311813D01*
X28377847Y29348583D01*
X28451386Y29348583D01*
X28524925Y29311813D01*
X28561695Y29275044D01*
X28598464Y29201505D01*
X28635234Y29054427D01*
X28672003Y28980888D01*
X28708773Y28944118D01*
X28782312Y28907349D01*
X28855851Y28907349D01*
X28929390Y28944118D01*
X28966160Y28980888D01*
X29002929Y29054427D01*
X29002929Y29238274D01*
X28966160Y29348583D01*
X28304308Y30120743D02*
X28267539Y30083973D01*
X28230769Y29973665D01*
X28230769Y29900126D01*
X28267539Y29789817D01*
X28341078Y29716278D01*
X28414617Y29679509D01*
X28561695Y29642739D01*
X28672003Y29642739D01*
X28819081Y29679509D01*
X28892620Y29716278D01*
X28966160Y29789817D01*
X29002929Y29900126D01*
X29002929Y29973665D01*
X28966160Y30083973D01*
X28929390Y30120743D01*
X28230769Y30819364D02*
X28230769Y30451669D01*
X29002929Y30451669D01*
X31379160Y29127966D02*
X31415929Y29054427D01*
X31415929Y28944118D01*
X31379160Y28833810D01*
X31305620Y28760271D01*
X31232081Y28723501D01*
X31085003Y28686731D01*
X30974695Y28686731D01*
X30827617Y28723501D01*
X30754078Y28760271D01*
X30680539Y28833810D01*
X30643769Y28944118D01*
X30643769Y29017657D01*
X30680539Y29127966D01*
X30717308Y29164735D01*
X30974695Y29164735D01*
X30974695Y29017657D01*
X30643769Y29495661D02*
X31415929Y29495661D01*
X30643769Y29936895D01*
X31415929Y29936895D01*
X30643769Y30304591D02*
X31415929Y30304591D01*
X31415929Y30488438D01*
X31379160Y30598747D01*
X31305620Y30672286D01*
X31232081Y30709055D01*
X31085003Y30745825D01*
X30974695Y30745825D01*
X30827617Y30709055D01*
X30754078Y30672286D01*
X30680539Y30598747D01*
X30643769Y30488438D01*
X30643769Y30304591D01*
X23023769Y29569200D02*
X23795929Y29569200D01*
X23795929Y29753048D01*
X23759160Y29863356D01*
X23685620Y29936895D01*
X23612081Y29973665D01*
X23465003Y30010434D01*
X23354695Y30010434D01*
X23207617Y29973665D01*
X23134078Y29936895D01*
X23060539Y29863356D01*
X23023769Y29753048D01*
X23023769Y29569200D01*
X23795929Y30267821D02*
X23795929Y30745825D01*
X23501773Y30488438D01*
X23501773Y30598747D01*
X23465003Y30672286D01*
X23428234Y30709055D01*
X23354695Y30745825D01*
X23170847Y30745825D01*
X23097308Y30709055D01*
X23060539Y30672286D01*
X23023769Y30598747D01*
X23023769Y30378130D01*
X23060539Y30304591D01*
X23097308Y30267821D01*
D11*
X30429905Y26352500D02*
G75*
G03*
X30429905Y26352500I-457905J0D01*
G01*
X27464880Y26493512D02*
X27488690Y26422084D01*
X27488690Y26303036D01*
X27464880Y26255417D01*
X27441071Y26231608D01*
X27393452Y26207798D01*
X27345833Y26207798D01*
X27298214Y26231608D01*
X27274404Y26255417D01*
X27250595Y26303036D01*
X27226785Y26398274D01*
X27202976Y26445893D01*
X27179166Y26469703D01*
X27131547Y26493512D01*
X27083928Y26493512D01*
X27036309Y26469703D01*
X27012500Y26445893D01*
X26988690Y26398274D01*
X26988690Y26279227D01*
X27012500Y26207798D01*
X27488690Y25922084D02*
X27464880Y25969703D01*
X27441071Y25993512D01*
X27393452Y26017322D01*
X27250595Y26017322D01*
X27202976Y25993512D01*
X27179166Y25969703D01*
X27155357Y25922084D01*
X27155357Y25850655D01*
X27179166Y25803036D01*
X27202976Y25779227D01*
X27250595Y25755417D01*
X27393452Y25755417D01*
X27441071Y25779227D01*
X27464880Y25803036D01*
X27488690Y25850655D01*
X27488690Y25922084D01*
X27155357Y25326846D02*
X27488690Y25326846D01*
X27155357Y25541131D02*
X27417261Y25541131D01*
X27464880Y25517322D01*
X27488690Y25469703D01*
X27488690Y25398274D01*
X27464880Y25350655D01*
X27441071Y25326846D01*
X27488690Y25088750D02*
X27155357Y25088750D01*
X27250595Y25088750D02*
X27202976Y25064941D01*
X27179166Y25041131D01*
X27155357Y24993512D01*
X27155357Y24945893D01*
X27464880Y24564941D02*
X27488690Y24612560D01*
X27488690Y24707798D01*
X27464880Y24755417D01*
X27441071Y24779227D01*
X27393452Y24803036D01*
X27250595Y24803036D01*
X27202976Y24779227D01*
X27179166Y24755417D01*
X27155357Y24707798D01*
X27155357Y24612560D01*
X27179166Y24564941D01*
X27464880Y24160179D02*
X27488690Y24207798D01*
X27488690Y24303036D01*
X27464880Y24350655D01*
X27417261Y24374465D01*
X27226785Y24374465D01*
X27179166Y24350655D01*
X27155357Y24303036D01*
X27155357Y24207798D01*
X27179166Y24160179D01*
X27226785Y24136370D01*
X27274404Y24136370D01*
X27322023Y24374465D01*
X27441071Y23922084D02*
X27464880Y23898274D01*
X27488690Y23922084D01*
X27464880Y23945893D01*
X27441071Y23922084D01*
X27488690Y23922084D01*
X27179166Y23922084D02*
X27202976Y23898274D01*
X27226785Y23922084D01*
X27202976Y23945893D01*
X27179166Y23922084D01*
X27226785Y23922084D01*
X28363690Y26469703D02*
X27863690Y26469703D01*
X28363690Y26255417D02*
X28101785Y26255417D01*
X28054166Y26279227D01*
X28030357Y26326846D01*
X28030357Y26398274D01*
X28054166Y26445893D01*
X28077976Y26469703D01*
X28030357Y26088750D02*
X28030357Y25898274D01*
X27863690Y26017322D02*
X28292261Y26017322D01*
X28339880Y25993512D01*
X28363690Y25945893D01*
X28363690Y25898274D01*
X28030357Y25803036D02*
X28030357Y25612560D01*
X27863690Y25731608D02*
X28292261Y25731608D01*
X28339880Y25707798D01*
X28363690Y25660179D01*
X28363690Y25612560D01*
X28030357Y25445893D02*
X28530357Y25445893D01*
X28054166Y25445893D02*
X28030357Y25398274D01*
X28030357Y25303036D01*
X28054166Y25255417D01*
X28077976Y25231608D01*
X28125595Y25207798D01*
X28268452Y25207798D01*
X28316071Y25231608D01*
X28339880Y25255417D01*
X28363690Y25303036D01*
X28363690Y25398274D01*
X28339880Y25445893D01*
X28339880Y25017322D02*
X28363690Y24969703D01*
X28363690Y24874465D01*
X28339880Y24826846D01*
X28292261Y24803036D01*
X28268452Y24803036D01*
X28220833Y24826846D01*
X28197023Y24874465D01*
X28197023Y24945893D01*
X28173214Y24993512D01*
X28125595Y25017322D01*
X28101785Y25017322D01*
X28054166Y24993512D01*
X28030357Y24945893D01*
X28030357Y24874465D01*
X28054166Y24826846D01*
X28316071Y24588750D02*
X28339880Y24564941D01*
X28363690Y24588750D01*
X28339880Y24612560D01*
X28316071Y24588750D01*
X28363690Y24588750D01*
X28054166Y24588750D02*
X28077976Y24564941D01*
X28101785Y24588750D01*
X28077976Y24612560D01*
X28054166Y24588750D01*
X28101785Y24588750D01*
X27839880Y23993512D02*
X28482738Y24422084D01*
X27839880Y23469703D02*
X28482738Y23898274D01*
X28030357Y23088750D02*
X28435119Y23088750D01*
X28482738Y23112560D01*
X28506547Y23136370D01*
X28530357Y23183989D01*
X28530357Y23255417D01*
X28506547Y23303036D01*
X28339880Y23088750D02*
X28363690Y23136370D01*
X28363690Y23231608D01*
X28339880Y23279227D01*
X28316071Y23303036D01*
X28268452Y23326846D01*
X28125595Y23326846D01*
X28077976Y23303036D01*
X28054166Y23279227D01*
X28030357Y23231608D01*
X28030357Y23136370D01*
X28054166Y23088750D01*
X28363690Y22850655D02*
X28030357Y22850655D01*
X27863690Y22850655D02*
X27887500Y22874465D01*
X27911309Y22850655D01*
X27887500Y22826846D01*
X27863690Y22850655D01*
X27911309Y22850655D01*
X28030357Y22683989D02*
X28030357Y22493512D01*
X27863690Y22612560D02*
X28292261Y22612560D01*
X28339880Y22588750D01*
X28363690Y22541131D01*
X28363690Y22493512D01*
X28363690Y22326846D02*
X27863690Y22326846D01*
X28363690Y22112560D02*
X28101785Y22112560D01*
X28054166Y22136370D01*
X28030357Y22183989D01*
X28030357Y22255417D01*
X28054166Y22303036D01*
X28077976Y22326846D01*
X28030357Y21660179D02*
X28363690Y21660179D01*
X28030357Y21874465D02*
X28292261Y21874465D01*
X28339880Y21850655D01*
X28363690Y21803036D01*
X28363690Y21731608D01*
X28339880Y21683989D01*
X28316071Y21660179D01*
X28363690Y21422084D02*
X27863690Y21422084D01*
X28054166Y21422084D02*
X28030357Y21374465D01*
X28030357Y21279227D01*
X28054166Y21231608D01*
X28077976Y21207798D01*
X28125595Y21183989D01*
X28268452Y21183989D01*
X28316071Y21207798D01*
X28339880Y21231608D01*
X28363690Y21279227D01*
X28363690Y21374465D01*
X28339880Y21422084D01*
X28316071Y20969703D02*
X28339880Y20945893D01*
X28363690Y20969703D01*
X28339880Y20993512D01*
X28316071Y20969703D01*
X28363690Y20969703D01*
X28339880Y20517322D02*
X28363690Y20564941D01*
X28363690Y20660179D01*
X28339880Y20707798D01*
X28316071Y20731608D01*
X28268452Y20755417D01*
X28125595Y20755417D01*
X28077976Y20731608D01*
X28054166Y20707798D01*
X28030357Y20660179D01*
X28030357Y20564941D01*
X28054166Y20517322D01*
X28363690Y20231608D02*
X28339880Y20279227D01*
X28316071Y20303036D01*
X28268452Y20326846D01*
X28125595Y20326846D01*
X28077976Y20303036D01*
X28054166Y20279227D01*
X28030357Y20231608D01*
X28030357Y20160179D01*
X28054166Y20112560D01*
X28077976Y20088750D01*
X28125595Y20064941D01*
X28268452Y20064941D01*
X28316071Y20088750D01*
X28339880Y20112560D01*
X28363690Y20160179D01*
X28363690Y20231608D01*
X28363690Y19850655D02*
X28030357Y19850655D01*
X28077976Y19850655D02*
X28054166Y19826846D01*
X28030357Y19779227D01*
X28030357Y19707798D01*
X28054166Y19660179D01*
X28101785Y19636370D01*
X28363690Y19636370D01*
X28101785Y19636370D02*
X28054166Y19612560D01*
X28030357Y19564941D01*
X28030357Y19493512D01*
X28054166Y19445893D01*
X28101785Y19422084D01*
X28363690Y19422084D01*
X27839880Y18826846D02*
X28482738Y19255417D01*
X28363690Y18660179D02*
X28030357Y18660179D01*
X28125595Y18660179D02*
X28077976Y18636370D01*
X28054166Y18612560D01*
X28030357Y18564941D01*
X28030357Y18517322D01*
X28363690Y18279227D02*
X28339880Y18326846D01*
X28316071Y18350655D01*
X28268452Y18374465D01*
X28125595Y18374465D01*
X28077976Y18350655D01*
X28054166Y18326846D01*
X28030357Y18279227D01*
X28030357Y18207798D01*
X28054166Y18160179D01*
X28077976Y18136370D01*
X28125595Y18112560D01*
X28268452Y18112560D01*
X28316071Y18136370D01*
X28339880Y18160179D01*
X28363690Y18207798D01*
X28363690Y18279227D01*
X28363690Y17898274D02*
X27863690Y17898274D01*
X28054166Y17898274D02*
X28030357Y17850655D01*
X28030357Y17755417D01*
X28054166Y17707798D01*
X28077976Y17683989D01*
X28125595Y17660179D01*
X28268452Y17660179D01*
X28316071Y17683989D01*
X28339880Y17707798D01*
X28363690Y17755417D01*
X28363690Y17850655D01*
X28339880Y17898274D01*
X28363690Y17374465D02*
X28339880Y17422084D01*
X28316071Y17445893D01*
X28268452Y17469703D01*
X28125595Y17469703D01*
X28077976Y17445893D01*
X28054166Y17422084D01*
X28030357Y17374465D01*
X28030357Y17303036D01*
X28054166Y17255417D01*
X28077976Y17231608D01*
X28125595Y17207798D01*
X28268452Y17207798D01*
X28316071Y17231608D01*
X28339880Y17255417D01*
X28363690Y17303036D01*
X28363690Y17374465D01*
X28030357Y16993512D02*
X28458928Y16993512D01*
X28506547Y17017322D01*
X28530357Y17064941D01*
X28530357Y17088750D01*
X27863690Y16993512D02*
X27887500Y17017322D01*
X27911309Y16993512D01*
X27887500Y16969703D01*
X27863690Y16993512D01*
X27911309Y16993512D01*
X28363690Y16541131D02*
X28101785Y16541131D01*
X28054166Y16564941D01*
X28030357Y16612560D01*
X28030357Y16707798D01*
X28054166Y16755417D01*
X28339880Y16541131D02*
X28363690Y16588750D01*
X28363690Y16707798D01*
X28339880Y16755417D01*
X28292261Y16779227D01*
X28244642Y16779227D01*
X28197023Y16755417D01*
X28173214Y16707798D01*
X28173214Y16588750D01*
X28149404Y16541131D01*
X28030357Y16350655D02*
X28363690Y16231608D01*
X28030357Y16112560D02*
X28363690Y16231608D01*
X28482738Y16279227D01*
X28506547Y16303036D01*
X28530357Y16350655D01*
X27839880Y15564941D02*
X28482738Y15993512D01*
X28220833Y15422084D02*
X28220833Y15183989D01*
X28363690Y15469703D02*
X27863690Y15303036D01*
X28363690Y15136370D01*
X28363690Y14969703D02*
X28030357Y14969703D01*
X28077976Y14969703D02*
X28054166Y14945893D01*
X28030357Y14898274D01*
X28030357Y14826846D01*
X28054166Y14779227D01*
X28101785Y14755417D01*
X28363690Y14755417D01*
X28101785Y14755417D02*
X28054166Y14731608D01*
X28030357Y14683989D01*
X28030357Y14612560D01*
X28054166Y14564941D01*
X28101785Y14541131D01*
X28363690Y14541131D01*
X28363690Y14303036D02*
X27863690Y14303036D01*
X28054166Y14303036D02*
X28030357Y14255417D01*
X28030357Y14160179D01*
X28054166Y14112560D01*
X28077976Y14088750D01*
X28125595Y14064941D01*
X28268452Y14064941D01*
X28316071Y14088750D01*
X28339880Y14112560D01*
X28363690Y14160179D01*
X28363690Y14255417D01*
X28339880Y14303036D01*
X28363690Y13636370D02*
X28101785Y13636370D01*
X28054166Y13660179D01*
X28030357Y13707798D01*
X28030357Y13803036D01*
X28054166Y13850655D01*
X28339880Y13636370D02*
X28363690Y13683989D01*
X28363690Y13803036D01*
X28339880Y13850655D01*
X28292261Y13874465D01*
X28244642Y13874465D01*
X28197023Y13850655D01*
X28173214Y13803036D01*
X28173214Y13683989D01*
X28149404Y13636370D01*
X28339880Y13422084D02*
X28363690Y13350655D01*
X28363690Y13231608D01*
X28339880Y13183989D01*
X28316071Y13160179D01*
X28268452Y13136370D01*
X28220833Y13136370D01*
X28173214Y13160179D01*
X28149404Y13183989D01*
X28125595Y13231608D01*
X28101785Y13326846D01*
X28077976Y13374465D01*
X28054166Y13398274D01*
X28006547Y13422084D01*
X27958928Y13422084D01*
X27911309Y13398274D01*
X27887500Y13374465D01*
X27863690Y13326846D01*
X27863690Y13207798D01*
X27887500Y13136370D01*
X28363690Y12707798D02*
X28101785Y12707798D01*
X28054166Y12731608D01*
X28030357Y12779227D01*
X28030357Y12874465D01*
X28054166Y12922084D01*
X28339880Y12707798D02*
X28363690Y12755417D01*
X28363690Y12874465D01*
X28339880Y12922084D01*
X28292261Y12945893D01*
X28244642Y12945893D01*
X28197023Y12922084D01*
X28173214Y12874465D01*
X28173214Y12755417D01*
X28149404Y12707798D01*
X28030357Y12541131D02*
X28030357Y12350655D01*
X27863690Y12469703D02*
X28292261Y12469703D01*
X28339880Y12445893D01*
X28363690Y12398274D01*
X28363690Y12350655D01*
X28173214Y12183989D02*
X28173214Y11803036D01*
X28363690Y11303036D02*
X28363690Y11588750D01*
X28363690Y11445893D02*
X27863690Y11445893D01*
X27935119Y11493512D01*
X27982738Y11541131D01*
X28006547Y11588750D01*
X27839880Y10731608D02*
X28482738Y11160179D01*
X28030357Y10636370D02*
X28030357Y10445893D01*
X27863690Y10564941D02*
X28292261Y10564941D01*
X28339880Y10541131D01*
X28363690Y10493512D01*
X28363690Y10445893D01*
X28363690Y10279227D02*
X28030357Y10279227D01*
X28125595Y10279227D02*
X28077976Y10255417D01*
X28054166Y10231608D01*
X28030357Y10183989D01*
X28030357Y10136370D01*
X28339880Y9779227D02*
X28363690Y9826846D01*
X28363690Y9922084D01*
X28339880Y9969703D01*
X28292261Y9993512D01*
X28101785Y9993512D01*
X28054166Y9969703D01*
X28030357Y9922084D01*
X28030357Y9826846D01*
X28054166Y9779227D01*
X28101785Y9755417D01*
X28149404Y9755417D01*
X28197023Y9993512D01*
X28339880Y9350655D02*
X28363690Y9398274D01*
X28363690Y9493512D01*
X28339880Y9541131D01*
X28292261Y9564941D01*
X28101785Y9564941D01*
X28054166Y9541131D01*
X28030357Y9493512D01*
X28030357Y9398274D01*
X28054166Y9350655D01*
X28101785Y9326846D01*
X28149404Y9326846D01*
X28197023Y9564941D01*
X27839880Y8755417D02*
X28482738Y9183989D01*
X28363690Y8588751D02*
X27863690Y8588751D01*
X28173214Y8541131D02*
X28363690Y8398274D01*
X28030357Y8398274D02*
X28220833Y8588751D01*
X28363690Y8183989D02*
X28030357Y8183989D01*
X27863690Y8183989D02*
X27887500Y8207798D01*
X27911309Y8183989D01*
X27887500Y8160179D01*
X27863690Y8183989D01*
X27911309Y8183989D01*
X28339880Y7731608D02*
X28363690Y7779227D01*
X28363690Y7874465D01*
X28339880Y7922084D01*
X28316071Y7945893D01*
X28268452Y7969703D01*
X28125595Y7969703D01*
X28077976Y7945893D01*
X28054166Y7922084D01*
X28030357Y7874465D01*
X28030357Y7779227D01*
X28054166Y7731608D01*
X28363690Y7303036D02*
X28101785Y7303036D01*
X28054166Y7326846D01*
X28030357Y7374465D01*
X28030357Y7469703D01*
X28054166Y7517322D01*
X28339880Y7303036D02*
X28363690Y7350655D01*
X28363690Y7469703D01*
X28339880Y7517322D01*
X28292261Y7541131D01*
X28244642Y7541131D01*
X28197023Y7517322D01*
X28173214Y7469703D01*
X28173214Y7350655D01*
X28149404Y7303036D01*
X28363690Y6850655D02*
X27863690Y6850655D01*
X28339880Y6850655D02*
X28363690Y6898274D01*
X28363690Y6993512D01*
X28339880Y7041131D01*
X28316071Y7064941D01*
X28268452Y7088751D01*
X28125595Y7088751D01*
X28077976Y7064941D01*
X28054166Y7041131D01*
X28030357Y6993512D01*
X28030357Y6898274D01*
X28054166Y6850655D01*
X28411309Y6731608D02*
X28411309Y6350655D01*
X28339880Y6017322D02*
X28363690Y6064941D01*
X28363690Y6160179D01*
X28339880Y6207798D01*
X28316071Y6231608D01*
X28268452Y6255417D01*
X28125595Y6255417D01*
X28077976Y6231608D01*
X28054166Y6207798D01*
X28030357Y6160179D01*
X28030357Y6064941D01*
X28054166Y6017322D01*
X28363690Y5731608D02*
X28339880Y5779227D01*
X28316071Y5803036D01*
X28268452Y5826846D01*
X28125595Y5826846D01*
X28077976Y5803036D01*
X28054166Y5779227D01*
X28030357Y5731608D01*
X28030357Y5660179D01*
X28054166Y5612560D01*
X28077976Y5588751D01*
X28125595Y5564941D01*
X28268452Y5564941D01*
X28316071Y5588751D01*
X28339880Y5612560D01*
X28363690Y5660179D01*
X28363690Y5731608D01*
X28030357Y5350655D02*
X28363690Y5350655D01*
X28077976Y5350655D02*
X28054166Y5326846D01*
X28030357Y5279227D01*
X28030357Y5207798D01*
X28054166Y5160179D01*
X28101785Y5136370D01*
X28363690Y5136370D01*
X28030357Y4945893D02*
X28363690Y4826846D01*
X28030357Y4707798D01*
X28339880Y4326846D02*
X28363690Y4374465D01*
X28363690Y4469703D01*
X28339880Y4517322D01*
X28292261Y4541131D01*
X28101785Y4541131D01*
X28054166Y4517322D01*
X28030357Y4469703D01*
X28030357Y4374465D01*
X28054166Y4326846D01*
X28101785Y4303036D01*
X28149404Y4303036D01*
X28197023Y4541131D01*
X28363690Y4088751D02*
X28030357Y4088751D01*
X28125595Y4088751D02*
X28077976Y4064941D01*
X28054166Y4041131D01*
X28030357Y3993512D01*
X28030357Y3945893D01*
X28339880Y3803036D02*
X28363690Y3755417D01*
X28363690Y3660179D01*
X28339880Y3612560D01*
X28292261Y3588751D01*
X28268452Y3588751D01*
X28220833Y3612560D01*
X28197023Y3660179D01*
X28197023Y3731608D01*
X28173214Y3779227D01*
X28125595Y3803036D01*
X28101785Y3803036D01*
X28054166Y3779227D01*
X28030357Y3731608D01*
X28030357Y3660179D01*
X28054166Y3612560D01*
X28363690Y3374465D02*
X28030357Y3374465D01*
X27863690Y3374465D02*
X27887500Y3398274D01*
X27911309Y3374465D01*
X27887500Y3350655D01*
X27863690Y3374465D01*
X27911309Y3374465D01*
X28363690Y3064941D02*
X28339880Y3112560D01*
X28316071Y3136370D01*
X28268452Y3160179D01*
X28125595Y3160179D01*
X28077976Y3136370D01*
X28054166Y3112560D01*
X28030357Y3064941D01*
X28030357Y2993512D01*
X28054166Y2945893D01*
X28077976Y2922084D01*
X28125595Y2898274D01*
X28268452Y2898274D01*
X28316071Y2922084D01*
X28339880Y2945893D01*
X28363690Y2993512D01*
X28363690Y3064941D01*
X28030357Y2683989D02*
X28363690Y2683989D01*
X28077976Y2683989D02*
X28054166Y2660179D01*
X28030357Y2612560D01*
X28030357Y2541131D01*
X28054166Y2493512D01*
X28101785Y2469703D01*
X28363690Y2469703D01*
X30089880Y26255417D02*
X30113690Y26303036D01*
X30113690Y26398274D01*
X30089880Y26445893D01*
X30066071Y26469703D01*
X30018452Y26493512D01*
X29875595Y26493512D01*
X29827976Y26469703D01*
X29804166Y26445893D01*
X29780357Y26398274D01*
X29780357Y26303036D01*
X29804166Y26255417D01*
X29661309Y25683989D02*
X29637500Y25660179D01*
X29613690Y25612560D01*
X29613690Y25493512D01*
X29637500Y25445893D01*
X29661309Y25422084D01*
X29708928Y25398274D01*
X29756547Y25398274D01*
X29827976Y25422084D01*
X30113690Y25707798D01*
X30113690Y25398274D01*
X29613690Y25088750D02*
X29613690Y25041131D01*
X29637500Y24993512D01*
X29661309Y24969703D01*
X29708928Y24945893D01*
X29804166Y24922084D01*
X29923214Y24922084D01*
X30018452Y24945893D01*
X30066071Y24969703D01*
X30089880Y24993512D01*
X30113690Y25041131D01*
X30113690Y25088750D01*
X30089880Y25136370D01*
X30066071Y25160179D01*
X30018452Y25183989D01*
X29923214Y25207798D01*
X29804166Y25207798D01*
X29708928Y25183989D01*
X29661309Y25160179D01*
X29637500Y25136370D01*
X29613690Y25088750D01*
X29661309Y24731608D02*
X29637500Y24707798D01*
X29613690Y24660179D01*
X29613690Y24541131D01*
X29637500Y24493512D01*
X29661309Y24469703D01*
X29708928Y24445893D01*
X29756547Y24445893D01*
X29827976Y24469703D01*
X30113690Y24755417D01*
X30113690Y24445893D01*
X30113690Y23969703D02*
X30113690Y24255417D01*
X30113690Y24112560D02*
X29613690Y24112560D01*
X29685119Y24160179D01*
X29732738Y24207798D01*
X29756547Y24255417D01*
X30113690Y22755417D02*
X30113690Y22993512D01*
X29613690Y22993512D01*
X30113690Y22588750D02*
X29780357Y22588750D01*
X29613690Y22588750D02*
X29637500Y22612560D01*
X29661309Y22588750D01*
X29637500Y22564941D01*
X29613690Y22588750D01*
X29661309Y22588750D01*
X30089880Y22136370D02*
X30113690Y22183989D01*
X30113690Y22279227D01*
X30089880Y22326846D01*
X30066071Y22350655D01*
X30018452Y22374465D01*
X29875595Y22374465D01*
X29827976Y22350655D01*
X29804166Y22326846D01*
X29780357Y22279227D01*
X29780357Y22183989D01*
X29804166Y22136370D01*
X30089880Y21731608D02*
X30113690Y21779227D01*
X30113690Y21874465D01*
X30089880Y21922084D01*
X30042261Y21945893D01*
X29851785Y21945893D01*
X29804166Y21922084D01*
X29780357Y21874465D01*
X29780357Y21779227D01*
X29804166Y21731608D01*
X29851785Y21707798D01*
X29899404Y21707798D01*
X29947023Y21945893D01*
X29780357Y21493512D02*
X30113690Y21493512D01*
X29827976Y21493512D02*
X29804166Y21469703D01*
X29780357Y21422084D01*
X29780357Y21350655D01*
X29804166Y21303036D01*
X29851785Y21279227D01*
X30113690Y21279227D01*
X30089880Y21064941D02*
X30113690Y21017322D01*
X30113690Y20922084D01*
X30089880Y20874465D01*
X30042261Y20850655D01*
X30018452Y20850655D01*
X29970833Y20874465D01*
X29947023Y20922084D01*
X29947023Y20993512D01*
X29923214Y21041131D01*
X29875595Y21064941D01*
X29851785Y21064941D01*
X29804166Y21041131D01*
X29780357Y20993512D01*
X29780357Y20922084D01*
X29804166Y20874465D01*
X30089880Y20445893D02*
X30113690Y20493512D01*
X30113690Y20588750D01*
X30089880Y20636370D01*
X30042261Y20660179D01*
X29851785Y20660179D01*
X29804166Y20636370D01*
X29780357Y20588750D01*
X29780357Y20493512D01*
X29804166Y20445893D01*
X29851785Y20422084D01*
X29899404Y20422084D01*
X29947023Y20660179D01*
X30113690Y19993512D02*
X29613690Y19993512D01*
X30089880Y19993512D02*
X30113690Y20041131D01*
X30113690Y20136370D01*
X30089880Y20183989D01*
X30066071Y20207798D01*
X30018452Y20231608D01*
X29875595Y20231608D01*
X29827976Y20207798D01*
X29804166Y20183989D01*
X29780357Y20136370D01*
X29780357Y20041131D01*
X29804166Y19993512D01*
X29780357Y19160179D02*
X30113690Y19160179D01*
X29780357Y19374465D02*
X30042261Y19374465D01*
X30089880Y19350655D01*
X30113690Y19303036D01*
X30113690Y19231608D01*
X30089880Y19183989D01*
X30066071Y19160179D01*
X29780357Y18922084D02*
X30113690Y18922084D01*
X29827976Y18922084D02*
X29804166Y18898274D01*
X29780357Y18850655D01*
X29780357Y18779227D01*
X29804166Y18731608D01*
X29851785Y18707798D01*
X30113690Y18707798D01*
X30113690Y18255417D02*
X29613690Y18255417D01*
X30089880Y18255417D02*
X30113690Y18303036D01*
X30113690Y18398274D01*
X30089880Y18445893D01*
X30066071Y18469703D01*
X30018452Y18493512D01*
X29875595Y18493512D01*
X29827976Y18469703D01*
X29804166Y18445893D01*
X29780357Y18398274D01*
X29780357Y18303036D01*
X29804166Y18255417D01*
X30089880Y17826846D02*
X30113690Y17874465D01*
X30113690Y17969703D01*
X30089880Y18017322D01*
X30042261Y18041131D01*
X29851785Y18041131D01*
X29804166Y18017322D01*
X29780357Y17969703D01*
X29780357Y17874465D01*
X29804166Y17826846D01*
X29851785Y17803036D01*
X29899404Y17803036D01*
X29947023Y18041131D01*
X30113690Y17588750D02*
X29780357Y17588750D01*
X29875595Y17588750D02*
X29827976Y17564941D01*
X29804166Y17541131D01*
X29780357Y17493512D01*
X29780357Y17445893D01*
X30066071Y16612560D02*
X30089880Y16636370D01*
X30113690Y16707798D01*
X30113690Y16755417D01*
X30089880Y16826846D01*
X30042261Y16874465D01*
X29994642Y16898274D01*
X29899404Y16922084D01*
X29827976Y16922084D01*
X29732738Y16898274D01*
X29685119Y16874465D01*
X29637500Y16826846D01*
X29613690Y16755417D01*
X29613690Y16707798D01*
X29637500Y16636370D01*
X29661309Y16612560D01*
X29851785Y16398274D02*
X29851785Y16231608D01*
X30113690Y16160179D02*
X30113690Y16398274D01*
X29613690Y16398274D01*
X29613690Y16160179D01*
X30113690Y15660179D02*
X29875595Y15826846D01*
X30113690Y15945893D02*
X29613690Y15945893D01*
X29613690Y15755417D01*
X29637500Y15707798D01*
X29661309Y15683989D01*
X29708928Y15660179D01*
X29780357Y15660179D01*
X29827976Y15683989D01*
X29851785Y15707798D01*
X29875595Y15755417D01*
X29875595Y15945893D01*
X30113690Y15445893D02*
X29613690Y15445893D01*
X30113690Y15160179D01*
X29613690Y15160179D01*
X29923214Y14922084D02*
X29923214Y14541131D01*
X29613690Y14207798D02*
X29613690Y14112560D01*
X29637500Y14064941D01*
X29685119Y14017322D01*
X29780357Y13993512D01*
X29947023Y13993512D01*
X30042261Y14017322D01*
X30089880Y14064941D01*
X30113690Y14112560D01*
X30113690Y14207798D01*
X30089880Y14255417D01*
X30042261Y14303036D01*
X29947023Y14326846D01*
X29780357Y14326846D01*
X29685119Y14303036D01*
X29637500Y14255417D01*
X29613690Y14207798D01*
X30113690Y13779227D02*
X29613690Y13779227D01*
X29851785Y13779227D02*
X29851785Y13493512D01*
X30113690Y13493512D02*
X29613690Y13493512D01*
X30113690Y13017322D02*
X30113690Y13255417D01*
X29613690Y13255417D01*
X29923214Y12850655D02*
X29923214Y12469703D01*
X30089880Y12255417D02*
X30113690Y12183989D01*
X30113690Y12064941D01*
X30089880Y12017322D01*
X30066071Y11993512D01*
X30018452Y11969703D01*
X29970833Y11969703D01*
X29923214Y11993512D01*
X29899404Y12017322D01*
X29875595Y12064941D01*
X29851785Y12160179D01*
X29827976Y12207798D01*
X29804166Y12231608D01*
X29756547Y12255417D01*
X29708928Y12255417D01*
X29661309Y12231608D01*
X29637500Y12207798D01*
X29613690Y12160179D01*
X29613690Y12041131D01*
X29637500Y11969703D01*
X29780357Y11422084D02*
X30113690Y11303036D01*
X29780357Y11183989D01*
X29661309Y11017322D02*
X29637500Y10993512D01*
X29613690Y10945893D01*
X29613690Y10826846D01*
X29637500Y10779227D01*
X29661309Y10755417D01*
X29708928Y10731608D01*
X29756547Y10731608D01*
X29827976Y10755417D01*
X30113690Y11041131D01*
X30113690Y10731608D01*
M02*
