%TF.GenerationSoftware,KiCad,Pcbnew,(5.1.6)-1*%
%TF.CreationDate,2021-11-16T12:50:12-05:00*%
%TF.ProjectId,AmbaSat-1_Satellite,416d6261-5361-4742-9d31-5f536174656c,KiCad_1.0*%
%TF.SameCoordinates,PX7ceeb0cPY74d41b0*%
%TF.FileFunction,Legend,Top*%
%TF.FilePolarity,Positive*%
%FSLAX46Y46*%
G04 Gerber Fmt 4.6, Leading zero omitted, Abs format (unit mm)*
G04 Created by KiCad (PCBNEW (5.1.6)-1) date 2021-11-16 12:50:12*
%MOMM*%
%LPD*%
G01*
G04 APERTURE LIST*
%ADD10C,0.146304*%
%ADD11C,0.368000*%
%ADD12C,0.192000*%
%ADD13C,0.127000*%
%ADD14C,0.150000*%
%ADD15C,0.100000*%
%ADD16C,0.203200*%
G04 APERTURE END LIST*
D10*
X14332131Y15497387D02*
X14699826Y15497387D01*
X14258592Y15276770D02*
X14515979Y16048930D01*
X14773365Y15276770D01*
X15030752Y15276770D02*
X15030752Y16048930D01*
X15471986Y15276770D01*
X15471986Y16048930D01*
X15729373Y16048930D02*
X16170607Y16048930D01*
X15949990Y15276770D02*
X15949990Y16048930D01*
X2427030Y18842930D02*
X2059335Y18585543D01*
X2427030Y18401696D02*
X1654870Y18401696D01*
X1654870Y18695852D01*
X1691640Y18769391D01*
X1728409Y18806160D01*
X1801948Y18842930D01*
X1912257Y18842930D01*
X1985796Y18806160D01*
X2022565Y18769391D01*
X2059335Y18695852D01*
X2059335Y18401696D01*
X2022565Y19173856D02*
X2022565Y19431242D01*
X2427030Y19541551D02*
X2427030Y19173856D01*
X1654870Y19173856D01*
X1654870Y19541551D01*
X2390260Y19835707D02*
X2427030Y19946016D01*
X2427030Y20129863D01*
X2390260Y20203402D01*
X2353491Y20240172D01*
X2279952Y20276941D01*
X2206413Y20276941D01*
X2132874Y20240172D01*
X2096104Y20203402D01*
X2059335Y20129863D01*
X2022565Y19982785D01*
X1985796Y19909246D01*
X1949026Y19872477D01*
X1875487Y19835707D01*
X1801948Y19835707D01*
X1728409Y19872477D01*
X1691640Y19909246D01*
X1654870Y19982785D01*
X1654870Y20166633D01*
X1691640Y20276941D01*
X2022565Y20607867D02*
X2022565Y20865254D01*
X2427030Y20975562D02*
X2427030Y20607867D01*
X1654870Y20607867D01*
X1654870Y20975562D01*
X1654870Y21196180D02*
X1654870Y21637414D01*
X2427030Y21416797D02*
X1654870Y21416797D01*
D11*
X16047790Y26421034D02*
X17088266Y26421034D01*
X15839695Y25796748D02*
X16568028Y27981748D01*
X17296361Y25796748D01*
X18024695Y25796748D02*
X18024695Y27253415D01*
X18024695Y27045320D02*
X18128742Y27149367D01*
X18336838Y27253415D01*
X18648980Y27253415D01*
X18857076Y27149367D01*
X18961123Y26941272D01*
X18961123Y25796748D01*
X18961123Y26941272D02*
X19065171Y27149367D01*
X19273266Y27253415D01*
X19585409Y27253415D01*
X19793504Y27149367D01*
X19897552Y26941272D01*
X19897552Y25796748D01*
X20938028Y25796748D02*
X20938028Y27981748D01*
X20938028Y27149367D02*
X21146123Y27253415D01*
X21562314Y27253415D01*
X21770409Y27149367D01*
X21874457Y27045320D01*
X21978504Y26837224D01*
X21978504Y26212939D01*
X21874457Y26004843D01*
X21770409Y25900796D01*
X21562314Y25796748D01*
X21146123Y25796748D01*
X20938028Y25900796D01*
X23851361Y25796748D02*
X23851361Y26941272D01*
X23747314Y27149367D01*
X23539219Y27253415D01*
X23123028Y27253415D01*
X22914933Y27149367D01*
X23851361Y25900796D02*
X23643266Y25796748D01*
X23123028Y25796748D01*
X22914933Y25900796D01*
X22810885Y26108891D01*
X22810885Y26316986D01*
X22914933Y26525081D01*
X23123028Y26629129D01*
X23643266Y26629129D01*
X23851361Y26733177D01*
X24787790Y25900796D02*
X25099933Y25796748D01*
X25620171Y25796748D01*
X25828266Y25900796D01*
X25932314Y26004843D01*
X26036361Y26212939D01*
X26036361Y26421034D01*
X25932314Y26629129D01*
X25828266Y26733177D01*
X25620171Y26837224D01*
X25203980Y26941272D01*
X24995885Y27045320D01*
X24891838Y27149367D01*
X24787790Y27357462D01*
X24787790Y27565558D01*
X24891838Y27773653D01*
X24995885Y27877700D01*
X25203980Y27981748D01*
X25724219Y27981748D01*
X26036361Y27877700D01*
X27909219Y25796748D02*
X27909219Y26941272D01*
X27805171Y27149367D01*
X27597076Y27253415D01*
X27180885Y27253415D01*
X26972790Y27149367D01*
X27909219Y25900796D02*
X27701123Y25796748D01*
X27180885Y25796748D01*
X26972790Y25900796D01*
X26868742Y26108891D01*
X26868742Y26316986D01*
X26972790Y26525081D01*
X27180885Y26629129D01*
X27701123Y26629129D01*
X27909219Y26733177D01*
X28637552Y27253415D02*
X29469933Y27253415D01*
X28949695Y27981748D02*
X28949695Y26108891D01*
X29053742Y25900796D01*
X29261838Y25796748D01*
X29469933Y25796748D01*
X30198266Y26629129D02*
X31863028Y26629129D01*
X34048028Y25796748D02*
X32799457Y25796748D01*
X33423742Y25796748D02*
X33423742Y27981748D01*
X33215647Y27669605D01*
X33007552Y27461510D01*
X32799457Y27357462D01*
X16047790Y22255296D02*
X16359933Y22151248D01*
X16880171Y22151248D01*
X17088266Y22255296D01*
X17192314Y22359343D01*
X17296361Y22567439D01*
X17296361Y22775534D01*
X17192314Y22983629D01*
X17088266Y23087677D01*
X16880171Y23191724D01*
X16463980Y23295772D01*
X16255885Y23399820D01*
X16151838Y23503867D01*
X16047790Y23711962D01*
X16047790Y23920058D01*
X16151838Y24128153D01*
X16255885Y24232200D01*
X16463980Y24336248D01*
X16984219Y24336248D01*
X17296361Y24232200D01*
X19169219Y22151248D02*
X19169219Y23295772D01*
X19065171Y23503867D01*
X18857076Y23607915D01*
X18440885Y23607915D01*
X18232790Y23503867D01*
X19169219Y22255296D02*
X18961123Y22151248D01*
X18440885Y22151248D01*
X18232790Y22255296D01*
X18128742Y22463391D01*
X18128742Y22671486D01*
X18232790Y22879581D01*
X18440885Y22983629D01*
X18961123Y22983629D01*
X19169219Y23087677D01*
X19897552Y23607915D02*
X20729933Y23607915D01*
X20209695Y24336248D02*
X20209695Y22463391D01*
X20313742Y22255296D01*
X20521838Y22151248D01*
X20729933Y22151248D01*
X22290647Y22255296D02*
X22082552Y22151248D01*
X21666361Y22151248D01*
X21458266Y22255296D01*
X21354219Y22463391D01*
X21354219Y23295772D01*
X21458266Y23503867D01*
X21666361Y23607915D01*
X22082552Y23607915D01*
X22290647Y23503867D01*
X22394695Y23295772D01*
X22394695Y23087677D01*
X21354219Y22879581D01*
X23643266Y22151248D02*
X23435171Y22255296D01*
X23331123Y22463391D01*
X23331123Y24336248D01*
X24787790Y22151248D02*
X24579695Y22255296D01*
X24475647Y22463391D01*
X24475647Y24336248D01*
X25620171Y22151248D02*
X25620171Y23607915D01*
X25620171Y24336248D02*
X25516123Y24232200D01*
X25620171Y24128153D01*
X25724219Y24232200D01*
X25620171Y24336248D01*
X25620171Y24128153D01*
X26348504Y23607915D02*
X27180885Y23607915D01*
X26660647Y24336248D02*
X26660647Y22463391D01*
X26764695Y22255296D01*
X26972790Y22151248D01*
X27180885Y22151248D01*
X28741600Y22255296D02*
X28533504Y22151248D01*
X28117314Y22151248D01*
X27909219Y22255296D01*
X27805171Y22463391D01*
X27805171Y23295772D01*
X27909219Y23503867D01*
X28117314Y23607915D01*
X28533504Y23607915D01*
X28741600Y23503867D01*
X28845647Y23295772D01*
X28845647Y23087677D01*
X27805171Y22879581D01*
D10*
X3926840Y1037288D02*
X3890070Y963749D01*
X3890070Y853440D01*
X3926840Y743132D01*
X4000379Y669593D01*
X4073918Y632823D01*
X4220996Y596054D01*
X4331304Y596054D01*
X4478382Y632823D01*
X4551921Y669593D01*
X4625460Y743132D01*
X4662230Y853440D01*
X4662230Y926980D01*
X4625460Y1037288D01*
X4588691Y1074058D01*
X4331304Y1074058D01*
X4331304Y926980D01*
X4662230Y1404983D02*
X3890070Y1404983D01*
X4662230Y1846218D01*
X3890070Y1846218D01*
X4662230Y2213913D02*
X3890070Y2213913D01*
X3890070Y2397760D01*
X3926840Y2508069D01*
X4000379Y2581608D01*
X4073918Y2618378D01*
X4220996Y2655147D01*
X4331304Y2655147D01*
X4478382Y2618378D01*
X4551921Y2581608D01*
X4625460Y2508069D01*
X4662230Y2397760D01*
X4662230Y2213913D01*
X4727060Y3577288D02*
X4763830Y3687597D01*
X4763830Y3871444D01*
X4727060Y3944983D01*
X4690291Y3981753D01*
X4616752Y4018522D01*
X4543213Y4018522D01*
X4469674Y3981753D01*
X4432904Y3944983D01*
X4396135Y3871444D01*
X4359365Y3724366D01*
X4322596Y3650827D01*
X4285826Y3614058D01*
X4212287Y3577288D01*
X4138748Y3577288D01*
X4065209Y3614058D01*
X4028440Y3650827D01*
X3991670Y3724366D01*
X3991670Y3908214D01*
X4028440Y4018522D01*
X4727060Y4312679D02*
X4763830Y4422987D01*
X4763830Y4606835D01*
X4727060Y4680374D01*
X4690291Y4717143D01*
X4616752Y4753913D01*
X4543213Y4753913D01*
X4469674Y4717143D01*
X4432904Y4680374D01*
X4396135Y4606835D01*
X4359365Y4459757D01*
X4322596Y4386218D01*
X4285826Y4349448D01*
X4212287Y4312679D01*
X4138748Y4312679D01*
X4065209Y4349448D01*
X4028440Y4386218D01*
X3991670Y4459757D01*
X3991670Y4643604D01*
X4028440Y4753913D01*
X3991670Y5885301D02*
X4763830Y6142688D01*
X3991670Y6400075D01*
X4763830Y6657461D02*
X3991670Y6657461D01*
X4763830Y7025157D02*
X3991670Y7025157D01*
X4763830Y7466391D01*
X3991670Y7466391D01*
X4789230Y9040707D02*
X4421535Y8783320D01*
X4789230Y8599473D02*
X4017070Y8599473D01*
X4017070Y8893629D01*
X4053840Y8967168D01*
X4090609Y9003938D01*
X4164148Y9040707D01*
X4274457Y9040707D01*
X4347996Y9003938D01*
X4384765Y8967168D01*
X4421535Y8893629D01*
X4421535Y8599473D01*
X4017070Y9298094D02*
X4789230Y9812867D01*
X4017070Y9812867D02*
X4789230Y9298094D01*
X4067870Y11197288D02*
X4067870Y11638522D01*
X4840030Y11417905D02*
X4067870Y11417905D01*
X4067870Y11822370D02*
X4840030Y12337143D01*
X4067870Y12337143D02*
X4840030Y11822370D01*
X4865430Y13443132D02*
X4093270Y13443132D01*
X4093270Y13626980D01*
X4130040Y13737288D01*
X4203579Y13810827D01*
X4277118Y13847597D01*
X4424196Y13884366D01*
X4534504Y13884366D01*
X4681582Y13847597D01*
X4755121Y13810827D01*
X4828660Y13737288D01*
X4865430Y13626980D01*
X4865430Y13443132D01*
X4093270Y14104983D02*
X4093270Y14546218D01*
X4865430Y14325600D02*
X4093270Y14325600D01*
X4865430Y15244839D02*
X4497735Y14987452D01*
X4865430Y14803604D02*
X4093270Y14803604D01*
X4093270Y15097760D01*
X4130040Y15171300D01*
X4166809Y15208069D01*
X4240348Y15244839D01*
X4350657Y15244839D01*
X4424196Y15208069D01*
X4460965Y15171300D01*
X4497735Y15097760D01*
X4497735Y14803604D01*
X33227070Y28782284D02*
X33227070Y29260288D01*
X33521226Y29002901D01*
X33521226Y29113210D01*
X33557996Y29186749D01*
X33594765Y29223518D01*
X33668304Y29260288D01*
X33852152Y29260288D01*
X33925691Y29223518D01*
X33962460Y29186749D01*
X33999230Y29113210D01*
X33999230Y28892592D01*
X33962460Y28819053D01*
X33925691Y28782284D01*
X33925691Y29591213D02*
X33962460Y29627983D01*
X33999230Y29591213D01*
X33962460Y29554444D01*
X33925691Y29591213D01*
X33999230Y29591213D01*
X33227070Y29885370D02*
X33227070Y30363373D01*
X33521226Y30105987D01*
X33521226Y30216295D01*
X33557996Y30289834D01*
X33594765Y30326604D01*
X33668304Y30363373D01*
X33852152Y30363373D01*
X33925691Y30326604D01*
X33962460Y30289834D01*
X33999230Y30216295D01*
X33999230Y29995678D01*
X33962460Y29922139D01*
X33925691Y29885370D01*
X33227070Y30583991D02*
X33999230Y30841377D01*
X33227070Y31098764D01*
X30749240Y29508966D02*
X30712470Y29435427D01*
X30712470Y29325118D01*
X30749240Y29214810D01*
X30822779Y29141271D01*
X30896318Y29104501D01*
X31043396Y29067731D01*
X31153704Y29067731D01*
X31300782Y29104501D01*
X31374321Y29141271D01*
X31447860Y29214810D01*
X31484630Y29325118D01*
X31484630Y29398657D01*
X31447860Y29508966D01*
X31411091Y29545735D01*
X31153704Y29545735D01*
X31153704Y29398657D01*
X31484630Y29876661D02*
X30712470Y29876661D01*
X31484630Y30317895D01*
X30712470Y30317895D01*
X31484630Y30685591D02*
X30712470Y30685591D01*
X30712470Y30869438D01*
X30749240Y30979747D01*
X30822779Y31053286D01*
X30896318Y31090055D01*
X31043396Y31126825D01*
X31153704Y31126825D01*
X31300782Y31090055D01*
X31374321Y31053286D01*
X31447860Y30979747D01*
X31484630Y30869438D01*
X31484630Y30685591D01*
X28780860Y29161349D02*
X28817630Y29271657D01*
X28817630Y29455505D01*
X28780860Y29529044D01*
X28744091Y29565813D01*
X28670552Y29602583D01*
X28597013Y29602583D01*
X28523474Y29565813D01*
X28486704Y29529044D01*
X28449935Y29455505D01*
X28413165Y29308427D01*
X28376396Y29234888D01*
X28339626Y29198118D01*
X28266087Y29161349D01*
X28192548Y29161349D01*
X28119009Y29198118D01*
X28082240Y29234888D01*
X28045470Y29308427D01*
X28045470Y29492274D01*
X28082240Y29602583D01*
X28744091Y30374743D02*
X28780860Y30337973D01*
X28817630Y30227665D01*
X28817630Y30154126D01*
X28780860Y30043817D01*
X28707321Y29970278D01*
X28633782Y29933509D01*
X28486704Y29896739D01*
X28376396Y29896739D01*
X28229318Y29933509D01*
X28155779Y29970278D01*
X28082240Y30043817D01*
X28045470Y30154126D01*
X28045470Y30227665D01*
X28082240Y30337973D01*
X28119009Y30374743D01*
X28817630Y31073364D02*
X28817630Y30705669D01*
X28045470Y30705669D01*
X26164660Y29149979D02*
X26201430Y29260288D01*
X26201430Y29444135D01*
X26164660Y29517674D01*
X26127891Y29554444D01*
X26054352Y29591213D01*
X25980813Y29591213D01*
X25907274Y29554444D01*
X25870504Y29517674D01*
X25833735Y29444135D01*
X25796965Y29297057D01*
X25760196Y29223518D01*
X25723426Y29186749D01*
X25649887Y29149979D01*
X25576348Y29149979D01*
X25502809Y29186749D01*
X25466040Y29223518D01*
X25429270Y29297057D01*
X25429270Y29480905D01*
X25466040Y29591213D01*
X26201430Y29922139D02*
X25429270Y29922139D01*
X25429270Y30105987D01*
X25466040Y30216295D01*
X25539579Y30289834D01*
X25613118Y30326604D01*
X25760196Y30363373D01*
X25870504Y30363373D01*
X26017582Y30326604D01*
X26091121Y30289834D01*
X26164660Y30216295D01*
X26201430Y30105987D01*
X26201430Y29922139D01*
X25980813Y30657530D02*
X25980813Y31025225D01*
X26201430Y30583991D02*
X25429270Y30841377D01*
X26201430Y31098764D01*
X23763030Y29950200D02*
X22990870Y29950200D01*
X22990870Y30134048D01*
X23027640Y30244356D01*
X23101179Y30317895D01*
X23174718Y30354665D01*
X23321796Y30391434D01*
X23432104Y30391434D01*
X23579182Y30354665D01*
X23652721Y30317895D01*
X23726260Y30244356D01*
X23763030Y30134048D01*
X23763030Y29950200D01*
X22990870Y30648821D02*
X22990870Y31126825D01*
X23285026Y30869438D01*
X23285026Y30979747D01*
X23321796Y31053286D01*
X23358565Y31090055D01*
X23432104Y31126825D01*
X23615952Y31126825D01*
X23689491Y31090055D01*
X23726260Y31053286D01*
X23763030Y30979747D01*
X23763030Y30759130D01*
X23726260Y30685591D01*
X23689491Y30648821D01*
X21179390Y28710267D02*
X20407230Y28710267D01*
X20958773Y28967653D01*
X20407230Y29225040D01*
X21179390Y29225040D01*
X20407230Y29739813D02*
X20407230Y29886891D01*
X20444000Y29960431D01*
X20517539Y30033970D01*
X20664617Y30070739D01*
X20922003Y30070739D01*
X21069081Y30033970D01*
X21142620Y29960431D01*
X21179390Y29886891D01*
X21179390Y29739813D01*
X21142620Y29666274D01*
X21069081Y29592735D01*
X20922003Y29555966D01*
X20664617Y29555966D01*
X20517539Y29592735D01*
X20444000Y29666274D01*
X20407230Y29739813D01*
X21142620Y30364895D02*
X21179390Y30475204D01*
X21179390Y30659051D01*
X21142620Y30732591D01*
X21105851Y30769360D01*
X21032312Y30806130D01*
X20958773Y30806130D01*
X20885234Y30769360D01*
X20848464Y30732591D01*
X20811695Y30659051D01*
X20774925Y30511973D01*
X20738156Y30438434D01*
X20701386Y30401665D01*
X20627847Y30364895D01*
X20554308Y30364895D01*
X20480769Y30401665D01*
X20444000Y30438434D01*
X20407230Y30511973D01*
X20407230Y30695821D01*
X20444000Y30806130D01*
X21179390Y31137055D02*
X20407230Y31137055D01*
X18639390Y28710267D02*
X17867230Y28710267D01*
X18418773Y28967653D01*
X17867230Y29225040D01*
X18639390Y29225040D01*
X18639390Y29592735D02*
X17867230Y29592735D01*
X18602620Y29923661D02*
X18639390Y30033970D01*
X18639390Y30217817D01*
X18602620Y30291356D01*
X18565851Y30328126D01*
X18492312Y30364895D01*
X18418773Y30364895D01*
X18345234Y30328126D01*
X18308464Y30291356D01*
X18271695Y30217817D01*
X18234925Y30070739D01*
X18198156Y29997200D01*
X18161386Y29960431D01*
X18087847Y29923661D01*
X18014308Y29923661D01*
X17940769Y29960431D01*
X17904000Y29997200D01*
X17867230Y30070739D01*
X17867230Y30254587D01*
X17904000Y30364895D01*
X17867230Y30842899D02*
X17867230Y30989977D01*
X17904000Y31063516D01*
X17977539Y31137055D01*
X18124617Y31173825D01*
X18382003Y31173825D01*
X18529081Y31137055D01*
X18602620Y31063516D01*
X18639390Y30989977D01*
X18639390Y30842899D01*
X18602620Y30769360D01*
X18529081Y30695821D01*
X18382003Y30659051D01*
X18124617Y30659051D01*
X17977539Y30695821D01*
X17904000Y30769360D01*
X17867230Y30842899D01*
X16162620Y29188271D02*
X16199390Y29298579D01*
X16199390Y29482427D01*
X16162620Y29555966D01*
X16125851Y29592735D01*
X16052312Y29629505D01*
X15978773Y29629505D01*
X15905234Y29592735D01*
X15868464Y29555966D01*
X15831695Y29482427D01*
X15794925Y29335349D01*
X15758156Y29261810D01*
X15721386Y29225040D01*
X15647847Y29188271D01*
X15574308Y29188271D01*
X15500769Y29225040D01*
X15464000Y29261810D01*
X15427230Y29335349D01*
X15427230Y29519196D01*
X15464000Y29629505D01*
X16125851Y30401665D02*
X16162620Y30364895D01*
X16199390Y30254587D01*
X16199390Y30181048D01*
X16162620Y30070739D01*
X16089081Y29997200D01*
X16015542Y29960431D01*
X15868464Y29923661D01*
X15758156Y29923661D01*
X15611078Y29960431D01*
X15537539Y29997200D01*
X15464000Y30070739D01*
X15427230Y30181048D01*
X15427230Y30254587D01*
X15464000Y30364895D01*
X15500769Y30401665D01*
X16199390Y30732591D02*
X15427230Y30732591D01*
X16199390Y31173825D02*
X15758156Y30842899D01*
X15427230Y31173825D02*
X15868464Y30732591D01*
D12*
X15991828Y20145686D02*
X15991828Y21285686D01*
X16643257Y20145686D02*
X16154685Y20797115D01*
X16643257Y21285686D02*
X15991828Y20634258D01*
X17131828Y20145686D02*
X17131828Y20905686D01*
X17131828Y21285686D02*
X17077542Y21231400D01*
X17131828Y21177115D01*
X17186114Y21231400D01*
X17131828Y21285686D01*
X17131828Y21177115D01*
X18326114Y20254258D02*
X18271828Y20199972D01*
X18108971Y20145686D01*
X18000400Y20145686D01*
X17837542Y20199972D01*
X17728971Y20308543D01*
X17674685Y20417115D01*
X17620400Y20634258D01*
X17620400Y20797115D01*
X17674685Y21014258D01*
X17728971Y21122829D01*
X17837542Y21231400D01*
X18000400Y21285686D01*
X18108971Y21285686D01*
X18271828Y21231400D01*
X18326114Y21177115D01*
X19303257Y20145686D02*
X19303257Y20742829D01*
X19248971Y20851400D01*
X19140400Y20905686D01*
X18923257Y20905686D01*
X18814685Y20851400D01*
X19303257Y20199972D02*
X19194685Y20145686D01*
X18923257Y20145686D01*
X18814685Y20199972D01*
X18760400Y20308543D01*
X18760400Y20417115D01*
X18814685Y20525686D01*
X18923257Y20579972D01*
X19194685Y20579972D01*
X19303257Y20634258D01*
X20334685Y20145686D02*
X20334685Y21285686D01*
X20334685Y20199972D02*
X20226114Y20145686D01*
X20008971Y20145686D01*
X19900400Y20199972D01*
X19846114Y20254258D01*
X19791828Y20362829D01*
X19791828Y20688543D01*
X19846114Y20797115D01*
X19900400Y20851400D01*
X20008971Y20905686D01*
X20226114Y20905686D01*
X20334685Y20851400D01*
X20606114Y20037115D02*
X21474685Y20037115D01*
X22343257Y20145686D02*
X21691828Y20145686D01*
X22017542Y20145686D02*
X22017542Y21285686D01*
X21908971Y21122829D01*
X21800400Y21014258D01*
X21691828Y20959972D01*
X22831828Y20254258D02*
X22886114Y20199972D01*
X22831828Y20145686D01*
X22777542Y20199972D01*
X22831828Y20254258D01*
X22831828Y20145686D01*
X23591828Y21285686D02*
X23700400Y21285686D01*
X23808971Y21231400D01*
X23863257Y21177115D01*
X23917542Y21068543D01*
X23971828Y20851400D01*
X23971828Y20579972D01*
X23917542Y20362829D01*
X23863257Y20254258D01*
X23808971Y20199972D01*
X23700400Y20145686D01*
X23591828Y20145686D01*
X23483257Y20199972D01*
X23428971Y20254258D01*
X23374685Y20362829D01*
X23320400Y20579972D01*
X23320400Y20851400D01*
X23374685Y21068543D01*
X23428971Y21177115D01*
X23483257Y21231400D01*
X23591828Y21285686D01*
D13*
%TO.C,U4*%
X33520500Y16400000D02*
X17520500Y16400000D01*
X17520500Y400000D02*
X33520500Y400000D01*
X30156000Y8209500D02*
X24758500Y8209500D01*
X24758500Y8209500D02*
X24758500Y3129500D01*
X24758500Y3129500D02*
X30156000Y3129500D01*
X30156000Y3129500D02*
X30156000Y8209500D01*
X22980500Y1351500D02*
X22980500Y4526500D01*
X22980500Y4526500D02*
X20758000Y4526500D01*
X20758000Y4526500D02*
X20758000Y1351500D01*
X20758000Y1351500D02*
X22980500Y1351500D01*
%TO.C,P1*%
X13111000Y14924000D02*
X13111000Y16224000D01*
X13111000Y16224000D02*
X10511000Y16224000D01*
X10511000Y12224000D02*
X13111000Y12224000D01*
X13111000Y12224000D02*
X13111000Y13524000D01*
X10511000Y14924000D02*
X10511000Y16224000D01*
X10511000Y12224000D02*
X10511000Y13524000D01*
X13211000Y14924000D02*
X13211000Y16224000D01*
X13211000Y12224000D02*
X13211000Y13524000D01*
X13311000Y14924000D02*
X13311000Y16224000D01*
X13311000Y12224000D02*
X13311000Y13524000D01*
X13311000Y16224000D02*
X13111000Y16224000D01*
X13311000Y14924000D02*
X13111000Y14924000D01*
X13311000Y13524000D02*
X13111000Y13524000D01*
X13311000Y12224000D02*
X13111000Y12224000D01*
D14*
%TO.C,U2*%
X13075000Y22104000D02*
X13075000Y22334000D01*
X12845000Y22104000D02*
X13075000Y22104000D01*
X5975000Y22104000D02*
X5975000Y22334000D01*
X6205000Y22104000D02*
X5975000Y22104000D01*
X5975000Y29204000D02*
X5975000Y28974000D01*
X6205000Y29204000D02*
X5975000Y29204000D01*
X13075000Y29204000D02*
X13075000Y28974000D01*
X12845000Y29204000D02*
X13075000Y29204000D01*
D15*
X12375000Y30834000D02*
G75*
G03*
X12375000Y30834000I-50000J0D01*
G01*
D16*
%TO.C,Y1*%
X4762000Y33993000D02*
X5012000Y33993000D01*
X4762000Y31793000D02*
X5012000Y31793000D01*
X4762000Y33993000D02*
X4762000Y31793000D01*
X9212000Y33993000D02*
X9462000Y33993000D01*
X9212000Y31793000D02*
X9462000Y31793000D01*
X9462000Y33993000D02*
X9462000Y31793000D01*
D15*
%TO.C,D1*%
X6273000Y12631000D02*
G75*
G03*
X6273000Y12631000I-50000J0D01*
G01*
D14*
X6903000Y14071000D02*
X6903000Y14631000D01*
X5543000Y14071000D02*
X5543000Y14631000D01*
%TO.C,U3*%
X6359000Y9011000D02*
X8119000Y9011000D01*
X6359000Y12071000D02*
X8119000Y12071000D01*
D15*
X5179000Y11491000D02*
G75*
G03*
X5179000Y11491000I-50000J0D01*
G01*
D14*
%TO.C,U1*%
X13300000Y3866000D02*
X13300000Y3296000D01*
X13300000Y706000D02*
X13300000Y1276000D01*
X9560000Y706000D02*
X9560000Y1276000D01*
X9560000Y3866000D02*
X9560000Y3296000D01*
D15*
X9975000Y4071000D02*
G75*
G03*
X9975000Y4071000I-50000J0D01*
G01*
D14*
%TO.C,R1*%
X4503000Y19612000D02*
X4503000Y20012000D01*
X5403000Y19612000D02*
X5403000Y20012000D01*
%TO.C,R2*%
X10737000Y18615000D02*
X10737000Y18215000D01*
X9837000Y18615000D02*
X9837000Y18215000D01*
%TO.C,R3*%
X12642000Y18615000D02*
X12642000Y18215000D01*
X11742000Y18615000D02*
X11742000Y18215000D01*
%TO.C,R4*%
X14547000Y18615000D02*
X14547000Y18215000D01*
X13647000Y18615000D02*
X13647000Y18215000D01*
%TO.C,R5*%
X14155000Y2086000D02*
X14155000Y2486000D01*
X15055000Y2086000D02*
X15055000Y2486000D01*
%TD*%
M02*
