%TF.GenerationSoftware,KiCad,Pcbnew,(5.1.6)-1*%
%TF.CreationDate,2021-11-16T12:50:12-05:00*%
%TF.ProjectId,AmbaSat-1_Satellite,416d6261-5361-4742-9d31-5f536174656c,KiCad_1.0*%
%TF.SameCoordinates,PX7ceeb0cPY74d41b0*%
%TF.FileFunction,Soldermask,Bot*%
%TF.FilePolarity,Negative*%
%FSLAX46Y46*%
G04 Gerber Fmt 4.6, Leading zero omitted, Abs format (unit mm)*
G04 Created by KiCad (PCBNEW (5.1.6)-1) date 2021-11-16 12:50:12*
%MOMM*%
%LPD*%
G01*
G04 APERTURE LIST*
%ADD10C,0.100000*%
G04 APERTURE END LIST*
D10*
G36*
X2921333Y2451040D02*
G01*
X2921336Y2451039D01*
X2921337Y2451039D01*
X3074550Y2404562D01*
X3197520Y2338833D01*
X3215754Y2329087D01*
X3339517Y2227517D01*
X3441087Y2103754D01*
X3441088Y2103752D01*
X3516562Y1962550D01*
X3558285Y1825009D01*
X3563040Y1809333D01*
X3578733Y1650000D01*
X3563040Y1490667D01*
X3563039Y1490664D01*
X3563039Y1490663D01*
X3516562Y1337450D01*
X3516561Y1337449D01*
X3441087Y1196246D01*
X3339517Y1072483D01*
X3215754Y970913D01*
X3215752Y970912D01*
X3074550Y895438D01*
X2921337Y848961D01*
X2921336Y848961D01*
X2921333Y848960D01*
X2801929Y837200D01*
X1198071Y837200D01*
X1078667Y848960D01*
X1078664Y848961D01*
X1078663Y848961D01*
X925450Y895438D01*
X784248Y970912D01*
X784246Y970913D01*
X660483Y1072483D01*
X558913Y1196246D01*
X483439Y1337449D01*
X483438Y1337450D01*
X436961Y1490663D01*
X436961Y1490664D01*
X436960Y1490667D01*
X421267Y1650000D01*
X436960Y1809333D01*
X441715Y1825009D01*
X483438Y1962550D01*
X558912Y2103752D01*
X558913Y2103754D01*
X660483Y2227517D01*
X784246Y2329087D01*
X802480Y2338833D01*
X925450Y2404562D01*
X1078663Y2451039D01*
X1078664Y2451039D01*
X1078667Y2451040D01*
X1198071Y2462800D01*
X2801929Y2462800D01*
X2921333Y2451040D01*
G37*
G36*
X7441239Y4454568D02*
G01*
X7716531Y4340538D01*
X7964291Y4174990D01*
X8174990Y3964291D01*
X8340538Y3716531D01*
X8454568Y3441239D01*
X8512700Y3148988D01*
X8512700Y2851012D01*
X8454568Y2558761D01*
X8340538Y2283469D01*
X8174990Y2035709D01*
X7964291Y1825010D01*
X7716531Y1659462D01*
X7441239Y1545432D01*
X7148988Y1487300D01*
X6851012Y1487300D01*
X6558761Y1545432D01*
X6283469Y1659462D01*
X6035709Y1825010D01*
X5825010Y2035709D01*
X5659462Y2283469D01*
X5545432Y2558761D01*
X5487300Y2851012D01*
X5487300Y3148988D01*
X5545432Y3441239D01*
X5659462Y3716531D01*
X5825010Y3964291D01*
X6035709Y4174990D01*
X6283469Y4340538D01*
X6558761Y4454568D01*
X6851012Y4512700D01*
X7148988Y4512700D01*
X7441239Y4454568D01*
G37*
G36*
X2921333Y4991040D02*
G01*
X2921336Y4991039D01*
X2921337Y4991039D01*
X3074550Y4944562D01*
X3197520Y4878833D01*
X3215754Y4869087D01*
X3339517Y4767517D01*
X3441087Y4643754D01*
X3441088Y4643752D01*
X3516562Y4502550D01*
X3563039Y4349337D01*
X3563040Y4349333D01*
X3578733Y4190000D01*
X3563040Y4030667D01*
X3563039Y4030664D01*
X3563039Y4030663D01*
X3516562Y3877450D01*
X3516561Y3877449D01*
X3441087Y3736246D01*
X3339517Y3612483D01*
X3215754Y3510913D01*
X3215752Y3510912D01*
X3074550Y3435438D01*
X2921337Y3388961D01*
X2921336Y3388961D01*
X2921333Y3388960D01*
X2801929Y3377200D01*
X1198071Y3377200D01*
X1078667Y3388960D01*
X1078664Y3388961D01*
X1078663Y3388961D01*
X925450Y3435438D01*
X784248Y3510912D01*
X784246Y3510913D01*
X660483Y3612483D01*
X558913Y3736246D01*
X483439Y3877449D01*
X483438Y3877450D01*
X436961Y4030663D01*
X436961Y4030664D01*
X436960Y4030667D01*
X421267Y4190000D01*
X436960Y4349333D01*
X436961Y4349337D01*
X483438Y4502550D01*
X558912Y4643752D01*
X558913Y4643754D01*
X660483Y4767517D01*
X784246Y4869087D01*
X802480Y4878833D01*
X925450Y4944562D01*
X1078663Y4991039D01*
X1078664Y4991039D01*
X1078667Y4991040D01*
X1198071Y5002800D01*
X2801929Y5002800D01*
X2921333Y4991040D01*
G37*
G36*
X2921333Y7531040D02*
G01*
X2921336Y7531039D01*
X2921337Y7531039D01*
X3074550Y7484562D01*
X3197520Y7418833D01*
X3215754Y7409087D01*
X3339517Y7307517D01*
X3441087Y7183754D01*
X3441088Y7183752D01*
X3516562Y7042550D01*
X3563039Y6889337D01*
X3563040Y6889333D01*
X3578733Y6730000D01*
X3563040Y6570667D01*
X3563039Y6570664D01*
X3563039Y6570663D01*
X3516562Y6417450D01*
X3516561Y6417449D01*
X3441087Y6276246D01*
X3339517Y6152483D01*
X3215754Y6050913D01*
X3215752Y6050912D01*
X3074550Y5975438D01*
X2921337Y5928961D01*
X2921336Y5928961D01*
X2921333Y5928960D01*
X2801929Y5917200D01*
X1198071Y5917200D01*
X1078667Y5928960D01*
X1078664Y5928961D01*
X1078663Y5928961D01*
X925450Y5975438D01*
X784248Y6050912D01*
X784246Y6050913D01*
X660483Y6152483D01*
X558913Y6276246D01*
X483439Y6417449D01*
X483438Y6417450D01*
X436961Y6570663D01*
X436961Y6570664D01*
X436960Y6570667D01*
X421267Y6730000D01*
X436960Y6889333D01*
X436961Y6889337D01*
X483438Y7042550D01*
X558912Y7183752D01*
X558913Y7183754D01*
X660483Y7307517D01*
X784246Y7409087D01*
X802480Y7418833D01*
X925450Y7484562D01*
X1078663Y7531039D01*
X1078664Y7531039D01*
X1078667Y7531040D01*
X1198071Y7542800D01*
X2801929Y7542800D01*
X2921333Y7531040D01*
G37*
G36*
X2921333Y10071040D02*
G01*
X2921336Y10071039D01*
X2921337Y10071039D01*
X3074550Y10024562D01*
X3197520Y9958833D01*
X3215754Y9949087D01*
X3339517Y9847517D01*
X3441087Y9723754D01*
X3441088Y9723752D01*
X3516562Y9582550D01*
X3563039Y9429337D01*
X3563040Y9429333D01*
X3578733Y9270000D01*
X3563040Y9110667D01*
X3563039Y9110664D01*
X3563039Y9110663D01*
X3516562Y8957450D01*
X3516561Y8957449D01*
X3441087Y8816246D01*
X3339517Y8692483D01*
X3215754Y8590913D01*
X3215752Y8590912D01*
X3074550Y8515438D01*
X2921337Y8468961D01*
X2921336Y8468961D01*
X2921333Y8468960D01*
X2801929Y8457200D01*
X1198071Y8457200D01*
X1078667Y8468960D01*
X1078664Y8468961D01*
X1078663Y8468961D01*
X925450Y8515438D01*
X784248Y8590912D01*
X784246Y8590913D01*
X660483Y8692483D01*
X558913Y8816246D01*
X483439Y8957449D01*
X483438Y8957450D01*
X436961Y9110663D01*
X436961Y9110664D01*
X436960Y9110667D01*
X421267Y9270000D01*
X436960Y9429333D01*
X436961Y9429337D01*
X483438Y9582550D01*
X558912Y9723752D01*
X558913Y9723754D01*
X660483Y9847517D01*
X784246Y9949087D01*
X802480Y9958833D01*
X925450Y10024562D01*
X1078663Y10071039D01*
X1078664Y10071039D01*
X1078667Y10071040D01*
X1198071Y10082800D01*
X2801929Y10082800D01*
X2921333Y10071040D01*
G37*
G36*
X2921333Y12611040D02*
G01*
X2921336Y12611039D01*
X2921337Y12611039D01*
X3074550Y12564562D01*
X3197520Y12498833D01*
X3215754Y12489087D01*
X3339517Y12387517D01*
X3441087Y12263754D01*
X3441088Y12263752D01*
X3516562Y12122550D01*
X3563039Y11969337D01*
X3563040Y11969333D01*
X3578733Y11810000D01*
X3563040Y11650667D01*
X3563039Y11650664D01*
X3563039Y11650663D01*
X3516562Y11497450D01*
X3516561Y11497449D01*
X3441087Y11356246D01*
X3339517Y11232483D01*
X3215754Y11130913D01*
X3215752Y11130912D01*
X3074550Y11055438D01*
X2921337Y11008961D01*
X2921336Y11008961D01*
X2921333Y11008960D01*
X2801929Y10997200D01*
X1198071Y10997200D01*
X1078667Y11008960D01*
X1078664Y11008961D01*
X1078663Y11008961D01*
X925450Y11055438D01*
X784248Y11130912D01*
X784246Y11130913D01*
X660483Y11232483D01*
X558913Y11356246D01*
X483439Y11497449D01*
X483438Y11497450D01*
X436961Y11650663D01*
X436961Y11650664D01*
X436960Y11650667D01*
X421267Y11810000D01*
X436960Y11969333D01*
X436961Y11969337D01*
X483438Y12122550D01*
X558912Y12263752D01*
X558913Y12263754D01*
X660483Y12387517D01*
X784246Y12489087D01*
X802480Y12498833D01*
X925450Y12564562D01*
X1078663Y12611039D01*
X1078664Y12611039D01*
X1078667Y12611040D01*
X1198071Y12622800D01*
X2801929Y12622800D01*
X2921333Y12611040D01*
G37*
G36*
X15499312Y15078836D02*
G01*
X15661097Y15011823D01*
X15806708Y14914528D01*
X15930528Y14790708D01*
X16027823Y14645097D01*
X16094836Y14483312D01*
X16129000Y14311559D01*
X16129000Y14136441D01*
X16094836Y13964688D01*
X16027823Y13802903D01*
X15962663Y13705385D01*
X15939630Y13670913D01*
X15930528Y13657292D01*
X15806708Y13533472D01*
X15661097Y13436177D01*
X15499312Y13369164D01*
X15327559Y13335000D01*
X15152441Y13335000D01*
X14980688Y13369164D01*
X14818903Y13436177D01*
X14673292Y13533472D01*
X14549472Y13657292D01*
X14540371Y13670913D01*
X14517337Y13705385D01*
X14452177Y13802903D01*
X14385164Y13964688D01*
X14351000Y14136441D01*
X14351000Y14311559D01*
X14385164Y14483312D01*
X14452177Y14645097D01*
X14549472Y14790708D01*
X14673292Y14914528D01*
X14818903Y15011823D01*
X14980688Y15078836D01*
X15152441Y15113000D01*
X15327559Y15113000D01*
X15499312Y15078836D01*
G37*
G36*
X2921333Y15151040D02*
G01*
X2921336Y15151039D01*
X2921337Y15151039D01*
X3074550Y15104562D01*
X3197520Y15038833D01*
X3215754Y15029087D01*
X3339517Y14927517D01*
X3441087Y14803754D01*
X3441088Y14803752D01*
X3516562Y14662550D01*
X3521856Y14645097D01*
X3563040Y14509333D01*
X3578733Y14350000D01*
X3563040Y14190667D01*
X3563039Y14190664D01*
X3563039Y14190663D01*
X3516562Y14037450D01*
X3516561Y14037449D01*
X3441087Y13896246D01*
X3339517Y13772483D01*
X3215754Y13670913D01*
X3215752Y13670912D01*
X3074550Y13595438D01*
X2921337Y13548961D01*
X2921336Y13548961D01*
X2921333Y13548960D01*
X2801929Y13537200D01*
X1198071Y13537200D01*
X1078667Y13548960D01*
X1078664Y13548961D01*
X1078663Y13548961D01*
X925450Y13595438D01*
X784248Y13670912D01*
X784246Y13670913D01*
X660483Y13772483D01*
X558913Y13896246D01*
X483439Y14037449D01*
X483438Y14037450D01*
X436961Y14190663D01*
X436961Y14190664D01*
X436960Y14190667D01*
X421267Y14350000D01*
X436960Y14509333D01*
X478144Y14645097D01*
X483438Y14662550D01*
X558912Y14803752D01*
X558913Y14803754D01*
X660483Y14927517D01*
X784246Y15029087D01*
X802480Y15038833D01*
X925450Y15104562D01*
X1078663Y15151039D01*
X1078664Y15151039D01*
X1078667Y15151040D01*
X1198071Y15162800D01*
X2801929Y15162800D01*
X2921333Y15151040D01*
G37*
G36*
X2300061Y17879167D02*
G01*
X2487272Y17801622D01*
X2655758Y17689043D01*
X2799043Y17545758D01*
X2911622Y17377272D01*
X2989167Y17190061D01*
X3028700Y16991318D01*
X3028700Y16788682D01*
X2989167Y16589939D01*
X2911622Y16402728D01*
X2799043Y16234242D01*
X2655758Y16090957D01*
X2487272Y15978378D01*
X2300061Y15900833D01*
X2101318Y15861300D01*
X1898682Y15861300D01*
X1699939Y15900833D01*
X1512728Y15978378D01*
X1344242Y16090957D01*
X1200957Y16234242D01*
X1088378Y16402728D01*
X1010833Y16589939D01*
X971300Y16788682D01*
X971300Y16991318D01*
X1010833Y17190061D01*
X1088378Y17377272D01*
X1200957Y17545758D01*
X1344242Y17689043D01*
X1512728Y17801622D01*
X1699939Y17879167D01*
X1898682Y17918700D01*
X2101318Y17918700D01*
X2300061Y17879167D01*
G37*
G36*
X21049333Y34563040D02*
G01*
X21049336Y34563039D01*
X21049337Y34563039D01*
X21202550Y34516562D01*
X21325520Y34450833D01*
X21343754Y34441087D01*
X21467517Y34339517D01*
X21569087Y34215754D01*
X21569088Y34215752D01*
X21644562Y34074550D01*
X21691039Y33921337D01*
X21691040Y33921333D01*
X21702800Y33801929D01*
X21702800Y32198071D01*
X21691040Y32078667D01*
X21691039Y32078664D01*
X21691039Y32078663D01*
X21644562Y31925450D01*
X21644561Y31925449D01*
X21569087Y31784246D01*
X21467517Y31660483D01*
X21343753Y31558913D01*
X21343751Y31558912D01*
X21202549Y31483438D01*
X21049336Y31436961D01*
X21049335Y31436961D01*
X21049332Y31436960D01*
X20890000Y31421267D01*
X20730667Y31436960D01*
X20730664Y31436961D01*
X20730663Y31436961D01*
X20577450Y31483438D01*
X20436248Y31558912D01*
X20436246Y31558913D01*
X20312483Y31660483D01*
X20210913Y31784247D01*
X20201167Y31802481D01*
X20135438Y31925451D01*
X20088961Y32078664D01*
X20088961Y32078665D01*
X20088960Y32078668D01*
X20077200Y32198072D01*
X20077201Y33801929D01*
X20088961Y33921333D01*
X20088962Y33921337D01*
X20135439Y34074550D01*
X20210913Y34215752D01*
X20210914Y34215754D01*
X20312484Y34339517D01*
X20436247Y34441087D01*
X20454481Y34450833D01*
X20577451Y34516562D01*
X20730664Y34563039D01*
X20730665Y34563039D01*
X20730668Y34563040D01*
X20890000Y34578733D01*
X21049333Y34563040D01*
G37*
G36*
X23589333Y34563040D02*
G01*
X23589336Y34563039D01*
X23589337Y34563039D01*
X23742550Y34516562D01*
X23865520Y34450833D01*
X23883754Y34441087D01*
X24007517Y34339517D01*
X24109087Y34215754D01*
X24109088Y34215752D01*
X24184562Y34074550D01*
X24231039Y33921337D01*
X24231040Y33921333D01*
X24242800Y33801929D01*
X24242800Y32198071D01*
X24231040Y32078667D01*
X24231039Y32078664D01*
X24231039Y32078663D01*
X24184562Y31925450D01*
X24184561Y31925449D01*
X24109087Y31784246D01*
X24007517Y31660483D01*
X23883753Y31558913D01*
X23883751Y31558912D01*
X23742549Y31483438D01*
X23589336Y31436961D01*
X23589335Y31436961D01*
X23589332Y31436960D01*
X23430000Y31421267D01*
X23270667Y31436960D01*
X23270664Y31436961D01*
X23270663Y31436961D01*
X23117450Y31483438D01*
X22976248Y31558912D01*
X22976246Y31558913D01*
X22852483Y31660483D01*
X22750913Y31784247D01*
X22741167Y31802481D01*
X22675438Y31925451D01*
X22628961Y32078664D01*
X22628961Y32078665D01*
X22628960Y32078668D01*
X22617200Y32198072D01*
X22617201Y33801929D01*
X22628961Y33921333D01*
X22628962Y33921337D01*
X22675439Y34074550D01*
X22750913Y34215752D01*
X22750914Y34215754D01*
X22852484Y34339517D01*
X22976247Y34441087D01*
X22994481Y34450833D01*
X23117451Y34516562D01*
X23270664Y34563039D01*
X23270665Y34563039D01*
X23270668Y34563040D01*
X23430000Y34578733D01*
X23589333Y34563040D01*
G37*
G36*
X18509333Y34563040D02*
G01*
X18509336Y34563039D01*
X18509337Y34563039D01*
X18662550Y34516562D01*
X18785520Y34450833D01*
X18803754Y34441087D01*
X18927517Y34339517D01*
X19029087Y34215754D01*
X19029088Y34215752D01*
X19104562Y34074550D01*
X19151039Y33921337D01*
X19151040Y33921333D01*
X19162800Y33801929D01*
X19162800Y32198071D01*
X19151040Y32078667D01*
X19151039Y32078664D01*
X19151039Y32078663D01*
X19104562Y31925450D01*
X19104561Y31925449D01*
X19029087Y31784246D01*
X18927517Y31660483D01*
X18803753Y31558913D01*
X18803751Y31558912D01*
X18662549Y31483438D01*
X18509336Y31436961D01*
X18509335Y31436961D01*
X18509332Y31436960D01*
X18350000Y31421267D01*
X18190667Y31436960D01*
X18190664Y31436961D01*
X18190663Y31436961D01*
X18037450Y31483438D01*
X17896248Y31558912D01*
X17896246Y31558913D01*
X17772483Y31660483D01*
X17670913Y31784247D01*
X17661167Y31802481D01*
X17595438Y31925451D01*
X17548961Y32078664D01*
X17548961Y32078665D01*
X17548960Y32078668D01*
X17537200Y32198072D01*
X17537201Y33801929D01*
X17548961Y33921333D01*
X17548962Y33921337D01*
X17595439Y34074550D01*
X17670913Y34215752D01*
X17670914Y34215754D01*
X17772484Y34339517D01*
X17896247Y34441087D01*
X17914481Y34450833D01*
X18037451Y34516562D01*
X18190664Y34563039D01*
X18190665Y34563039D01*
X18190668Y34563040D01*
X18350000Y34578733D01*
X18509333Y34563040D01*
G37*
G36*
X15969333Y34563040D02*
G01*
X15969336Y34563039D01*
X15969337Y34563039D01*
X16122550Y34516562D01*
X16245520Y34450833D01*
X16263754Y34441087D01*
X16387517Y34339517D01*
X16489087Y34215754D01*
X16489088Y34215752D01*
X16564562Y34074550D01*
X16611039Y33921337D01*
X16611040Y33921333D01*
X16622800Y33801929D01*
X16622800Y32198071D01*
X16611040Y32078667D01*
X16611039Y32078664D01*
X16611039Y32078663D01*
X16564562Y31925450D01*
X16564561Y31925449D01*
X16489087Y31784246D01*
X16387517Y31660483D01*
X16263753Y31558913D01*
X16263751Y31558912D01*
X16122549Y31483438D01*
X15969336Y31436961D01*
X15969335Y31436961D01*
X15969332Y31436960D01*
X15810000Y31421267D01*
X15650667Y31436960D01*
X15650664Y31436961D01*
X15650663Y31436961D01*
X15497450Y31483438D01*
X15356248Y31558912D01*
X15356246Y31558913D01*
X15232483Y31660483D01*
X15130913Y31784247D01*
X15121167Y31802481D01*
X15055438Y31925451D01*
X15008961Y32078664D01*
X15008961Y32078665D01*
X15008960Y32078668D01*
X14997200Y32198072D01*
X14997201Y33801929D01*
X15008961Y33921333D01*
X15008962Y33921337D01*
X15055439Y34074550D01*
X15130913Y34215752D01*
X15130914Y34215754D01*
X15232484Y34339517D01*
X15356247Y34441087D01*
X15374481Y34450833D01*
X15497451Y34516562D01*
X15650664Y34563039D01*
X15650665Y34563039D01*
X15650668Y34563040D01*
X15810000Y34578733D01*
X15969333Y34563040D01*
G37*
G36*
X33749333Y34563040D02*
G01*
X33749336Y34563039D01*
X33749337Y34563039D01*
X33902550Y34516562D01*
X34025520Y34450833D01*
X34043754Y34441087D01*
X34167517Y34339517D01*
X34269087Y34215754D01*
X34269088Y34215752D01*
X34344562Y34074550D01*
X34391039Y33921337D01*
X34391040Y33921333D01*
X34402800Y33801929D01*
X34402800Y32198071D01*
X34391040Y32078667D01*
X34391039Y32078664D01*
X34391039Y32078663D01*
X34344562Y31925450D01*
X34344561Y31925449D01*
X34269087Y31784246D01*
X34167517Y31660483D01*
X34043753Y31558913D01*
X34043751Y31558912D01*
X33902549Y31483438D01*
X33749336Y31436961D01*
X33749335Y31436961D01*
X33749332Y31436960D01*
X33590000Y31421267D01*
X33430667Y31436960D01*
X33430664Y31436961D01*
X33430663Y31436961D01*
X33277450Y31483438D01*
X33136248Y31558912D01*
X33136246Y31558913D01*
X33012483Y31660483D01*
X32910913Y31784247D01*
X32901167Y31802481D01*
X32835438Y31925451D01*
X32788961Y32078664D01*
X32788961Y32078665D01*
X32788960Y32078668D01*
X32777200Y32198072D01*
X32777201Y33801929D01*
X32788961Y33921333D01*
X32788962Y33921337D01*
X32835439Y34074550D01*
X32910913Y34215752D01*
X32910914Y34215754D01*
X33012484Y34339517D01*
X33136247Y34441087D01*
X33154481Y34450833D01*
X33277451Y34516562D01*
X33430664Y34563039D01*
X33430665Y34563039D01*
X33430668Y34563040D01*
X33590000Y34578733D01*
X33749333Y34563040D01*
G37*
G36*
X31209333Y34563040D02*
G01*
X31209336Y34563039D01*
X31209337Y34563039D01*
X31362550Y34516562D01*
X31485520Y34450833D01*
X31503754Y34441087D01*
X31627517Y34339517D01*
X31729087Y34215754D01*
X31729088Y34215752D01*
X31804562Y34074550D01*
X31851039Y33921337D01*
X31851040Y33921333D01*
X31862800Y33801929D01*
X31862800Y32198071D01*
X31851040Y32078667D01*
X31851039Y32078664D01*
X31851039Y32078663D01*
X31804562Y31925450D01*
X31804561Y31925449D01*
X31729087Y31784246D01*
X31627517Y31660483D01*
X31503753Y31558913D01*
X31503751Y31558912D01*
X31362549Y31483438D01*
X31209336Y31436961D01*
X31209335Y31436961D01*
X31209332Y31436960D01*
X31050000Y31421267D01*
X30890667Y31436960D01*
X30890664Y31436961D01*
X30890663Y31436961D01*
X30737450Y31483438D01*
X30596248Y31558912D01*
X30596246Y31558913D01*
X30472483Y31660483D01*
X30370913Y31784247D01*
X30361167Y31802481D01*
X30295438Y31925451D01*
X30248961Y32078664D01*
X30248961Y32078665D01*
X30248960Y32078668D01*
X30237200Y32198072D01*
X30237201Y33801929D01*
X30248961Y33921333D01*
X30248962Y33921337D01*
X30295439Y34074550D01*
X30370913Y34215752D01*
X30370914Y34215754D01*
X30472484Y34339517D01*
X30596247Y34441087D01*
X30614481Y34450833D01*
X30737451Y34516562D01*
X30890664Y34563039D01*
X30890665Y34563039D01*
X30890668Y34563040D01*
X31050000Y34578733D01*
X31209333Y34563040D01*
G37*
G36*
X28669333Y34563040D02*
G01*
X28669336Y34563039D01*
X28669337Y34563039D01*
X28822550Y34516562D01*
X28945520Y34450833D01*
X28963754Y34441087D01*
X29087517Y34339517D01*
X29189087Y34215754D01*
X29189088Y34215752D01*
X29264562Y34074550D01*
X29311039Y33921337D01*
X29311040Y33921333D01*
X29322800Y33801929D01*
X29322800Y32198071D01*
X29311040Y32078667D01*
X29311039Y32078664D01*
X29311039Y32078663D01*
X29264562Y31925450D01*
X29264561Y31925449D01*
X29189087Y31784246D01*
X29087517Y31660483D01*
X28963753Y31558913D01*
X28963751Y31558912D01*
X28822549Y31483438D01*
X28669336Y31436961D01*
X28669335Y31436961D01*
X28669332Y31436960D01*
X28510000Y31421267D01*
X28350667Y31436960D01*
X28350664Y31436961D01*
X28350663Y31436961D01*
X28197450Y31483438D01*
X28056248Y31558912D01*
X28056246Y31558913D01*
X27932483Y31660483D01*
X27830913Y31784247D01*
X27821167Y31802481D01*
X27755438Y31925451D01*
X27708961Y32078664D01*
X27708961Y32078665D01*
X27708960Y32078668D01*
X27697200Y32198072D01*
X27697201Y33801929D01*
X27708961Y33921333D01*
X27708962Y33921337D01*
X27755439Y34074550D01*
X27830913Y34215752D01*
X27830914Y34215754D01*
X27932484Y34339517D01*
X28056247Y34441087D01*
X28074481Y34450833D01*
X28197451Y34516562D01*
X28350664Y34563039D01*
X28350665Y34563039D01*
X28350668Y34563040D01*
X28510000Y34578733D01*
X28669333Y34563040D01*
G37*
G36*
X26129333Y34563040D02*
G01*
X26129336Y34563039D01*
X26129337Y34563039D01*
X26282550Y34516562D01*
X26405520Y34450833D01*
X26423754Y34441087D01*
X26547517Y34339517D01*
X26649087Y34215754D01*
X26649088Y34215752D01*
X26724562Y34074550D01*
X26771039Y33921337D01*
X26771040Y33921333D01*
X26782800Y33801929D01*
X26782800Y32198071D01*
X26771040Y32078667D01*
X26771039Y32078664D01*
X26771039Y32078663D01*
X26724562Y31925450D01*
X26724561Y31925449D01*
X26649087Y31784246D01*
X26547517Y31660483D01*
X26423753Y31558913D01*
X26423751Y31558912D01*
X26282549Y31483438D01*
X26129336Y31436961D01*
X26129335Y31436961D01*
X26129332Y31436960D01*
X25970000Y31421267D01*
X25810667Y31436960D01*
X25810664Y31436961D01*
X25810663Y31436961D01*
X25657450Y31483438D01*
X25516248Y31558912D01*
X25516246Y31558913D01*
X25392483Y31660483D01*
X25290913Y31784247D01*
X25281167Y31802481D01*
X25215438Y31925451D01*
X25168961Y32078664D01*
X25168961Y32078665D01*
X25168960Y32078668D01*
X25157200Y32198072D01*
X25157201Y33801929D01*
X25168961Y33921333D01*
X25168962Y33921337D01*
X25215439Y34074550D01*
X25290913Y34215752D01*
X25290914Y34215754D01*
X25392484Y34339517D01*
X25516247Y34441087D01*
X25534481Y34450833D01*
X25657451Y34516562D01*
X25810664Y34563039D01*
X25810665Y34563039D01*
X25810668Y34563040D01*
X25970000Y34578733D01*
X26129333Y34563040D01*
G37*
M02*
