%TF.GenerationSoftware,KiCad,Pcbnew,(5.1.6)-1*%
%TF.CreationDate,2021-11-16T12:50:12-05:00*%
%TF.ProjectId,AmbaSat-1_Satellite,416d6261-5361-4742-9d31-5f536174656c,KiCad_1.0*%
%TF.SameCoordinates,PX7ceeb0cPY74d41b0*%
%TF.FileFunction,Soldermask,Top*%
%TF.FilePolarity,Negative*%
%FSLAX46Y46*%
G04 Gerber Fmt 4.6, Leading zero omitted, Abs format (unit mm)*
G04 Created by KiCad (PCBNEW (5.1.6)-1) date 2021-11-16 12:50:12*
%MOMM*%
%LPD*%
G01*
G04 APERTURE LIST*
%ADD10C,0.100000*%
G04 APERTURE END LIST*
D10*
%TO.C,Y1*%
G36*
X9112000Y34293000D02*
G01*
X8112000Y34293000D01*
X8112000Y33593000D01*
X9112000Y33593000D01*
X9112000Y34293000D01*
G37*
G36*
X7612000Y34293000D02*
G01*
X6612000Y34293000D01*
X6612000Y33593000D01*
X7612000Y33593000D01*
X7612000Y34293000D01*
G37*
G36*
X6112000Y34293000D02*
G01*
X5112000Y34293000D01*
X5112000Y33593000D01*
X6112000Y33593000D01*
X6112000Y34293000D01*
G37*
G36*
X6112000Y32193000D02*
G01*
X5112000Y32193000D01*
X5112000Y31493000D01*
X6112000Y31493000D01*
X6112000Y32193000D01*
G37*
G36*
X7612000Y32193000D02*
G01*
X6612000Y32193000D01*
X6612000Y31493000D01*
X7612000Y31493000D01*
X7612000Y32193000D01*
G37*
G36*
X9112000Y32193000D02*
G01*
X8112000Y32193000D01*
X8112000Y31493000D01*
X9112000Y31493000D01*
X9112000Y32193000D01*
G37*
G36*
X34571300Y714200D02*
G01*
X32469700Y714200D01*
X32469700Y2085800D01*
X34571300Y2085800D01*
X34571300Y714200D01*
G37*
G36*
X18571300Y714200D02*
G01*
X16469700Y714200D01*
X16469700Y2085800D01*
X18571300Y2085800D01*
X18571300Y714200D01*
G37*
G36*
X12186638Y1392481D02*
G01*
X12196157Y1389593D01*
X12204917Y1384911D01*
X12212603Y1378603D01*
X12218911Y1370917D01*
X12223593Y1362157D01*
X12226481Y1352638D01*
X12227700Y1340259D01*
X12227700Y791741D01*
X12226481Y779362D01*
X12223593Y769843D01*
X12218911Y761083D01*
X12212603Y753397D01*
X12204917Y747089D01*
X12196157Y742407D01*
X12186638Y739519D01*
X12174259Y738300D01*
X11975741Y738300D01*
X11963362Y739519D01*
X11953843Y742407D01*
X11945083Y747089D01*
X11937397Y753397D01*
X11931089Y761083D01*
X11926407Y769843D01*
X11923519Y779362D01*
X11922300Y791741D01*
X11922300Y1340259D01*
X11923519Y1352638D01*
X11926407Y1362157D01*
X11931089Y1370917D01*
X11937397Y1378603D01*
X11945083Y1384911D01*
X11953843Y1389593D01*
X11963362Y1392481D01*
X11975741Y1393700D01*
X12174259Y1393700D01*
X12186638Y1392481D01*
G37*
G36*
X12615003Y1395263D02*
G01*
X12623785Y1390569D01*
X12625439Y1389977D01*
X12634917Y1384911D01*
X12642603Y1378603D01*
X12648911Y1370917D01*
X12653593Y1362157D01*
X12656481Y1352638D01*
X12657700Y1340259D01*
X12657700Y791741D01*
X12656481Y779362D01*
X12653593Y769843D01*
X12648911Y761083D01*
X12642603Y753397D01*
X12634917Y747089D01*
X12626157Y742407D01*
X12616638Y739519D01*
X12604259Y738300D01*
X12405741Y738300D01*
X12393362Y739519D01*
X12383843Y742407D01*
X12375083Y747089D01*
X12367397Y753397D01*
X12361089Y761083D01*
X12356407Y769843D01*
X12353519Y779362D01*
X12352300Y791741D01*
X12352300Y1340259D01*
X12353519Y1352638D01*
X12356407Y1362157D01*
X12361089Y1370917D01*
X12367397Y1378603D01*
X12375083Y1384911D01*
X12383843Y1389593D01*
X12393362Y1392481D01*
X12405741Y1393700D01*
X12586775Y1393700D01*
X12596685Y1394676D01*
X12606215Y1397567D01*
X12609837Y1399503D01*
X12615003Y1395263D01*
G37*
G36*
X10258476Y1395888D02*
G01*
X10268243Y1393945D01*
X10273225Y1393700D01*
X10454259Y1393700D01*
X10466638Y1392481D01*
X10476157Y1389593D01*
X10484917Y1384911D01*
X10492603Y1378603D01*
X10498911Y1370917D01*
X10503593Y1362157D01*
X10506481Y1352638D01*
X10507700Y1340259D01*
X10507700Y791741D01*
X10506481Y779362D01*
X10503593Y769843D01*
X10498911Y761083D01*
X10492603Y753397D01*
X10484917Y747089D01*
X10476157Y742407D01*
X10466638Y739519D01*
X10454259Y738300D01*
X10255741Y738300D01*
X10243362Y739519D01*
X10233843Y742407D01*
X10225083Y747089D01*
X10217397Y753397D01*
X10211089Y761083D01*
X10206407Y769843D01*
X10203519Y779362D01*
X10202300Y791741D01*
X10202300Y1340259D01*
X10203519Y1352638D01*
X10206407Y1362157D01*
X10211089Y1370917D01*
X10217397Y1378603D01*
X10225083Y1384911D01*
X10235985Y1390739D01*
X10240719Y1392699D01*
X10248999Y1398231D01*
X10250119Y1399351D01*
X10258476Y1395888D01*
G37*
G36*
X10896638Y1392481D02*
G01*
X10906157Y1389593D01*
X10914917Y1384911D01*
X10922603Y1378603D01*
X10928911Y1370917D01*
X10933593Y1362157D01*
X10936481Y1352638D01*
X10937700Y1340259D01*
X10937700Y791741D01*
X10936481Y779362D01*
X10933593Y769843D01*
X10928911Y761083D01*
X10922603Y753397D01*
X10914917Y747089D01*
X10906157Y742407D01*
X10896638Y739519D01*
X10884259Y738300D01*
X10685741Y738300D01*
X10673362Y739519D01*
X10663843Y742407D01*
X10655083Y747089D01*
X10647397Y753397D01*
X10641089Y761083D01*
X10636407Y769843D01*
X10633519Y779362D01*
X10632300Y791741D01*
X10632300Y1340259D01*
X10633519Y1352638D01*
X10636407Y1362157D01*
X10641089Y1370917D01*
X10647397Y1378603D01*
X10655083Y1384911D01*
X10663843Y1389593D01*
X10673362Y1392481D01*
X10685741Y1393700D01*
X10884259Y1393700D01*
X10896638Y1392481D01*
G37*
G36*
X11756638Y1392481D02*
G01*
X11766157Y1389593D01*
X11774917Y1384911D01*
X11782603Y1378603D01*
X11788911Y1370917D01*
X11793593Y1362157D01*
X11796481Y1352638D01*
X11797700Y1340259D01*
X11797700Y791741D01*
X11796481Y779362D01*
X11793593Y769843D01*
X11788911Y761083D01*
X11782603Y753397D01*
X11774917Y747089D01*
X11766157Y742407D01*
X11756638Y739519D01*
X11744259Y738300D01*
X11545741Y738300D01*
X11533362Y739519D01*
X11523843Y742407D01*
X11515083Y747089D01*
X11507397Y753397D01*
X11501089Y761083D01*
X11496407Y769843D01*
X11493519Y779362D01*
X11492300Y791741D01*
X11492300Y1340259D01*
X11493519Y1352638D01*
X11496407Y1362157D01*
X11501089Y1370917D01*
X11507397Y1378603D01*
X11515083Y1384911D01*
X11523843Y1389593D01*
X11533362Y1392481D01*
X11545741Y1393700D01*
X11744259Y1393700D01*
X11756638Y1392481D01*
G37*
G36*
X11326638Y1392481D02*
G01*
X11336157Y1389593D01*
X11344917Y1384911D01*
X11352603Y1378603D01*
X11358911Y1370917D01*
X11363593Y1362157D01*
X11366481Y1352638D01*
X11367700Y1340259D01*
X11367700Y791741D01*
X11366481Y779362D01*
X11363593Y769843D01*
X11358911Y761083D01*
X11352603Y753397D01*
X11344917Y747089D01*
X11336157Y742407D01*
X11326638Y739519D01*
X11314259Y738300D01*
X11115741Y738300D01*
X11103362Y739519D01*
X11093843Y742407D01*
X11085083Y747089D01*
X11077397Y753397D01*
X11071089Y761083D01*
X11066407Y769843D01*
X11063519Y779362D01*
X11062300Y791741D01*
X11062300Y1340259D01*
X11063519Y1352638D01*
X11066407Y1362157D01*
X11071089Y1370917D01*
X11077397Y1378603D01*
X11085083Y1384911D01*
X11093843Y1389593D01*
X11103362Y1392481D01*
X11115741Y1393700D01*
X11314259Y1393700D01*
X11326638Y1392481D01*
G37*
G36*
X13046638Y1384981D02*
G01*
X13056157Y1382093D01*
X13064917Y1377411D01*
X13072603Y1371103D01*
X13078911Y1363417D01*
X13083593Y1354657D01*
X13086481Y1345138D01*
X13087700Y1332759D01*
X13087700Y799241D01*
X13086481Y786862D01*
X13083593Y777343D01*
X13078911Y768583D01*
X13072603Y760897D01*
X13064917Y754589D01*
X13056157Y749907D01*
X13046638Y747019D01*
X13034259Y745800D01*
X12835741Y745800D01*
X12823362Y747019D01*
X12813843Y749907D01*
X12805083Y754589D01*
X12797397Y760897D01*
X12791089Y768583D01*
X12786407Y777343D01*
X12783519Y786862D01*
X12782300Y799241D01*
X12782300Y1332759D01*
X12783519Y1345138D01*
X12786407Y1354657D01*
X12791089Y1363417D01*
X12797397Y1371103D01*
X12805083Y1377411D01*
X12813843Y1382093D01*
X12823362Y1384981D01*
X12835741Y1386200D01*
X13034259Y1386200D01*
X13046638Y1384981D01*
G37*
G36*
X10036638Y1384981D02*
G01*
X10046157Y1382093D01*
X10054917Y1377411D01*
X10062603Y1371103D01*
X10068911Y1363417D01*
X10073593Y1354657D01*
X10076481Y1345138D01*
X10077700Y1332759D01*
X10077700Y799241D01*
X10076481Y786862D01*
X10073593Y777343D01*
X10068911Y768583D01*
X10062603Y760897D01*
X10054917Y754589D01*
X10046157Y749907D01*
X10036638Y747019D01*
X10024259Y745800D01*
X9825741Y745800D01*
X9813362Y747019D01*
X9803843Y749907D01*
X9795083Y754589D01*
X9787397Y760897D01*
X9781089Y768583D01*
X9776407Y777343D01*
X9773519Y786862D01*
X9772300Y799241D01*
X9772300Y1332759D01*
X9773519Y1345138D01*
X9776407Y1354657D01*
X9781089Y1363417D01*
X9787397Y1371103D01*
X9795083Y1377411D01*
X9803843Y1382093D01*
X9813362Y1384981D01*
X9825741Y1386200D01*
X10024259Y1386200D01*
X10036638Y1384981D01*
G37*
G36*
X2921333Y2451040D02*
G01*
X2921336Y2451039D01*
X2921337Y2451039D01*
X3074550Y2404562D01*
X3137972Y2370662D01*
X3215754Y2329087D01*
X3339517Y2227517D01*
X3441087Y2103754D01*
X3441088Y2103752D01*
X3516562Y1962550D01*
X3558285Y1825009D01*
X3563040Y1809333D01*
X3578733Y1650000D01*
X3563040Y1490667D01*
X3563039Y1490664D01*
X3563039Y1490663D01*
X3516562Y1337450D01*
X3456269Y1224650D01*
X3441087Y1196246D01*
X3339517Y1072483D01*
X3215754Y970913D01*
X3215752Y970912D01*
X3074550Y895438D01*
X2921337Y848961D01*
X2921336Y848961D01*
X2921333Y848960D01*
X2801929Y837200D01*
X1198071Y837200D01*
X1078667Y848960D01*
X1078664Y848961D01*
X1078663Y848961D01*
X925450Y895438D01*
X784248Y970912D01*
X784246Y970913D01*
X660483Y1072483D01*
X558913Y1196246D01*
X543731Y1224650D01*
X483438Y1337450D01*
X436961Y1490663D01*
X436961Y1490664D01*
X436960Y1490667D01*
X421267Y1650000D01*
X436960Y1809333D01*
X441715Y1825009D01*
X483438Y1962550D01*
X558912Y2103752D01*
X558913Y2103754D01*
X660483Y2227517D01*
X784246Y2329087D01*
X862028Y2370662D01*
X925450Y2404562D01*
X1078663Y2451039D01*
X1078664Y2451039D01*
X1078667Y2451040D01*
X1198071Y2462800D01*
X2801929Y2462800D01*
X2921333Y2451040D01*
G37*
G36*
X14978951Y1869791D02*
G01*
X15014730Y1858937D01*
X15047699Y1841315D01*
X15076598Y1817598D01*
X15100315Y1788699D01*
X15117937Y1755730D01*
X15128791Y1719951D01*
X15132700Y1680259D01*
X15132700Y1201741D01*
X15128791Y1162049D01*
X15117937Y1126270D01*
X15100315Y1093301D01*
X15076598Y1064402D01*
X15047699Y1040685D01*
X15014730Y1023063D01*
X14978951Y1012209D01*
X14939259Y1008300D01*
X14270741Y1008300D01*
X14231049Y1012209D01*
X14195270Y1023063D01*
X14162301Y1040685D01*
X14133402Y1064402D01*
X14109685Y1093301D01*
X14092063Y1126270D01*
X14081209Y1162049D01*
X14077300Y1201741D01*
X14077300Y1680259D01*
X14081209Y1719951D01*
X14092063Y1755730D01*
X14109685Y1788699D01*
X14133402Y1817598D01*
X14162301Y1841315D01*
X14195270Y1858937D01*
X14231049Y1869791D01*
X14270741Y1873700D01*
X14939259Y1873700D01*
X14978951Y1869791D01*
G37*
G36*
X13186638Y1792481D02*
G01*
X13196157Y1789593D01*
X13204917Y1784911D01*
X13212603Y1778603D01*
X13218911Y1770917D01*
X13223593Y1762157D01*
X13226481Y1752638D01*
X13227700Y1740259D01*
X13227700Y1541741D01*
X13226481Y1529362D01*
X13223593Y1519843D01*
X13218911Y1511083D01*
X13212603Y1503397D01*
X13204917Y1497089D01*
X13196157Y1492407D01*
X13186638Y1489519D01*
X13174259Y1488300D01*
X12643225Y1488300D01*
X12633315Y1487324D01*
X12623785Y1484433D01*
X12620163Y1482497D01*
X12614997Y1486737D01*
X12606215Y1491431D01*
X12604561Y1492023D01*
X12595083Y1497089D01*
X12587397Y1503397D01*
X12581089Y1511083D01*
X12576407Y1519843D01*
X12573519Y1529362D01*
X12572300Y1541741D01*
X12572300Y1740259D01*
X12573519Y1752638D01*
X12576407Y1762157D01*
X12581089Y1770917D01*
X12587397Y1778603D01*
X12595083Y1784911D01*
X12603843Y1789593D01*
X12613362Y1792481D01*
X12625741Y1793700D01*
X13174259Y1793700D01*
X13186638Y1792481D01*
G37*
G36*
X10246638Y1792481D02*
G01*
X10256157Y1789593D01*
X10264917Y1784911D01*
X10272603Y1778603D01*
X10278911Y1770917D01*
X10283593Y1762157D01*
X10286481Y1752638D01*
X10287700Y1740259D01*
X10287700Y1541741D01*
X10286481Y1529362D01*
X10283593Y1519843D01*
X10278911Y1511083D01*
X10272603Y1503397D01*
X10264917Y1497089D01*
X10254015Y1491261D01*
X10249281Y1489301D01*
X10241001Y1483769D01*
X10239881Y1482649D01*
X10231524Y1486112D01*
X10221757Y1488055D01*
X10216775Y1488300D01*
X9685741Y1488300D01*
X9673362Y1489519D01*
X9663843Y1492407D01*
X9655083Y1497089D01*
X9647397Y1503397D01*
X9641089Y1511083D01*
X9636407Y1519843D01*
X9633519Y1529362D01*
X9632300Y1541741D01*
X9632300Y1740259D01*
X9633519Y1752638D01*
X9636407Y1762157D01*
X9641089Y1770917D01*
X9647397Y1778603D01*
X9655083Y1784911D01*
X9663843Y1789593D01*
X9673362Y1792481D01*
X9685741Y1793700D01*
X10234259Y1793700D01*
X10246638Y1792481D01*
G37*
G36*
X7441239Y4454568D02*
G01*
X7716531Y4340538D01*
X7964291Y4174990D01*
X8174990Y3964291D01*
X8340538Y3716531D01*
X8454568Y3441239D01*
X8512700Y3148988D01*
X8512700Y2851012D01*
X8454568Y2558761D01*
X8340538Y2283469D01*
X8299787Y2222481D01*
X8174991Y2035710D01*
X7964290Y1825009D01*
X7860606Y1755730D01*
X7716531Y1659462D01*
X7441239Y1545432D01*
X7148988Y1487300D01*
X6851012Y1487300D01*
X6558761Y1545432D01*
X6283469Y1659462D01*
X6139394Y1755730D01*
X6035710Y1825009D01*
X5825009Y2035710D01*
X5700213Y2222481D01*
X5659462Y2283469D01*
X5545432Y2558761D01*
X5487300Y2851012D01*
X5487300Y3148988D01*
X5545432Y3441239D01*
X5659462Y3716531D01*
X5825010Y3964291D01*
X6035709Y4174990D01*
X6283469Y4340538D01*
X6558761Y4454568D01*
X6851012Y4512700D01*
X7148988Y4512700D01*
X7441239Y4454568D01*
G37*
G36*
X10246638Y2222481D02*
G01*
X10256157Y2219593D01*
X10264917Y2214911D01*
X10272603Y2208603D01*
X10278911Y2200917D01*
X10283593Y2192157D01*
X10286481Y2182638D01*
X10287700Y2170259D01*
X10287700Y1971741D01*
X10286481Y1959362D01*
X10283593Y1949843D01*
X10278911Y1941083D01*
X10272603Y1933397D01*
X10264917Y1927089D01*
X10256157Y1922407D01*
X10246638Y1919519D01*
X10234259Y1918300D01*
X9685741Y1918300D01*
X9673362Y1919519D01*
X9663843Y1922407D01*
X9655083Y1927089D01*
X9647397Y1933397D01*
X9641089Y1941083D01*
X9636407Y1949843D01*
X9633519Y1959362D01*
X9632300Y1971741D01*
X9632300Y2170259D01*
X9633519Y2182638D01*
X9636407Y2192157D01*
X9641089Y2200917D01*
X9647397Y2208603D01*
X9655083Y2214911D01*
X9663843Y2219593D01*
X9673362Y2222481D01*
X9685741Y2223700D01*
X10234259Y2223700D01*
X10246638Y2222481D01*
G37*
G36*
X13186638Y2222481D02*
G01*
X13196157Y2219593D01*
X13204917Y2214911D01*
X13212603Y2208603D01*
X13218911Y2200917D01*
X13223593Y2192157D01*
X13226481Y2182638D01*
X13227700Y2170259D01*
X13227700Y1971741D01*
X13226481Y1959362D01*
X13223593Y1949843D01*
X13218911Y1941083D01*
X13212603Y1933397D01*
X13204917Y1927089D01*
X13196157Y1922407D01*
X13186638Y1919519D01*
X13174259Y1918300D01*
X12625741Y1918300D01*
X12613362Y1919519D01*
X12603843Y1922407D01*
X12595083Y1927089D01*
X12587397Y1933397D01*
X12581089Y1941083D01*
X12576407Y1949843D01*
X12573519Y1959362D01*
X12572300Y1971741D01*
X12572300Y2170259D01*
X12573519Y2182638D01*
X12576407Y2192157D01*
X12581089Y2200917D01*
X12587397Y2208603D01*
X12595083Y2214911D01*
X12603843Y2219593D01*
X12613362Y2222481D01*
X12625741Y2223700D01*
X13174259Y2223700D01*
X13186638Y2222481D01*
G37*
G36*
X10246638Y2652481D02*
G01*
X10256157Y2649593D01*
X10264917Y2644911D01*
X10272603Y2638603D01*
X10278911Y2630917D01*
X10283593Y2622157D01*
X10286481Y2612638D01*
X10287700Y2600259D01*
X10287700Y2401741D01*
X10286481Y2389362D01*
X10283593Y2379843D01*
X10278911Y2371083D01*
X10272603Y2363397D01*
X10264917Y2357089D01*
X10256157Y2352407D01*
X10246638Y2349519D01*
X10234259Y2348300D01*
X9685741Y2348300D01*
X9673362Y2349519D01*
X9663843Y2352407D01*
X9655083Y2357089D01*
X9647397Y2363397D01*
X9641089Y2371083D01*
X9636407Y2379843D01*
X9633519Y2389362D01*
X9632300Y2401741D01*
X9632300Y2600259D01*
X9633519Y2612638D01*
X9636407Y2622157D01*
X9641089Y2630917D01*
X9647397Y2638603D01*
X9655083Y2644911D01*
X9663843Y2649593D01*
X9673362Y2652481D01*
X9685741Y2653700D01*
X10234259Y2653700D01*
X10246638Y2652481D01*
G37*
G36*
X13186638Y2652481D02*
G01*
X13196157Y2649593D01*
X13204917Y2644911D01*
X13212603Y2638603D01*
X13218911Y2630917D01*
X13223593Y2622157D01*
X13226481Y2612638D01*
X13227700Y2600259D01*
X13227700Y2401741D01*
X13226481Y2389362D01*
X13223593Y2379843D01*
X13218911Y2371083D01*
X13212603Y2363397D01*
X13204917Y2357089D01*
X13196157Y2352407D01*
X13186638Y2349519D01*
X13174259Y2348300D01*
X12625741Y2348300D01*
X12613362Y2349519D01*
X12603843Y2352407D01*
X12595083Y2357089D01*
X12587397Y2363397D01*
X12581089Y2371083D01*
X12576407Y2379843D01*
X12573519Y2389362D01*
X12572300Y2401741D01*
X12572300Y2600259D01*
X12573519Y2612638D01*
X12576407Y2622157D01*
X12581089Y2630917D01*
X12587397Y2638603D01*
X12595083Y2644911D01*
X12603843Y2649593D01*
X12613362Y2652481D01*
X12625741Y2653700D01*
X13174259Y2653700D01*
X13186638Y2652481D01*
G37*
G36*
X14978951Y3559791D02*
G01*
X15014730Y3548937D01*
X15047699Y3531315D01*
X15076598Y3507598D01*
X15100315Y3478699D01*
X15117937Y3445730D01*
X15128791Y3409951D01*
X15132700Y3370259D01*
X15132700Y2891741D01*
X15128791Y2852049D01*
X15117937Y2816270D01*
X15100315Y2783301D01*
X15076598Y2754402D01*
X15047699Y2730685D01*
X15014730Y2713063D01*
X14978951Y2702209D01*
X14939259Y2698300D01*
X14270741Y2698300D01*
X14231049Y2702209D01*
X14195270Y2713063D01*
X14162301Y2730685D01*
X14133402Y2754402D01*
X14109685Y2783301D01*
X14092063Y2816270D01*
X14081209Y2852049D01*
X14077300Y2891741D01*
X14077300Y3370259D01*
X14081209Y3409951D01*
X14092063Y3445730D01*
X14109685Y3478699D01*
X14133402Y3507598D01*
X14162301Y3531315D01*
X14195270Y3548937D01*
X14231049Y3559791D01*
X14270741Y3563700D01*
X14939259Y3563700D01*
X14978951Y3559791D01*
G37*
G36*
X18571300Y2714200D02*
G01*
X16469700Y2714200D01*
X16469700Y4085800D01*
X18571300Y4085800D01*
X18571300Y2714200D01*
G37*
G36*
X34571300Y2714200D02*
G01*
X32469700Y2714200D01*
X32469700Y4085800D01*
X34571300Y4085800D01*
X34571300Y2714200D01*
G37*
G36*
X12628476Y3085888D02*
G01*
X12638243Y3083945D01*
X12643225Y3083700D01*
X13174259Y3083700D01*
X13186638Y3082481D01*
X13196157Y3079593D01*
X13204917Y3074911D01*
X13212603Y3068603D01*
X13218911Y3060917D01*
X13223593Y3052157D01*
X13226481Y3042638D01*
X13227700Y3030259D01*
X13227700Y2831741D01*
X13226481Y2819362D01*
X13223593Y2809843D01*
X13218911Y2801083D01*
X13212603Y2793397D01*
X13204917Y2787089D01*
X13196157Y2782407D01*
X13186638Y2779519D01*
X13174259Y2778300D01*
X12625741Y2778300D01*
X12613362Y2779519D01*
X12603843Y2782407D01*
X12595083Y2787089D01*
X12587397Y2793397D01*
X12581089Y2801083D01*
X12576407Y2809843D01*
X12573519Y2819362D01*
X12572300Y2831741D01*
X12572300Y3030259D01*
X12573519Y3042638D01*
X12576407Y3052157D01*
X12581089Y3060917D01*
X12587397Y3068603D01*
X12595083Y3074911D01*
X12605985Y3080739D01*
X12610719Y3082699D01*
X12618999Y3088231D01*
X12620119Y3089351D01*
X12628476Y3085888D01*
G37*
G36*
X10245003Y3085263D02*
G01*
X10253785Y3080569D01*
X10255439Y3079977D01*
X10264917Y3074911D01*
X10272603Y3068603D01*
X10278911Y3060917D01*
X10283593Y3052157D01*
X10286481Y3042638D01*
X10287700Y3030259D01*
X10287700Y2831741D01*
X10286481Y2819362D01*
X10283593Y2809843D01*
X10278911Y2801083D01*
X10272603Y2793397D01*
X10264917Y2787089D01*
X10256157Y2782407D01*
X10246638Y2779519D01*
X10234259Y2778300D01*
X9685741Y2778300D01*
X9673362Y2779519D01*
X9663843Y2782407D01*
X9655083Y2787089D01*
X9647397Y2793397D01*
X9641089Y2801083D01*
X9636407Y2809843D01*
X9633519Y2819362D01*
X9632300Y2831741D01*
X9632300Y3030259D01*
X9633519Y3042638D01*
X9636407Y3052157D01*
X9641089Y3060917D01*
X9647397Y3068603D01*
X9655083Y3074911D01*
X9663843Y3079593D01*
X9673362Y3082481D01*
X9685741Y3083700D01*
X10216775Y3083700D01*
X10226685Y3084676D01*
X10236215Y3087567D01*
X10239837Y3089503D01*
X10245003Y3085263D01*
G37*
G36*
X10466638Y3832481D02*
G01*
X10476157Y3829593D01*
X10484917Y3824911D01*
X10492603Y3818603D01*
X10498911Y3810917D01*
X10503593Y3802157D01*
X10506481Y3792638D01*
X10507700Y3780259D01*
X10507700Y3231741D01*
X10506481Y3219362D01*
X10503593Y3209843D01*
X10498911Y3201083D01*
X10492603Y3193397D01*
X10484917Y3187089D01*
X10476157Y3182407D01*
X10466638Y3179519D01*
X10454259Y3178300D01*
X10273225Y3178300D01*
X10263315Y3177324D01*
X10253785Y3174433D01*
X10250163Y3172497D01*
X10244997Y3176737D01*
X10236215Y3181431D01*
X10234561Y3182023D01*
X10225083Y3187089D01*
X10217397Y3193397D01*
X10211089Y3201083D01*
X10206407Y3209843D01*
X10203519Y3219362D01*
X10202300Y3231741D01*
X10202300Y3780259D01*
X10203519Y3792638D01*
X10206407Y3802157D01*
X10211089Y3810917D01*
X10217397Y3818603D01*
X10225083Y3824911D01*
X10233843Y3829593D01*
X10243362Y3832481D01*
X10255741Y3833700D01*
X10454259Y3833700D01*
X10466638Y3832481D01*
G37*
G36*
X12616638Y3832481D02*
G01*
X12626157Y3829593D01*
X12634917Y3824911D01*
X12642603Y3818603D01*
X12648911Y3810917D01*
X12653593Y3802157D01*
X12656481Y3792638D01*
X12657700Y3780259D01*
X12657700Y3231741D01*
X12656481Y3219362D01*
X12653593Y3209843D01*
X12648911Y3201083D01*
X12642603Y3193397D01*
X12634917Y3187089D01*
X12624015Y3181261D01*
X12619281Y3179301D01*
X12611001Y3173769D01*
X12609881Y3172649D01*
X12601524Y3176112D01*
X12591757Y3178055D01*
X12586775Y3178300D01*
X12405741Y3178300D01*
X12393362Y3179519D01*
X12383843Y3182407D01*
X12375083Y3187089D01*
X12367397Y3193397D01*
X12361089Y3201083D01*
X12356407Y3209843D01*
X12353519Y3219362D01*
X12352300Y3231741D01*
X12352300Y3780259D01*
X12353519Y3792638D01*
X12356407Y3802157D01*
X12361089Y3810917D01*
X12367397Y3818603D01*
X12375083Y3824911D01*
X12383843Y3829593D01*
X12393362Y3832481D01*
X12405741Y3833700D01*
X12604259Y3833700D01*
X12616638Y3832481D01*
G37*
G36*
X11326638Y3832481D02*
G01*
X11336157Y3829593D01*
X11344917Y3824911D01*
X11352603Y3818603D01*
X11358911Y3810917D01*
X11363593Y3802157D01*
X11366481Y3792638D01*
X11367700Y3780259D01*
X11367700Y3231741D01*
X11366481Y3219362D01*
X11363593Y3209843D01*
X11358911Y3201083D01*
X11352603Y3193397D01*
X11344917Y3187089D01*
X11336157Y3182407D01*
X11326638Y3179519D01*
X11314259Y3178300D01*
X11115741Y3178300D01*
X11103362Y3179519D01*
X11093843Y3182407D01*
X11085083Y3187089D01*
X11077397Y3193397D01*
X11071089Y3201083D01*
X11066407Y3209843D01*
X11063519Y3219362D01*
X11062300Y3231741D01*
X11062300Y3780259D01*
X11063519Y3792638D01*
X11066407Y3802157D01*
X11071089Y3810917D01*
X11077397Y3818603D01*
X11085083Y3824911D01*
X11093843Y3829593D01*
X11103362Y3832481D01*
X11115741Y3833700D01*
X11314259Y3833700D01*
X11326638Y3832481D01*
G37*
G36*
X12186638Y3832481D02*
G01*
X12196157Y3829593D01*
X12204917Y3824911D01*
X12212603Y3818603D01*
X12218911Y3810917D01*
X12223593Y3802157D01*
X12226481Y3792638D01*
X12227700Y3780259D01*
X12227700Y3231741D01*
X12226481Y3219362D01*
X12223593Y3209843D01*
X12218911Y3201083D01*
X12212603Y3193397D01*
X12204917Y3187089D01*
X12196157Y3182407D01*
X12186638Y3179519D01*
X12174259Y3178300D01*
X11975741Y3178300D01*
X11963362Y3179519D01*
X11953843Y3182407D01*
X11945083Y3187089D01*
X11937397Y3193397D01*
X11931089Y3201083D01*
X11926407Y3209843D01*
X11923519Y3219362D01*
X11922300Y3231741D01*
X11922300Y3780259D01*
X11923519Y3792638D01*
X11926407Y3802157D01*
X11931089Y3810917D01*
X11937397Y3818603D01*
X11945083Y3824911D01*
X11953843Y3829593D01*
X11963362Y3832481D01*
X11975741Y3833700D01*
X12174259Y3833700D01*
X12186638Y3832481D01*
G37*
G36*
X11756638Y3832481D02*
G01*
X11766157Y3829593D01*
X11774917Y3824911D01*
X11782603Y3818603D01*
X11788911Y3810917D01*
X11793593Y3802157D01*
X11796481Y3792638D01*
X11797700Y3780259D01*
X11797700Y3231741D01*
X11796481Y3219362D01*
X11793593Y3209843D01*
X11788911Y3201083D01*
X11782603Y3193397D01*
X11774917Y3187089D01*
X11766157Y3182407D01*
X11756638Y3179519D01*
X11744259Y3178300D01*
X11545741Y3178300D01*
X11533362Y3179519D01*
X11523843Y3182407D01*
X11515083Y3187089D01*
X11507397Y3193397D01*
X11501089Y3201083D01*
X11496407Y3209843D01*
X11493519Y3219362D01*
X11492300Y3231741D01*
X11492300Y3780259D01*
X11493519Y3792638D01*
X11496407Y3802157D01*
X11501089Y3810917D01*
X11507397Y3818603D01*
X11515083Y3824911D01*
X11523843Y3829593D01*
X11533362Y3832481D01*
X11545741Y3833700D01*
X11744259Y3833700D01*
X11756638Y3832481D01*
G37*
G36*
X10896638Y3832481D02*
G01*
X10906157Y3829593D01*
X10914917Y3824911D01*
X10922603Y3818603D01*
X10928911Y3810917D01*
X10933593Y3802157D01*
X10936481Y3792638D01*
X10937700Y3780259D01*
X10937700Y3231741D01*
X10936481Y3219362D01*
X10933593Y3209843D01*
X10928911Y3201083D01*
X10922603Y3193397D01*
X10914917Y3187089D01*
X10906157Y3182407D01*
X10896638Y3179519D01*
X10884259Y3178300D01*
X10685741Y3178300D01*
X10673362Y3179519D01*
X10663843Y3182407D01*
X10655083Y3187089D01*
X10647397Y3193397D01*
X10641089Y3201083D01*
X10636407Y3209843D01*
X10633519Y3219362D01*
X10632300Y3231741D01*
X10632300Y3780259D01*
X10633519Y3792638D01*
X10636407Y3802157D01*
X10641089Y3810917D01*
X10647397Y3818603D01*
X10655083Y3824911D01*
X10663843Y3829593D01*
X10673362Y3832481D01*
X10685741Y3833700D01*
X10884259Y3833700D01*
X10896638Y3832481D01*
G37*
G36*
X13046638Y3824981D02*
G01*
X13056157Y3822093D01*
X13064917Y3817411D01*
X13072603Y3811103D01*
X13078911Y3803417D01*
X13083593Y3794657D01*
X13086481Y3785138D01*
X13087700Y3772759D01*
X13087700Y3239241D01*
X13086481Y3226862D01*
X13083593Y3217343D01*
X13078911Y3208583D01*
X13072603Y3200897D01*
X13064917Y3194589D01*
X13056157Y3189907D01*
X13046638Y3187019D01*
X13034259Y3185800D01*
X12835741Y3185800D01*
X12823362Y3187019D01*
X12813843Y3189907D01*
X12805083Y3194589D01*
X12797397Y3200897D01*
X12791089Y3208583D01*
X12786407Y3217343D01*
X12783519Y3226862D01*
X12782300Y3239241D01*
X12782300Y3772759D01*
X12783519Y3785138D01*
X12786407Y3794657D01*
X12791089Y3803417D01*
X12797397Y3811103D01*
X12805083Y3817411D01*
X12813843Y3822093D01*
X12823362Y3824981D01*
X12835741Y3826200D01*
X13034259Y3826200D01*
X13046638Y3824981D01*
G37*
G36*
X10036638Y3824981D02*
G01*
X10046157Y3822093D01*
X10054917Y3817411D01*
X10062603Y3811103D01*
X10068911Y3803417D01*
X10073593Y3794657D01*
X10076481Y3785138D01*
X10077700Y3772759D01*
X10077700Y3239241D01*
X10076481Y3226862D01*
X10073593Y3217343D01*
X10068911Y3208583D01*
X10062603Y3200897D01*
X10054917Y3194589D01*
X10046157Y3189907D01*
X10036638Y3187019D01*
X10024259Y3185800D01*
X9825741Y3185800D01*
X9813362Y3187019D01*
X9803843Y3189907D01*
X9795083Y3194589D01*
X9787397Y3200897D01*
X9781089Y3208583D01*
X9776407Y3217343D01*
X9773519Y3226862D01*
X9772300Y3239241D01*
X9772300Y3772759D01*
X9773519Y3785138D01*
X9776407Y3794657D01*
X9781089Y3803417D01*
X9787397Y3811103D01*
X9795083Y3817411D01*
X9803843Y3822093D01*
X9813362Y3824981D01*
X9825741Y3826200D01*
X10024259Y3826200D01*
X10036638Y3824981D01*
G37*
G36*
X2921333Y4991040D02*
G01*
X2921336Y4991039D01*
X2921337Y4991039D01*
X3074550Y4944562D01*
X3157154Y4900409D01*
X3215754Y4869087D01*
X3339517Y4767517D01*
X3441087Y4643754D01*
X3441088Y4643752D01*
X3516562Y4502550D01*
X3563039Y4349337D01*
X3563040Y4349333D01*
X3578733Y4190000D01*
X3563040Y4030667D01*
X3563039Y4030664D01*
X3563039Y4030663D01*
X3516562Y3877450D01*
X3460329Y3772245D01*
X3441087Y3736246D01*
X3339517Y3612483D01*
X3215754Y3510913D01*
X3215752Y3510912D01*
X3074550Y3435438D01*
X2921337Y3388961D01*
X2921336Y3388961D01*
X2921333Y3388960D01*
X2801929Y3377200D01*
X1198071Y3377200D01*
X1078667Y3388960D01*
X1078664Y3388961D01*
X1078663Y3388961D01*
X925450Y3435438D01*
X784248Y3510912D01*
X784246Y3510913D01*
X660483Y3612483D01*
X558913Y3736246D01*
X539671Y3772245D01*
X483438Y3877450D01*
X436961Y4030663D01*
X436961Y4030664D01*
X436960Y4030667D01*
X421267Y4190000D01*
X436960Y4349333D01*
X436961Y4349337D01*
X483438Y4502550D01*
X558912Y4643752D01*
X558913Y4643754D01*
X660483Y4767517D01*
X784246Y4869087D01*
X842846Y4900409D01*
X925450Y4944562D01*
X1078663Y4991039D01*
X1078664Y4991039D01*
X1078667Y4991040D01*
X1198071Y5002800D01*
X2801929Y5002800D01*
X2921333Y4991040D01*
G37*
G36*
X18571300Y4714200D02*
G01*
X16469700Y4714200D01*
X16469700Y6085800D01*
X18571300Y6085800D01*
X18571300Y4714200D01*
G37*
G36*
X34571300Y4714200D02*
G01*
X32469700Y4714200D01*
X32469700Y6085800D01*
X34571300Y6085800D01*
X34571300Y4714200D01*
G37*
G36*
X10395967Y5869051D02*
G01*
X10438968Y5856007D01*
X10478591Y5834828D01*
X10513324Y5806324D01*
X10541828Y5771591D01*
X10563007Y5731968D01*
X10576051Y5688967D01*
X10580700Y5641764D01*
X10580700Y5030236D01*
X10576051Y4983033D01*
X10563007Y4940032D01*
X10541828Y4900409D01*
X10513324Y4865676D01*
X10478591Y4837172D01*
X10438968Y4815993D01*
X10395967Y4802949D01*
X10348764Y4798300D01*
X9717236Y4798300D01*
X9670033Y4802949D01*
X9627032Y4815993D01*
X9587409Y4837172D01*
X9552676Y4865676D01*
X9524172Y4900409D01*
X9502993Y4940032D01*
X9489949Y4983033D01*
X9485300Y5030236D01*
X9485300Y5641764D01*
X9489949Y5688967D01*
X9502993Y5731968D01*
X9524172Y5771591D01*
X9552676Y5806324D01*
X9587409Y5834828D01*
X9627032Y5856007D01*
X9670033Y5869051D01*
X9717236Y5873700D01*
X10348764Y5873700D01*
X10395967Y5869051D01*
G37*
G36*
X14205967Y5869051D02*
G01*
X14248968Y5856007D01*
X14288591Y5834828D01*
X14323324Y5806324D01*
X14351828Y5771591D01*
X14373007Y5731968D01*
X14386051Y5688967D01*
X14390700Y5641764D01*
X14390700Y5030236D01*
X14386051Y4983033D01*
X14373007Y4940032D01*
X14351828Y4900409D01*
X14323324Y4865676D01*
X14288591Y4837172D01*
X14248968Y4815993D01*
X14205967Y4802949D01*
X14158764Y4798300D01*
X13527236Y4798300D01*
X13480033Y4802949D01*
X13437032Y4815993D01*
X13397409Y4837172D01*
X13362676Y4865676D01*
X13334172Y4900409D01*
X13312993Y4940032D01*
X13299949Y4983033D01*
X13295300Y5030236D01*
X13295300Y5641764D01*
X13299949Y5688967D01*
X13312993Y5731968D01*
X13334172Y5771591D01*
X13362676Y5806324D01*
X13397409Y5834828D01*
X13437032Y5856007D01*
X13480033Y5869051D01*
X13527236Y5873700D01*
X14158764Y5873700D01*
X14205967Y5869051D01*
G37*
G36*
X12300967Y5869051D02*
G01*
X12343968Y5856007D01*
X12383591Y5834828D01*
X12418324Y5806324D01*
X12446828Y5771591D01*
X12468007Y5731968D01*
X12481051Y5688967D01*
X12485700Y5641764D01*
X12485700Y5030236D01*
X12481051Y4983033D01*
X12468007Y4940032D01*
X12446828Y4900409D01*
X12418324Y4865676D01*
X12383591Y4837172D01*
X12343968Y4815993D01*
X12300967Y4802949D01*
X12253764Y4798300D01*
X11622236Y4798300D01*
X11575033Y4802949D01*
X11532032Y4815993D01*
X11492409Y4837172D01*
X11457676Y4865676D01*
X11429172Y4900409D01*
X11407993Y4940032D01*
X11394949Y4983033D01*
X11390300Y5030236D01*
X11390300Y5641764D01*
X11394949Y5688967D01*
X11407993Y5731968D01*
X11429172Y5771591D01*
X11457676Y5806324D01*
X11492409Y5834828D01*
X11532032Y5856007D01*
X11575033Y5869051D01*
X11622236Y5873700D01*
X12253764Y5873700D01*
X12300967Y5869051D01*
G37*
G36*
X6331967Y6631051D02*
G01*
X6374968Y6618007D01*
X6414591Y6596828D01*
X6449324Y6568324D01*
X6477828Y6533591D01*
X6499007Y6493968D01*
X6512051Y6450967D01*
X6516700Y6403764D01*
X6516700Y5792236D01*
X6512051Y5745033D01*
X6499007Y5702032D01*
X6477828Y5662409D01*
X6449324Y5627676D01*
X6414591Y5599172D01*
X6374968Y5577993D01*
X6331967Y5564949D01*
X6284764Y5560300D01*
X5653236Y5560300D01*
X5606033Y5564949D01*
X5563032Y5577993D01*
X5523409Y5599172D01*
X5488676Y5627676D01*
X5460172Y5662409D01*
X5438993Y5702032D01*
X5425949Y5745033D01*
X5421300Y5792236D01*
X5421300Y6403764D01*
X5425949Y6450967D01*
X5438993Y6493968D01*
X5460172Y6533591D01*
X5488676Y6568324D01*
X5523409Y6596828D01*
X5563032Y6618007D01*
X5606033Y6631051D01*
X5653236Y6635700D01*
X6284764Y6635700D01*
X6331967Y6631051D01*
G37*
G36*
X8236967Y6631051D02*
G01*
X8279968Y6618007D01*
X8319591Y6596828D01*
X8354324Y6568324D01*
X8382828Y6533591D01*
X8404007Y6493968D01*
X8417051Y6450967D01*
X8421700Y6403764D01*
X8421700Y5792236D01*
X8417051Y5745033D01*
X8404007Y5702032D01*
X8382828Y5662409D01*
X8354324Y5627676D01*
X8319591Y5599172D01*
X8279968Y5577993D01*
X8236967Y5564949D01*
X8189764Y5560300D01*
X7558236Y5560300D01*
X7511033Y5564949D01*
X7468032Y5577993D01*
X7428409Y5599172D01*
X7393676Y5627676D01*
X7365172Y5662409D01*
X7343993Y5702032D01*
X7330949Y5745033D01*
X7326300Y5792236D01*
X7326300Y6403764D01*
X7330949Y6450967D01*
X7343993Y6493968D01*
X7365172Y6533591D01*
X7393676Y6568324D01*
X7428409Y6596828D01*
X7468032Y6618007D01*
X7511033Y6631051D01*
X7558236Y6635700D01*
X8189764Y6635700D01*
X8236967Y6631051D01*
G37*
G36*
X2921333Y7531040D02*
G01*
X2921336Y7531039D01*
X2921337Y7531039D01*
X3074550Y7484562D01*
X3197520Y7418833D01*
X3215754Y7409087D01*
X3339517Y7307517D01*
X3441087Y7183754D01*
X3441088Y7183752D01*
X3516562Y7042550D01*
X3563039Y6889337D01*
X3563040Y6889333D01*
X3578733Y6730000D01*
X3563040Y6570667D01*
X3563039Y6570664D01*
X3563039Y6570663D01*
X3516562Y6417450D01*
X3503651Y6393296D01*
X3441087Y6276246D01*
X3339517Y6152483D01*
X3215754Y6050913D01*
X3215752Y6050912D01*
X3074550Y5975438D01*
X2921337Y5928961D01*
X2921336Y5928961D01*
X2921333Y5928960D01*
X2801929Y5917200D01*
X1198071Y5917200D01*
X1078667Y5928960D01*
X1078664Y5928961D01*
X1078663Y5928961D01*
X925450Y5975438D01*
X784248Y6050912D01*
X784246Y6050913D01*
X660483Y6152483D01*
X558913Y6276246D01*
X496349Y6393296D01*
X483438Y6417450D01*
X436961Y6570663D01*
X436961Y6570664D01*
X436960Y6570667D01*
X421267Y6730000D01*
X436960Y6889333D01*
X436961Y6889337D01*
X483438Y7042550D01*
X558912Y7183752D01*
X558913Y7183754D01*
X660483Y7307517D01*
X784246Y7409087D01*
X802480Y7418833D01*
X925450Y7484562D01*
X1078663Y7531039D01*
X1078664Y7531039D01*
X1078667Y7531040D01*
X1198071Y7542800D01*
X2801929Y7542800D01*
X2921333Y7531040D01*
G37*
G36*
X14205967Y7389051D02*
G01*
X14248968Y7376007D01*
X14288591Y7354828D01*
X14323324Y7326324D01*
X14351828Y7291591D01*
X14373007Y7251968D01*
X14386051Y7208967D01*
X14390700Y7161764D01*
X14390700Y6550236D01*
X14386051Y6503033D01*
X14373007Y6460032D01*
X14351828Y6420409D01*
X14323324Y6385676D01*
X14288591Y6357172D01*
X14248968Y6335993D01*
X14205967Y6322949D01*
X14158764Y6318300D01*
X13527236Y6318300D01*
X13480033Y6322949D01*
X13437032Y6335993D01*
X13397409Y6357172D01*
X13362676Y6385676D01*
X13334172Y6420409D01*
X13312993Y6460032D01*
X13299949Y6503033D01*
X13295300Y6550236D01*
X13295300Y7161764D01*
X13299949Y7208967D01*
X13312993Y7251968D01*
X13334172Y7291591D01*
X13362676Y7326324D01*
X13397409Y7354828D01*
X13437032Y7376007D01*
X13480033Y7389051D01*
X13527236Y7393700D01*
X14158764Y7393700D01*
X14205967Y7389051D01*
G37*
G36*
X10395967Y7389051D02*
G01*
X10438968Y7376007D01*
X10478591Y7354828D01*
X10513324Y7326324D01*
X10541828Y7291591D01*
X10563007Y7251968D01*
X10576051Y7208967D01*
X10580700Y7161764D01*
X10580700Y6550236D01*
X10576051Y6503033D01*
X10563007Y6460032D01*
X10541828Y6420409D01*
X10513324Y6385676D01*
X10478591Y6357172D01*
X10438968Y6335993D01*
X10395967Y6322949D01*
X10348764Y6318300D01*
X9717236Y6318300D01*
X9670033Y6322949D01*
X9627032Y6335993D01*
X9587409Y6357172D01*
X9552676Y6385676D01*
X9524172Y6420409D01*
X9502993Y6460032D01*
X9489949Y6503033D01*
X9485300Y6550236D01*
X9485300Y7161764D01*
X9489949Y7208967D01*
X9502993Y7251968D01*
X9524172Y7291591D01*
X9552676Y7326324D01*
X9587409Y7354828D01*
X9627032Y7376007D01*
X9670033Y7389051D01*
X9717236Y7393700D01*
X10348764Y7393700D01*
X10395967Y7389051D01*
G37*
G36*
X12300967Y7389051D02*
G01*
X12343968Y7376007D01*
X12383591Y7354828D01*
X12418324Y7326324D01*
X12446828Y7291591D01*
X12468007Y7251968D01*
X12481051Y7208967D01*
X12485700Y7161764D01*
X12485700Y6550236D01*
X12481051Y6503033D01*
X12468007Y6460032D01*
X12446828Y6420409D01*
X12418324Y6385676D01*
X12383591Y6357172D01*
X12343968Y6335993D01*
X12300967Y6322949D01*
X12253764Y6318300D01*
X11622236Y6318300D01*
X11575033Y6322949D01*
X11532032Y6335993D01*
X11492409Y6357172D01*
X11457676Y6385676D01*
X11429172Y6420409D01*
X11407993Y6460032D01*
X11394949Y6503033D01*
X11390300Y6550236D01*
X11390300Y7161764D01*
X11394949Y7208967D01*
X11407993Y7251968D01*
X11429172Y7291591D01*
X11457676Y7326324D01*
X11492409Y7354828D01*
X11532032Y7376007D01*
X11575033Y7389051D01*
X11622236Y7393700D01*
X12253764Y7393700D01*
X12300967Y7389051D01*
G37*
G36*
X34571300Y6702000D02*
G01*
X32469700Y6702000D01*
X32469700Y8073600D01*
X34571300Y8073600D01*
X34571300Y6702000D01*
G37*
G36*
X18571300Y6714200D02*
G01*
X16469700Y6714200D01*
X16469700Y8085800D01*
X18571300Y8085800D01*
X18571300Y6714200D01*
G37*
G36*
X8236967Y8151051D02*
G01*
X8279968Y8138007D01*
X8319591Y8116828D01*
X8354324Y8088324D01*
X8382828Y8053591D01*
X8404007Y8013968D01*
X8417051Y7970967D01*
X8421700Y7923764D01*
X8421700Y7312236D01*
X8417051Y7265033D01*
X8404007Y7222032D01*
X8382828Y7182409D01*
X8354324Y7147676D01*
X8319591Y7119172D01*
X8279968Y7097993D01*
X8236967Y7084949D01*
X8189764Y7080300D01*
X7558236Y7080300D01*
X7511033Y7084949D01*
X7468032Y7097993D01*
X7428409Y7119172D01*
X7393676Y7147676D01*
X7365172Y7182409D01*
X7343993Y7222032D01*
X7330949Y7265033D01*
X7326300Y7312236D01*
X7326300Y7923764D01*
X7330949Y7970967D01*
X7343993Y8013968D01*
X7365172Y8053591D01*
X7393676Y8088324D01*
X7428409Y8116828D01*
X7468032Y8138007D01*
X7511033Y8151051D01*
X7558236Y8155700D01*
X8189764Y8155700D01*
X8236967Y8151051D01*
G37*
G36*
X6331967Y8151051D02*
G01*
X6374968Y8138007D01*
X6414591Y8116828D01*
X6449324Y8088324D01*
X6477828Y8053591D01*
X6499007Y8013968D01*
X6512051Y7970967D01*
X6516700Y7923764D01*
X6516700Y7312236D01*
X6512051Y7265033D01*
X6499007Y7222032D01*
X6477828Y7182409D01*
X6449324Y7147676D01*
X6414591Y7119172D01*
X6374968Y7097993D01*
X6331967Y7084949D01*
X6284764Y7080300D01*
X5653236Y7080300D01*
X5606033Y7084949D01*
X5563032Y7097993D01*
X5523409Y7119172D01*
X5488676Y7147676D01*
X5460172Y7182409D01*
X5438993Y7222032D01*
X5425949Y7265033D01*
X5421300Y7312236D01*
X5421300Y7923764D01*
X5425949Y7970967D01*
X5438993Y8013968D01*
X5460172Y8053591D01*
X5488676Y8088324D01*
X5523409Y8116828D01*
X5563032Y8138007D01*
X5606033Y8151051D01*
X5653236Y8155700D01*
X6284764Y8155700D01*
X6331967Y8151051D01*
G37*
G36*
X12415967Y9306051D02*
G01*
X12458968Y9293007D01*
X12498591Y9271828D01*
X12533324Y9243324D01*
X12561828Y9208591D01*
X12583007Y9168968D01*
X12596051Y9125967D01*
X12600700Y9078764D01*
X12600700Y8447236D01*
X12596051Y8400033D01*
X12583007Y8357032D01*
X12561828Y8317409D01*
X12533324Y8282676D01*
X12498591Y8254172D01*
X12458968Y8232993D01*
X12415967Y8219949D01*
X12368764Y8215300D01*
X11757236Y8215300D01*
X11710033Y8219949D01*
X11667032Y8232993D01*
X11627409Y8254172D01*
X11592676Y8282676D01*
X11564172Y8317409D01*
X11542993Y8357032D01*
X11529949Y8400033D01*
X11525300Y8447236D01*
X11525300Y9078764D01*
X11529949Y9125967D01*
X11542993Y9168968D01*
X11564172Y9208591D01*
X11592676Y9243324D01*
X11627409Y9271828D01*
X11667032Y9293007D01*
X11710033Y9306051D01*
X11757236Y9310700D01*
X12368764Y9310700D01*
X12415967Y9306051D01*
G37*
G36*
X10895967Y9306051D02*
G01*
X10938968Y9293007D01*
X10978591Y9271828D01*
X11013324Y9243324D01*
X11041828Y9208591D01*
X11063007Y9168968D01*
X11076051Y9125967D01*
X11080700Y9078764D01*
X11080700Y8447236D01*
X11076051Y8400033D01*
X11063007Y8357032D01*
X11041828Y8317409D01*
X11013324Y8282676D01*
X10978591Y8254172D01*
X10938968Y8232993D01*
X10895967Y8219949D01*
X10848764Y8215300D01*
X10237236Y8215300D01*
X10190033Y8219949D01*
X10147032Y8232993D01*
X10107409Y8254172D01*
X10072676Y8282676D01*
X10044172Y8317409D01*
X10022993Y8357032D01*
X10009949Y8400033D01*
X10005300Y8447236D01*
X10005300Y9078764D01*
X10009949Y9125967D01*
X10022993Y9168968D01*
X10044172Y9208591D01*
X10072676Y9243324D01*
X10107409Y9271828D01*
X10147032Y9293007D01*
X10190033Y9306051D01*
X10237236Y9310700D01*
X10848764Y9310700D01*
X10895967Y9306051D01*
G37*
G36*
X14967967Y9298051D02*
G01*
X15010968Y9285007D01*
X15050591Y9263828D01*
X15085324Y9235324D01*
X15113828Y9200591D01*
X15135007Y9160968D01*
X15148051Y9117967D01*
X15152700Y9070764D01*
X15152700Y8459236D01*
X15148051Y8412033D01*
X15135007Y8369032D01*
X15113828Y8329409D01*
X15085324Y8294676D01*
X15050591Y8266172D01*
X15010968Y8244993D01*
X14967967Y8231949D01*
X14920764Y8227300D01*
X14289236Y8227300D01*
X14242033Y8231949D01*
X14199032Y8244993D01*
X14159409Y8266172D01*
X14124676Y8294676D01*
X14096172Y8329409D01*
X14074993Y8369032D01*
X14061949Y8412033D01*
X14057300Y8459236D01*
X14057300Y9070764D01*
X14061949Y9117967D01*
X14074993Y9160968D01*
X14096172Y9200591D01*
X14124676Y9235324D01*
X14159409Y9263828D01*
X14199032Y9285007D01*
X14242033Y9298051D01*
X14289236Y9302700D01*
X14920764Y9302700D01*
X14967967Y9298051D01*
G37*
G36*
X2921333Y10071040D02*
G01*
X2921336Y10071039D01*
X2921337Y10071039D01*
X3074550Y10024562D01*
X3114231Y10003352D01*
X3215754Y9949087D01*
X3339517Y9847517D01*
X3441087Y9723754D01*
X3441088Y9723752D01*
X3516562Y9582550D01*
X3562976Y9429544D01*
X3563040Y9429333D01*
X3578733Y9270000D01*
X3563040Y9110667D01*
X3563039Y9110664D01*
X3563039Y9110663D01*
X3516562Y8957450D01*
X3516561Y8957449D01*
X3441087Y8816246D01*
X3339517Y8692483D01*
X3215754Y8590913D01*
X3215752Y8590912D01*
X3074550Y8515438D01*
X2921337Y8468961D01*
X2921336Y8468961D01*
X2921333Y8468960D01*
X2801929Y8457200D01*
X1198071Y8457200D01*
X1078667Y8468960D01*
X1078664Y8468961D01*
X1078663Y8468961D01*
X925450Y8515438D01*
X784248Y8590912D01*
X784246Y8590913D01*
X660483Y8692483D01*
X558913Y8816246D01*
X483439Y8957449D01*
X483438Y8957450D01*
X436961Y9110663D01*
X436961Y9110664D01*
X436960Y9110667D01*
X421267Y9270000D01*
X436960Y9429333D01*
X437024Y9429544D01*
X483438Y9582550D01*
X558912Y9723752D01*
X558913Y9723754D01*
X660483Y9847517D01*
X784246Y9949087D01*
X885769Y10003352D01*
X925450Y10024562D01*
X1078663Y10071039D01*
X1078664Y10071039D01*
X1078667Y10071040D01*
X1198071Y10082800D01*
X2801929Y10082800D01*
X2921333Y10071040D01*
G37*
G36*
X18571300Y8714200D02*
G01*
X16469700Y8714200D01*
X16469700Y10085800D01*
X18571300Y10085800D01*
X18571300Y8714200D01*
G37*
G36*
X34571300Y8714200D02*
G01*
X32469700Y8714200D01*
X32469700Y10085800D01*
X34571300Y10085800D01*
X34571300Y8714200D01*
G37*
G36*
X9006666Y9905954D02*
G01*
X9031090Y9898545D01*
X9053601Y9886512D01*
X9073325Y9870325D01*
X9089512Y9850601D01*
X9101545Y9828090D01*
X9108954Y9803666D01*
X9111700Y9775781D01*
X9111700Y9406219D01*
X9108954Y9378334D01*
X9101545Y9353910D01*
X9089512Y9331399D01*
X9073325Y9311675D01*
X9053601Y9295488D01*
X9031090Y9283455D01*
X9006666Y9276046D01*
X8978781Y9273300D01*
X7959219Y9273300D01*
X7931334Y9276046D01*
X7906910Y9283455D01*
X7884399Y9295488D01*
X7864675Y9311675D01*
X7848488Y9331399D01*
X7836455Y9353910D01*
X7829046Y9378334D01*
X7826300Y9406219D01*
X7826300Y9775781D01*
X7829046Y9803666D01*
X7836455Y9828090D01*
X7848488Y9850601D01*
X7864675Y9870325D01*
X7884399Y9886512D01*
X7906910Y9898545D01*
X7931334Y9905954D01*
X7959219Y9908700D01*
X8978781Y9908700D01*
X9006666Y9905954D01*
G37*
G36*
X6546666Y9905954D02*
G01*
X6571090Y9898545D01*
X6593601Y9886512D01*
X6613325Y9870325D01*
X6629512Y9850601D01*
X6641545Y9828090D01*
X6648954Y9803666D01*
X6651700Y9775781D01*
X6651700Y9406219D01*
X6648954Y9378334D01*
X6641545Y9353910D01*
X6629512Y9331399D01*
X6613325Y9311675D01*
X6593601Y9295488D01*
X6571090Y9283455D01*
X6546666Y9276046D01*
X6518781Y9273300D01*
X5499219Y9273300D01*
X5471334Y9276046D01*
X5446910Y9283455D01*
X5424399Y9295488D01*
X5404675Y9311675D01*
X5388488Y9331399D01*
X5376455Y9353910D01*
X5369046Y9378334D01*
X5366300Y9406219D01*
X5366300Y9775781D01*
X5369046Y9803666D01*
X5376455Y9828090D01*
X5388488Y9850601D01*
X5404675Y9870325D01*
X5424399Y9886512D01*
X5446910Y9898545D01*
X5471334Y9905954D01*
X5499219Y9908700D01*
X6518781Y9908700D01*
X6546666Y9905954D01*
G37*
G36*
X14967967Y10818051D02*
G01*
X15010968Y10805007D01*
X15050591Y10783828D01*
X15085324Y10755324D01*
X15113828Y10720591D01*
X15135007Y10680968D01*
X15148051Y10637967D01*
X15152700Y10590764D01*
X15152700Y9979236D01*
X15148051Y9932033D01*
X15135007Y9889032D01*
X15113828Y9849409D01*
X15085324Y9814676D01*
X15050591Y9786172D01*
X15010968Y9764993D01*
X14967967Y9751949D01*
X14920764Y9747300D01*
X14289236Y9747300D01*
X14242033Y9751949D01*
X14199032Y9764993D01*
X14159409Y9786172D01*
X14124676Y9814676D01*
X14096172Y9849409D01*
X14074993Y9889032D01*
X14061949Y9932033D01*
X14057300Y9979236D01*
X14057300Y10590764D01*
X14061949Y10637967D01*
X14074993Y10680968D01*
X14096172Y10720591D01*
X14124676Y10755324D01*
X14159409Y10783828D01*
X14199032Y10805007D01*
X14242033Y10818051D01*
X14289236Y10822700D01*
X14920764Y10822700D01*
X14967967Y10818051D01*
G37*
G36*
X12415967Y11211051D02*
G01*
X12458968Y11198007D01*
X12498591Y11176828D01*
X12533324Y11148324D01*
X12561828Y11113591D01*
X12583007Y11073968D01*
X12596051Y11030967D01*
X12600700Y10983764D01*
X12600700Y10352236D01*
X12596051Y10305033D01*
X12583007Y10262032D01*
X12561828Y10222409D01*
X12533324Y10187676D01*
X12498591Y10159172D01*
X12458968Y10137993D01*
X12415967Y10124949D01*
X12368764Y10120300D01*
X11757236Y10120300D01*
X11710033Y10124949D01*
X11667032Y10137993D01*
X11627409Y10159172D01*
X11592676Y10187676D01*
X11564172Y10222409D01*
X11542993Y10262032D01*
X11529949Y10305033D01*
X11525300Y10352236D01*
X11525300Y10983764D01*
X11529949Y11030967D01*
X11542993Y11073968D01*
X11564172Y11113591D01*
X11592676Y11148324D01*
X11627409Y11176828D01*
X11667032Y11198007D01*
X11710033Y11211051D01*
X11757236Y11215700D01*
X12368764Y11215700D01*
X12415967Y11211051D01*
G37*
G36*
X10895967Y11211051D02*
G01*
X10938968Y11198007D01*
X10978591Y11176828D01*
X11013324Y11148324D01*
X11041828Y11113591D01*
X11063007Y11073968D01*
X11076051Y11030967D01*
X11080700Y10983764D01*
X11080700Y10352236D01*
X11076051Y10305033D01*
X11063007Y10262032D01*
X11041828Y10222409D01*
X11013324Y10187676D01*
X10978591Y10159172D01*
X10938968Y10137993D01*
X10895967Y10124949D01*
X10848764Y10120300D01*
X10237236Y10120300D01*
X10190033Y10124949D01*
X10147032Y10137993D01*
X10107409Y10159172D01*
X10072676Y10187676D01*
X10044172Y10222409D01*
X10022993Y10262032D01*
X10009949Y10305033D01*
X10005300Y10352236D01*
X10005300Y10983764D01*
X10009949Y11030967D01*
X10022993Y11073968D01*
X10044172Y11113591D01*
X10072676Y11148324D01*
X10107409Y11176828D01*
X10147032Y11198007D01*
X10190033Y11211051D01*
X10237236Y11215700D01*
X10848764Y11215700D01*
X10895967Y11211051D01*
G37*
G36*
X6546666Y10855954D02*
G01*
X6571090Y10848545D01*
X6593601Y10836512D01*
X6613325Y10820325D01*
X6629512Y10800601D01*
X6641545Y10778090D01*
X6648954Y10753666D01*
X6651700Y10725781D01*
X6651700Y10356219D01*
X6648954Y10328334D01*
X6641545Y10303910D01*
X6629512Y10281399D01*
X6613325Y10261675D01*
X6593601Y10245488D01*
X6571090Y10233455D01*
X6546666Y10226046D01*
X6518781Y10223300D01*
X5499219Y10223300D01*
X5471334Y10226046D01*
X5446910Y10233455D01*
X5424399Y10245488D01*
X5404675Y10261675D01*
X5388488Y10281399D01*
X5376455Y10303910D01*
X5369046Y10328334D01*
X5366300Y10356219D01*
X5366300Y10725781D01*
X5369046Y10753666D01*
X5376455Y10778090D01*
X5388488Y10800601D01*
X5404675Y10820325D01*
X5424399Y10836512D01*
X5446910Y10848545D01*
X5471334Y10855954D01*
X5499219Y10858700D01*
X6518781Y10858700D01*
X6546666Y10855954D01*
G37*
G36*
X34571300Y10619200D02*
G01*
X32469700Y10619200D01*
X32469700Y11990800D01*
X34571300Y11990800D01*
X34571300Y10619200D01*
G37*
G36*
X18571300Y10714200D02*
G01*
X16469700Y10714200D01*
X16469700Y12085800D01*
X18571300Y12085800D01*
X18571300Y10714200D01*
G37*
G36*
X2921333Y12611040D02*
G01*
X2921336Y12611039D01*
X2921337Y12611039D01*
X3074550Y12564562D01*
X3197520Y12498833D01*
X3215754Y12489087D01*
X3339517Y12387517D01*
X3441087Y12263754D01*
X3441088Y12263752D01*
X3516562Y12122550D01*
X3556528Y11990800D01*
X3563040Y11969333D01*
X3578733Y11810000D01*
X3563040Y11650667D01*
X3563039Y11650664D01*
X3563039Y11650663D01*
X3516562Y11497450D01*
X3516561Y11497449D01*
X3441087Y11356246D01*
X3339517Y11232483D01*
X3215754Y11130913D01*
X3215752Y11130912D01*
X3074550Y11055438D01*
X2921337Y11008961D01*
X2921336Y11008961D01*
X2921333Y11008960D01*
X2801929Y10997200D01*
X1198071Y10997200D01*
X1078667Y11008960D01*
X1078664Y11008961D01*
X1078663Y11008961D01*
X925450Y11055438D01*
X784248Y11130912D01*
X784246Y11130913D01*
X660483Y11232483D01*
X558913Y11356246D01*
X483439Y11497449D01*
X483438Y11497450D01*
X436961Y11650663D01*
X436961Y11650664D01*
X436960Y11650667D01*
X421267Y11810000D01*
X436960Y11969333D01*
X443472Y11990800D01*
X483438Y12122550D01*
X558912Y12263752D01*
X558913Y12263754D01*
X660483Y12387517D01*
X784246Y12489087D01*
X802480Y12498833D01*
X925450Y12564562D01*
X1078663Y12611039D01*
X1078664Y12611039D01*
X1078667Y12611040D01*
X1198071Y12622800D01*
X2801929Y12622800D01*
X2921333Y12611040D01*
G37*
G36*
X6546666Y11805954D02*
G01*
X6571090Y11798545D01*
X6593601Y11786512D01*
X6613325Y11770325D01*
X6629512Y11750601D01*
X6641545Y11728090D01*
X6648954Y11703666D01*
X6651700Y11675781D01*
X6651700Y11306219D01*
X6648954Y11278334D01*
X6641545Y11253910D01*
X6629512Y11231399D01*
X6613325Y11211675D01*
X6593601Y11195488D01*
X6571090Y11183455D01*
X6546666Y11176046D01*
X6518781Y11173300D01*
X5499219Y11173300D01*
X5471334Y11176046D01*
X5446910Y11183455D01*
X5424399Y11195488D01*
X5404675Y11211675D01*
X5388488Y11231399D01*
X5376455Y11253910D01*
X5369046Y11278334D01*
X5366300Y11306219D01*
X5366300Y11675781D01*
X5369046Y11703666D01*
X5376455Y11728090D01*
X5388488Y11750601D01*
X5404675Y11770325D01*
X5424399Y11786512D01*
X5446910Y11798545D01*
X5471334Y11805954D01*
X5499219Y11808700D01*
X6518781Y11808700D01*
X6546666Y11805954D01*
G37*
G36*
X9006666Y11805954D02*
G01*
X9031090Y11798545D01*
X9053601Y11786512D01*
X9073325Y11770325D01*
X9089512Y11750601D01*
X9101545Y11728090D01*
X9108954Y11703666D01*
X9111700Y11675781D01*
X9111700Y11306219D01*
X9108954Y11278334D01*
X9101545Y11253910D01*
X9089512Y11231399D01*
X9073325Y11211675D01*
X9053601Y11195488D01*
X9031090Y11183455D01*
X9006666Y11176046D01*
X8978781Y11173300D01*
X7959219Y11173300D01*
X7931334Y11176046D01*
X7906910Y11183455D01*
X7884399Y11195488D01*
X7864675Y11211675D01*
X7848488Y11231399D01*
X7836455Y11253910D01*
X7829046Y11278334D01*
X7826300Y11306219D01*
X7826300Y11675781D01*
X7829046Y11703666D01*
X7836455Y11728090D01*
X7848488Y11750601D01*
X7864675Y11770325D01*
X7884399Y11786512D01*
X7906910Y11798545D01*
X7931334Y11805954D01*
X7959219Y11808700D01*
X8978781Y11808700D01*
X9006666Y11805954D01*
G37*
G36*
X12961800Y12373200D02*
G01*
X10660200Y12373200D01*
X10660200Y13324800D01*
X12961800Y13324800D01*
X12961800Y12373200D01*
G37*
G36*
X18571300Y12714200D02*
G01*
X16469700Y12714200D01*
X16469700Y14085800D01*
X18571300Y14085800D01*
X18571300Y12714200D01*
G37*
G36*
X34571300Y12714200D02*
G01*
X32469700Y12714200D01*
X32469700Y14085800D01*
X34571300Y14085800D01*
X34571300Y12714200D01*
G37*
G36*
X6797804Y13854214D02*
G01*
X6839212Y13841653D01*
X6877370Y13821257D01*
X6910812Y13793812D01*
X6938257Y13760370D01*
X6958653Y13722212D01*
X6971214Y13680804D01*
X6975700Y13635257D01*
X6975700Y13096743D01*
X6971214Y13051196D01*
X6958653Y13009788D01*
X6938257Y12971630D01*
X6910812Y12938188D01*
X6877370Y12910743D01*
X6839212Y12890347D01*
X6797804Y12877786D01*
X6752257Y12873300D01*
X5693743Y12873300D01*
X5648196Y12877786D01*
X5606788Y12890347D01*
X5568630Y12910743D01*
X5535188Y12938188D01*
X5507743Y12971630D01*
X5487347Y13009788D01*
X5474786Y13051196D01*
X5470300Y13096743D01*
X5470300Y13635257D01*
X5474786Y13680804D01*
X5487347Y13722212D01*
X5507743Y13760370D01*
X5535188Y13793812D01*
X5568630Y13821257D01*
X5606788Y13841653D01*
X5648196Y13854214D01*
X5693743Y13858700D01*
X6752257Y13858700D01*
X6797804Y13854214D01*
G37*
G36*
X8744967Y13997051D02*
G01*
X8787968Y13984007D01*
X8827591Y13962828D01*
X8862324Y13934324D01*
X8890828Y13899591D01*
X8912007Y13859968D01*
X8925051Y13816967D01*
X8929700Y13769764D01*
X8929700Y13158236D01*
X8925051Y13111033D01*
X8912007Y13068032D01*
X8890828Y13028409D01*
X8862324Y12993676D01*
X8827591Y12965172D01*
X8787968Y12943993D01*
X8744967Y12930949D01*
X8697764Y12926300D01*
X8066236Y12926300D01*
X8019033Y12930949D01*
X7976032Y12943993D01*
X7936409Y12965172D01*
X7901676Y12993676D01*
X7873172Y13028409D01*
X7851993Y13068032D01*
X7838949Y13111033D01*
X7834300Y13158236D01*
X7834300Y13769764D01*
X7838949Y13816967D01*
X7851993Y13859968D01*
X7873172Y13899591D01*
X7901676Y13934324D01*
X7936409Y13962828D01*
X7976032Y13984007D01*
X8019033Y13997051D01*
X8066236Y14001700D01*
X8697764Y14001700D01*
X8744967Y13997051D01*
G37*
G36*
X15499312Y15078836D02*
G01*
X15661097Y15011823D01*
X15685711Y14995376D01*
X15805323Y14915454D01*
X15806708Y14914528D01*
X15930528Y14790708D01*
X15930530Y14790705D01*
X15930531Y14790704D01*
X15962663Y14742615D01*
X16027823Y14645097D01*
X16094836Y14483312D01*
X16129000Y14311559D01*
X16129000Y14136441D01*
X16094836Y13964688D01*
X16027823Y13802903D01*
X15963491Y13706624D01*
X15939630Y13670913D01*
X15930528Y13657292D01*
X15806708Y13533472D01*
X15661097Y13436177D01*
X15499312Y13369164D01*
X15327559Y13335000D01*
X15152441Y13335000D01*
X14980688Y13369164D01*
X14818903Y13436177D01*
X14673292Y13533472D01*
X14549472Y13657292D01*
X14540371Y13670913D01*
X14516509Y13706624D01*
X14452177Y13802903D01*
X14385164Y13964688D01*
X14351000Y14136441D01*
X14351000Y14311559D01*
X14385164Y14483312D01*
X14452177Y14645097D01*
X14517337Y14742615D01*
X14549469Y14790704D01*
X14549470Y14790705D01*
X14549472Y14790708D01*
X14673292Y14914528D01*
X14674678Y14915454D01*
X14794289Y14995376D01*
X14818903Y15011823D01*
X14980688Y15078836D01*
X15152441Y15113000D01*
X15327559Y15113000D01*
X15499312Y15078836D01*
G37*
G36*
X2921333Y15151040D02*
G01*
X2921336Y15151039D01*
X2921337Y15151039D01*
X3074550Y15104562D01*
X3145304Y15066743D01*
X3215754Y15029087D01*
X3339517Y14927517D01*
X3441087Y14803754D01*
X3441088Y14803752D01*
X3516562Y14662550D01*
X3559411Y14521296D01*
X3563040Y14509333D01*
X3578733Y14350000D01*
X3563040Y14190667D01*
X3563039Y14190664D01*
X3563039Y14190663D01*
X3516562Y14037450D01*
X3516561Y14037449D01*
X3441087Y13896246D01*
X3339517Y13772483D01*
X3215754Y13670913D01*
X3215752Y13670912D01*
X3074550Y13595438D01*
X2921337Y13548961D01*
X2921336Y13548961D01*
X2921333Y13548960D01*
X2801929Y13537200D01*
X1198071Y13537200D01*
X1078667Y13548960D01*
X1078664Y13548961D01*
X1078663Y13548961D01*
X925450Y13595438D01*
X784248Y13670912D01*
X784246Y13670913D01*
X660483Y13772483D01*
X558913Y13896246D01*
X483439Y14037449D01*
X483438Y14037450D01*
X436961Y14190663D01*
X436961Y14190664D01*
X436960Y14190667D01*
X421267Y14350000D01*
X436960Y14509333D01*
X440589Y14521296D01*
X483438Y14662550D01*
X558912Y14803752D01*
X558913Y14803754D01*
X660483Y14927517D01*
X784246Y15029087D01*
X854696Y15066743D01*
X925450Y15104562D01*
X1078663Y15151039D01*
X1078664Y15151039D01*
X1078667Y15151040D01*
X1198071Y15162800D01*
X2801929Y15162800D01*
X2921333Y15151040D01*
G37*
G36*
X10861800Y13673200D02*
G01*
X9710200Y13673200D01*
X9710200Y14774800D01*
X10861800Y14774800D01*
X10861800Y13673200D01*
G37*
G36*
X13911800Y13673200D02*
G01*
X12760200Y13673200D01*
X12760200Y14774800D01*
X13911800Y14774800D01*
X13911800Y13673200D01*
G37*
G36*
X8744967Y15517051D02*
G01*
X8787968Y15504007D01*
X8827591Y15482828D01*
X8862324Y15454324D01*
X8890828Y15419591D01*
X8912007Y15379968D01*
X8925051Y15336967D01*
X8929700Y15289764D01*
X8929700Y14678236D01*
X8925051Y14631033D01*
X8912007Y14588032D01*
X8890828Y14548409D01*
X8862324Y14513676D01*
X8827591Y14485172D01*
X8787968Y14463993D01*
X8744967Y14450949D01*
X8697764Y14446300D01*
X8066236Y14446300D01*
X8019033Y14450949D01*
X7976032Y14463993D01*
X7936409Y14485172D01*
X7901676Y14513676D01*
X7873172Y14548409D01*
X7851993Y14588032D01*
X7838949Y14631033D01*
X7834300Y14678236D01*
X7834300Y15289764D01*
X7838949Y15336967D01*
X7851993Y15379968D01*
X7873172Y15419591D01*
X7901676Y15454324D01*
X7936409Y15482828D01*
X7976032Y15504007D01*
X8019033Y15517051D01*
X8066236Y15521700D01*
X8697764Y15521700D01*
X8744967Y15517051D01*
G37*
G36*
X34571300Y14714200D02*
G01*
X32469700Y14714200D01*
X32469700Y16085800D01*
X34571300Y16085800D01*
X34571300Y14714200D01*
G37*
G36*
X18571300Y14714200D02*
G01*
X16469700Y14714200D01*
X16469700Y16085800D01*
X18571300Y16085800D01*
X18571300Y14714200D01*
G37*
G36*
X6797804Y15824214D02*
G01*
X6839212Y15811653D01*
X6877370Y15791257D01*
X6910812Y15763812D01*
X6938257Y15730370D01*
X6958653Y15692212D01*
X6971214Y15650804D01*
X6975700Y15605257D01*
X6975700Y15066743D01*
X6971214Y15021196D01*
X6958653Y14979788D01*
X6938257Y14941630D01*
X6910812Y14908188D01*
X6877370Y14880743D01*
X6839212Y14860347D01*
X6797804Y14847786D01*
X6752257Y14843300D01*
X5693743Y14843300D01*
X5648196Y14847786D01*
X5606788Y14860347D01*
X5568630Y14880743D01*
X5535188Y14908188D01*
X5507743Y14941630D01*
X5487347Y14979788D01*
X5474786Y15021196D01*
X5470300Y15066743D01*
X5470300Y15605257D01*
X5474786Y15650804D01*
X5487347Y15692212D01*
X5507743Y15730370D01*
X5535188Y15763812D01*
X5568630Y15791257D01*
X5606788Y15811653D01*
X5648196Y15824214D01*
X5693743Y15828700D01*
X6752257Y15828700D01*
X6797804Y15824214D01*
G37*
G36*
X12961800Y15123200D02*
G01*
X10660200Y15123200D01*
X10660200Y16074800D01*
X12961800Y16074800D01*
X12961800Y15123200D01*
G37*
G36*
X2300061Y17879167D02*
G01*
X2487272Y17801622D01*
X2655758Y17689043D01*
X2799043Y17545758D01*
X2911622Y17377272D01*
X2989167Y17190061D01*
X3028700Y16991318D01*
X3028700Y16788682D01*
X2989167Y16589939D01*
X2911622Y16402728D01*
X2799043Y16234242D01*
X2655758Y16090957D01*
X2487272Y15978378D01*
X2300061Y15900833D01*
X2101318Y15861300D01*
X1898682Y15861300D01*
X1699939Y15900833D01*
X1512728Y15978378D01*
X1344242Y16090957D01*
X1200957Y16234242D01*
X1088378Y16402728D01*
X1010833Y16589939D01*
X971300Y16788682D01*
X971300Y16991318D01*
X1010833Y17190061D01*
X1088378Y17377272D01*
X1200957Y17545758D01*
X1344242Y17689043D01*
X1512728Y17801622D01*
X1699939Y17879167D01*
X1898682Y17918700D01*
X2101318Y17918700D01*
X2300061Y17879167D01*
G37*
G36*
X8732967Y17815051D02*
G01*
X8775968Y17802007D01*
X8815591Y17780828D01*
X8850324Y17752324D01*
X8878828Y17717591D01*
X8900007Y17677968D01*
X8913051Y17634967D01*
X8917700Y17587764D01*
X8917700Y16956236D01*
X8913051Y16909033D01*
X8900007Y16866032D01*
X8878828Y16826409D01*
X8850324Y16791676D01*
X8815591Y16763172D01*
X8775968Y16741993D01*
X8732967Y16728949D01*
X8685764Y16724300D01*
X8074236Y16724300D01*
X8027033Y16728949D01*
X7984032Y16741993D01*
X7944409Y16763172D01*
X7909676Y16791676D01*
X7881172Y16826409D01*
X7859993Y16866032D01*
X7846949Y16909033D01*
X7842300Y16956236D01*
X7842300Y17587764D01*
X7846949Y17634967D01*
X7859993Y17677968D01*
X7881172Y17717591D01*
X7909676Y17752324D01*
X7944409Y17780828D01*
X7984032Y17802007D01*
X8027033Y17815051D01*
X8074236Y17819700D01*
X8685764Y17819700D01*
X8732967Y17815051D01*
G37*
G36*
X7212967Y17815051D02*
G01*
X7255968Y17802007D01*
X7295591Y17780828D01*
X7330324Y17752324D01*
X7358828Y17717591D01*
X7380007Y17677968D01*
X7393051Y17634967D01*
X7397700Y17587764D01*
X7397700Y16956236D01*
X7393051Y16909033D01*
X7380007Y16866032D01*
X7358828Y16826409D01*
X7330324Y16791676D01*
X7295591Y16763172D01*
X7255968Y16741993D01*
X7212967Y16728949D01*
X7165764Y16724300D01*
X6554236Y16724300D01*
X6507033Y16728949D01*
X6464032Y16741993D01*
X6424409Y16763172D01*
X6389676Y16791676D01*
X6361172Y16826409D01*
X6339993Y16866032D01*
X6326949Y16909033D01*
X6322300Y16956236D01*
X6322300Y17587764D01*
X6326949Y17634967D01*
X6339993Y17677968D01*
X6361172Y17717591D01*
X6389676Y17752324D01*
X6424409Y17780828D01*
X6464032Y17802007D01*
X6507033Y17815051D01*
X6554236Y17819700D01*
X7165764Y17819700D01*
X7212967Y17815051D01*
G37*
G36*
X10660951Y17998791D02*
G01*
X10696730Y17987937D01*
X10729699Y17970315D01*
X10758598Y17946598D01*
X10782315Y17917699D01*
X10799937Y17884730D01*
X10810791Y17848951D01*
X10814700Y17809259D01*
X10814700Y17330741D01*
X10810791Y17291049D01*
X10799937Y17255270D01*
X10782315Y17222301D01*
X10758598Y17193402D01*
X10729699Y17169685D01*
X10696730Y17152063D01*
X10660951Y17141209D01*
X10621259Y17137300D01*
X9952741Y17137300D01*
X9913049Y17141209D01*
X9877270Y17152063D01*
X9844301Y17169685D01*
X9815402Y17193402D01*
X9791685Y17222301D01*
X9774063Y17255270D01*
X9763209Y17291049D01*
X9759300Y17330741D01*
X9759300Y17809259D01*
X9763209Y17848951D01*
X9774063Y17884730D01*
X9791685Y17917699D01*
X9815402Y17946598D01*
X9844301Y17970315D01*
X9877270Y17987937D01*
X9913049Y17998791D01*
X9952741Y18002700D01*
X10621259Y18002700D01*
X10660951Y17998791D01*
G37*
G36*
X14470951Y17998791D02*
G01*
X14506730Y17987937D01*
X14539699Y17970315D01*
X14568598Y17946598D01*
X14592315Y17917699D01*
X14609937Y17884730D01*
X14620791Y17848951D01*
X14624700Y17809259D01*
X14624700Y17330741D01*
X14620791Y17291049D01*
X14609937Y17255270D01*
X14592315Y17222301D01*
X14568598Y17193402D01*
X14539699Y17169685D01*
X14506730Y17152063D01*
X14470951Y17141209D01*
X14431259Y17137300D01*
X13762741Y17137300D01*
X13723049Y17141209D01*
X13687270Y17152063D01*
X13654301Y17169685D01*
X13625402Y17193402D01*
X13601685Y17222301D01*
X13584063Y17255270D01*
X13573209Y17291049D01*
X13569300Y17330741D01*
X13569300Y17809259D01*
X13573209Y17848951D01*
X13584063Y17884730D01*
X13601685Y17917699D01*
X13625402Y17946598D01*
X13654301Y17970315D01*
X13687270Y17987937D01*
X13723049Y17998791D01*
X13762741Y18002700D01*
X14431259Y18002700D01*
X14470951Y17998791D01*
G37*
G36*
X12565951Y17998791D02*
G01*
X12601730Y17987937D01*
X12634699Y17970315D01*
X12663598Y17946598D01*
X12687315Y17917699D01*
X12704937Y17884730D01*
X12715791Y17848951D01*
X12719700Y17809259D01*
X12719700Y17330741D01*
X12715791Y17291049D01*
X12704937Y17255270D01*
X12687315Y17222301D01*
X12663598Y17193402D01*
X12634699Y17169685D01*
X12601730Y17152063D01*
X12565951Y17141209D01*
X12526259Y17137300D01*
X11857741Y17137300D01*
X11818049Y17141209D01*
X11782270Y17152063D01*
X11749301Y17169685D01*
X11720402Y17193402D01*
X11696685Y17222301D01*
X11679063Y17255270D01*
X11668209Y17291049D01*
X11664300Y17330741D01*
X11664300Y17809259D01*
X11668209Y17848951D01*
X11679063Y17884730D01*
X11696685Y17917699D01*
X11720402Y17946598D01*
X11749301Y17970315D01*
X11782270Y17987937D01*
X11818049Y17998791D01*
X11857741Y18002700D01*
X12526259Y18002700D01*
X12565951Y17998791D01*
G37*
G36*
X5326951Y19395791D02*
G01*
X5362730Y19384937D01*
X5395699Y19367315D01*
X5424598Y19343598D01*
X5448315Y19314699D01*
X5465937Y19281730D01*
X5476791Y19245951D01*
X5480700Y19206259D01*
X5480700Y18727741D01*
X5476791Y18688049D01*
X5465937Y18652270D01*
X5448315Y18619301D01*
X5424598Y18590402D01*
X5395699Y18566685D01*
X5362730Y18549063D01*
X5326951Y18538209D01*
X5287259Y18534300D01*
X4618741Y18534300D01*
X4579049Y18538209D01*
X4543270Y18549063D01*
X4510301Y18566685D01*
X4481402Y18590402D01*
X4457685Y18619301D01*
X4440063Y18652270D01*
X4429209Y18688049D01*
X4425300Y18727741D01*
X4425300Y19206259D01*
X4429209Y19245951D01*
X4440063Y19281730D01*
X4457685Y19314699D01*
X4481402Y19343598D01*
X4510301Y19367315D01*
X4543270Y19384937D01*
X4579049Y19395791D01*
X4618741Y19399700D01*
X5287259Y19399700D01*
X5326951Y19395791D01*
G37*
G36*
X7212967Y19720051D02*
G01*
X7255968Y19707007D01*
X7295591Y19685828D01*
X7330324Y19657324D01*
X7358828Y19622591D01*
X7380007Y19582968D01*
X7393051Y19539967D01*
X7397700Y19492764D01*
X7397700Y18861236D01*
X7393051Y18814033D01*
X7380007Y18771032D01*
X7358828Y18731409D01*
X7330324Y18696676D01*
X7295591Y18668172D01*
X7255968Y18646993D01*
X7212967Y18633949D01*
X7165764Y18629300D01*
X6554236Y18629300D01*
X6507033Y18633949D01*
X6464032Y18646993D01*
X6424409Y18668172D01*
X6389676Y18696676D01*
X6361172Y18731409D01*
X6339993Y18771032D01*
X6326949Y18814033D01*
X6322300Y18861236D01*
X6322300Y19492764D01*
X6326949Y19539967D01*
X6339993Y19582968D01*
X6361172Y19622591D01*
X6389676Y19657324D01*
X6424409Y19685828D01*
X6464032Y19707007D01*
X6507033Y19720051D01*
X6554236Y19724700D01*
X7165764Y19724700D01*
X7212967Y19720051D01*
G37*
G36*
X8732967Y19720051D02*
G01*
X8775968Y19707007D01*
X8815591Y19685828D01*
X8850324Y19657324D01*
X8878828Y19622591D01*
X8900007Y19582968D01*
X8913051Y19539967D01*
X8917700Y19492764D01*
X8917700Y18861236D01*
X8913051Y18814033D01*
X8900007Y18771032D01*
X8878828Y18731409D01*
X8850324Y18696676D01*
X8815591Y18668172D01*
X8775968Y18646993D01*
X8732967Y18633949D01*
X8685764Y18629300D01*
X8074236Y18629300D01*
X8027033Y18633949D01*
X7984032Y18646993D01*
X7944409Y18668172D01*
X7909676Y18696676D01*
X7881172Y18731409D01*
X7859993Y18771032D01*
X7846949Y18814033D01*
X7842300Y18861236D01*
X7842300Y19492764D01*
X7846949Y19539967D01*
X7859993Y19582968D01*
X7881172Y19622591D01*
X7909676Y19657324D01*
X7944409Y19685828D01*
X7984032Y19707007D01*
X8027033Y19720051D01*
X8074236Y19724700D01*
X8685764Y19724700D01*
X8732967Y19720051D01*
G37*
G36*
X12565951Y19688791D02*
G01*
X12601730Y19677937D01*
X12634699Y19660315D01*
X12663598Y19636598D01*
X12687315Y19607699D01*
X12704937Y19574730D01*
X12715791Y19538951D01*
X12719700Y19499259D01*
X12719700Y19020741D01*
X12715791Y18981049D01*
X12704937Y18945270D01*
X12687315Y18912301D01*
X12663598Y18883402D01*
X12634699Y18859685D01*
X12601730Y18842063D01*
X12565951Y18831209D01*
X12526259Y18827300D01*
X11857741Y18827300D01*
X11818049Y18831209D01*
X11782270Y18842063D01*
X11749301Y18859685D01*
X11720402Y18883402D01*
X11696685Y18912301D01*
X11679063Y18945270D01*
X11668209Y18981049D01*
X11664300Y19020741D01*
X11664300Y19499259D01*
X11668209Y19538951D01*
X11679063Y19574730D01*
X11696685Y19607699D01*
X11720402Y19636598D01*
X11749301Y19660315D01*
X11782270Y19677937D01*
X11818049Y19688791D01*
X11857741Y19692700D01*
X12526259Y19692700D01*
X12565951Y19688791D01*
G37*
G36*
X10660951Y19688791D02*
G01*
X10696730Y19677937D01*
X10729699Y19660315D01*
X10758598Y19636598D01*
X10782315Y19607699D01*
X10799937Y19574730D01*
X10810791Y19538951D01*
X10814700Y19499259D01*
X10814700Y19020741D01*
X10810791Y18981049D01*
X10799937Y18945270D01*
X10782315Y18912301D01*
X10758598Y18883402D01*
X10729699Y18859685D01*
X10696730Y18842063D01*
X10660951Y18831209D01*
X10621259Y18827300D01*
X9952741Y18827300D01*
X9913049Y18831209D01*
X9877270Y18842063D01*
X9844301Y18859685D01*
X9815402Y18883402D01*
X9791685Y18912301D01*
X9774063Y18945270D01*
X9763209Y18981049D01*
X9759300Y19020741D01*
X9759300Y19499259D01*
X9763209Y19538951D01*
X9774063Y19574730D01*
X9791685Y19607699D01*
X9815402Y19636598D01*
X9844301Y19660315D01*
X9877270Y19677937D01*
X9913049Y19688791D01*
X9952741Y19692700D01*
X10621259Y19692700D01*
X10660951Y19688791D01*
G37*
G36*
X14470951Y19688791D02*
G01*
X14506730Y19677937D01*
X14539699Y19660315D01*
X14568598Y19636598D01*
X14592315Y19607699D01*
X14609937Y19574730D01*
X14620791Y19538951D01*
X14624700Y19499259D01*
X14624700Y19020741D01*
X14620791Y18981049D01*
X14609937Y18945270D01*
X14592315Y18912301D01*
X14568598Y18883402D01*
X14539699Y18859685D01*
X14506730Y18842063D01*
X14470951Y18831209D01*
X14431259Y18827300D01*
X13762741Y18827300D01*
X13723049Y18831209D01*
X13687270Y18842063D01*
X13654301Y18859685D01*
X13625402Y18883402D01*
X13601685Y18912301D01*
X13584063Y18945270D01*
X13573209Y18981049D01*
X13569300Y19020741D01*
X13569300Y19499259D01*
X13573209Y19538951D01*
X13584063Y19574730D01*
X13601685Y19607699D01*
X13625402Y19636598D01*
X13654301Y19660315D01*
X13687270Y19677937D01*
X13723049Y19688791D01*
X13762741Y19692700D01*
X14431259Y19692700D01*
X14470951Y19688791D01*
G37*
G36*
X5326951Y21085791D02*
G01*
X5362730Y21074937D01*
X5395699Y21057315D01*
X5424598Y21033598D01*
X5448315Y21004699D01*
X5465937Y20971730D01*
X5476791Y20935951D01*
X5480700Y20896259D01*
X5480700Y20417741D01*
X5476791Y20378049D01*
X5465937Y20342270D01*
X5448315Y20309301D01*
X5424598Y20280402D01*
X5395699Y20256685D01*
X5362730Y20239063D01*
X5326951Y20228209D01*
X5287259Y20224300D01*
X4618741Y20224300D01*
X4579049Y20228209D01*
X4543270Y20239063D01*
X4510301Y20256685D01*
X4481402Y20280402D01*
X4457685Y20309301D01*
X4440063Y20342270D01*
X4429209Y20378049D01*
X4425300Y20417741D01*
X4425300Y20896259D01*
X4429209Y20935951D01*
X4440063Y20971730D01*
X4457685Y21004699D01*
X4481402Y21033598D01*
X4510301Y21057315D01*
X4543270Y21074937D01*
X4579049Y21085791D01*
X4618741Y21089700D01*
X5287259Y21089700D01*
X5326951Y21085791D01*
G37*
G36*
X11726832Y22333934D02*
G01*
X11751456Y22326464D01*
X11774137Y22314341D01*
X11794022Y22298022D01*
X11810341Y22278137D01*
X11822464Y22255456D01*
X11829934Y22230832D01*
X11832700Y22202748D01*
X11832700Y20845252D01*
X11829934Y20817168D01*
X11822464Y20792544D01*
X11810341Y20769863D01*
X11794022Y20749978D01*
X11774137Y20733659D01*
X11751456Y20721536D01*
X11726832Y20714066D01*
X11698748Y20711300D01*
X11351252Y20711300D01*
X11323168Y20714066D01*
X11298544Y20721536D01*
X11275863Y20733659D01*
X11255978Y20749978D01*
X11239659Y20769863D01*
X11227536Y20792544D01*
X11220066Y20817168D01*
X11217300Y20845252D01*
X11217300Y22202748D01*
X11220066Y22230832D01*
X11227536Y22255456D01*
X11239659Y22278137D01*
X11255978Y22298022D01*
X11275863Y22314341D01*
X11298544Y22326464D01*
X11323168Y22333934D01*
X11351252Y22336700D01*
X11698748Y22336700D01*
X11726832Y22333934D01*
G37*
G36*
X12526832Y22333934D02*
G01*
X12551456Y22326464D01*
X12574137Y22314341D01*
X12594022Y22298022D01*
X12610341Y22278137D01*
X12622464Y22255456D01*
X12629934Y22230832D01*
X12632700Y22202748D01*
X12632700Y20845252D01*
X12629934Y20817168D01*
X12622464Y20792544D01*
X12610341Y20769863D01*
X12594022Y20749978D01*
X12574137Y20733659D01*
X12551456Y20721536D01*
X12526832Y20714066D01*
X12498748Y20711300D01*
X12151252Y20711300D01*
X12123168Y20714066D01*
X12098544Y20721536D01*
X12075863Y20733659D01*
X12055978Y20749978D01*
X12039659Y20769863D01*
X12027536Y20792544D01*
X12020066Y20817168D01*
X12017300Y20845252D01*
X12017300Y22202748D01*
X12020066Y22230832D01*
X12027536Y22255456D01*
X12039659Y22278137D01*
X12055978Y22298022D01*
X12075863Y22314341D01*
X12098544Y22326464D01*
X12123168Y22333934D01*
X12151252Y22336700D01*
X12498748Y22336700D01*
X12526832Y22333934D01*
G37*
G36*
X10926832Y22333934D02*
G01*
X10951456Y22326464D01*
X10974137Y22314341D01*
X10994022Y22298022D01*
X11010341Y22278137D01*
X11022464Y22255456D01*
X11029934Y22230832D01*
X11032700Y22202748D01*
X11032700Y20845252D01*
X11029934Y20817168D01*
X11022464Y20792544D01*
X11010341Y20769863D01*
X10994022Y20749978D01*
X10974137Y20733659D01*
X10951456Y20721536D01*
X10926832Y20714066D01*
X10898748Y20711300D01*
X10551252Y20711300D01*
X10523168Y20714066D01*
X10498544Y20721536D01*
X10475863Y20733659D01*
X10455978Y20749978D01*
X10439659Y20769863D01*
X10427536Y20792544D01*
X10420066Y20817168D01*
X10417300Y20845252D01*
X10417300Y22202748D01*
X10420066Y22230832D01*
X10427536Y22255456D01*
X10439659Y22278137D01*
X10455978Y22298022D01*
X10475863Y22314341D01*
X10498544Y22326464D01*
X10523168Y22333934D01*
X10551252Y22336700D01*
X10898748Y22336700D01*
X10926832Y22333934D01*
G37*
G36*
X9326832Y22333934D02*
G01*
X9351456Y22326464D01*
X9374137Y22314341D01*
X9394022Y22298022D01*
X9410341Y22278137D01*
X9422464Y22255456D01*
X9429934Y22230832D01*
X9432700Y22202748D01*
X9432700Y20845252D01*
X9429934Y20817168D01*
X9422464Y20792544D01*
X9410341Y20769863D01*
X9394022Y20749978D01*
X9374137Y20733659D01*
X9351456Y20721536D01*
X9326832Y20714066D01*
X9298748Y20711300D01*
X8951252Y20711300D01*
X8923168Y20714066D01*
X8898544Y20721536D01*
X8875863Y20733659D01*
X8855978Y20749978D01*
X8839659Y20769863D01*
X8827536Y20792544D01*
X8820066Y20817168D01*
X8817300Y20845252D01*
X8817300Y22202748D01*
X8820066Y22230832D01*
X8827536Y22255456D01*
X8839659Y22278137D01*
X8855978Y22298022D01*
X8875863Y22314341D01*
X8898544Y22326464D01*
X8923168Y22333934D01*
X8951252Y22336700D01*
X9298748Y22336700D01*
X9326832Y22333934D01*
G37*
G36*
X6926832Y22333934D02*
G01*
X6951456Y22326464D01*
X6974137Y22314341D01*
X6994022Y22298022D01*
X7010341Y22278137D01*
X7022464Y22255456D01*
X7029934Y22230832D01*
X7032700Y22202748D01*
X7032700Y20845252D01*
X7029934Y20817168D01*
X7022464Y20792544D01*
X7010341Y20769863D01*
X6994022Y20749978D01*
X6974137Y20733659D01*
X6951456Y20721536D01*
X6926832Y20714066D01*
X6898748Y20711300D01*
X6551252Y20711300D01*
X6523168Y20714066D01*
X6498544Y20721536D01*
X6475863Y20733659D01*
X6455978Y20749978D01*
X6439659Y20769863D01*
X6427536Y20792544D01*
X6420066Y20817168D01*
X6417300Y20845252D01*
X6417300Y22202748D01*
X6420066Y22230832D01*
X6427536Y22255456D01*
X6439659Y22278137D01*
X6455978Y22298022D01*
X6475863Y22314341D01*
X6498544Y22326464D01*
X6523168Y22333934D01*
X6551252Y22336700D01*
X6898748Y22336700D01*
X6926832Y22333934D01*
G37*
G36*
X7726832Y22333934D02*
G01*
X7751456Y22326464D01*
X7774137Y22314341D01*
X7794022Y22298022D01*
X7810341Y22278137D01*
X7822464Y22255456D01*
X7829934Y22230832D01*
X7832700Y22202748D01*
X7832700Y20845252D01*
X7829934Y20817168D01*
X7822464Y20792544D01*
X7810341Y20769863D01*
X7794022Y20749978D01*
X7774137Y20733659D01*
X7751456Y20721536D01*
X7726832Y20714066D01*
X7698748Y20711300D01*
X7351252Y20711300D01*
X7323168Y20714066D01*
X7298544Y20721536D01*
X7275863Y20733659D01*
X7255978Y20749978D01*
X7239659Y20769863D01*
X7227536Y20792544D01*
X7220066Y20817168D01*
X7217300Y20845252D01*
X7217300Y22202748D01*
X7220066Y22230832D01*
X7227536Y22255456D01*
X7239659Y22278137D01*
X7255978Y22298022D01*
X7275863Y22314341D01*
X7298544Y22326464D01*
X7323168Y22333934D01*
X7351252Y22336700D01*
X7698748Y22336700D01*
X7726832Y22333934D01*
G37*
G36*
X8526832Y22333934D02*
G01*
X8551456Y22326464D01*
X8574137Y22314341D01*
X8594022Y22298022D01*
X8610341Y22278137D01*
X8622464Y22255456D01*
X8629934Y22230832D01*
X8632700Y22202748D01*
X8632700Y20845252D01*
X8629934Y20817168D01*
X8622464Y20792544D01*
X8610341Y20769863D01*
X8594022Y20749978D01*
X8574137Y20733659D01*
X8551456Y20721536D01*
X8526832Y20714066D01*
X8498748Y20711300D01*
X8151252Y20711300D01*
X8123168Y20714066D01*
X8098544Y20721536D01*
X8075863Y20733659D01*
X8055978Y20749978D01*
X8039659Y20769863D01*
X8027536Y20792544D01*
X8020066Y20817168D01*
X8017300Y20845252D01*
X8017300Y22202748D01*
X8020066Y22230832D01*
X8027536Y22255456D01*
X8039659Y22278137D01*
X8055978Y22298022D01*
X8075863Y22314341D01*
X8098544Y22326464D01*
X8123168Y22333934D01*
X8151252Y22336700D01*
X8498748Y22336700D01*
X8526832Y22333934D01*
G37*
G36*
X10126832Y22333934D02*
G01*
X10151456Y22326464D01*
X10174137Y22314341D01*
X10194022Y22298022D01*
X10210341Y22278137D01*
X10222464Y22255456D01*
X10229934Y22230832D01*
X10232700Y22202748D01*
X10232700Y20845252D01*
X10229934Y20817168D01*
X10222464Y20792544D01*
X10210341Y20769863D01*
X10194022Y20749978D01*
X10174137Y20733659D01*
X10151456Y20721536D01*
X10126832Y20714066D01*
X10098748Y20711300D01*
X9751252Y20711300D01*
X9723168Y20714066D01*
X9698544Y20721536D01*
X9675863Y20733659D01*
X9655978Y20749978D01*
X9639659Y20769863D01*
X9627536Y20792544D01*
X9620066Y20817168D01*
X9617300Y20845252D01*
X9617300Y22202748D01*
X9620066Y22230832D01*
X9627536Y22255456D01*
X9639659Y22278137D01*
X9655978Y22298022D01*
X9675863Y22314341D01*
X9698544Y22326464D01*
X9723168Y22333934D01*
X9751252Y22336700D01*
X10098748Y22336700D01*
X10126832Y22333934D01*
G37*
G36*
X14361832Y23158934D02*
G01*
X14386456Y23151464D01*
X14409137Y23139341D01*
X14429022Y23123022D01*
X14445341Y23103137D01*
X14457464Y23080456D01*
X14464934Y23055832D01*
X14467700Y23027748D01*
X14467700Y22680252D01*
X14464934Y22652168D01*
X14457464Y22627544D01*
X14445341Y22604863D01*
X14429022Y22584978D01*
X14409137Y22568659D01*
X14386456Y22556536D01*
X14361832Y22549066D01*
X14333748Y22546300D01*
X12976252Y22546300D01*
X12948168Y22549066D01*
X12923544Y22556536D01*
X12900863Y22568659D01*
X12880978Y22584978D01*
X12864659Y22604863D01*
X12852536Y22627544D01*
X12845066Y22652168D01*
X12842300Y22680252D01*
X12842300Y23027748D01*
X12845066Y23055832D01*
X12852536Y23080456D01*
X12864659Y23103137D01*
X12880978Y23123022D01*
X12900863Y23139341D01*
X12923544Y23151464D01*
X12948168Y23158934D01*
X12976252Y23161700D01*
X14333748Y23161700D01*
X14361832Y23158934D01*
G37*
G36*
X6101832Y23158934D02*
G01*
X6126456Y23151464D01*
X6149137Y23139341D01*
X6169022Y23123022D01*
X6185341Y23103137D01*
X6197464Y23080456D01*
X6204934Y23055832D01*
X6207700Y23027748D01*
X6207700Y22680252D01*
X6204934Y22652168D01*
X6197464Y22627544D01*
X6185341Y22604863D01*
X6169022Y22584978D01*
X6149137Y22568659D01*
X6126456Y22556536D01*
X6101832Y22549066D01*
X6073748Y22546300D01*
X4716252Y22546300D01*
X4688168Y22549066D01*
X4663544Y22556536D01*
X4640863Y22568659D01*
X4620978Y22584978D01*
X4604659Y22604863D01*
X4592536Y22627544D01*
X4585066Y22652168D01*
X4582300Y22680252D01*
X4582300Y23027748D01*
X4585066Y23055832D01*
X4592536Y23080456D01*
X4604659Y23103137D01*
X4620978Y23123022D01*
X4640863Y23139341D01*
X4663544Y23151464D01*
X4688168Y23158934D01*
X4716252Y23161700D01*
X6073748Y23161700D01*
X6101832Y23158934D01*
G37*
G36*
X14361832Y23958934D02*
G01*
X14386456Y23951464D01*
X14409137Y23939341D01*
X14429022Y23923022D01*
X14445341Y23903137D01*
X14457464Y23880456D01*
X14464934Y23855832D01*
X14467700Y23827748D01*
X14467700Y23480252D01*
X14464934Y23452168D01*
X14457464Y23427544D01*
X14445341Y23404863D01*
X14429022Y23384978D01*
X14409137Y23368659D01*
X14386456Y23356536D01*
X14361832Y23349066D01*
X14333748Y23346300D01*
X12976252Y23346300D01*
X12948168Y23349066D01*
X12923544Y23356536D01*
X12900863Y23368659D01*
X12880978Y23384978D01*
X12864659Y23404863D01*
X12852536Y23427544D01*
X12845066Y23452168D01*
X12842300Y23480252D01*
X12842300Y23827748D01*
X12845066Y23855832D01*
X12852536Y23880456D01*
X12864659Y23903137D01*
X12880978Y23923022D01*
X12900863Y23939341D01*
X12923544Y23951464D01*
X12948168Y23958934D01*
X12976252Y23961700D01*
X14333748Y23961700D01*
X14361832Y23958934D01*
G37*
G36*
X6101832Y23958934D02*
G01*
X6126456Y23951464D01*
X6149137Y23939341D01*
X6169022Y23923022D01*
X6185341Y23903137D01*
X6197464Y23880456D01*
X6204934Y23855832D01*
X6207700Y23827748D01*
X6207700Y23480252D01*
X6204934Y23452168D01*
X6197464Y23427544D01*
X6185341Y23404863D01*
X6169022Y23384978D01*
X6149137Y23368659D01*
X6126456Y23356536D01*
X6101832Y23349066D01*
X6073748Y23346300D01*
X4716252Y23346300D01*
X4688168Y23349066D01*
X4663544Y23356536D01*
X4640863Y23368659D01*
X4620978Y23384978D01*
X4604659Y23404863D01*
X4592536Y23427544D01*
X4585066Y23452168D01*
X4582300Y23480252D01*
X4582300Y23827748D01*
X4585066Y23855832D01*
X4592536Y23880456D01*
X4604659Y23903137D01*
X4620978Y23923022D01*
X4640863Y23939341D01*
X4663544Y23951464D01*
X4688168Y23958934D01*
X4716252Y23961700D01*
X6073748Y23961700D01*
X6101832Y23958934D01*
G37*
G36*
X14361832Y24758934D02*
G01*
X14386456Y24751464D01*
X14409137Y24739341D01*
X14429022Y24723022D01*
X14445341Y24703137D01*
X14457464Y24680456D01*
X14464934Y24655832D01*
X14467700Y24627748D01*
X14467700Y24280252D01*
X14464934Y24252168D01*
X14457464Y24227544D01*
X14445341Y24204863D01*
X14429022Y24184978D01*
X14409137Y24168659D01*
X14386456Y24156536D01*
X14361832Y24149066D01*
X14333748Y24146300D01*
X12976252Y24146300D01*
X12948168Y24149066D01*
X12923544Y24156536D01*
X12900863Y24168659D01*
X12880978Y24184978D01*
X12864659Y24204863D01*
X12852536Y24227544D01*
X12845066Y24252168D01*
X12842300Y24280252D01*
X12842300Y24627748D01*
X12845066Y24655832D01*
X12852536Y24680456D01*
X12864659Y24703137D01*
X12880978Y24723022D01*
X12900863Y24739341D01*
X12923544Y24751464D01*
X12948168Y24758934D01*
X12976252Y24761700D01*
X14333748Y24761700D01*
X14361832Y24758934D01*
G37*
G36*
X6101832Y24758934D02*
G01*
X6126456Y24751464D01*
X6149137Y24739341D01*
X6169022Y24723022D01*
X6185341Y24703137D01*
X6197464Y24680456D01*
X6204934Y24655832D01*
X6207700Y24627748D01*
X6207700Y24280252D01*
X6204934Y24252168D01*
X6197464Y24227544D01*
X6185341Y24204863D01*
X6169022Y24184978D01*
X6149137Y24168659D01*
X6126456Y24156536D01*
X6101832Y24149066D01*
X6073748Y24146300D01*
X4716252Y24146300D01*
X4688168Y24149066D01*
X4663544Y24156536D01*
X4640863Y24168659D01*
X4620978Y24184978D01*
X4604659Y24204863D01*
X4592536Y24227544D01*
X4585066Y24252168D01*
X4582300Y24280252D01*
X4582300Y24627748D01*
X4585066Y24655832D01*
X4592536Y24680456D01*
X4604659Y24703137D01*
X4620978Y24723022D01*
X4640863Y24739341D01*
X4663544Y24751464D01*
X4688168Y24758934D01*
X4716252Y24761700D01*
X6073748Y24761700D01*
X6101832Y24758934D01*
G37*
G36*
X14361832Y25558934D02*
G01*
X14386456Y25551464D01*
X14409137Y25539341D01*
X14429022Y25523022D01*
X14445341Y25503137D01*
X14457464Y25480456D01*
X14464934Y25455832D01*
X14467700Y25427748D01*
X14467700Y25080252D01*
X14464934Y25052168D01*
X14457464Y25027544D01*
X14445341Y25004863D01*
X14429022Y24984978D01*
X14409137Y24968659D01*
X14386456Y24956536D01*
X14361832Y24949066D01*
X14333748Y24946300D01*
X12976252Y24946300D01*
X12948168Y24949066D01*
X12923544Y24956536D01*
X12900863Y24968659D01*
X12880978Y24984978D01*
X12864659Y25004863D01*
X12852536Y25027544D01*
X12845066Y25052168D01*
X12842300Y25080252D01*
X12842300Y25427748D01*
X12845066Y25455832D01*
X12852536Y25480456D01*
X12864659Y25503137D01*
X12880978Y25523022D01*
X12900863Y25539341D01*
X12923544Y25551464D01*
X12948168Y25558934D01*
X12976252Y25561700D01*
X14333748Y25561700D01*
X14361832Y25558934D01*
G37*
G36*
X6101832Y25558934D02*
G01*
X6126456Y25551464D01*
X6149137Y25539341D01*
X6169022Y25523022D01*
X6185341Y25503137D01*
X6197464Y25480456D01*
X6204934Y25455832D01*
X6207700Y25427748D01*
X6207700Y25080252D01*
X6204934Y25052168D01*
X6197464Y25027544D01*
X6185341Y25004863D01*
X6169022Y24984978D01*
X6149137Y24968659D01*
X6126456Y24956536D01*
X6101832Y24949066D01*
X6073748Y24946300D01*
X4716252Y24946300D01*
X4688168Y24949066D01*
X4663544Y24956536D01*
X4640863Y24968659D01*
X4620978Y24984978D01*
X4604659Y25004863D01*
X4592536Y25027544D01*
X4585066Y25052168D01*
X4582300Y25080252D01*
X4582300Y25427748D01*
X4585066Y25455832D01*
X4592536Y25480456D01*
X4604659Y25503137D01*
X4620978Y25523022D01*
X4640863Y25539341D01*
X4663544Y25551464D01*
X4688168Y25558934D01*
X4716252Y25561700D01*
X6073748Y25561700D01*
X6101832Y25558934D01*
G37*
G36*
X6101832Y26358934D02*
G01*
X6126456Y26351464D01*
X6149137Y26339341D01*
X6169022Y26323022D01*
X6185341Y26303137D01*
X6197464Y26280456D01*
X6204934Y26255832D01*
X6207700Y26227748D01*
X6207700Y25880252D01*
X6204934Y25852168D01*
X6197464Y25827544D01*
X6185341Y25804863D01*
X6169022Y25784978D01*
X6149137Y25768659D01*
X6126456Y25756536D01*
X6101832Y25749066D01*
X6073748Y25746300D01*
X4716252Y25746300D01*
X4688168Y25749066D01*
X4663544Y25756536D01*
X4640863Y25768659D01*
X4620978Y25784978D01*
X4604659Y25804863D01*
X4592536Y25827544D01*
X4585066Y25852168D01*
X4582300Y25880252D01*
X4582300Y26227748D01*
X4585066Y26255832D01*
X4592536Y26280456D01*
X4604659Y26303137D01*
X4620978Y26323022D01*
X4640863Y26339341D01*
X4663544Y26351464D01*
X4688168Y26358934D01*
X4716252Y26361700D01*
X6073748Y26361700D01*
X6101832Y26358934D01*
G37*
G36*
X14361832Y26358934D02*
G01*
X14386456Y26351464D01*
X14409137Y26339341D01*
X14429022Y26323022D01*
X14445341Y26303137D01*
X14457464Y26280456D01*
X14464934Y26255832D01*
X14467700Y26227748D01*
X14467700Y25880252D01*
X14464934Y25852168D01*
X14457464Y25827544D01*
X14445341Y25804863D01*
X14429022Y25784978D01*
X14409137Y25768659D01*
X14386456Y25756536D01*
X14361832Y25749066D01*
X14333748Y25746300D01*
X12976252Y25746300D01*
X12948168Y25749066D01*
X12923544Y25756536D01*
X12900863Y25768659D01*
X12880978Y25784978D01*
X12864659Y25804863D01*
X12852536Y25827544D01*
X12845066Y25852168D01*
X12842300Y25880252D01*
X12842300Y26227748D01*
X12845066Y26255832D01*
X12852536Y26280456D01*
X12864659Y26303137D01*
X12880978Y26323022D01*
X12900863Y26339341D01*
X12923544Y26351464D01*
X12948168Y26358934D01*
X12976252Y26361700D01*
X14333748Y26361700D01*
X14361832Y26358934D01*
G37*
G36*
X6101832Y27158934D02*
G01*
X6126456Y27151464D01*
X6149137Y27139341D01*
X6169022Y27123022D01*
X6185341Y27103137D01*
X6197464Y27080456D01*
X6204934Y27055832D01*
X6207700Y27027748D01*
X6207700Y26680252D01*
X6204934Y26652168D01*
X6197464Y26627544D01*
X6185341Y26604863D01*
X6169022Y26584978D01*
X6149137Y26568659D01*
X6126456Y26556536D01*
X6101832Y26549066D01*
X6073748Y26546300D01*
X4716252Y26546300D01*
X4688168Y26549066D01*
X4663544Y26556536D01*
X4640863Y26568659D01*
X4620978Y26584978D01*
X4604659Y26604863D01*
X4592536Y26627544D01*
X4585066Y26652168D01*
X4582300Y26680252D01*
X4582300Y27027748D01*
X4585066Y27055832D01*
X4592536Y27080456D01*
X4604659Y27103137D01*
X4620978Y27123022D01*
X4640863Y27139341D01*
X4663544Y27151464D01*
X4688168Y27158934D01*
X4716252Y27161700D01*
X6073748Y27161700D01*
X6101832Y27158934D01*
G37*
G36*
X14361832Y27158934D02*
G01*
X14386456Y27151464D01*
X14409137Y27139341D01*
X14429022Y27123022D01*
X14445341Y27103137D01*
X14457464Y27080456D01*
X14464934Y27055832D01*
X14467700Y27027748D01*
X14467700Y26680252D01*
X14464934Y26652168D01*
X14457464Y26627544D01*
X14445341Y26604863D01*
X14429022Y26584978D01*
X14409137Y26568659D01*
X14386456Y26556536D01*
X14361832Y26549066D01*
X14333748Y26546300D01*
X12976252Y26546300D01*
X12948168Y26549066D01*
X12923544Y26556536D01*
X12900863Y26568659D01*
X12880978Y26584978D01*
X12864659Y26604863D01*
X12852536Y26627544D01*
X12845066Y26652168D01*
X12842300Y26680252D01*
X12842300Y27027748D01*
X12845066Y27055832D01*
X12852536Y27080456D01*
X12864659Y27103137D01*
X12880978Y27123022D01*
X12900863Y27139341D01*
X12923544Y27151464D01*
X12948168Y27158934D01*
X12976252Y27161700D01*
X14333748Y27161700D01*
X14361832Y27158934D01*
G37*
G36*
X6101832Y27958934D02*
G01*
X6126456Y27951464D01*
X6149137Y27939341D01*
X6169022Y27923022D01*
X6185341Y27903137D01*
X6197464Y27880456D01*
X6204934Y27855832D01*
X6207700Y27827748D01*
X6207700Y27480252D01*
X6204934Y27452168D01*
X6197464Y27427544D01*
X6185341Y27404863D01*
X6169022Y27384978D01*
X6149137Y27368659D01*
X6126456Y27356536D01*
X6101832Y27349066D01*
X6073748Y27346300D01*
X4716252Y27346300D01*
X4688168Y27349066D01*
X4663544Y27356536D01*
X4640863Y27368659D01*
X4620978Y27384978D01*
X4604659Y27404863D01*
X4592536Y27427544D01*
X4585066Y27452168D01*
X4582300Y27480252D01*
X4582300Y27827748D01*
X4585066Y27855832D01*
X4592536Y27880456D01*
X4604659Y27903137D01*
X4620978Y27923022D01*
X4640863Y27939341D01*
X4663544Y27951464D01*
X4688168Y27958934D01*
X4716252Y27961700D01*
X6073748Y27961700D01*
X6101832Y27958934D01*
G37*
G36*
X14361832Y27958934D02*
G01*
X14386456Y27951464D01*
X14409137Y27939341D01*
X14429022Y27923022D01*
X14445341Y27903137D01*
X14457464Y27880456D01*
X14464934Y27855832D01*
X14467700Y27827748D01*
X14467700Y27480252D01*
X14464934Y27452168D01*
X14457464Y27427544D01*
X14445341Y27404863D01*
X14429022Y27384978D01*
X14409137Y27368659D01*
X14386456Y27356536D01*
X14361832Y27349066D01*
X14333748Y27346300D01*
X12976252Y27346300D01*
X12948168Y27349066D01*
X12923544Y27356536D01*
X12900863Y27368659D01*
X12880978Y27384978D01*
X12864659Y27404863D01*
X12852536Y27427544D01*
X12845066Y27452168D01*
X12842300Y27480252D01*
X12842300Y27827748D01*
X12845066Y27855832D01*
X12852536Y27880456D01*
X12864659Y27903137D01*
X12880978Y27923022D01*
X12900863Y27939341D01*
X12923544Y27951464D01*
X12948168Y27958934D01*
X12976252Y27961700D01*
X14333748Y27961700D01*
X14361832Y27958934D01*
G37*
G36*
X6101832Y28758934D02*
G01*
X6126456Y28751464D01*
X6149137Y28739341D01*
X6169022Y28723022D01*
X6185341Y28703137D01*
X6197464Y28680456D01*
X6204934Y28655832D01*
X6207700Y28627748D01*
X6207700Y28280252D01*
X6204934Y28252168D01*
X6197464Y28227544D01*
X6185341Y28204863D01*
X6169022Y28184978D01*
X6149137Y28168659D01*
X6126456Y28156536D01*
X6101832Y28149066D01*
X6073748Y28146300D01*
X4716252Y28146300D01*
X4688168Y28149066D01*
X4663544Y28156536D01*
X4640863Y28168659D01*
X4620978Y28184978D01*
X4604659Y28204863D01*
X4592536Y28227544D01*
X4585066Y28252168D01*
X4582300Y28280252D01*
X4582300Y28627748D01*
X4585066Y28655832D01*
X4592536Y28680456D01*
X4604659Y28703137D01*
X4620978Y28723022D01*
X4640863Y28739341D01*
X4663544Y28751464D01*
X4688168Y28758934D01*
X4716252Y28761700D01*
X6073748Y28761700D01*
X6101832Y28758934D01*
G37*
G36*
X14361832Y28758934D02*
G01*
X14386456Y28751464D01*
X14409137Y28739341D01*
X14429022Y28723022D01*
X14445341Y28703137D01*
X14457464Y28680456D01*
X14464934Y28655832D01*
X14467700Y28627748D01*
X14467700Y28280252D01*
X14464934Y28252168D01*
X14457464Y28227544D01*
X14445341Y28204863D01*
X14429022Y28184978D01*
X14409137Y28168659D01*
X14386456Y28156536D01*
X14361832Y28149066D01*
X14333748Y28146300D01*
X12976252Y28146300D01*
X12948168Y28149066D01*
X12923544Y28156536D01*
X12900863Y28168659D01*
X12880978Y28184978D01*
X12864659Y28204863D01*
X12852536Y28227544D01*
X12845066Y28252168D01*
X12842300Y28280252D01*
X12842300Y28627748D01*
X12845066Y28655832D01*
X12852536Y28680456D01*
X12864659Y28703137D01*
X12880978Y28723022D01*
X12900863Y28739341D01*
X12923544Y28751464D01*
X12948168Y28758934D01*
X12976252Y28761700D01*
X14333748Y28761700D01*
X14361832Y28758934D01*
G37*
G36*
X7726832Y30593934D02*
G01*
X7751456Y30586464D01*
X7774137Y30574341D01*
X7794022Y30558022D01*
X7810341Y30538137D01*
X7822464Y30515456D01*
X7829934Y30490832D01*
X7832700Y30462748D01*
X7832700Y29105252D01*
X7829934Y29077168D01*
X7822464Y29052544D01*
X7810341Y29029863D01*
X7794022Y29009978D01*
X7774137Y28993659D01*
X7751456Y28981536D01*
X7726832Y28974066D01*
X7698748Y28971300D01*
X7351252Y28971300D01*
X7323168Y28974066D01*
X7298544Y28981536D01*
X7275863Y28993659D01*
X7255978Y29009978D01*
X7239659Y29029863D01*
X7227536Y29052544D01*
X7220066Y29077168D01*
X7217300Y29105252D01*
X7217300Y30462748D01*
X7220066Y30490832D01*
X7227536Y30515456D01*
X7239659Y30538137D01*
X7255978Y30558022D01*
X7275863Y30574341D01*
X7298544Y30586464D01*
X7323168Y30593934D01*
X7351252Y30596700D01*
X7698748Y30596700D01*
X7726832Y30593934D01*
G37*
G36*
X12526832Y30593934D02*
G01*
X12551456Y30586464D01*
X12574137Y30574341D01*
X12594022Y30558022D01*
X12610341Y30538137D01*
X12622464Y30515456D01*
X12629934Y30490832D01*
X12632700Y30462748D01*
X12632700Y29105252D01*
X12629934Y29077168D01*
X12622464Y29052544D01*
X12610341Y29029863D01*
X12594022Y29009978D01*
X12574137Y28993659D01*
X12551456Y28981536D01*
X12526832Y28974066D01*
X12498748Y28971300D01*
X12151252Y28971300D01*
X12123168Y28974066D01*
X12098544Y28981536D01*
X12075863Y28993659D01*
X12055978Y29009978D01*
X12039659Y29029863D01*
X12027536Y29052544D01*
X12020066Y29077168D01*
X12017300Y29105252D01*
X12017300Y30462748D01*
X12020066Y30490832D01*
X12027536Y30515456D01*
X12039659Y30538137D01*
X12055978Y30558022D01*
X12075863Y30574341D01*
X12098544Y30586464D01*
X12123168Y30593934D01*
X12151252Y30596700D01*
X12498748Y30596700D01*
X12526832Y30593934D01*
G37*
G36*
X8526832Y30593934D02*
G01*
X8551456Y30586464D01*
X8574137Y30574341D01*
X8594022Y30558022D01*
X8610341Y30538137D01*
X8622464Y30515456D01*
X8629934Y30490832D01*
X8632700Y30462748D01*
X8632700Y29105252D01*
X8629934Y29077168D01*
X8622464Y29052544D01*
X8610341Y29029863D01*
X8594022Y29009978D01*
X8574137Y28993659D01*
X8551456Y28981536D01*
X8526832Y28974066D01*
X8498748Y28971300D01*
X8151252Y28971300D01*
X8123168Y28974066D01*
X8098544Y28981536D01*
X8075863Y28993659D01*
X8055978Y29009978D01*
X8039659Y29029863D01*
X8027536Y29052544D01*
X8020066Y29077168D01*
X8017300Y29105252D01*
X8017300Y30462748D01*
X8020066Y30490832D01*
X8027536Y30515456D01*
X8039659Y30538137D01*
X8055978Y30558022D01*
X8075863Y30574341D01*
X8098544Y30586464D01*
X8123168Y30593934D01*
X8151252Y30596700D01*
X8498748Y30596700D01*
X8526832Y30593934D01*
G37*
G36*
X9326832Y30593934D02*
G01*
X9351456Y30586464D01*
X9374137Y30574341D01*
X9394022Y30558022D01*
X9410341Y30538137D01*
X9422464Y30515456D01*
X9429934Y30490832D01*
X9432700Y30462748D01*
X9432700Y29105252D01*
X9429934Y29077168D01*
X9422464Y29052544D01*
X9410341Y29029863D01*
X9394022Y29009978D01*
X9374137Y28993659D01*
X9351456Y28981536D01*
X9326832Y28974066D01*
X9298748Y28971300D01*
X8951252Y28971300D01*
X8923168Y28974066D01*
X8898544Y28981536D01*
X8875863Y28993659D01*
X8855978Y29009978D01*
X8839659Y29029863D01*
X8827536Y29052544D01*
X8820066Y29077168D01*
X8817300Y29105252D01*
X8817300Y30462748D01*
X8820066Y30490832D01*
X8827536Y30515456D01*
X8839659Y30538137D01*
X8855978Y30558022D01*
X8875863Y30574341D01*
X8898544Y30586464D01*
X8923168Y30593934D01*
X8951252Y30596700D01*
X9298748Y30596700D01*
X9326832Y30593934D01*
G37*
G36*
X10926832Y30593934D02*
G01*
X10951456Y30586464D01*
X10974137Y30574341D01*
X10994022Y30558022D01*
X11010341Y30538137D01*
X11022464Y30515456D01*
X11029934Y30490832D01*
X11032700Y30462748D01*
X11032700Y29105252D01*
X11029934Y29077168D01*
X11022464Y29052544D01*
X11010341Y29029863D01*
X10994022Y29009978D01*
X10974137Y28993659D01*
X10951456Y28981536D01*
X10926832Y28974066D01*
X10898748Y28971300D01*
X10551252Y28971300D01*
X10523168Y28974066D01*
X10498544Y28981536D01*
X10475863Y28993659D01*
X10455978Y29009978D01*
X10439659Y29029863D01*
X10427536Y29052544D01*
X10420066Y29077168D01*
X10417300Y29105252D01*
X10417300Y30462748D01*
X10420066Y30490832D01*
X10427536Y30515456D01*
X10439659Y30538137D01*
X10455978Y30558022D01*
X10475863Y30574341D01*
X10498544Y30586464D01*
X10523168Y30593934D01*
X10551252Y30596700D01*
X10898748Y30596700D01*
X10926832Y30593934D01*
G37*
G36*
X6926832Y30593934D02*
G01*
X6951456Y30586464D01*
X6974137Y30574341D01*
X6994022Y30558022D01*
X7010341Y30538137D01*
X7022464Y30515456D01*
X7029934Y30490832D01*
X7032700Y30462748D01*
X7032700Y29105252D01*
X7029934Y29077168D01*
X7022464Y29052544D01*
X7010341Y29029863D01*
X6994022Y29009978D01*
X6974137Y28993659D01*
X6951456Y28981536D01*
X6926832Y28974066D01*
X6898748Y28971300D01*
X6551252Y28971300D01*
X6523168Y28974066D01*
X6498544Y28981536D01*
X6475863Y28993659D01*
X6455978Y29009978D01*
X6439659Y29029863D01*
X6427536Y29052544D01*
X6420066Y29077168D01*
X6417300Y29105252D01*
X6417300Y30462748D01*
X6420066Y30490832D01*
X6427536Y30515456D01*
X6439659Y30538137D01*
X6455978Y30558022D01*
X6475863Y30574341D01*
X6498544Y30586464D01*
X6523168Y30593934D01*
X6551252Y30596700D01*
X6898748Y30596700D01*
X6926832Y30593934D01*
G37*
G36*
X11726832Y30593934D02*
G01*
X11751456Y30586464D01*
X11774137Y30574341D01*
X11794022Y30558022D01*
X11810341Y30538137D01*
X11822464Y30515456D01*
X11829934Y30490832D01*
X11832700Y30462748D01*
X11832700Y29105252D01*
X11829934Y29077168D01*
X11822464Y29052544D01*
X11810341Y29029863D01*
X11794022Y29009978D01*
X11774137Y28993659D01*
X11751456Y28981536D01*
X11726832Y28974066D01*
X11698748Y28971300D01*
X11351252Y28971300D01*
X11323168Y28974066D01*
X11298544Y28981536D01*
X11275863Y28993659D01*
X11255978Y29009978D01*
X11239659Y29029863D01*
X11227536Y29052544D01*
X11220066Y29077168D01*
X11217300Y29105252D01*
X11217300Y30462748D01*
X11220066Y30490832D01*
X11227536Y30515456D01*
X11239659Y30538137D01*
X11255978Y30558022D01*
X11275863Y30574341D01*
X11298544Y30586464D01*
X11323168Y30593934D01*
X11351252Y30596700D01*
X11698748Y30596700D01*
X11726832Y30593934D01*
G37*
G36*
X10126832Y30593934D02*
G01*
X10151456Y30586464D01*
X10174137Y30574341D01*
X10194022Y30558022D01*
X10210341Y30538137D01*
X10222464Y30515456D01*
X10229934Y30490832D01*
X10232700Y30462748D01*
X10232700Y29105252D01*
X10229934Y29077168D01*
X10222464Y29052544D01*
X10210341Y29029863D01*
X10194022Y29009978D01*
X10174137Y28993659D01*
X10151456Y28981536D01*
X10126832Y28974066D01*
X10098748Y28971300D01*
X9751252Y28971300D01*
X9723168Y28974066D01*
X9698544Y28981536D01*
X9675863Y28993659D01*
X9655978Y29009978D01*
X9639659Y29029863D01*
X9627536Y29052544D01*
X9620066Y29077168D01*
X9617300Y29105252D01*
X9617300Y30462748D01*
X9620066Y30490832D01*
X9627536Y30515456D01*
X9639659Y30538137D01*
X9655978Y30558022D01*
X9675863Y30574341D01*
X9698544Y30586464D01*
X9723168Y30593934D01*
X9751252Y30596700D01*
X10098748Y30596700D01*
X10126832Y30593934D01*
G37*
G36*
X28669333Y34563040D02*
G01*
X28669336Y34563039D01*
X28669337Y34563039D01*
X28822550Y34516562D01*
X28945520Y34450833D01*
X28963754Y34441087D01*
X29087517Y34339517D01*
X29189087Y34215754D01*
X29189088Y34215752D01*
X29264562Y34074550D01*
X29307001Y33934648D01*
X29311040Y33921333D01*
X29322800Y33801929D01*
X29322800Y32198071D01*
X29311040Y32078667D01*
X29311039Y32078664D01*
X29311039Y32078663D01*
X29264562Y31925450D01*
X29198833Y31802480D01*
X29189087Y31784246D01*
X29087517Y31660483D01*
X28963753Y31558913D01*
X28963751Y31558912D01*
X28822549Y31483438D01*
X28669336Y31436961D01*
X28669335Y31436961D01*
X28669332Y31436960D01*
X28510000Y31421267D01*
X28350667Y31436960D01*
X28350664Y31436961D01*
X28350663Y31436961D01*
X28197450Y31483438D01*
X28056248Y31558912D01*
X28056246Y31558913D01*
X27932483Y31660483D01*
X27830913Y31784247D01*
X27795045Y31851352D01*
X27755438Y31925451D01*
X27708961Y32078664D01*
X27708961Y32078665D01*
X27708960Y32078668D01*
X27697200Y32198072D01*
X27697201Y33801929D01*
X27708961Y33921333D01*
X27713000Y33934648D01*
X27755439Y34074550D01*
X27830913Y34215752D01*
X27830914Y34215754D01*
X27932484Y34339517D01*
X28056247Y34441087D01*
X28074481Y34450833D01*
X28197451Y34516562D01*
X28350664Y34563039D01*
X28350665Y34563039D01*
X28350668Y34563040D01*
X28510000Y34578733D01*
X28669333Y34563040D01*
G37*
G36*
X18509333Y34563040D02*
G01*
X18509336Y34563039D01*
X18509337Y34563039D01*
X18662550Y34516562D01*
X18785520Y34450833D01*
X18803754Y34441087D01*
X18927517Y34339517D01*
X19029087Y34215754D01*
X19029088Y34215752D01*
X19104562Y34074550D01*
X19147001Y33934648D01*
X19151040Y33921333D01*
X19162800Y33801929D01*
X19162800Y32198071D01*
X19151040Y32078667D01*
X19151039Y32078664D01*
X19151039Y32078663D01*
X19104562Y31925450D01*
X19038833Y31802480D01*
X19029087Y31784246D01*
X18927517Y31660483D01*
X18803753Y31558913D01*
X18803751Y31558912D01*
X18662549Y31483438D01*
X18509336Y31436961D01*
X18509335Y31436961D01*
X18509332Y31436960D01*
X18350000Y31421267D01*
X18190667Y31436960D01*
X18190664Y31436961D01*
X18190663Y31436961D01*
X18037450Y31483438D01*
X17896248Y31558912D01*
X17896246Y31558913D01*
X17772483Y31660483D01*
X17670913Y31784247D01*
X17635045Y31851352D01*
X17595438Y31925451D01*
X17548961Y32078664D01*
X17548961Y32078665D01*
X17548960Y32078668D01*
X17537200Y32198072D01*
X17537201Y33801929D01*
X17548961Y33921333D01*
X17553000Y33934648D01*
X17595439Y34074550D01*
X17670913Y34215752D01*
X17670914Y34215754D01*
X17772484Y34339517D01*
X17896247Y34441087D01*
X17914481Y34450833D01*
X18037451Y34516562D01*
X18190664Y34563039D01*
X18190665Y34563039D01*
X18190668Y34563040D01*
X18350000Y34578733D01*
X18509333Y34563040D01*
G37*
G36*
X31209333Y34563040D02*
G01*
X31209336Y34563039D01*
X31209337Y34563039D01*
X31362550Y34516562D01*
X31485520Y34450833D01*
X31503754Y34441087D01*
X31627517Y34339517D01*
X31729087Y34215754D01*
X31729088Y34215752D01*
X31804562Y34074550D01*
X31847001Y33934648D01*
X31851040Y33921333D01*
X31862800Y33801929D01*
X31862800Y32198071D01*
X31851040Y32078667D01*
X31851039Y32078664D01*
X31851039Y32078663D01*
X31804562Y31925450D01*
X31738833Y31802480D01*
X31729087Y31784246D01*
X31627517Y31660483D01*
X31503753Y31558913D01*
X31503751Y31558912D01*
X31362549Y31483438D01*
X31209336Y31436961D01*
X31209335Y31436961D01*
X31209332Y31436960D01*
X31050000Y31421267D01*
X30890667Y31436960D01*
X30890664Y31436961D01*
X30890663Y31436961D01*
X30737450Y31483438D01*
X30596248Y31558912D01*
X30596246Y31558913D01*
X30472483Y31660483D01*
X30370913Y31784247D01*
X30335045Y31851352D01*
X30295438Y31925451D01*
X30248961Y32078664D01*
X30248961Y32078665D01*
X30248960Y32078668D01*
X30237200Y32198072D01*
X30237201Y33801929D01*
X30248961Y33921333D01*
X30253000Y33934648D01*
X30295439Y34074550D01*
X30370913Y34215752D01*
X30370914Y34215754D01*
X30472484Y34339517D01*
X30596247Y34441087D01*
X30614481Y34450833D01*
X30737451Y34516562D01*
X30890664Y34563039D01*
X30890665Y34563039D01*
X30890668Y34563040D01*
X31050000Y34578733D01*
X31209333Y34563040D01*
G37*
G36*
X26129333Y34563040D02*
G01*
X26129336Y34563039D01*
X26129337Y34563039D01*
X26282550Y34516562D01*
X26405520Y34450833D01*
X26423754Y34441087D01*
X26547517Y34339517D01*
X26649087Y34215754D01*
X26649088Y34215752D01*
X26724562Y34074550D01*
X26767001Y33934648D01*
X26771040Y33921333D01*
X26782800Y33801929D01*
X26782800Y32198071D01*
X26771040Y32078667D01*
X26771039Y32078664D01*
X26771039Y32078663D01*
X26724562Y31925450D01*
X26658833Y31802480D01*
X26649087Y31784246D01*
X26547517Y31660483D01*
X26423753Y31558913D01*
X26423751Y31558912D01*
X26282549Y31483438D01*
X26129336Y31436961D01*
X26129335Y31436961D01*
X26129332Y31436960D01*
X25970000Y31421267D01*
X25810667Y31436960D01*
X25810664Y31436961D01*
X25810663Y31436961D01*
X25657450Y31483438D01*
X25516248Y31558912D01*
X25516246Y31558913D01*
X25392483Y31660483D01*
X25290913Y31784247D01*
X25255045Y31851352D01*
X25215438Y31925451D01*
X25168961Y32078664D01*
X25168961Y32078665D01*
X25168960Y32078668D01*
X25157200Y32198072D01*
X25157201Y33801929D01*
X25168961Y33921333D01*
X25173000Y33934648D01*
X25215439Y34074550D01*
X25290913Y34215752D01*
X25290914Y34215754D01*
X25392484Y34339517D01*
X25516247Y34441087D01*
X25534481Y34450833D01*
X25657451Y34516562D01*
X25810664Y34563039D01*
X25810665Y34563039D01*
X25810668Y34563040D01*
X25970000Y34578733D01*
X26129333Y34563040D01*
G37*
G36*
X23589333Y34563040D02*
G01*
X23589336Y34563039D01*
X23589337Y34563039D01*
X23742550Y34516562D01*
X23865520Y34450833D01*
X23883754Y34441087D01*
X24007517Y34339517D01*
X24109087Y34215754D01*
X24109088Y34215752D01*
X24184562Y34074550D01*
X24227001Y33934648D01*
X24231040Y33921333D01*
X24242800Y33801929D01*
X24242800Y32198071D01*
X24231040Y32078667D01*
X24231039Y32078664D01*
X24231039Y32078663D01*
X24184562Y31925450D01*
X24118833Y31802480D01*
X24109087Y31784246D01*
X24007517Y31660483D01*
X23883753Y31558913D01*
X23883751Y31558912D01*
X23742549Y31483438D01*
X23589336Y31436961D01*
X23589335Y31436961D01*
X23589332Y31436960D01*
X23430000Y31421267D01*
X23270667Y31436960D01*
X23270664Y31436961D01*
X23270663Y31436961D01*
X23117450Y31483438D01*
X22976248Y31558912D01*
X22976246Y31558913D01*
X22852483Y31660483D01*
X22750913Y31784247D01*
X22715045Y31851352D01*
X22675438Y31925451D01*
X22628961Y32078664D01*
X22628961Y32078665D01*
X22628960Y32078668D01*
X22617200Y32198072D01*
X22617201Y33801929D01*
X22628961Y33921333D01*
X22633000Y33934648D01*
X22675439Y34074550D01*
X22750913Y34215752D01*
X22750914Y34215754D01*
X22852484Y34339517D01*
X22976247Y34441087D01*
X22994481Y34450833D01*
X23117451Y34516562D01*
X23270664Y34563039D01*
X23270665Y34563039D01*
X23270668Y34563040D01*
X23430000Y34578733D01*
X23589333Y34563040D01*
G37*
G36*
X21049333Y34563040D02*
G01*
X21049336Y34563039D01*
X21049337Y34563039D01*
X21202550Y34516562D01*
X21325520Y34450833D01*
X21343754Y34441087D01*
X21467517Y34339517D01*
X21569087Y34215754D01*
X21569088Y34215752D01*
X21644562Y34074550D01*
X21687001Y33934648D01*
X21691040Y33921333D01*
X21702800Y33801929D01*
X21702800Y32198071D01*
X21691040Y32078667D01*
X21691039Y32078664D01*
X21691039Y32078663D01*
X21644562Y31925450D01*
X21578833Y31802480D01*
X21569087Y31784246D01*
X21467517Y31660483D01*
X21343753Y31558913D01*
X21343751Y31558912D01*
X21202549Y31483438D01*
X21049336Y31436961D01*
X21049335Y31436961D01*
X21049332Y31436960D01*
X20890000Y31421267D01*
X20730667Y31436960D01*
X20730664Y31436961D01*
X20730663Y31436961D01*
X20577450Y31483438D01*
X20436248Y31558912D01*
X20436246Y31558913D01*
X20312483Y31660483D01*
X20210913Y31784247D01*
X20175045Y31851352D01*
X20135438Y31925451D01*
X20088961Y32078664D01*
X20088961Y32078665D01*
X20088960Y32078668D01*
X20077200Y32198072D01*
X20077201Y33801929D01*
X20088961Y33921333D01*
X20093000Y33934648D01*
X20135439Y34074550D01*
X20210913Y34215752D01*
X20210914Y34215754D01*
X20312484Y34339517D01*
X20436247Y34441087D01*
X20454481Y34450833D01*
X20577451Y34516562D01*
X20730664Y34563039D01*
X20730665Y34563039D01*
X20730668Y34563040D01*
X20890000Y34578733D01*
X21049333Y34563040D01*
G37*
G36*
X15969333Y34563040D02*
G01*
X15969336Y34563039D01*
X15969337Y34563039D01*
X16122550Y34516562D01*
X16245520Y34450833D01*
X16263754Y34441087D01*
X16387517Y34339517D01*
X16489087Y34215754D01*
X16489088Y34215752D01*
X16564562Y34074550D01*
X16607001Y33934648D01*
X16611040Y33921333D01*
X16622800Y33801929D01*
X16622800Y32198071D01*
X16611040Y32078667D01*
X16611039Y32078664D01*
X16611039Y32078663D01*
X16564562Y31925450D01*
X16498833Y31802480D01*
X16489087Y31784246D01*
X16387517Y31660483D01*
X16263753Y31558913D01*
X16263751Y31558912D01*
X16122549Y31483438D01*
X15969336Y31436961D01*
X15969335Y31436961D01*
X15969332Y31436960D01*
X15810000Y31421267D01*
X15650667Y31436960D01*
X15650664Y31436961D01*
X15650663Y31436961D01*
X15497450Y31483438D01*
X15356248Y31558912D01*
X15356246Y31558913D01*
X15232483Y31660483D01*
X15130913Y31784247D01*
X15095045Y31851352D01*
X15055438Y31925451D01*
X15008961Y32078664D01*
X15008961Y32078665D01*
X15008960Y32078668D01*
X14997200Y32198072D01*
X14997201Y33801929D01*
X15008961Y33921333D01*
X15013000Y33934648D01*
X15055439Y34074550D01*
X15130913Y34215752D01*
X15130914Y34215754D01*
X15232484Y34339517D01*
X15356247Y34441087D01*
X15374481Y34450833D01*
X15497451Y34516562D01*
X15650664Y34563039D01*
X15650665Y34563039D01*
X15650668Y34563040D01*
X15810000Y34578733D01*
X15969333Y34563040D01*
G37*
G36*
X33749333Y34563040D02*
G01*
X33749336Y34563039D01*
X33749337Y34563039D01*
X33902550Y34516562D01*
X34025520Y34450833D01*
X34043754Y34441087D01*
X34167517Y34339517D01*
X34269087Y34215754D01*
X34269088Y34215752D01*
X34344562Y34074550D01*
X34387001Y33934648D01*
X34391040Y33921333D01*
X34402800Y33801929D01*
X34402800Y32198071D01*
X34391040Y32078667D01*
X34391039Y32078664D01*
X34391039Y32078663D01*
X34344562Y31925450D01*
X34278833Y31802480D01*
X34269087Y31784246D01*
X34167517Y31660483D01*
X34043753Y31558913D01*
X34043751Y31558912D01*
X33902549Y31483438D01*
X33749336Y31436961D01*
X33749335Y31436961D01*
X33749332Y31436960D01*
X33590000Y31421267D01*
X33430667Y31436960D01*
X33430664Y31436961D01*
X33430663Y31436961D01*
X33277450Y31483438D01*
X33136248Y31558912D01*
X33136246Y31558913D01*
X33012483Y31660483D01*
X32910913Y31784247D01*
X32875045Y31851352D01*
X32835438Y31925451D01*
X32788961Y32078664D01*
X32788961Y32078665D01*
X32788960Y32078668D01*
X32777200Y32198072D01*
X32777201Y33801929D01*
X32788961Y33921333D01*
X32793000Y33934648D01*
X32835439Y34074550D01*
X32910913Y34215752D01*
X32910914Y34215754D01*
X33012484Y34339517D01*
X33136247Y34441087D01*
X33154481Y34450833D01*
X33277451Y34516562D01*
X33430664Y34563039D01*
X33430665Y34563039D01*
X33430668Y34563040D01*
X33590000Y34578733D01*
X33749333Y34563040D01*
G37*
G36*
X13189967Y32666051D02*
G01*
X13232968Y32653007D01*
X13272591Y32631828D01*
X13307324Y32603324D01*
X13335828Y32568591D01*
X13357007Y32528968D01*
X13370051Y32485967D01*
X13374700Y32438764D01*
X13374700Y31827236D01*
X13370051Y31780033D01*
X13357007Y31737032D01*
X13335828Y31697409D01*
X13307324Y31662676D01*
X13272591Y31634172D01*
X13232968Y31612993D01*
X13189967Y31599949D01*
X13142764Y31595300D01*
X12511236Y31595300D01*
X12464033Y31599949D01*
X12421032Y31612993D01*
X12381409Y31634172D01*
X12346676Y31662676D01*
X12318172Y31697409D01*
X12296993Y31737032D01*
X12283949Y31780033D01*
X12279300Y31827236D01*
X12279300Y32438764D01*
X12283949Y32485967D01*
X12296993Y32528968D01*
X12318172Y32568591D01*
X12346676Y32603324D01*
X12381409Y32631828D01*
X12421032Y32653007D01*
X12464033Y32666051D01*
X12511236Y32670700D01*
X13142764Y32670700D01*
X13189967Y32666051D01*
G37*
G36*
X11284967Y32666051D02*
G01*
X11327968Y32653007D01*
X11367591Y32631828D01*
X11402324Y32603324D01*
X11430828Y32568591D01*
X11452007Y32528968D01*
X11465051Y32485967D01*
X11469700Y32438764D01*
X11469700Y31827236D01*
X11465051Y31780033D01*
X11452007Y31737032D01*
X11430828Y31697409D01*
X11402324Y31662676D01*
X11367591Y31634172D01*
X11327968Y31612993D01*
X11284967Y31599949D01*
X11237764Y31595300D01*
X10606236Y31595300D01*
X10559033Y31599949D01*
X10516032Y31612993D01*
X10476409Y31634172D01*
X10441676Y31662676D01*
X10413172Y31697409D01*
X10391993Y31737032D01*
X10378949Y31780033D01*
X10374300Y31827236D01*
X10374300Y32438764D01*
X10378949Y32485967D01*
X10391993Y32528968D01*
X10413172Y32568591D01*
X10441676Y32603324D01*
X10476409Y32631828D01*
X10516032Y32653007D01*
X10559033Y32666051D01*
X10606236Y32670700D01*
X11237764Y32670700D01*
X11284967Y32666051D01*
G37*
G36*
X5862800Y32042200D02*
G01*
X5361200Y32042200D01*
X5361200Y33743800D01*
X5862800Y33743800D01*
X5862800Y32042200D01*
G37*
G36*
X8862800Y32042200D02*
G01*
X8361200Y32042200D01*
X8361200Y33743800D01*
X8862800Y33743800D01*
X8862800Y32042200D01*
G37*
G36*
X7362800Y32042200D02*
G01*
X6861200Y32042200D01*
X6861200Y33743800D01*
X7362800Y33743800D01*
X7362800Y32042200D01*
G37*
G36*
X11284967Y34186051D02*
G01*
X11327968Y34173007D01*
X11367591Y34151828D01*
X11402324Y34123324D01*
X11430828Y34088591D01*
X11452007Y34048968D01*
X11465051Y34005967D01*
X11469700Y33958764D01*
X11469700Y33347236D01*
X11465051Y33300033D01*
X11452007Y33257032D01*
X11430828Y33217409D01*
X11402324Y33182676D01*
X11367591Y33154172D01*
X11327968Y33132993D01*
X11284967Y33119949D01*
X11237764Y33115300D01*
X10606236Y33115300D01*
X10559033Y33119949D01*
X10516032Y33132993D01*
X10476409Y33154172D01*
X10441676Y33182676D01*
X10413172Y33217409D01*
X10391993Y33257032D01*
X10378949Y33300033D01*
X10374300Y33347236D01*
X10374300Y33958764D01*
X10378949Y34005967D01*
X10391993Y34048968D01*
X10413172Y34088591D01*
X10441676Y34123324D01*
X10476409Y34151828D01*
X10516032Y34173007D01*
X10559033Y34186051D01*
X10606236Y34190700D01*
X11237764Y34190700D01*
X11284967Y34186051D01*
G37*
G36*
X13189967Y34186051D02*
G01*
X13232968Y34173007D01*
X13272591Y34151828D01*
X13307324Y34123324D01*
X13335828Y34088591D01*
X13357007Y34048968D01*
X13370051Y34005967D01*
X13374700Y33958764D01*
X13374700Y33347236D01*
X13370051Y33300033D01*
X13357007Y33257032D01*
X13335828Y33217409D01*
X13307324Y33182676D01*
X13272591Y33154172D01*
X13232968Y33132993D01*
X13189967Y33119949D01*
X13142764Y33115300D01*
X12511236Y33115300D01*
X12464033Y33119949D01*
X12421032Y33132993D01*
X12381409Y33154172D01*
X12346676Y33182676D01*
X12318172Y33217409D01*
X12296993Y33257032D01*
X12283949Y33300033D01*
X12279300Y33347236D01*
X12279300Y33958764D01*
X12283949Y34005967D01*
X12296993Y34048968D01*
X12318172Y34088591D01*
X12346676Y34123324D01*
X12381409Y34151828D01*
X12421032Y34173007D01*
X12464033Y34186051D01*
X12511236Y34190700D01*
X13142764Y34190700D01*
X13189967Y34186051D01*
G37*
M02*
