%TF.GenerationSoftware,KiCad,Pcbnew,(5.1.6)-1*%
%TF.CreationDate,2021-11-16T12:50:12-05:00*%
%TF.ProjectId,AmbaSat-1_Satellite,416d6261-5361-4742-9d31-5f536174656c,KiCad_1.0*%
%TF.SameCoordinates,PX7ceeb0cPY74d41b0*%
%TF.FileFunction,Copper,L1,Top*%
%TF.FilePolarity,Positive*%
%FSLAX46Y46*%
G04 Gerber Fmt 4.6, Leading zero omitted, Abs format (unit mm)*
G04 Created by KiCad (PCBNEW (5.1.6)-1) date 2021-11-16 12:50:12*
%MOMM*%
%LPD*%
G01*
G04 APERTURE LIST*
%TA.AperFunction,EtchedComponent*%
%ADD10C,0.100000*%
%TD*%
%TA.AperFunction,SMDPad,CuDef*%
%ADD11R,2.000000X1.270000*%
%TD*%
%TA.AperFunction,SMDPad,CuDef*%
%ADD12R,1.050000X1.000000*%
%TD*%
%TA.AperFunction,SMDPad,CuDef*%
%ADD13R,2.200000X0.850000*%
%TD*%
%TA.AperFunction,ComponentPad*%
%ADD14C,1.676400*%
%TD*%
%TA.AperFunction,ComponentPad*%
%ADD15O,3.048000X1.524000*%
%TD*%
%TA.AperFunction,SMDPad,CuDef*%
%ADD16R,0.400000X1.600000*%
%TD*%
%TA.AperFunction,ComponentPad*%
%ADD17O,1.524000X3.048000*%
%TD*%
%TA.AperFunction,ComponentPad*%
%ADD18O,2.032000X2.032000*%
%TD*%
%TA.AperFunction,ViaPad*%
%ADD19C,0.685800*%
%TD*%
%TA.AperFunction,Conductor*%
%ADD20C,0.609600*%
%TD*%
%TA.AperFunction,Conductor*%
%ADD21C,0.508000*%
%TD*%
%TA.AperFunction,Conductor*%
%ADD22C,0.304800*%
%TD*%
%TA.AperFunction,Conductor*%
%ADD23C,0.127000*%
%TD*%
%TA.AperFunction,Conductor*%
%ADD24C,0.335280*%
%TD*%
%TA.AperFunction,Conductor*%
%ADD25C,0.254000*%
%TD*%
G04 APERTURE END LIST*
D10*
%TO.C,Y1*%
G36*
X6012000Y34193000D02*
G01*
X5212000Y34193000D01*
X5212000Y33693000D01*
X6012000Y33693000D01*
X6012000Y34193000D01*
G37*
G36*
X6012000Y32093000D02*
G01*
X5212000Y32093000D01*
X5212000Y31593000D01*
X6012000Y31593000D01*
X6012000Y32093000D01*
G37*
G36*
X9012000Y34193000D02*
G01*
X8212000Y34193000D01*
X8212000Y33693000D01*
X9012000Y33693000D01*
X9012000Y34193000D01*
G37*
G36*
X9012000Y32093000D02*
G01*
X8212000Y32093000D01*
X8212000Y31593000D01*
X9012000Y31593000D01*
X9012000Y32093000D01*
G37*
G36*
X7512000Y34193000D02*
G01*
X6712000Y34193000D01*
X6712000Y33693000D01*
X7512000Y33693000D01*
X7512000Y34193000D01*
G37*
G36*
X7512000Y32093000D02*
G01*
X6712000Y32093000D01*
X6712000Y31593000D01*
X7512000Y31593000D01*
X7512000Y32093000D01*
G37*
%TD*%
D11*
%TO.P,U4,12*%
%TO.N,Net-(U4-Pad12)*%
X17520500Y9400000D03*
%TO.P,U4,11*%
%TO.N,Net-(U4-Pad11)*%
X17520500Y11400000D03*
%TO.P,U4,13*%
%TO.N,3V3*%
X17520500Y7400000D03*
%TO.P,U4,4*%
%TO.N,/SCK*%
X33520500Y7387800D03*
%TO.P,U4,6*%
%TO.N,Net-(U4-Pad6)*%
X33520500Y11305000D03*
%TO.P,U4,5*%
%TO.N,/SS*%
X33520500Y9400000D03*
%TO.P,U4,3*%
%TO.N,/MOSI*%
X33520500Y5400000D03*
%TO.P,U4,2*%
%TO.N,/MISO*%
X33520500Y3400000D03*
%TO.P,U4,8*%
%TO.N,GND*%
X33520500Y15400000D03*
%TO.P,U4,1*%
X33520500Y1400000D03*
%TO.P,U4,10*%
X17520500Y13400000D03*
%TO.P,U4,7*%
%TO.N,Net-(U4-Pad7)*%
X33520500Y13400000D03*
%TO.P,U4,16*%
%TO.N,Net-(U4-Pad16)*%
X17520500Y1400000D03*
%TO.P,U4,15*%
%TO.N,/DIO1*%
X17520500Y3400000D03*
%TO.P,U4,14*%
%TO.N,/DIO0*%
X17520500Y5400000D03*
%TO.P,U4,9*%
%TO.N,Net-(JP3-Pad1)*%
X17520500Y15400000D03*
%TD*%
D12*
%TO.P,P1,NC*%
%TO.N,N/C*%
X10286000Y14224000D03*
%TO.P,P1,FEED*%
%TO.N,Net-(JP3-Pad1)*%
X13336000Y14224000D03*
D13*
%TO.P,P1,2*%
%TO.N,GND*%
X11811000Y12849000D03*
%TO.P,P1,1*%
X11811000Y15599000D03*
%TD*%
D14*
%TO.P,JP3,1*%
%TO.N,Net-(JP3-Pad1)*%
X15240000Y14224000D03*
%TD*%
D15*
%TO.P,JP2,6*%
%TO.N,Net-(C1-Pad2)*%
X2000000Y14350000D03*
%TO.P,JP2,5*%
%TO.N,/TX*%
X2000000Y11810000D03*
%TO.P,JP2,4*%
%TO.N,/RX*%
X2000000Y9270000D03*
%TO.P,JP2,3*%
%TO.N,/VIN*%
X2000000Y6730000D03*
%TO.P,JP2,2*%
%TO.N,/SS*%
X2000000Y4190000D03*
%TO.P,JP2,1*%
%TO.N,GND*%
X2000000Y1650000D03*
%TD*%
%TO.P,U2,1*%
%TO.N,/D3*%
%TA.AperFunction,SMDPad,CuDef*%
G36*
G01*
X12179978Y30584000D02*
X12470022Y30584000D01*
G75*
G02*
X12620000Y30434022I0J-149978D01*
G01*
X12620000Y29133978D01*
G75*
G02*
X12470022Y28984000I-149978J0D01*
G01*
X12179978Y28984000D01*
G75*
G02*
X12030000Y29133978I0J149978D01*
G01*
X12030000Y30434022D01*
G75*
G02*
X12179978Y30584000I149978J0D01*
G01*
G37*
%TD.AperFunction*%
%TO.P,U2,2*%
%TO.N,Net-(U2-Pad2)*%
%TA.AperFunction,SMDPad,CuDef*%
G36*
G01*
X11379978Y30584000D02*
X11670022Y30584000D01*
G75*
G02*
X11820000Y30434022I0J-149978D01*
G01*
X11820000Y29133978D01*
G75*
G02*
X11670022Y28984000I-149978J0D01*
G01*
X11379978Y28984000D01*
G75*
G02*
X11230000Y29133978I0J149978D01*
G01*
X11230000Y30434022D01*
G75*
G02*
X11379978Y30584000I149978J0D01*
G01*
G37*
%TD.AperFunction*%
%TO.P,U2,3*%
%TO.N,GND*%
%TA.AperFunction,SMDPad,CuDef*%
G36*
G01*
X10579978Y30584000D02*
X10870022Y30584000D01*
G75*
G02*
X11020000Y30434022I0J-149978D01*
G01*
X11020000Y29133978D01*
G75*
G02*
X10870022Y28984000I-149978J0D01*
G01*
X10579978Y28984000D01*
G75*
G02*
X10430000Y29133978I0J149978D01*
G01*
X10430000Y30434022D01*
G75*
G02*
X10579978Y30584000I149978J0D01*
G01*
G37*
%TD.AperFunction*%
%TO.P,U2,4*%
%TO.N,3V3*%
%TA.AperFunction,SMDPad,CuDef*%
G36*
G01*
X9779978Y30584000D02*
X10070022Y30584000D01*
G75*
G02*
X10220000Y30434022I0J-149978D01*
G01*
X10220000Y29133978D01*
G75*
G02*
X10070022Y28984000I-149978J0D01*
G01*
X9779978Y28984000D01*
G75*
G02*
X9630000Y29133978I0J149978D01*
G01*
X9630000Y30434022D01*
G75*
G02*
X9779978Y30584000I149978J0D01*
G01*
G37*
%TD.AperFunction*%
%TO.P,U2,5*%
%TO.N,GND*%
%TA.AperFunction,SMDPad,CuDef*%
G36*
G01*
X8979978Y30584000D02*
X9270022Y30584000D01*
G75*
G02*
X9420000Y30434022I0J-149978D01*
G01*
X9420000Y29133978D01*
G75*
G02*
X9270022Y28984000I-149978J0D01*
G01*
X8979978Y28984000D01*
G75*
G02*
X8830000Y29133978I0J149978D01*
G01*
X8830000Y30434022D01*
G75*
G02*
X8979978Y30584000I149978J0D01*
G01*
G37*
%TD.AperFunction*%
%TO.P,U2,6*%
%TO.N,3V3*%
%TA.AperFunction,SMDPad,CuDef*%
G36*
G01*
X8179978Y30584000D02*
X8470022Y30584000D01*
G75*
G02*
X8620000Y30434022I0J-149978D01*
G01*
X8620000Y29133978D01*
G75*
G02*
X8470022Y28984000I-149978J0D01*
G01*
X8179978Y28984000D01*
G75*
G02*
X8030000Y29133978I0J149978D01*
G01*
X8030000Y30434022D01*
G75*
G02*
X8179978Y30584000I149978J0D01*
G01*
G37*
%TD.AperFunction*%
%TO.P,U2,7*%
%TO.N,Net-(U2-Pad7)*%
%TA.AperFunction,SMDPad,CuDef*%
G36*
G01*
X7379978Y30584000D02*
X7670022Y30584000D01*
G75*
G02*
X7820000Y30434022I0J-149978D01*
G01*
X7820000Y29133978D01*
G75*
G02*
X7670022Y28984000I-149978J0D01*
G01*
X7379978Y28984000D01*
G75*
G02*
X7230000Y29133978I0J149978D01*
G01*
X7230000Y30434022D01*
G75*
G02*
X7379978Y30584000I149978J0D01*
G01*
G37*
%TD.AperFunction*%
%TO.P,U2,8*%
%TO.N,Net-(U2-Pad8)*%
%TA.AperFunction,SMDPad,CuDef*%
G36*
G01*
X6579978Y30584000D02*
X6870022Y30584000D01*
G75*
G02*
X7020000Y30434022I0J-149978D01*
G01*
X7020000Y29133978D01*
G75*
G02*
X6870022Y28984000I-149978J0D01*
G01*
X6579978Y28984000D01*
G75*
G02*
X6430000Y29133978I0J149978D01*
G01*
X6430000Y30434022D01*
G75*
G02*
X6579978Y30584000I149978J0D01*
G01*
G37*
%TD.AperFunction*%
%TO.P,U2,9*%
%TO.N,Net-(U2-Pad9)*%
%TA.AperFunction,SMDPad,CuDef*%
G36*
G01*
X6195000Y28599022D02*
X6195000Y28308978D01*
G75*
G02*
X6045022Y28159000I-149978J0D01*
G01*
X4744978Y28159000D01*
G75*
G02*
X4595000Y28308978I0J149978D01*
G01*
X4595000Y28599022D01*
G75*
G02*
X4744978Y28749000I149978J0D01*
G01*
X6045022Y28749000D01*
G75*
G02*
X6195000Y28599022I0J-149978D01*
G01*
G37*
%TD.AperFunction*%
%TO.P,U2,10*%
%TO.N,Net-(U2-Pad10)*%
%TA.AperFunction,SMDPad,CuDef*%
G36*
G01*
X6195000Y27799022D02*
X6195000Y27508978D01*
G75*
G02*
X6045022Y27359000I-149978J0D01*
G01*
X4744978Y27359000D01*
G75*
G02*
X4595000Y27508978I0J149978D01*
G01*
X4595000Y27799022D01*
G75*
G02*
X4744978Y27949000I149978J0D01*
G01*
X6045022Y27949000D01*
G75*
G02*
X6195000Y27799022I0J-149978D01*
G01*
G37*
%TD.AperFunction*%
%TO.P,U2,11*%
%TO.N,Net-(U2-Pad11)*%
%TA.AperFunction,SMDPad,CuDef*%
G36*
G01*
X6195000Y26999022D02*
X6195000Y26708978D01*
G75*
G02*
X6045022Y26559000I-149978J0D01*
G01*
X4744978Y26559000D01*
G75*
G02*
X4595000Y26708978I0J149978D01*
G01*
X4595000Y26999022D01*
G75*
G02*
X4744978Y27149000I149978J0D01*
G01*
X6045022Y27149000D01*
G75*
G02*
X6195000Y26999022I0J-149978D01*
G01*
G37*
%TD.AperFunction*%
%TO.P,U2,12*%
%TO.N,Net-(U2-Pad12)*%
%TA.AperFunction,SMDPad,CuDef*%
G36*
G01*
X6195000Y26199022D02*
X6195000Y25908978D01*
G75*
G02*
X6045022Y25759000I-149978J0D01*
G01*
X4744978Y25759000D01*
G75*
G02*
X4595000Y25908978I0J149978D01*
G01*
X4595000Y26199022D01*
G75*
G02*
X4744978Y26349000I149978J0D01*
G01*
X6045022Y26349000D01*
G75*
G02*
X6195000Y26199022I0J-149978D01*
G01*
G37*
%TD.AperFunction*%
%TO.P,U2,13*%
%TO.N,Net-(R1-Pad2)*%
%TA.AperFunction,SMDPad,CuDef*%
G36*
G01*
X6195000Y25399022D02*
X6195000Y25108978D01*
G75*
G02*
X6045022Y24959000I-149978J0D01*
G01*
X4744978Y24959000D01*
G75*
G02*
X4595000Y25108978I0J149978D01*
G01*
X4595000Y25399022D01*
G75*
G02*
X4744978Y25549000I149978J0D01*
G01*
X6045022Y25549000D01*
G75*
G02*
X6195000Y25399022I0J-149978D01*
G01*
G37*
%TD.AperFunction*%
%TO.P,U2,14*%
%TO.N,/SS*%
%TA.AperFunction,SMDPad,CuDef*%
G36*
G01*
X6195000Y24599022D02*
X6195000Y24308978D01*
G75*
G02*
X6045022Y24159000I-149978J0D01*
G01*
X4744978Y24159000D01*
G75*
G02*
X4595000Y24308978I0J149978D01*
G01*
X4595000Y24599022D01*
G75*
G02*
X4744978Y24749000I149978J0D01*
G01*
X6045022Y24749000D01*
G75*
G02*
X6195000Y24599022I0J-149978D01*
G01*
G37*
%TD.AperFunction*%
%TO.P,U2,15*%
%TO.N,/MOSI*%
%TA.AperFunction,SMDPad,CuDef*%
G36*
G01*
X6195000Y23799022D02*
X6195000Y23508978D01*
G75*
G02*
X6045022Y23359000I-149978J0D01*
G01*
X4744978Y23359000D01*
G75*
G02*
X4595000Y23508978I0J149978D01*
G01*
X4595000Y23799022D01*
G75*
G02*
X4744978Y23949000I149978J0D01*
G01*
X6045022Y23949000D01*
G75*
G02*
X6195000Y23799022I0J-149978D01*
G01*
G37*
%TD.AperFunction*%
%TO.P,U2,16*%
%TO.N,/MISO*%
%TA.AperFunction,SMDPad,CuDef*%
G36*
G01*
X6195000Y22999022D02*
X6195000Y22708978D01*
G75*
G02*
X6045022Y22559000I-149978J0D01*
G01*
X4744978Y22559000D01*
G75*
G02*
X4595000Y22708978I0J149978D01*
G01*
X4595000Y22999022D01*
G75*
G02*
X4744978Y23149000I149978J0D01*
G01*
X6045022Y23149000D01*
G75*
G02*
X6195000Y22999022I0J-149978D01*
G01*
G37*
%TD.AperFunction*%
%TO.P,U2,17*%
%TO.N,/SCK*%
%TA.AperFunction,SMDPad,CuDef*%
G36*
G01*
X6579978Y22324000D02*
X6870022Y22324000D01*
G75*
G02*
X7020000Y22174022I0J-149978D01*
G01*
X7020000Y20873978D01*
G75*
G02*
X6870022Y20724000I-149978J0D01*
G01*
X6579978Y20724000D01*
G75*
G02*
X6430000Y20873978I0J149978D01*
G01*
X6430000Y22174022D01*
G75*
G02*
X6579978Y22324000I149978J0D01*
G01*
G37*
%TD.AperFunction*%
%TO.P,U2,18*%
%TO.N,3V3*%
%TA.AperFunction,SMDPad,CuDef*%
G36*
G01*
X7379978Y22324000D02*
X7670022Y22324000D01*
G75*
G02*
X7820000Y22174022I0J-149978D01*
G01*
X7820000Y20873978D01*
G75*
G02*
X7670022Y20724000I-149978J0D01*
G01*
X7379978Y20724000D01*
G75*
G02*
X7230000Y20873978I0J149978D01*
G01*
X7230000Y22174022D01*
G75*
G02*
X7379978Y22324000I149978J0D01*
G01*
G37*
%TD.AperFunction*%
%TO.P,U2,19*%
%TO.N,Net-(U2-Pad19)*%
%TA.AperFunction,SMDPad,CuDef*%
G36*
G01*
X8179978Y22324000D02*
X8470022Y22324000D01*
G75*
G02*
X8620000Y22174022I0J-149978D01*
G01*
X8620000Y20873978D01*
G75*
G02*
X8470022Y20724000I-149978J0D01*
G01*
X8179978Y20724000D01*
G75*
G02*
X8030000Y20873978I0J149978D01*
G01*
X8030000Y22174022D01*
G75*
G02*
X8179978Y22324000I149978J0D01*
G01*
G37*
%TD.AperFunction*%
%TO.P,U2,20*%
%TO.N,Net-(U2-Pad20)*%
%TA.AperFunction,SMDPad,CuDef*%
G36*
G01*
X8979978Y22324000D02*
X9270022Y22324000D01*
G75*
G02*
X9420000Y22174022I0J-149978D01*
G01*
X9420000Y20873978D01*
G75*
G02*
X9270022Y20724000I-149978J0D01*
G01*
X8979978Y20724000D01*
G75*
G02*
X8830000Y20873978I0J149978D01*
G01*
X8830000Y22174022D01*
G75*
G02*
X8979978Y22324000I149978J0D01*
G01*
G37*
%TD.AperFunction*%
%TO.P,U2,21*%
%TO.N,GND*%
%TA.AperFunction,SMDPad,CuDef*%
G36*
G01*
X9779978Y22324000D02*
X10070022Y22324000D01*
G75*
G02*
X10220000Y22174022I0J-149978D01*
G01*
X10220000Y20873978D01*
G75*
G02*
X10070022Y20724000I-149978J0D01*
G01*
X9779978Y20724000D01*
G75*
G02*
X9630000Y20873978I0J149978D01*
G01*
X9630000Y22174022D01*
G75*
G02*
X9779978Y22324000I149978J0D01*
G01*
G37*
%TD.AperFunction*%
%TO.P,U2,22*%
%TO.N,Net-(U2-Pad22)*%
%TA.AperFunction,SMDPad,CuDef*%
G36*
G01*
X10579978Y22324000D02*
X10870022Y22324000D01*
G75*
G02*
X11020000Y22174022I0J-149978D01*
G01*
X11020000Y20873978D01*
G75*
G02*
X10870022Y20724000I-149978J0D01*
G01*
X10579978Y20724000D01*
G75*
G02*
X10430000Y20873978I0J149978D01*
G01*
X10430000Y22174022D01*
G75*
G02*
X10579978Y22324000I149978J0D01*
G01*
G37*
%TD.AperFunction*%
%TO.P,U2,23*%
%TO.N,/A0*%
%TA.AperFunction,SMDPad,CuDef*%
G36*
G01*
X11379978Y22324000D02*
X11670022Y22324000D01*
G75*
G02*
X11820000Y22174022I0J-149978D01*
G01*
X11820000Y20873978D01*
G75*
G02*
X11670022Y20724000I-149978J0D01*
G01*
X11379978Y20724000D01*
G75*
G02*
X11230000Y20873978I0J149978D01*
G01*
X11230000Y22174022D01*
G75*
G02*
X11379978Y22324000I149978J0D01*
G01*
G37*
%TD.AperFunction*%
%TO.P,U2,24*%
%TO.N,Net-(U2-Pad24)*%
%TA.AperFunction,SMDPad,CuDef*%
G36*
G01*
X12179978Y22324000D02*
X12470022Y22324000D01*
G75*
G02*
X12620000Y22174022I0J-149978D01*
G01*
X12620000Y20873978D01*
G75*
G02*
X12470022Y20724000I-149978J0D01*
G01*
X12179978Y20724000D01*
G75*
G02*
X12030000Y20873978I0J149978D01*
G01*
X12030000Y22174022D01*
G75*
G02*
X12179978Y22324000I149978J0D01*
G01*
G37*
%TD.AperFunction*%
%TO.P,U2,25*%
%TO.N,/DIO1*%
%TA.AperFunction,SMDPad,CuDef*%
G36*
G01*
X14455000Y22999022D02*
X14455000Y22708978D01*
G75*
G02*
X14305022Y22559000I-149978J0D01*
G01*
X13004978Y22559000D01*
G75*
G02*
X12855000Y22708978I0J149978D01*
G01*
X12855000Y22999022D01*
G75*
G02*
X13004978Y23149000I149978J0D01*
G01*
X14305022Y23149000D01*
G75*
G02*
X14455000Y22999022I0J-149978D01*
G01*
G37*
%TD.AperFunction*%
%TO.P,U2,26*%
%TO.N,Net-(U2-Pad26)*%
%TA.AperFunction,SMDPad,CuDef*%
G36*
G01*
X14455000Y23799022D02*
X14455000Y23508978D01*
G75*
G02*
X14305022Y23359000I-149978J0D01*
G01*
X13004978Y23359000D01*
G75*
G02*
X12855000Y23508978I0J149978D01*
G01*
X12855000Y23799022D01*
G75*
G02*
X13004978Y23949000I149978J0D01*
G01*
X14305022Y23949000D01*
G75*
G02*
X14455000Y23799022I0J-149978D01*
G01*
G37*
%TD.AperFunction*%
%TO.P,U2,27*%
%TO.N,/SDA*%
%TA.AperFunction,SMDPad,CuDef*%
G36*
G01*
X14455000Y24599022D02*
X14455000Y24308978D01*
G75*
G02*
X14305022Y24159000I-149978J0D01*
G01*
X13004978Y24159000D01*
G75*
G02*
X12855000Y24308978I0J149978D01*
G01*
X12855000Y24599022D01*
G75*
G02*
X13004978Y24749000I149978J0D01*
G01*
X14305022Y24749000D01*
G75*
G02*
X14455000Y24599022I0J-149978D01*
G01*
G37*
%TD.AperFunction*%
%TO.P,U2,28*%
%TO.N,/SCL*%
%TA.AperFunction,SMDPad,CuDef*%
G36*
G01*
X14455000Y25399022D02*
X14455000Y25108978D01*
G75*
G02*
X14305022Y24959000I-149978J0D01*
G01*
X13004978Y24959000D01*
G75*
G02*
X12855000Y25108978I0J149978D01*
G01*
X12855000Y25399022D01*
G75*
G02*
X13004978Y25549000I149978J0D01*
G01*
X14305022Y25549000D01*
G75*
G02*
X14455000Y25399022I0J-149978D01*
G01*
G37*
%TD.AperFunction*%
%TO.P,U2,29*%
%TO.N,/RESET*%
%TA.AperFunction,SMDPad,CuDef*%
G36*
G01*
X14455000Y26199022D02*
X14455000Y25908978D01*
G75*
G02*
X14305022Y25759000I-149978J0D01*
G01*
X13004978Y25759000D01*
G75*
G02*
X12855000Y25908978I0J149978D01*
G01*
X12855000Y26199022D01*
G75*
G02*
X13004978Y26349000I149978J0D01*
G01*
X14305022Y26349000D01*
G75*
G02*
X14455000Y26199022I0J-149978D01*
G01*
G37*
%TD.AperFunction*%
%TO.P,U2,30*%
%TO.N,/RX*%
%TA.AperFunction,SMDPad,CuDef*%
G36*
G01*
X14455000Y26999022D02*
X14455000Y26708978D01*
G75*
G02*
X14305022Y26559000I-149978J0D01*
G01*
X13004978Y26559000D01*
G75*
G02*
X12855000Y26708978I0J149978D01*
G01*
X12855000Y26999022D01*
G75*
G02*
X13004978Y27149000I149978J0D01*
G01*
X14305022Y27149000D01*
G75*
G02*
X14455000Y26999022I0J-149978D01*
G01*
G37*
%TD.AperFunction*%
%TO.P,U2,31*%
%TO.N,/TX*%
%TA.AperFunction,SMDPad,CuDef*%
G36*
G01*
X14455000Y27799022D02*
X14455000Y27508978D01*
G75*
G02*
X14305022Y27359000I-149978J0D01*
G01*
X13004978Y27359000D01*
G75*
G02*
X12855000Y27508978I0J149978D01*
G01*
X12855000Y27799022D01*
G75*
G02*
X13004978Y27949000I149978J0D01*
G01*
X14305022Y27949000D01*
G75*
G02*
X14455000Y27799022I0J-149978D01*
G01*
G37*
%TD.AperFunction*%
%TO.P,U2,32*%
%TO.N,/DIO0*%
%TA.AperFunction,SMDPad,CuDef*%
G36*
G01*
X14455000Y28599022D02*
X14455000Y28308978D01*
G75*
G02*
X14305022Y28159000I-149978J0D01*
G01*
X13004978Y28159000D01*
G75*
G02*
X12855000Y28308978I0J149978D01*
G01*
X12855000Y28599022D01*
G75*
G02*
X13004978Y28749000I149978J0D01*
G01*
X14305022Y28749000D01*
G75*
G02*
X14455000Y28599022I0J-149978D01*
G01*
G37*
%TD.AperFunction*%
%TD*%
D16*
%TO.P,Y1,3*%
%TO.N,Net-(U2-Pad8)*%
X5612000Y32893000D03*
%TO.P,Y1,2*%
%TO.N,GND*%
X7112000Y32893000D03*
%TO.P,Y1,1*%
%TO.N,Net-(U2-Pad7)*%
X8612000Y32893000D03*
%TD*%
D17*
%TO.P,JP1,8*%
%TO.N,/SCK*%
X15810000Y33000000D03*
%TO.P,JP1,7*%
%TO.N,/MISO*%
X18350000Y33000000D03*
%TO.P,JP1,6*%
%TO.N,/MOSI*%
X20890000Y33000000D03*
%TO.P,JP1,5*%
%TO.N,/D3*%
X23430000Y33000000D03*
%TO.P,JP1,4*%
%TO.N,/SDA*%
X25970000Y33000000D03*
%TO.P,JP1,3*%
%TO.N,/SCL*%
X28510000Y33000000D03*
%TO.P,JP1,2*%
%TO.N,GND*%
X31050000Y33000000D03*
%TO.P,JP1,1*%
%TO.N,3V3*%
X33590000Y33000000D03*
%TD*%
%TO.P,D1,A*%
%TO.N,Net-(D1-PadA)*%
%TA.AperFunction,SMDPad,CuDef*%
G36*
G01*
X6723000Y14856000D02*
X5723000Y14856000D01*
G75*
G02*
X5483000Y15096000I0J240000D01*
G01*
X5483000Y15576000D01*
G75*
G02*
X5723000Y15816000I240000J0D01*
G01*
X6723000Y15816000D01*
G75*
G02*
X6963000Y15576000I0J-240000D01*
G01*
X6963000Y15096000D01*
G75*
G02*
X6723000Y14856000I-240000J0D01*
G01*
G37*
%TD.AperFunction*%
%TO.P,D1,C*%
%TO.N,GND*%
%TA.AperFunction,SMDPad,CuDef*%
G36*
G01*
X6723000Y12886000D02*
X5723000Y12886000D01*
G75*
G02*
X5483000Y13126000I0J240000D01*
G01*
X5483000Y13606000D01*
G75*
G02*
X5723000Y13846000I240000J0D01*
G01*
X6723000Y13846000D01*
G75*
G02*
X6963000Y13606000I0J-240000D01*
G01*
X6963000Y13126000D01*
G75*
G02*
X6723000Y12886000I-240000J0D01*
G01*
G37*
%TD.AperFunction*%
%TD*%
%TO.P,U3,5*%
%TO.N,3V3*%
%TA.AperFunction,SMDPad,CuDef*%
G36*
G01*
X7839000Y11335999D02*
X7839000Y11646001D01*
G75*
G02*
X7988999Y11796000I149999J0D01*
G01*
X8949001Y11796000D01*
G75*
G02*
X9099000Y11646001I0J-149999D01*
G01*
X9099000Y11335999D01*
G75*
G02*
X8949001Y11186000I-149999J0D01*
G01*
X7988999Y11186000D01*
G75*
G02*
X7839000Y11335999I0J149999D01*
G01*
G37*
%TD.AperFunction*%
%TO.P,U3,4*%
%TO.N,Net-(C12-Pad1)*%
%TA.AperFunction,SMDPad,CuDef*%
G36*
G01*
X7839000Y9435999D02*
X7839000Y9746001D01*
G75*
G02*
X7988999Y9896000I149999J0D01*
G01*
X8949001Y9896000D01*
G75*
G02*
X9099000Y9746001I0J-149999D01*
G01*
X9099000Y9435999D01*
G75*
G02*
X8949001Y9286000I-149999J0D01*
G01*
X7988999Y9286000D01*
G75*
G02*
X7839000Y9435999I0J149999D01*
G01*
G37*
%TD.AperFunction*%
%TO.P,U3,3*%
%TO.N,/VIN*%
%TA.AperFunction,SMDPad,CuDef*%
G36*
G01*
X5379000Y9435999D02*
X5379000Y9746001D01*
G75*
G02*
X5528999Y9896000I149999J0D01*
G01*
X6489001Y9896000D01*
G75*
G02*
X6639000Y9746001I0J-149999D01*
G01*
X6639000Y9435999D01*
G75*
G02*
X6489001Y9286000I-149999J0D01*
G01*
X5528999Y9286000D01*
G75*
G02*
X5379000Y9435999I0J149999D01*
G01*
G37*
%TD.AperFunction*%
%TO.P,U3,2*%
%TO.N,GND*%
%TA.AperFunction,SMDPad,CuDef*%
G36*
G01*
X5379000Y10385999D02*
X5379000Y10696001D01*
G75*
G02*
X5528999Y10846000I149999J0D01*
G01*
X6489001Y10846000D01*
G75*
G02*
X6639000Y10696001I0J-149999D01*
G01*
X6639000Y10385999D01*
G75*
G02*
X6489001Y10236000I-149999J0D01*
G01*
X5528999Y10236000D01*
G75*
G02*
X5379000Y10385999I0J149999D01*
G01*
G37*
%TD.AperFunction*%
%TO.P,U3,1*%
%TO.N,/VIN*%
%TA.AperFunction,SMDPad,CuDef*%
G36*
G01*
X5379000Y11335999D02*
X5379000Y11646001D01*
G75*
G02*
X5528999Y11796000I149999J0D01*
G01*
X6489001Y11796000D01*
G75*
G02*
X6639000Y11646001I0J-149999D01*
G01*
X6639000Y11335999D01*
G75*
G02*
X6489001Y11186000I-149999J0D01*
G01*
X5528999Y11186000D01*
G75*
G02*
X5379000Y11335999I0J149999D01*
G01*
G37*
%TD.AperFunction*%
%TD*%
%TO.P,U1,24*%
%TO.N,Net-(C9-Pad1)*%
%TA.AperFunction,SMDPad,CuDef*%
G36*
G01*
X10285000Y3821000D02*
X10425000Y3821000D01*
G75*
G02*
X10495000Y3751000I0J-70000D01*
G01*
X10495000Y3261000D01*
G75*
G02*
X10425000Y3191000I-70000J0D01*
G01*
X10285000Y3191000D01*
G75*
G02*
X10215000Y3261000I0J70000D01*
G01*
X10215000Y3751000D01*
G75*
G02*
X10285000Y3821000I70000J0D01*
G01*
G37*
%TD.AperFunction*%
%TO.P,U1,23*%
%TO.N,3V3*%
%TA.AperFunction,SMDPad,CuDef*%
G36*
G01*
X10715000Y3821000D02*
X10855000Y3821000D01*
G75*
G02*
X10925000Y3751000I0J-70000D01*
G01*
X10925000Y3261000D01*
G75*
G02*
X10855000Y3191000I-70000J0D01*
G01*
X10715000Y3191000D01*
G75*
G02*
X10645000Y3261000I0J70000D01*
G01*
X10645000Y3751000D01*
G75*
G02*
X10715000Y3821000I70000J0D01*
G01*
G37*
%TD.AperFunction*%
%TO.P,U1,22*%
%TA.AperFunction,SMDPad,CuDef*%
G36*
G01*
X11145000Y3821000D02*
X11285000Y3821000D01*
G75*
G02*
X11355000Y3751000I0J-70000D01*
G01*
X11355000Y3261000D01*
G75*
G02*
X11285000Y3191000I-70000J0D01*
G01*
X11145000Y3191000D01*
G75*
G02*
X11075000Y3261000I0J70000D01*
G01*
X11075000Y3751000D01*
G75*
G02*
X11145000Y3821000I70000J0D01*
G01*
G37*
%TD.AperFunction*%
%TO.P,U1,21*%
%TO.N,Net-(C8-Pad1)*%
%TA.AperFunction,SMDPad,CuDef*%
G36*
G01*
X11575000Y3821000D02*
X11715000Y3821000D01*
G75*
G02*
X11785000Y3751000I0J-70000D01*
G01*
X11785000Y3261000D01*
G75*
G02*
X11715000Y3191000I-70000J0D01*
G01*
X11575000Y3191000D01*
G75*
G02*
X11505000Y3261000I0J70000D01*
G01*
X11505000Y3751000D01*
G75*
G02*
X11575000Y3821000I70000J0D01*
G01*
G37*
%TD.AperFunction*%
%TO.P,U1,20*%
%TO.N,GND*%
%TA.AperFunction,SMDPad,CuDef*%
G36*
G01*
X12005000Y3821000D02*
X12145000Y3821000D01*
G75*
G02*
X12215000Y3751000I0J-70000D01*
G01*
X12215000Y3261000D01*
G75*
G02*
X12145000Y3191000I-70000J0D01*
G01*
X12005000Y3191000D01*
G75*
G02*
X11935000Y3261000I0J70000D01*
G01*
X11935000Y3751000D01*
G75*
G02*
X12005000Y3821000I70000J0D01*
G01*
G37*
%TD.AperFunction*%
%TO.P,U1,19*%
%TA.AperFunction,SMDPad,CuDef*%
G36*
G01*
X12435000Y3821000D02*
X12575000Y3821000D01*
G75*
G02*
X12645000Y3751000I0J-70000D01*
G01*
X12645000Y3261000D01*
G75*
G02*
X12575000Y3191000I-70000J0D01*
G01*
X12435000Y3191000D01*
G75*
G02*
X12365000Y3261000I0J70000D01*
G01*
X12365000Y3751000D01*
G75*
G02*
X12435000Y3821000I70000J0D01*
G01*
G37*
%TD.AperFunction*%
%TO.P,U1,18*%
%TA.AperFunction,SMDPad,CuDef*%
G36*
G01*
X12865000Y3813500D02*
X13005000Y3813500D01*
G75*
G02*
X13075000Y3743500I0J-70000D01*
G01*
X13075000Y3268500D01*
G75*
G02*
X13005000Y3198500I-70000J0D01*
G01*
X12865000Y3198500D01*
G75*
G02*
X12795000Y3268500I0J70000D01*
G01*
X12795000Y3743500D01*
G75*
G02*
X12865000Y3813500I70000J0D01*
G01*
G37*
%TD.AperFunction*%
%TO.P,U1,17*%
%TA.AperFunction,SMDPad,CuDef*%
G36*
G01*
X12585000Y2861000D02*
X12585000Y3001000D01*
G75*
G02*
X12655000Y3071000I70000J0D01*
G01*
X13145000Y3071000D01*
G75*
G02*
X13215000Y3001000I0J-70000D01*
G01*
X13215000Y2861000D01*
G75*
G02*
X13145000Y2791000I-70000J0D01*
G01*
X12655000Y2791000D01*
G75*
G02*
X12585000Y2861000I0J70000D01*
G01*
G37*
%TD.AperFunction*%
%TO.P,U1,16*%
%TA.AperFunction,SMDPad,CuDef*%
G36*
G01*
X12585000Y2431000D02*
X12585000Y2571000D01*
G75*
G02*
X12655000Y2641000I70000J0D01*
G01*
X13145000Y2641000D01*
G75*
G02*
X13215000Y2571000I0J-70000D01*
G01*
X13215000Y2431000D01*
G75*
G02*
X13145000Y2361000I-70000J0D01*
G01*
X12655000Y2361000D01*
G75*
G02*
X12585000Y2431000I0J70000D01*
G01*
G37*
%TD.AperFunction*%
%TO.P,U1,15*%
%TA.AperFunction,SMDPad,CuDef*%
G36*
G01*
X12585000Y2001000D02*
X12585000Y2141000D01*
G75*
G02*
X12655000Y2211000I70000J0D01*
G01*
X13145000Y2211000D01*
G75*
G02*
X13215000Y2141000I0J-70000D01*
G01*
X13215000Y2001000D01*
G75*
G02*
X13145000Y1931000I-70000J0D01*
G01*
X12655000Y1931000D01*
G75*
G02*
X12585000Y2001000I0J70000D01*
G01*
G37*
%TD.AperFunction*%
%TO.P,U1,14*%
%TA.AperFunction,SMDPad,CuDef*%
G36*
G01*
X12585000Y1571000D02*
X12585000Y1711000D01*
G75*
G02*
X12655000Y1781000I70000J0D01*
G01*
X13145000Y1781000D01*
G75*
G02*
X13215000Y1711000I0J-70000D01*
G01*
X13215000Y1571000D01*
G75*
G02*
X13145000Y1501000I-70000J0D01*
G01*
X12655000Y1501000D01*
G75*
G02*
X12585000Y1571000I0J70000D01*
G01*
G37*
%TD.AperFunction*%
%TO.P,U1,13*%
%TO.N,Net-(R5-Pad1)*%
%TA.AperFunction,SMDPad,CuDef*%
G36*
G01*
X12865000Y1373500D02*
X13005000Y1373500D01*
G75*
G02*
X13075000Y1303500I0J-70000D01*
G01*
X13075000Y828500D01*
G75*
G02*
X13005000Y758500I-70000J0D01*
G01*
X12865000Y758500D01*
G75*
G02*
X12795000Y828500I0J70000D01*
G01*
X12795000Y1303500D01*
G75*
G02*
X12865000Y1373500I70000J0D01*
G01*
G37*
%TD.AperFunction*%
%TO.P,U1,12*%
%TO.N,Net-(U1-Pad12)*%
%TA.AperFunction,SMDPad,CuDef*%
G36*
G01*
X12435000Y1381000D02*
X12575000Y1381000D01*
G75*
G02*
X12645000Y1311000I0J-70000D01*
G01*
X12645000Y821000D01*
G75*
G02*
X12575000Y751000I-70000J0D01*
G01*
X12435000Y751000D01*
G75*
G02*
X12365000Y821000I0J70000D01*
G01*
X12365000Y1311000D01*
G75*
G02*
X12435000Y1381000I70000J0D01*
G01*
G37*
%TD.AperFunction*%
%TO.P,U1,11*%
%TO.N,Net-(U1-Pad11)*%
%TA.AperFunction,SMDPad,CuDef*%
G36*
G01*
X12005000Y1381000D02*
X12145000Y1381000D01*
G75*
G02*
X12215000Y1311000I0J-70000D01*
G01*
X12215000Y821000D01*
G75*
G02*
X12145000Y751000I-70000J0D01*
G01*
X12005000Y751000D01*
G75*
G02*
X11935000Y821000I0J70000D01*
G01*
X11935000Y1311000D01*
G75*
G02*
X12005000Y1381000I70000J0D01*
G01*
G37*
%TD.AperFunction*%
%TO.P,U1,10*%
%TO.N,Net-(U1-Pad10)*%
%TA.AperFunction,SMDPad,CuDef*%
G36*
G01*
X11575000Y1381000D02*
X11715000Y1381000D01*
G75*
G02*
X11785000Y1311000I0J-70000D01*
G01*
X11785000Y821000D01*
G75*
G02*
X11715000Y751000I-70000J0D01*
G01*
X11575000Y751000D01*
G75*
G02*
X11505000Y821000I0J70000D01*
G01*
X11505000Y1311000D01*
G75*
G02*
X11575000Y1381000I70000J0D01*
G01*
G37*
%TD.AperFunction*%
%TO.P,U1,9*%
%TO.N,Net-(U1-Pad9)*%
%TA.AperFunction,SMDPad,CuDef*%
G36*
G01*
X11145000Y1381000D02*
X11285000Y1381000D01*
G75*
G02*
X11355000Y1311000I0J-70000D01*
G01*
X11355000Y821000D01*
G75*
G02*
X11285000Y751000I-70000J0D01*
G01*
X11145000Y751000D01*
G75*
G02*
X11075000Y821000I0J70000D01*
G01*
X11075000Y1311000D01*
G75*
G02*
X11145000Y1381000I70000J0D01*
G01*
G37*
%TD.AperFunction*%
%TO.P,U1,8*%
%TO.N,3V3*%
%TA.AperFunction,SMDPad,CuDef*%
G36*
G01*
X10715000Y1381000D02*
X10855000Y1381000D01*
G75*
G02*
X10925000Y1311000I0J-70000D01*
G01*
X10925000Y821000D01*
G75*
G02*
X10855000Y751000I-70000J0D01*
G01*
X10715000Y751000D01*
G75*
G02*
X10645000Y821000I0J70000D01*
G01*
X10645000Y1311000D01*
G75*
G02*
X10715000Y1381000I70000J0D01*
G01*
G37*
%TD.AperFunction*%
%TO.P,U1,7*%
%TA.AperFunction,SMDPad,CuDef*%
G36*
G01*
X10285000Y1381000D02*
X10425000Y1381000D01*
G75*
G02*
X10495000Y1311000I0J-70000D01*
G01*
X10495000Y821000D01*
G75*
G02*
X10425000Y751000I-70000J0D01*
G01*
X10285000Y751000D01*
G75*
G02*
X10215000Y821000I0J70000D01*
G01*
X10215000Y1311000D01*
G75*
G02*
X10285000Y1381000I70000J0D01*
G01*
G37*
%TD.AperFunction*%
%TO.P,U1,6*%
%TA.AperFunction,SMDPad,CuDef*%
G36*
G01*
X9855000Y1373500D02*
X9995000Y1373500D01*
G75*
G02*
X10065000Y1303500I0J-70000D01*
G01*
X10065000Y828500D01*
G75*
G02*
X9995000Y758500I-70000J0D01*
G01*
X9855000Y758500D01*
G75*
G02*
X9785000Y828500I0J70000D01*
G01*
X9785000Y1303500D01*
G75*
G02*
X9855000Y1373500I70000J0D01*
G01*
G37*
%TD.AperFunction*%
%TO.P,U1,5*%
%TA.AperFunction,SMDPad,CuDef*%
G36*
G01*
X9645000Y1571000D02*
X9645000Y1711000D01*
G75*
G02*
X9715000Y1781000I70000J0D01*
G01*
X10205000Y1781000D01*
G75*
G02*
X10275000Y1711000I0J-70000D01*
G01*
X10275000Y1571000D01*
G75*
G02*
X10205000Y1501000I-70000J0D01*
G01*
X9715000Y1501000D01*
G75*
G02*
X9645000Y1571000I0J70000D01*
G01*
G37*
%TD.AperFunction*%
%TO.P,U1,4*%
%TO.N,/SDA*%
%TA.AperFunction,SMDPad,CuDef*%
G36*
G01*
X9645000Y2001000D02*
X9645000Y2141000D01*
G75*
G02*
X9715000Y2211000I70000J0D01*
G01*
X10205000Y2211000D01*
G75*
G02*
X10275000Y2141000I0J-70000D01*
G01*
X10275000Y2001000D01*
G75*
G02*
X10205000Y1931000I-70000J0D01*
G01*
X9715000Y1931000D01*
G75*
G02*
X9645000Y2001000I0J70000D01*
G01*
G37*
%TD.AperFunction*%
%TO.P,U1,3*%
%TO.N,3V3*%
%TA.AperFunction,SMDPad,CuDef*%
G36*
G01*
X9645000Y2431000D02*
X9645000Y2571000D01*
G75*
G02*
X9715000Y2641000I70000J0D01*
G01*
X10205000Y2641000D01*
G75*
G02*
X10275000Y2571000I0J-70000D01*
G01*
X10275000Y2431000D01*
G75*
G02*
X10205000Y2361000I-70000J0D01*
G01*
X9715000Y2361000D01*
G75*
G02*
X9645000Y2431000I0J70000D01*
G01*
G37*
%TD.AperFunction*%
%TO.P,U1,2*%
%TO.N,/SCL*%
%TA.AperFunction,SMDPad,CuDef*%
G36*
G01*
X9645000Y2861000D02*
X9645000Y3001000D01*
G75*
G02*
X9715000Y3071000I70000J0D01*
G01*
X10205000Y3071000D01*
G75*
G02*
X10275000Y3001000I0J-70000D01*
G01*
X10275000Y2861000D01*
G75*
G02*
X10205000Y2791000I-70000J0D01*
G01*
X9715000Y2791000D01*
G75*
G02*
X9645000Y2861000I0J70000D01*
G01*
G37*
%TD.AperFunction*%
%TO.P,U1,1*%
%TO.N,3V3*%
%TA.AperFunction,SMDPad,CuDef*%
G36*
G01*
X9855000Y3813500D02*
X9995000Y3813500D01*
G75*
G02*
X10065000Y3743500I0J-70000D01*
G01*
X10065000Y3268500D01*
G75*
G02*
X9995000Y3198500I-70000J0D01*
G01*
X9855000Y3198500D01*
G75*
G02*
X9785000Y3268500I0J70000D01*
G01*
X9785000Y3743500D01*
G75*
G02*
X9855000Y3813500I70000J0D01*
G01*
G37*
%TD.AperFunction*%
%TD*%
%TO.P,C1,2*%
%TO.N,Net-(C1-Pad2)*%
%TA.AperFunction,SMDPad,CuDef*%
G36*
G01*
X7385000Y17556995D02*
X7385000Y16987005D01*
G75*
G02*
X7134995Y16737000I-250005J0D01*
G01*
X6585005Y16737000D01*
G75*
G02*
X6335000Y16987005I0J250005D01*
G01*
X6335000Y17556995D01*
G75*
G02*
X6585005Y17807000I250005J0D01*
G01*
X7134995Y17807000D01*
G75*
G02*
X7385000Y17556995I0J-250005D01*
G01*
G37*
%TD.AperFunction*%
%TO.P,C1,1*%
%TO.N,/RESET*%
%TA.AperFunction,SMDPad,CuDef*%
G36*
G01*
X8905000Y17556995D02*
X8905000Y16987005D01*
G75*
G02*
X8654995Y16737000I-250005J0D01*
G01*
X8105005Y16737000D01*
G75*
G02*
X7855000Y16987005I0J250005D01*
G01*
X7855000Y17556995D01*
G75*
G02*
X8105005Y17807000I250005J0D01*
G01*
X8654995Y17807000D01*
G75*
G02*
X8905000Y17556995I0J-250005D01*
G01*
G37*
%TD.AperFunction*%
%TD*%
%TO.P,C7,2*%
%TO.N,GND*%
%TA.AperFunction,SMDPad,CuDef*%
G36*
G01*
X12222995Y6331000D02*
X11653005Y6331000D01*
G75*
G02*
X11403000Y6581005I0J250005D01*
G01*
X11403000Y7130995D01*
G75*
G02*
X11653005Y7381000I250005J0D01*
G01*
X12222995Y7381000D01*
G75*
G02*
X12473000Y7130995I0J-250005D01*
G01*
X12473000Y6581005D01*
G75*
G02*
X12222995Y6331000I-250005J0D01*
G01*
G37*
%TD.AperFunction*%
%TO.P,C7,1*%
%TO.N,3V3*%
%TA.AperFunction,SMDPad,CuDef*%
G36*
G01*
X12222995Y4811000D02*
X11653005Y4811000D01*
G75*
G02*
X11403000Y5061005I0J250005D01*
G01*
X11403000Y5610995D01*
G75*
G02*
X11653005Y5861000I250005J0D01*
G01*
X12222995Y5861000D01*
G75*
G02*
X12473000Y5610995I0J-250005D01*
G01*
X12473000Y5061005D01*
G75*
G02*
X12222995Y4811000I-250005J0D01*
G01*
G37*
%TD.AperFunction*%
%TD*%
%TO.P,C8,2*%
%TO.N,GND*%
%TA.AperFunction,SMDPad,CuDef*%
G36*
G01*
X14127995Y6331000D02*
X13558005Y6331000D01*
G75*
G02*
X13308000Y6581005I0J250005D01*
G01*
X13308000Y7130995D01*
G75*
G02*
X13558005Y7381000I250005J0D01*
G01*
X14127995Y7381000D01*
G75*
G02*
X14378000Y7130995I0J-250005D01*
G01*
X14378000Y6581005D01*
G75*
G02*
X14127995Y6331000I-250005J0D01*
G01*
G37*
%TD.AperFunction*%
%TO.P,C8,1*%
%TO.N,Net-(C8-Pad1)*%
%TA.AperFunction,SMDPad,CuDef*%
G36*
G01*
X14127995Y4811000D02*
X13558005Y4811000D01*
G75*
G02*
X13308000Y5061005I0J250005D01*
G01*
X13308000Y5610995D01*
G75*
G02*
X13558005Y5861000I250005J0D01*
G01*
X14127995Y5861000D01*
G75*
G02*
X14378000Y5610995I0J-250005D01*
G01*
X14378000Y5061005D01*
G75*
G02*
X14127995Y4811000I-250005J0D01*
G01*
G37*
%TD.AperFunction*%
%TD*%
%TO.P,C9,2*%
%TO.N,GND*%
%TA.AperFunction,SMDPad,CuDef*%
G36*
G01*
X10317995Y6331000D02*
X9748005Y6331000D01*
G75*
G02*
X9498000Y6581005I0J250005D01*
G01*
X9498000Y7130995D01*
G75*
G02*
X9748005Y7381000I250005J0D01*
G01*
X10317995Y7381000D01*
G75*
G02*
X10568000Y7130995I0J-250005D01*
G01*
X10568000Y6581005D01*
G75*
G02*
X10317995Y6331000I-250005J0D01*
G01*
G37*
%TD.AperFunction*%
%TO.P,C9,1*%
%TO.N,Net-(C9-Pad1)*%
%TA.AperFunction,SMDPad,CuDef*%
G36*
G01*
X10317995Y4811000D02*
X9748005Y4811000D01*
G75*
G02*
X9498000Y5061005I0J250005D01*
G01*
X9498000Y5610995D01*
G75*
G02*
X9748005Y5861000I250005J0D01*
G01*
X10317995Y5861000D01*
G75*
G02*
X10568000Y5610995I0J-250005D01*
G01*
X10568000Y5061005D01*
G75*
G02*
X10317995Y4811000I-250005J0D01*
G01*
G37*
%TD.AperFunction*%
%TD*%
%TO.P,C10,2*%
%TO.N,GND*%
%TA.AperFunction,SMDPad,CuDef*%
G36*
G01*
X7589005Y6623000D02*
X8158995Y6623000D01*
G75*
G02*
X8409000Y6372995I0J-250005D01*
G01*
X8409000Y5823005D01*
G75*
G02*
X8158995Y5573000I-250005J0D01*
G01*
X7589005Y5573000D01*
G75*
G02*
X7339000Y5823005I0J250005D01*
G01*
X7339000Y6372995D01*
G75*
G02*
X7589005Y6623000I250005J0D01*
G01*
G37*
%TD.AperFunction*%
%TO.P,C10,1*%
%TO.N,/VIN*%
%TA.AperFunction,SMDPad,CuDef*%
G36*
G01*
X7589005Y8143000D02*
X8158995Y8143000D01*
G75*
G02*
X8409000Y7892995I0J-250005D01*
G01*
X8409000Y7343005D01*
G75*
G02*
X8158995Y7093000I-250005J0D01*
G01*
X7589005Y7093000D01*
G75*
G02*
X7339000Y7343005I0J250005D01*
G01*
X7339000Y7892995D01*
G75*
G02*
X7589005Y8143000I250005J0D01*
G01*
G37*
%TD.AperFunction*%
%TD*%
%TO.P,C11,2*%
%TO.N,GND*%
%TA.AperFunction,SMDPad,CuDef*%
G36*
G01*
X11538000Y10383005D02*
X11538000Y10952995D01*
G75*
G02*
X11788005Y11203000I250005J0D01*
G01*
X12337995Y11203000D01*
G75*
G02*
X12588000Y10952995I0J-250005D01*
G01*
X12588000Y10383005D01*
G75*
G02*
X12337995Y10133000I-250005J0D01*
G01*
X11788005Y10133000D01*
G75*
G02*
X11538000Y10383005I0J250005D01*
G01*
G37*
%TD.AperFunction*%
%TO.P,C11,1*%
%TO.N,3V3*%
%TA.AperFunction,SMDPad,CuDef*%
G36*
G01*
X10018000Y10383005D02*
X10018000Y10952995D01*
G75*
G02*
X10268005Y11203000I250005J0D01*
G01*
X10817995Y11203000D01*
G75*
G02*
X11068000Y10952995I0J-250005D01*
G01*
X11068000Y10383005D01*
G75*
G02*
X10817995Y10133000I-250005J0D01*
G01*
X10268005Y10133000D01*
G75*
G02*
X10018000Y10383005I0J250005D01*
G01*
G37*
%TD.AperFunction*%
%TD*%
%TO.P,C12,2*%
%TO.N,GND*%
%TA.AperFunction,SMDPad,CuDef*%
G36*
G01*
X11538000Y8478005D02*
X11538000Y9047995D01*
G75*
G02*
X11788005Y9298000I250005J0D01*
G01*
X12337995Y9298000D01*
G75*
G02*
X12588000Y9047995I0J-250005D01*
G01*
X12588000Y8478005D01*
G75*
G02*
X12337995Y8228000I-250005J0D01*
G01*
X11788005Y8228000D01*
G75*
G02*
X11538000Y8478005I0J250005D01*
G01*
G37*
%TD.AperFunction*%
%TO.P,C12,1*%
%TO.N,Net-(C12-Pad1)*%
%TA.AperFunction,SMDPad,CuDef*%
G36*
G01*
X10018000Y8478005D02*
X10018000Y9047995D01*
G75*
G02*
X10268005Y9298000I250005J0D01*
G01*
X10817995Y9298000D01*
G75*
G02*
X11068000Y9047995I0J-250005D01*
G01*
X11068000Y8478005D01*
G75*
G02*
X10817995Y8228000I-250005J0D01*
G01*
X10268005Y8228000D01*
G75*
G02*
X10018000Y8478005I0J250005D01*
G01*
G37*
%TD.AperFunction*%
%TD*%
%TO.P,C14,2*%
%TO.N,GND*%
%TA.AperFunction,SMDPad,CuDef*%
G36*
G01*
X11206995Y33128000D02*
X10637005Y33128000D01*
G75*
G02*
X10387000Y33378005I0J250005D01*
G01*
X10387000Y33927995D01*
G75*
G02*
X10637005Y34178000I250005J0D01*
G01*
X11206995Y34178000D01*
G75*
G02*
X11457000Y33927995I0J-250005D01*
G01*
X11457000Y33378005D01*
G75*
G02*
X11206995Y33128000I-250005J0D01*
G01*
G37*
%TD.AperFunction*%
%TO.P,C14,1*%
%TO.N,3V3*%
%TA.AperFunction,SMDPad,CuDef*%
G36*
G01*
X11206995Y31608000D02*
X10637005Y31608000D01*
G75*
G02*
X10387000Y31858005I0J250005D01*
G01*
X10387000Y32407995D01*
G75*
G02*
X10637005Y32658000I250005J0D01*
G01*
X11206995Y32658000D01*
G75*
G02*
X11457000Y32407995I0J-250005D01*
G01*
X11457000Y31858005D01*
G75*
G02*
X11206995Y31608000I-250005J0D01*
G01*
G37*
%TD.AperFunction*%
%TD*%
%TO.P,C3,2*%
%TO.N,GND*%
%TA.AperFunction,SMDPad,CuDef*%
G36*
G01*
X7855000Y18892005D02*
X7855000Y19461995D01*
G75*
G02*
X8105005Y19712000I250005J0D01*
G01*
X8654995Y19712000D01*
G75*
G02*
X8905000Y19461995I0J-250005D01*
G01*
X8905000Y18892005D01*
G75*
G02*
X8654995Y18642000I-250005J0D01*
G01*
X8105005Y18642000D01*
G75*
G02*
X7855000Y18892005I0J250005D01*
G01*
G37*
%TD.AperFunction*%
%TO.P,C3,1*%
%TO.N,3V3*%
%TA.AperFunction,SMDPad,CuDef*%
G36*
G01*
X6335000Y18892005D02*
X6335000Y19461995D01*
G75*
G02*
X6585005Y19712000I250005J0D01*
G01*
X7134995Y19712000D01*
G75*
G02*
X7385000Y19461995I0J-250005D01*
G01*
X7385000Y18892005D01*
G75*
G02*
X7134995Y18642000I-250005J0D01*
G01*
X6585005Y18642000D01*
G75*
G02*
X6335000Y18892005I0J250005D01*
G01*
G37*
%TD.AperFunction*%
%TD*%
%TO.P,R1,1*%
%TO.N,Net-(D1-PadA)*%
%TA.AperFunction,SMDPad,CuDef*%
G36*
G01*
X5258000Y18547000D02*
X4648000Y18547000D01*
G75*
G02*
X4438000Y18757000I0J210000D01*
G01*
X4438000Y19177000D01*
G75*
G02*
X4648000Y19387000I210000J0D01*
G01*
X5258000Y19387000D01*
G75*
G02*
X5468000Y19177000I0J-210000D01*
G01*
X5468000Y18757000D01*
G75*
G02*
X5258000Y18547000I-210000J0D01*
G01*
G37*
%TD.AperFunction*%
%TO.P,R1,2*%
%TO.N,Net-(R1-Pad2)*%
%TA.AperFunction,SMDPad,CuDef*%
G36*
G01*
X5258000Y20237000D02*
X4648000Y20237000D01*
G75*
G02*
X4438000Y20447000I0J210000D01*
G01*
X4438000Y20867000D01*
G75*
G02*
X4648000Y21077000I210000J0D01*
G01*
X5258000Y21077000D01*
G75*
G02*
X5468000Y20867000I0J-210000D01*
G01*
X5468000Y20447000D01*
G75*
G02*
X5258000Y20237000I-210000J0D01*
G01*
G37*
%TD.AperFunction*%
%TD*%
%TO.P,R2,1*%
%TO.N,/RESET*%
%TA.AperFunction,SMDPad,CuDef*%
G36*
G01*
X9982000Y19680000D02*
X10592000Y19680000D01*
G75*
G02*
X10802000Y19470000I0J-210000D01*
G01*
X10802000Y19050000D01*
G75*
G02*
X10592000Y18840000I-210000J0D01*
G01*
X9982000Y18840000D01*
G75*
G02*
X9772000Y19050000I0J210000D01*
G01*
X9772000Y19470000D01*
G75*
G02*
X9982000Y19680000I210000J0D01*
G01*
G37*
%TD.AperFunction*%
%TO.P,R2,2*%
%TO.N,3V3*%
%TA.AperFunction,SMDPad,CuDef*%
G36*
G01*
X9982000Y17990000D02*
X10592000Y17990000D01*
G75*
G02*
X10802000Y17780000I0J-210000D01*
G01*
X10802000Y17360000D01*
G75*
G02*
X10592000Y17150000I-210000J0D01*
G01*
X9982000Y17150000D01*
G75*
G02*
X9772000Y17360000I0J210000D01*
G01*
X9772000Y17780000D01*
G75*
G02*
X9982000Y17990000I210000J0D01*
G01*
G37*
%TD.AperFunction*%
%TD*%
%TO.P,R3,1*%
%TO.N,/SDA*%
%TA.AperFunction,SMDPad,CuDef*%
G36*
G01*
X11887000Y19680000D02*
X12497000Y19680000D01*
G75*
G02*
X12707000Y19470000I0J-210000D01*
G01*
X12707000Y19050000D01*
G75*
G02*
X12497000Y18840000I-210000J0D01*
G01*
X11887000Y18840000D01*
G75*
G02*
X11677000Y19050000I0J210000D01*
G01*
X11677000Y19470000D01*
G75*
G02*
X11887000Y19680000I210000J0D01*
G01*
G37*
%TD.AperFunction*%
%TO.P,R3,2*%
%TO.N,3V3*%
%TA.AperFunction,SMDPad,CuDef*%
G36*
G01*
X11887000Y17990000D02*
X12497000Y17990000D01*
G75*
G02*
X12707000Y17780000I0J-210000D01*
G01*
X12707000Y17360000D01*
G75*
G02*
X12497000Y17150000I-210000J0D01*
G01*
X11887000Y17150000D01*
G75*
G02*
X11677000Y17360000I0J210000D01*
G01*
X11677000Y17780000D01*
G75*
G02*
X11887000Y17990000I210000J0D01*
G01*
G37*
%TD.AperFunction*%
%TD*%
%TO.P,R4,1*%
%TO.N,/SCL*%
%TA.AperFunction,SMDPad,CuDef*%
G36*
G01*
X13792000Y19680000D02*
X14402000Y19680000D01*
G75*
G02*
X14612000Y19470000I0J-210000D01*
G01*
X14612000Y19050000D01*
G75*
G02*
X14402000Y18840000I-210000J0D01*
G01*
X13792000Y18840000D01*
G75*
G02*
X13582000Y19050000I0J210000D01*
G01*
X13582000Y19470000D01*
G75*
G02*
X13792000Y19680000I210000J0D01*
G01*
G37*
%TD.AperFunction*%
%TO.P,R4,2*%
%TO.N,3V3*%
%TA.AperFunction,SMDPad,CuDef*%
G36*
G01*
X13792000Y17990000D02*
X14402000Y17990000D01*
G75*
G02*
X14612000Y17780000I0J-210000D01*
G01*
X14612000Y17360000D01*
G75*
G02*
X14402000Y17150000I-210000J0D01*
G01*
X13792000Y17150000D01*
G75*
G02*
X13582000Y17360000I0J210000D01*
G01*
X13582000Y17780000D01*
G75*
G02*
X13792000Y17990000I210000J0D01*
G01*
G37*
%TD.AperFunction*%
%TD*%
%TO.P,R5,1*%
%TO.N,Net-(R5-Pad1)*%
%TA.AperFunction,SMDPad,CuDef*%
G36*
G01*
X14910000Y1021000D02*
X14300000Y1021000D01*
G75*
G02*
X14090000Y1231000I0J210000D01*
G01*
X14090000Y1651000D01*
G75*
G02*
X14300000Y1861000I210000J0D01*
G01*
X14910000Y1861000D01*
G75*
G02*
X15120000Y1651000I0J-210000D01*
G01*
X15120000Y1231000D01*
G75*
G02*
X14910000Y1021000I-210000J0D01*
G01*
G37*
%TD.AperFunction*%
%TO.P,R5,2*%
%TO.N,3V3*%
%TA.AperFunction,SMDPad,CuDef*%
G36*
G01*
X14910000Y2711000D02*
X14300000Y2711000D01*
G75*
G02*
X14090000Y2921000I0J210000D01*
G01*
X14090000Y3341000D01*
G75*
G02*
X14300000Y3551000I210000J0D01*
G01*
X14910000Y3551000D01*
G75*
G02*
X15120000Y3341000I0J-210000D01*
G01*
X15120000Y2921000D01*
G75*
G02*
X14910000Y2711000I-210000J0D01*
G01*
G37*
%TD.AperFunction*%
%TD*%
D18*
%TO.P,JP4,1*%
%TO.N,/RESET*%
X2000000Y16890000D03*
%TD*%
%TO.P,C2,2*%
%TO.N,GND*%
%TA.AperFunction,SMDPad,CuDef*%
G36*
G01*
X13111995Y33128000D02*
X12542005Y33128000D01*
G75*
G02*
X12292000Y33378005I0J250005D01*
G01*
X12292000Y33927995D01*
G75*
G02*
X12542005Y34178000I250005J0D01*
G01*
X13111995Y34178000D01*
G75*
G02*
X13362000Y33927995I0J-250005D01*
G01*
X13362000Y33378005D01*
G75*
G02*
X13111995Y33128000I-250005J0D01*
G01*
G37*
%TD.AperFunction*%
%TO.P,C2,1*%
%TO.N,3V3*%
%TA.AperFunction,SMDPad,CuDef*%
G36*
G01*
X13111995Y31608000D02*
X12542005Y31608000D01*
G75*
G02*
X12292000Y31858005I0J250005D01*
G01*
X12292000Y32407995D01*
G75*
G02*
X12542005Y32658000I250005J0D01*
G01*
X13111995Y32658000D01*
G75*
G02*
X13362000Y32407995I0J-250005D01*
G01*
X13362000Y31858005D01*
G75*
G02*
X13111995Y31608000I-250005J0D01*
G01*
G37*
%TD.AperFunction*%
%TD*%
%TO.P,C4,2*%
%TO.N,GND*%
%TA.AperFunction,SMDPad,CuDef*%
G36*
G01*
X5684005Y6623000D02*
X6253995Y6623000D01*
G75*
G02*
X6504000Y6372995I0J-250005D01*
G01*
X6504000Y5823005D01*
G75*
G02*
X6253995Y5573000I-250005J0D01*
G01*
X5684005Y5573000D01*
G75*
G02*
X5434000Y5823005I0J250005D01*
G01*
X5434000Y6372995D01*
G75*
G02*
X5684005Y6623000I250005J0D01*
G01*
G37*
%TD.AperFunction*%
%TO.P,C4,1*%
%TO.N,/VIN*%
%TA.AperFunction,SMDPad,CuDef*%
G36*
G01*
X5684005Y8143000D02*
X6253995Y8143000D01*
G75*
G02*
X6504000Y7892995I0J-250005D01*
G01*
X6504000Y7343005D01*
G75*
G02*
X6253995Y7093000I-250005J0D01*
G01*
X5684005Y7093000D01*
G75*
G02*
X5434000Y7343005I0J250005D01*
G01*
X5434000Y7892995D01*
G75*
G02*
X5684005Y8143000I250005J0D01*
G01*
G37*
%TD.AperFunction*%
%TD*%
%TO.P,C5,2*%
%TO.N,GND*%
%TA.AperFunction,SMDPad,CuDef*%
G36*
G01*
X8666995Y14459000D02*
X8097005Y14459000D01*
G75*
G02*
X7847000Y14709005I0J250005D01*
G01*
X7847000Y15258995D01*
G75*
G02*
X8097005Y15509000I250005J0D01*
G01*
X8666995Y15509000D01*
G75*
G02*
X8917000Y15258995I0J-250005D01*
G01*
X8917000Y14709005D01*
G75*
G02*
X8666995Y14459000I-250005J0D01*
G01*
G37*
%TD.AperFunction*%
%TO.P,C5,1*%
%TO.N,3V3*%
%TA.AperFunction,SMDPad,CuDef*%
G36*
G01*
X8666995Y12939000D02*
X8097005Y12939000D01*
G75*
G02*
X7847000Y13189005I0J250005D01*
G01*
X7847000Y13738995D01*
G75*
G02*
X8097005Y13989000I250005J0D01*
G01*
X8666995Y13989000D01*
G75*
G02*
X8917000Y13738995I0J-250005D01*
G01*
X8917000Y13189005D01*
G75*
G02*
X8666995Y12939000I-250005J0D01*
G01*
G37*
%TD.AperFunction*%
%TD*%
%TO.P,C6,2*%
%TO.N,GND*%
%TA.AperFunction,SMDPad,CuDef*%
G36*
G01*
X14889995Y9760000D02*
X14320005Y9760000D01*
G75*
G02*
X14070000Y10010005I0J250005D01*
G01*
X14070000Y10559995D01*
G75*
G02*
X14320005Y10810000I250005J0D01*
G01*
X14889995Y10810000D01*
G75*
G02*
X15140000Y10559995I0J-250005D01*
G01*
X15140000Y10010005D01*
G75*
G02*
X14889995Y9760000I-250005J0D01*
G01*
G37*
%TD.AperFunction*%
%TO.P,C6,1*%
%TO.N,3V3*%
%TA.AperFunction,SMDPad,CuDef*%
G36*
G01*
X14889995Y8240000D02*
X14320005Y8240000D01*
G75*
G02*
X14070000Y8490005I0J250005D01*
G01*
X14070000Y9039995D01*
G75*
G02*
X14320005Y9290000I250005J0D01*
G01*
X14889995Y9290000D01*
G75*
G02*
X15140000Y9039995I0J-250005D01*
G01*
X15140000Y8490005D01*
G75*
G02*
X14889995Y8240000I-250005J0D01*
G01*
G37*
%TD.AperFunction*%
%TD*%
D19*
%TO.N,GND*%
X14605000Y12573000D03*
X15621000Y12573000D03*
X32004000Y1397000D03*
X33528000Y16573500D03*
X4826000Y10541000D03*
X7175500Y10541000D03*
X7874000Y5080000D03*
X5969000Y5080000D03*
X13525500Y4064000D03*
X13563600Y1016000D03*
X12065000Y2286000D03*
X10033000Y7747000D03*
X11938000Y7747000D03*
X13843000Y7747000D03*
X14605000Y11176000D03*
X12954000Y10668000D03*
X12954000Y8763000D03*
X32004000Y15430500D03*
X13716000Y12319000D03*
X12700000Y11811000D03*
X8382000Y16002000D03*
X11684000Y11811000D03*
X10668000Y11811000D03*
X9652000Y13208000D03*
X15494000Y16637000D03*
X16383000Y16764000D03*
X17272000Y16764000D03*
X18288000Y16764000D03*
X13716000Y16256000D03*
X19304000Y15621000D03*
X19304000Y14605000D03*
X19304000Y13589000D03*
X19304000Y12573000D03*
X14605000Y16637000D03*
X10668000Y16637000D03*
X11684000Y16637000D03*
X12700000Y16637000D03*
X10033000Y16129000D03*
X9652000Y15240000D03*
X10033000Y12446000D03*
X19177000Y16510000D03*
X6223000Y12446000D03*
X8382000Y18288000D03*
X9931400Y22783800D03*
X10744200Y28498800D03*
X9118600Y28524200D03*
X13843000Y33655000D03*
X11887200Y33655000D03*
X7112000Y31140400D03*
%TO.N,/TX*%
X6883400Y27660600D03*
%TO.N,/RX*%
X7162800Y26847800D03*
%TO.N,/RESET*%
X10287000Y20066000D03*
X12192000Y26060400D03*
%TO.N,/SCL*%
X14097000Y20066000D03*
X16065500Y25273000D03*
X8940800Y5461000D03*
%TO.N,/SDA*%
X12192000Y20066000D03*
X15367000Y24447500D03*
X8229600Y1016000D03*
%TO.N,/DIO1*%
X20802600Y22860000D03*
X19558000Y22860000D03*
%TO.N,/SCK*%
X7899400Y22936200D03*
X23571200Y15544800D03*
X21717000Y15544800D03*
%TO.N,/MISO*%
X8559800Y23495000D03*
%TO.N,/MOSI*%
X9220200Y24104600D03*
%TO.N,/SS*%
X6680200Y24460200D03*
X10998200Y6146800D03*
X32156400Y9423400D03*
%TO.N,/D3*%
X17272000Y28257500D03*
%TO.N,3V3*%
X19113500Y7366000D03*
X15938500Y7302500D03*
X8636000Y10668000D03*
X8382000Y12319000D03*
X15621000Y3111500D03*
X9525000Y4191000D03*
X9296400Y1066800D03*
X10922000Y2286000D03*
X11023600Y4445000D03*
X15557500Y8763000D03*
X6858000Y20193000D03*
X9931400Y31064200D03*
X11861800Y32131000D03*
X8356600Y31038800D03*
X10287000Y18364200D03*
X12192000Y18364200D03*
X14122400Y18364200D03*
%TD*%
D20*
%TO.N,GND*%
X6009000Y10541000D02*
X4826000Y10541000D01*
X6009000Y10541000D02*
X7175500Y10541000D01*
X7874000Y6098000D02*
X7874000Y5080000D01*
X5969000Y6098000D02*
X5969000Y5080000D01*
X10033000Y6856000D02*
X10033000Y7747000D01*
X11938000Y6856000D02*
X11938000Y7747000D01*
X13843000Y6856000D02*
X13843000Y7747000D01*
X14605000Y10285000D02*
X14605000Y11176000D01*
X12063000Y10668000D02*
X12954000Y10668000D01*
X12063000Y8763000D02*
X12954000Y8763000D01*
X33499500Y15430500D02*
X33530000Y15400000D01*
X32004000Y15430500D02*
X33499500Y15430500D01*
X33528000Y15402000D02*
X33530000Y15400000D01*
X33528000Y16573500D02*
X33528000Y15402000D01*
X17457500Y13335000D02*
X17522500Y13400000D01*
X17587500Y13335000D02*
X17522500Y13400000D01*
X33519500Y1397000D02*
X33522500Y1400000D01*
X32004000Y1397000D02*
X33519500Y1397000D01*
X8382000Y16002000D02*
X8382000Y14984000D01*
X6223000Y13366000D02*
X6223000Y12446000D01*
X8380000Y19177000D02*
X8380000Y18290000D01*
X8380000Y18290000D02*
X8382000Y18288000D01*
D21*
X9925000Y21524000D02*
X9925000Y22777400D01*
X9925000Y22777400D02*
X9931400Y22783800D01*
X10725000Y29784000D02*
X10725000Y28518000D01*
X10725000Y28518000D02*
X10744200Y28498800D01*
X9125000Y29784000D02*
X9125000Y28530600D01*
X9125000Y28530600D02*
X9118600Y28524200D01*
D20*
X12827000Y33653000D02*
X13841000Y33653000D01*
X13841000Y33653000D02*
X13843000Y33655000D01*
X10922000Y33653000D02*
X11885200Y33653000D01*
X11885200Y33653000D02*
X11887200Y33655000D01*
D22*
X7112000Y32893000D02*
X7112000Y31140400D01*
D23*
%TO.N,/DIO0*%
X17522500Y5400000D02*
X19268400Y5400000D01*
X19268400Y5400000D02*
X20243800Y6375400D01*
X20243800Y6375400D02*
X20243800Y23952200D01*
X15742000Y28454000D02*
X13655000Y28454000D01*
X20243800Y23952200D02*
X15742000Y28454000D01*
%TO.N,/TX*%
X13655000Y27654000D02*
X6890000Y27654000D01*
X6890000Y27654000D02*
X6883400Y27660600D01*
%TO.N,/RX*%
X13655000Y26854000D02*
X7169000Y26854000D01*
X7169000Y26854000D02*
X7162800Y26847800D01*
%TO.N,/RESET*%
X2000000Y16890000D02*
X3429000Y18319000D01*
X3429000Y18319000D02*
X3429000Y19227800D01*
X3429000Y19227800D02*
X4013200Y19812000D01*
X4013200Y19812000D02*
X5613400Y19812000D01*
X5613400Y19812000D02*
X5842000Y19583400D01*
X5842000Y19583400D02*
X5842000Y18770600D01*
X5842000Y18770600D02*
X6426200Y18186400D01*
X6426200Y18186400D02*
X7315200Y18186400D01*
X7315200Y18186400D02*
X7620000Y17881600D01*
X7620000Y17881600D02*
X7620000Y17424400D01*
X7772400Y17272000D02*
X8380000Y17272000D01*
X7620000Y17424400D02*
X7772400Y17272000D01*
X8380000Y17272000D02*
X9067800Y17272000D01*
X9067800Y17272000D02*
X9372600Y17576800D01*
X9372600Y17576800D02*
X9372600Y19050000D01*
X9582600Y19260000D02*
X10287000Y19260000D01*
X9372600Y19050000D02*
X9582600Y19260000D01*
X10287000Y19260000D02*
X10287000Y20066000D01*
X13648600Y26060400D02*
X13655000Y26054000D01*
X12192000Y26060400D02*
X13648600Y26060400D01*
%TO.N,/SCL*%
X14097000Y19260000D02*
X14097000Y20066000D01*
X15348000Y25254000D02*
X13655000Y25254000D01*
X16065500Y25273000D02*
X15348000Y25254000D01*
X9960000Y2931000D02*
X9464200Y2931000D01*
X8940800Y3454400D02*
X8940800Y5461000D01*
X9464200Y2931000D02*
X8940800Y3454400D01*
%TO.N,/SDA*%
X12192000Y19260000D02*
X12192000Y20066000D01*
X15360500Y24454000D02*
X15367000Y24447500D01*
X13655000Y24454000D02*
X15360500Y24454000D01*
X9960000Y2071000D02*
X9284600Y2071000D01*
X9284600Y2071000D02*
X8229600Y1016000D01*
%TO.N,/DIO1*%
X17520500Y3305000D02*
X19535600Y3305000D01*
X19535600Y3305000D02*
X20802600Y4572000D01*
X20802600Y4572000D02*
X20802600Y22860000D01*
X13661000Y22860000D02*
X13655000Y22854000D01*
X19558000Y22860000D02*
X13661000Y22860000D01*
%TO.N,/SCK*%
X6725000Y21524000D02*
X6725000Y22447600D01*
X6725000Y22447600D02*
X7213600Y22936200D01*
X7213600Y22936200D02*
X7899400Y22936200D01*
X15798800Y32988800D02*
X15810000Y33000000D01*
X33530000Y7387800D02*
X31702800Y7387800D01*
X31702800Y7387800D02*
X23571200Y15519400D01*
X23571200Y15519400D02*
X23571200Y15544800D01*
X15810000Y30697400D02*
X15810000Y33000000D01*
X21717000Y15544800D02*
X21717000Y24790400D01*
X21717000Y24790400D02*
X15810000Y30697400D01*
%TO.N,/MISO*%
X5395000Y22854000D02*
X6496400Y22854000D01*
X6496400Y22854000D02*
X7137400Y23495000D01*
X7137400Y23495000D02*
X8559800Y23495000D01*
X18364200Y32985800D02*
X18350000Y33000000D01*
X18350000Y28944800D02*
X18350000Y33000000D01*
X22352000Y12877800D02*
X22352000Y24942800D01*
X33530000Y3400000D02*
X31829800Y3400000D01*
X22352000Y24942800D02*
X18350000Y28944800D01*
X31829800Y3400000D02*
X22352000Y12877800D01*
%TO.N,/MOSI*%
X5395000Y23654000D02*
X6737600Y23654000D01*
X6737600Y23654000D02*
X7188200Y24104600D01*
X7188200Y24104600D02*
X9220200Y24104600D01*
X20878800Y32988800D02*
X20890000Y33000000D01*
X31938000Y5400000D02*
X22910800Y14427200D01*
X33524500Y5400000D02*
X31938000Y5400000D01*
X22910800Y24231600D02*
X22910800Y25120600D01*
X22910800Y14427200D02*
X22910800Y24231600D01*
X20890000Y27141400D02*
X20890000Y33000000D01*
X22910800Y25120600D02*
X20890000Y27141400D01*
%TO.N,/SS*%
X5395000Y24454000D02*
X6674000Y24454000D01*
X6674000Y24454000D02*
X6680200Y24460200D01*
X5410200Y6858000D02*
X8407400Y6858000D01*
X5232400Y6680200D02*
X5410200Y6858000D01*
X5232400Y4699000D02*
X5232400Y6680200D01*
X4723400Y4190000D02*
X5232400Y4699000D01*
X8407400Y6858000D02*
X9144000Y6121400D01*
X2000000Y4190000D02*
X4723400Y4190000D01*
X9144000Y6121400D02*
X10972800Y6121400D01*
X10972800Y6121400D02*
X10998200Y6146800D01*
X33499100Y9423400D02*
X33522500Y9400000D01*
X32156400Y9423400D02*
X33499100Y9423400D01*
%TO.N,/D3*%
X12325000Y29784000D02*
X15745500Y29784000D01*
X15745500Y29784000D02*
X17272000Y28257500D01*
%TO.N,Net-(D1-PadA)*%
X4953000Y18967000D02*
X4953000Y15570200D01*
X5187200Y15336000D02*
X6223000Y15336000D01*
X4953000Y15570200D02*
X5187200Y15336000D01*
%TO.N,Net-(C1-Pad2)*%
X2000000Y14350000D02*
X7009400Y14350000D01*
X7009400Y14350000D02*
X7467600Y14808200D01*
X7467600Y14808200D02*
X7467600Y15722600D01*
X6860000Y16330200D02*
X6860000Y17272000D01*
X7467600Y15722600D02*
X6860000Y16330200D01*
D24*
%TO.N,Net-(JP3-Pad1)*%
X16416000Y15400000D02*
X17522500Y15400000D01*
X15240000Y14224000D02*
X16416000Y15400000D01*
X15240000Y14224000D02*
X13336000Y14224000D01*
D22*
%TO.N,Net-(C9-Pad1)*%
X10185400Y5183600D02*
X10033000Y5336000D01*
D25*
X10355000Y3506000D02*
X10355000Y4173800D01*
X10355000Y4173800D02*
X10210800Y4318000D01*
X10210800Y5158200D02*
X10033000Y5336000D01*
X10210800Y4318000D02*
X10210800Y5158200D01*
%TO.N,Net-(C8-Pad1)*%
X12956000Y5336000D02*
X13843000Y5336000D01*
X12827000Y5207000D02*
X12956000Y5336000D01*
X11645000Y3506000D02*
X11645000Y4238590D01*
X11645000Y4238590D02*
X11963400Y4556990D01*
X12557990Y4556990D02*
X12827000Y4826000D01*
X11963400Y4556990D02*
X12557990Y4556990D01*
X12827000Y4826000D02*
X12827000Y5207000D01*
D23*
%TO.N,Net-(R1-Pad2)*%
X5395000Y25254000D02*
X4273600Y25254000D01*
X4273600Y25254000D02*
X3632200Y24612600D01*
X3632200Y24612600D02*
X3632200Y21056600D01*
X4031800Y20657000D02*
X4953000Y20657000D01*
X3632200Y21056600D02*
X4031800Y20657000D01*
%TO.N,Net-(U2-Pad8)*%
X6725000Y29784000D02*
X6725000Y30689200D01*
X6725000Y30689200D02*
X6350000Y31064200D01*
X6350000Y31064200D02*
X6350000Y32791400D01*
X6248400Y32893000D02*
X5612000Y32893000D01*
X6350000Y32791400D02*
X6248400Y32893000D01*
%TO.N,Net-(U2-Pad7)*%
X7525000Y29784000D02*
X7525000Y30664400D01*
X7525000Y30664400D02*
X7797800Y30937200D01*
X7797800Y30937200D02*
X7797800Y32740600D01*
X7950200Y32893000D02*
X8612000Y32893000D01*
X7797800Y32740600D02*
X7950200Y32893000D01*
D20*
%TO.N,3V3*%
X10543000Y10668000D02*
X8636000Y10668000D01*
X8636000Y11324000D02*
X8469000Y11491000D01*
X8636000Y10668000D02*
X8636000Y11324000D01*
X8382000Y13464000D02*
X8382000Y12319000D01*
X8382000Y11578000D02*
X8469000Y11491000D01*
X8382000Y12319000D02*
X8382000Y11578000D01*
X14605000Y3131000D02*
X15601500Y3131000D01*
X15601500Y3131000D02*
X15621000Y3111500D01*
D25*
X9925000Y1066000D02*
X9297200Y1066000D01*
X9297200Y1066000D02*
X9296400Y1066800D01*
D20*
X11938000Y5336000D02*
X11051000Y5336000D01*
X11051000Y5336000D02*
X11049000Y5334000D01*
X17556500Y7366000D02*
X17522500Y7400000D01*
X19113500Y7366000D02*
X17556500Y7366000D01*
X17425000Y7302500D02*
X17522500Y7400000D01*
X15938500Y7302500D02*
X17425000Y7302500D01*
X14605000Y8765000D02*
X15555500Y8765000D01*
X15555500Y8765000D02*
X15557500Y8763000D01*
X6860000Y19177000D02*
X6860000Y20191000D01*
X6860000Y20191000D02*
X6858000Y20193000D01*
D21*
X7525000Y21524000D02*
X7525000Y20479000D01*
X7239000Y20193000D02*
X6858000Y20193000D01*
X7525000Y20479000D02*
X7239000Y20193000D01*
X9925000Y29784000D02*
X9925000Y31057800D01*
X9925000Y31057800D02*
X9931400Y31064200D01*
D20*
X10922000Y32133000D02*
X10187400Y32133000D01*
X9931400Y31877000D02*
X9931400Y31064200D01*
X10187400Y32133000D02*
X9931400Y31877000D01*
X12827000Y32133000D02*
X11863800Y32133000D01*
X11863800Y32133000D02*
X11861800Y32131000D01*
D21*
X8325000Y29784000D02*
X8325000Y31007200D01*
X8325000Y31007200D02*
X8356600Y31038800D01*
D20*
X10287000Y17570000D02*
X10287000Y18364200D01*
X12192000Y17570000D02*
X12192000Y18364200D01*
X14097000Y17570000D02*
X14097000Y18338800D01*
X14097000Y18338800D02*
X14122400Y18364200D01*
D25*
X9925000Y3506000D02*
X9676600Y3506000D01*
X9525000Y3657600D02*
X9525000Y4191000D01*
X9676600Y3506000D02*
X9525000Y3657600D01*
D20*
%TO.N,Net-(C12-Pad1)*%
X9715000Y9591000D02*
X10543000Y8763000D01*
X8469000Y9591000D02*
X9715000Y9591000D01*
D23*
%TO.N,Net-(R5-Pad1)*%
X12935000Y1066000D02*
X12935000Y654000D01*
X12935000Y654000D02*
X13131800Y457200D01*
X13131800Y457200D02*
X14325600Y457200D01*
X14605000Y736600D02*
X14605000Y1441000D01*
X14325600Y457200D02*
X14605000Y736600D01*
%TD*%
D25*
%TO.N,/VIN*%
G36*
X5093250Y11618000D02*
G01*
X5882000Y11618000D01*
X5882000Y11623000D01*
X6136000Y11623000D01*
X6136000Y11618000D01*
X6924750Y11618000D01*
X6929750Y11623000D01*
X7583772Y11623000D01*
X7583772Y11335999D01*
X7591558Y11256943D01*
X7614618Y11180925D01*
X7652065Y11110867D01*
X7702460Y11049460D01*
X7763867Y10999065D01*
X7833925Y10961618D01*
X7873000Y10949765D01*
X7873000Y10132235D01*
X7833925Y10120382D01*
X7763867Y10082935D01*
X7702460Y10032540D01*
X7652065Y9971133D01*
X7614618Y9901075D01*
X7591558Y9825057D01*
X7583772Y9746001D01*
X7583772Y9435999D01*
X7591558Y9356943D01*
X7614618Y9280925D01*
X7652065Y9210867D01*
X7702460Y9149460D01*
X7763867Y9099065D01*
X7833925Y9061618D01*
X7909943Y9038558D01*
X7948110Y9034799D01*
X7968798Y9003838D01*
X7984592Y8984592D01*
X8003838Y8968798D01*
X8086241Y8913738D01*
X8108197Y8902002D01*
X8132021Y8894775D01*
X8229223Y8875440D01*
X8254000Y8873000D01*
X9233490Y8873000D01*
X9293649Y8861033D01*
X9334043Y8834043D01*
X9361033Y8793649D01*
X9373000Y8733490D01*
X9373000Y7666510D01*
X9361033Y7606351D01*
X9334043Y7565957D01*
X9293649Y7538967D01*
X9233490Y7527000D01*
X5254000Y7527000D01*
X5229223Y7524560D01*
X5132021Y7505225D01*
X5108197Y7497998D01*
X5086241Y7486262D01*
X5003838Y7431202D01*
X4984592Y7415408D01*
X4968798Y7396162D01*
X4913738Y7313759D01*
X4902002Y7291803D01*
X4894775Y7267979D01*
X4875440Y7170777D01*
X4873000Y7146000D01*
X4873000Y5266510D01*
X4861033Y5206351D01*
X4834043Y5165957D01*
X4793649Y5138967D01*
X4733490Y5127000D01*
X3164290Y5127000D01*
X3152687Y5133202D01*
X2961171Y5191298D01*
X2811902Y5206000D01*
X1889202Y5206000D01*
X1888967Y5206351D01*
X1877000Y5266510D01*
X1877000Y6603000D01*
X2127000Y6603000D01*
X2127000Y5587000D01*
X2889000Y5587000D01*
X3109548Y5633739D01*
X3316740Y5722607D01*
X3502613Y5850188D01*
X3660025Y6011580D01*
X3782926Y6200580D01*
X3864071Y6426866D01*
X3802025Y6603000D01*
X2127000Y6603000D01*
X1877000Y6603000D01*
X1877000Y7873000D01*
X2127000Y7873000D01*
X2127000Y6857000D01*
X3802025Y6857000D01*
X3864071Y7033134D01*
X3782926Y7259420D01*
X3660025Y7448420D01*
X3502613Y7609812D01*
X3316740Y7737393D01*
X3109548Y7826261D01*
X2889000Y7873000D01*
X2127000Y7873000D01*
X1877000Y7873000D01*
X1877000Y8143000D01*
X5051157Y8143000D01*
X5053000Y7840250D01*
X5148250Y7745000D01*
X5842000Y7745000D01*
X5842000Y8428750D01*
X6096000Y8428750D01*
X6096000Y7745000D01*
X6789750Y7745000D01*
X6885000Y7840250D01*
X6886843Y8143000D01*
X6956157Y8143000D01*
X6958000Y7840250D01*
X7053250Y7745000D01*
X7747000Y7745000D01*
X7747000Y8428750D01*
X8001000Y8428750D01*
X8001000Y7745000D01*
X8694750Y7745000D01*
X8790000Y7840250D01*
X8791843Y8143000D01*
X8784487Y8217689D01*
X8762701Y8289508D01*
X8727322Y8355696D01*
X8679711Y8413711D01*
X8621696Y8461322D01*
X8555508Y8496701D01*
X8483689Y8518487D01*
X8409000Y8525843D01*
X8096250Y8524000D01*
X8001000Y8428750D01*
X7747000Y8428750D01*
X7651750Y8524000D01*
X7339000Y8525843D01*
X7264311Y8518487D01*
X7192492Y8496701D01*
X7126304Y8461322D01*
X7068289Y8413711D01*
X7020678Y8355696D01*
X6985299Y8289508D01*
X6963513Y8217689D01*
X6956157Y8143000D01*
X6886843Y8143000D01*
X6879487Y8217689D01*
X6857701Y8289508D01*
X6822322Y8355696D01*
X6774711Y8413711D01*
X6716696Y8461322D01*
X6650508Y8496701D01*
X6578689Y8518487D01*
X6504000Y8525843D01*
X6191250Y8524000D01*
X6096000Y8428750D01*
X5842000Y8428750D01*
X5746750Y8524000D01*
X5434000Y8525843D01*
X5359311Y8518487D01*
X5287492Y8496701D01*
X5221304Y8461322D01*
X5163289Y8413711D01*
X5115678Y8355696D01*
X5080299Y8289508D01*
X5058513Y8217689D01*
X5051157Y8143000D01*
X1877000Y8143000D01*
X1877000Y8233490D01*
X1881080Y8254000D01*
X2811902Y8254000D01*
X2961171Y8268702D01*
X3152687Y8326798D01*
X3239126Y8373000D01*
X3446000Y8373000D01*
X3470777Y8375440D01*
X3567979Y8394775D01*
X3591803Y8402002D01*
X3613759Y8413738D01*
X3696162Y8468798D01*
X3715408Y8484592D01*
X3731202Y8503838D01*
X3786262Y8586241D01*
X3797998Y8608197D01*
X3805225Y8632021D01*
X3824560Y8729223D01*
X3827000Y8754000D01*
X3827000Y9286000D01*
X4996157Y9286000D01*
X5003513Y9211311D01*
X5025299Y9139492D01*
X5060678Y9073304D01*
X5108289Y9015289D01*
X5166304Y8967678D01*
X5232492Y8932299D01*
X5304311Y8910513D01*
X5379000Y8903157D01*
X5786750Y8905000D01*
X5882000Y9000250D01*
X5882000Y9464000D01*
X6136000Y9464000D01*
X6136000Y9000250D01*
X6231250Y8905000D01*
X6639000Y8903157D01*
X6713689Y8910513D01*
X6785508Y8932299D01*
X6851696Y8967678D01*
X6909711Y9015289D01*
X6957322Y9073304D01*
X6992701Y9139492D01*
X7014487Y9211311D01*
X7021843Y9286000D01*
X7020000Y9368750D01*
X6924750Y9464000D01*
X6136000Y9464000D01*
X5882000Y9464000D01*
X5093250Y9464000D01*
X4998000Y9368750D01*
X4996157Y9286000D01*
X3827000Y9286000D01*
X3827000Y10599790D01*
X4229100Y10599790D01*
X4229100Y10482210D01*
X4252039Y10366891D01*
X4297034Y10258262D01*
X4362358Y10160499D01*
X4445499Y10077358D01*
X4543262Y10012034D01*
X4651891Y9967039D01*
X4767210Y9944100D01*
X4884790Y9944100D01*
X5000109Y9967039D01*
X5003283Y9968354D01*
X4996157Y9896000D01*
X4998000Y9813250D01*
X5093250Y9718000D01*
X5882000Y9718000D01*
X5882000Y9738000D01*
X6136000Y9738000D01*
X6136000Y9718000D01*
X6924750Y9718000D01*
X7020000Y9813250D01*
X7021843Y9896000D01*
X7015115Y9964309D01*
X7116710Y9944100D01*
X7234290Y9944100D01*
X7349609Y9967039D01*
X7458238Y10012034D01*
X7556001Y10077358D01*
X7639142Y10160499D01*
X7704466Y10258262D01*
X7749461Y10366891D01*
X7772400Y10482210D01*
X7772400Y10599790D01*
X7749461Y10715109D01*
X7704466Y10823738D01*
X7639142Y10921501D01*
X7556001Y11004642D01*
X7458238Y11069966D01*
X7349609Y11114961D01*
X7234290Y11137900D01*
X7116710Y11137900D01*
X7015115Y11117691D01*
X7021843Y11186000D01*
X7020000Y11268750D01*
X6924750Y11364000D01*
X6136000Y11364000D01*
X6136000Y11344000D01*
X5882000Y11344000D01*
X5882000Y11364000D01*
X5093250Y11364000D01*
X4998000Y11268750D01*
X4996157Y11186000D01*
X5003283Y11113646D01*
X5000109Y11114961D01*
X4884790Y11137900D01*
X4767210Y11137900D01*
X4651891Y11114961D01*
X4543262Y11069966D01*
X4445499Y11004642D01*
X4362358Y10921501D01*
X4297034Y10823738D01*
X4252039Y10715109D01*
X4229100Y10599790D01*
X3827000Y10599790D01*
X3827000Y11483490D01*
X3838967Y11543649D01*
X3865957Y11584043D01*
X3906351Y11611033D01*
X3966510Y11623000D01*
X5088250Y11623000D01*
X5093250Y11618000D01*
G37*
X5093250Y11618000D02*
X5882000Y11618000D01*
X5882000Y11623000D01*
X6136000Y11623000D01*
X6136000Y11618000D01*
X6924750Y11618000D01*
X6929750Y11623000D01*
X7583772Y11623000D01*
X7583772Y11335999D01*
X7591558Y11256943D01*
X7614618Y11180925D01*
X7652065Y11110867D01*
X7702460Y11049460D01*
X7763867Y10999065D01*
X7833925Y10961618D01*
X7873000Y10949765D01*
X7873000Y10132235D01*
X7833925Y10120382D01*
X7763867Y10082935D01*
X7702460Y10032540D01*
X7652065Y9971133D01*
X7614618Y9901075D01*
X7591558Y9825057D01*
X7583772Y9746001D01*
X7583772Y9435999D01*
X7591558Y9356943D01*
X7614618Y9280925D01*
X7652065Y9210867D01*
X7702460Y9149460D01*
X7763867Y9099065D01*
X7833925Y9061618D01*
X7909943Y9038558D01*
X7948110Y9034799D01*
X7968798Y9003838D01*
X7984592Y8984592D01*
X8003838Y8968798D01*
X8086241Y8913738D01*
X8108197Y8902002D01*
X8132021Y8894775D01*
X8229223Y8875440D01*
X8254000Y8873000D01*
X9233490Y8873000D01*
X9293649Y8861033D01*
X9334043Y8834043D01*
X9361033Y8793649D01*
X9373000Y8733490D01*
X9373000Y7666510D01*
X9361033Y7606351D01*
X9334043Y7565957D01*
X9293649Y7538967D01*
X9233490Y7527000D01*
X5254000Y7527000D01*
X5229223Y7524560D01*
X5132021Y7505225D01*
X5108197Y7497998D01*
X5086241Y7486262D01*
X5003838Y7431202D01*
X4984592Y7415408D01*
X4968798Y7396162D01*
X4913738Y7313759D01*
X4902002Y7291803D01*
X4894775Y7267979D01*
X4875440Y7170777D01*
X4873000Y7146000D01*
X4873000Y5266510D01*
X4861033Y5206351D01*
X4834043Y5165957D01*
X4793649Y5138967D01*
X4733490Y5127000D01*
X3164290Y5127000D01*
X3152687Y5133202D01*
X2961171Y5191298D01*
X2811902Y5206000D01*
X1889202Y5206000D01*
X1888967Y5206351D01*
X1877000Y5266510D01*
X1877000Y6603000D01*
X2127000Y6603000D01*
X2127000Y5587000D01*
X2889000Y5587000D01*
X3109548Y5633739D01*
X3316740Y5722607D01*
X3502613Y5850188D01*
X3660025Y6011580D01*
X3782926Y6200580D01*
X3864071Y6426866D01*
X3802025Y6603000D01*
X2127000Y6603000D01*
X1877000Y6603000D01*
X1877000Y7873000D01*
X2127000Y7873000D01*
X2127000Y6857000D01*
X3802025Y6857000D01*
X3864071Y7033134D01*
X3782926Y7259420D01*
X3660025Y7448420D01*
X3502613Y7609812D01*
X3316740Y7737393D01*
X3109548Y7826261D01*
X2889000Y7873000D01*
X2127000Y7873000D01*
X1877000Y7873000D01*
X1877000Y8143000D01*
X5051157Y8143000D01*
X5053000Y7840250D01*
X5148250Y7745000D01*
X5842000Y7745000D01*
X5842000Y8428750D01*
X6096000Y8428750D01*
X6096000Y7745000D01*
X6789750Y7745000D01*
X6885000Y7840250D01*
X6886843Y8143000D01*
X6956157Y8143000D01*
X6958000Y7840250D01*
X7053250Y7745000D01*
X7747000Y7745000D01*
X7747000Y8428750D01*
X8001000Y8428750D01*
X8001000Y7745000D01*
X8694750Y7745000D01*
X8790000Y7840250D01*
X8791843Y8143000D01*
X8784487Y8217689D01*
X8762701Y8289508D01*
X8727322Y8355696D01*
X8679711Y8413711D01*
X8621696Y8461322D01*
X8555508Y8496701D01*
X8483689Y8518487D01*
X8409000Y8525843D01*
X8096250Y8524000D01*
X8001000Y8428750D01*
X7747000Y8428750D01*
X7651750Y8524000D01*
X7339000Y8525843D01*
X7264311Y8518487D01*
X7192492Y8496701D01*
X7126304Y8461322D01*
X7068289Y8413711D01*
X7020678Y8355696D01*
X6985299Y8289508D01*
X6963513Y8217689D01*
X6956157Y8143000D01*
X6886843Y8143000D01*
X6879487Y8217689D01*
X6857701Y8289508D01*
X6822322Y8355696D01*
X6774711Y8413711D01*
X6716696Y8461322D01*
X6650508Y8496701D01*
X6578689Y8518487D01*
X6504000Y8525843D01*
X6191250Y8524000D01*
X6096000Y8428750D01*
X5842000Y8428750D01*
X5746750Y8524000D01*
X5434000Y8525843D01*
X5359311Y8518487D01*
X5287492Y8496701D01*
X5221304Y8461322D01*
X5163289Y8413711D01*
X5115678Y8355696D01*
X5080299Y8289508D01*
X5058513Y8217689D01*
X5051157Y8143000D01*
X1877000Y8143000D01*
X1877000Y8233490D01*
X1881080Y8254000D01*
X2811902Y8254000D01*
X2961171Y8268702D01*
X3152687Y8326798D01*
X3239126Y8373000D01*
X3446000Y8373000D01*
X3470777Y8375440D01*
X3567979Y8394775D01*
X3591803Y8402002D01*
X3613759Y8413738D01*
X3696162Y8468798D01*
X3715408Y8484592D01*
X3731202Y8503838D01*
X3786262Y8586241D01*
X3797998Y8608197D01*
X3805225Y8632021D01*
X3824560Y8729223D01*
X3827000Y8754000D01*
X3827000Y9286000D01*
X4996157Y9286000D01*
X5003513Y9211311D01*
X5025299Y9139492D01*
X5060678Y9073304D01*
X5108289Y9015289D01*
X5166304Y8967678D01*
X5232492Y8932299D01*
X5304311Y8910513D01*
X5379000Y8903157D01*
X5786750Y8905000D01*
X5882000Y9000250D01*
X5882000Y9464000D01*
X6136000Y9464000D01*
X6136000Y9000250D01*
X6231250Y8905000D01*
X6639000Y8903157D01*
X6713689Y8910513D01*
X6785508Y8932299D01*
X6851696Y8967678D01*
X6909711Y9015289D01*
X6957322Y9073304D01*
X6992701Y9139492D01*
X7014487Y9211311D01*
X7021843Y9286000D01*
X7020000Y9368750D01*
X6924750Y9464000D01*
X6136000Y9464000D01*
X5882000Y9464000D01*
X5093250Y9464000D01*
X4998000Y9368750D01*
X4996157Y9286000D01*
X3827000Y9286000D01*
X3827000Y10599790D01*
X4229100Y10599790D01*
X4229100Y10482210D01*
X4252039Y10366891D01*
X4297034Y10258262D01*
X4362358Y10160499D01*
X4445499Y10077358D01*
X4543262Y10012034D01*
X4651891Y9967039D01*
X4767210Y9944100D01*
X4884790Y9944100D01*
X5000109Y9967039D01*
X5003283Y9968354D01*
X4996157Y9896000D01*
X4998000Y9813250D01*
X5093250Y9718000D01*
X5882000Y9718000D01*
X5882000Y9738000D01*
X6136000Y9738000D01*
X6136000Y9718000D01*
X6924750Y9718000D01*
X7020000Y9813250D01*
X7021843Y9896000D01*
X7015115Y9964309D01*
X7116710Y9944100D01*
X7234290Y9944100D01*
X7349609Y9967039D01*
X7458238Y10012034D01*
X7556001Y10077358D01*
X7639142Y10160499D01*
X7704466Y10258262D01*
X7749461Y10366891D01*
X7772400Y10482210D01*
X7772400Y10599790D01*
X7749461Y10715109D01*
X7704466Y10823738D01*
X7639142Y10921501D01*
X7556001Y11004642D01*
X7458238Y11069966D01*
X7349609Y11114961D01*
X7234290Y11137900D01*
X7116710Y11137900D01*
X7015115Y11117691D01*
X7021843Y11186000D01*
X7020000Y11268750D01*
X6924750Y11364000D01*
X6136000Y11364000D01*
X6136000Y11344000D01*
X5882000Y11344000D01*
X5882000Y11364000D01*
X5093250Y11364000D01*
X4998000Y11268750D01*
X4996157Y11186000D01*
X5003283Y11113646D01*
X5000109Y11114961D01*
X4884790Y11137900D01*
X4767210Y11137900D01*
X4651891Y11114961D01*
X4543262Y11069966D01*
X4445499Y11004642D01*
X4362358Y10921501D01*
X4297034Y10823738D01*
X4252039Y10715109D01*
X4229100Y10599790D01*
X3827000Y10599790D01*
X3827000Y11483490D01*
X3838967Y11543649D01*
X3865957Y11584043D01*
X3906351Y11611033D01*
X3966510Y11623000D01*
X5088250Y11623000D01*
X5093250Y11618000D01*
D23*
%TO.N,GND*%
G36*
X13724926Y4365849D02*
G01*
X13786324Y4324824D01*
X13827349Y4263426D01*
X13843000Y4184745D01*
X13843000Y895255D01*
X13827349Y816574D01*
X13786324Y755176D01*
X13724926Y714151D01*
X13710091Y711200D01*
X13342994Y711200D01*
X13327545Y714287D01*
X13265990Y755649D01*
X13258296Y767273D01*
X13261398Y777499D01*
X13266421Y828500D01*
X13266421Y1303500D01*
X13265080Y1317119D01*
X13288254Y1324149D01*
X13321348Y1341838D01*
X13350356Y1365644D01*
X13374162Y1394652D01*
X13391851Y1427746D01*
X13402744Y1463655D01*
X13406422Y1501000D01*
X13405500Y1529875D01*
X13357875Y1577500D01*
X13035698Y1577500D01*
X13028105Y1582602D01*
X13017142Y1588499D01*
X13005131Y1592165D01*
X12907522Y1611669D01*
X12895080Y1612900D01*
X12029856Y1612900D01*
X11967566Y1622548D01*
X11911111Y1650589D01*
X11770873Y1749580D01*
X11707009Y1822824D01*
X11684000Y1917240D01*
X11684000Y1931000D01*
X12393578Y1931000D01*
X12397256Y1893655D01*
X12408149Y1857746D01*
X12409082Y1856000D01*
X12408149Y1854254D01*
X12397256Y1818345D01*
X12393578Y1781000D01*
X12394500Y1752125D01*
X12442125Y1704500D01*
X12836500Y1704500D01*
X12836500Y2007500D01*
X12963500Y2007500D01*
X12963500Y1704500D01*
X13357875Y1704500D01*
X13405500Y1752125D01*
X13406422Y1781000D01*
X13402744Y1818345D01*
X13391851Y1854254D01*
X13390918Y1856000D01*
X13391851Y1857746D01*
X13402744Y1893655D01*
X13406422Y1931000D01*
X13405500Y1959875D01*
X13357875Y2007500D01*
X12963500Y2007500D01*
X12836500Y2007500D01*
X12442125Y2007500D01*
X12394500Y1959875D01*
X12393578Y1931000D01*
X11684000Y1931000D01*
X11684000Y2361000D01*
X12393578Y2361000D01*
X12397256Y2323655D01*
X12408149Y2287746D01*
X12409082Y2286000D01*
X12408149Y2284254D01*
X12397256Y2248345D01*
X12393578Y2211000D01*
X12394500Y2182125D01*
X12442125Y2134500D01*
X12836500Y2134500D01*
X12836500Y2437500D01*
X12963500Y2437500D01*
X12963500Y2134500D01*
X13357875Y2134500D01*
X13405500Y2182125D01*
X13406422Y2211000D01*
X13402744Y2248345D01*
X13391851Y2284254D01*
X13390918Y2286000D01*
X13391851Y2287746D01*
X13402744Y2323655D01*
X13406422Y2361000D01*
X13405500Y2389875D01*
X13357875Y2437500D01*
X12963500Y2437500D01*
X12836500Y2437500D01*
X12442125Y2437500D01*
X12394500Y2389875D01*
X12393578Y2361000D01*
X11684000Y2361000D01*
X11684000Y2581221D01*
X11696019Y2650519D01*
X11727938Y2706894D01*
X11781176Y2752853D01*
X11844755Y2791000D01*
X12393578Y2791000D01*
X12397256Y2753655D01*
X12408149Y2717746D01*
X12409082Y2716000D01*
X12408149Y2714254D01*
X12397256Y2678345D01*
X12393578Y2641000D01*
X12394500Y2612125D01*
X12442125Y2564500D01*
X12836500Y2564500D01*
X12836500Y2867500D01*
X12963500Y2867500D01*
X12963500Y2564500D01*
X13357875Y2564500D01*
X13405500Y2612125D01*
X13406422Y2641000D01*
X13402744Y2678345D01*
X13391851Y2714254D01*
X13390918Y2716000D01*
X13391851Y2717746D01*
X13402744Y2753655D01*
X13406422Y2791000D01*
X13405500Y2819875D01*
X13357875Y2867500D01*
X12963500Y2867500D01*
X12836500Y2867500D01*
X12442125Y2867500D01*
X12394500Y2819875D01*
X12393578Y2791000D01*
X11844755Y2791000D01*
X11847352Y2792558D01*
X11856177Y2798942D01*
X11921889Y2855669D01*
X11930469Y2864688D01*
X11935652Y2872450D01*
X11978423Y2947993D01*
X11983465Y2959374D01*
X11985731Y2968427D01*
X11997047Y3033672D01*
X12011500Y3048125D01*
X12011500Y3442500D01*
X12138500Y3442500D01*
X12138500Y3048125D01*
X12186125Y3000500D01*
X12215000Y2999578D01*
X12252345Y3003256D01*
X12288254Y3014149D01*
X12290000Y3015082D01*
X12291746Y3014149D01*
X12327655Y3003256D01*
X12365000Y2999578D01*
X12393875Y3000500D01*
X12415000Y3021625D01*
X12442125Y2994500D01*
X12836500Y2994500D01*
X12836500Y3020625D01*
X12871500Y3055625D01*
X12871500Y3213875D01*
X12963500Y3213875D01*
X12963500Y2994500D01*
X13357875Y2994500D01*
X13405500Y3042125D01*
X13406422Y3071000D01*
X13402744Y3108345D01*
X13391851Y3144254D01*
X13374162Y3177348D01*
X13350356Y3206356D01*
X13321348Y3230162D01*
X13288254Y3247851D01*
X13266159Y3254554D01*
X13265500Y3394875D01*
X13217875Y3442500D01*
X12998500Y3442500D01*
X12998500Y3248875D01*
X12963500Y3213875D01*
X12871500Y3213875D01*
X12871500Y3442500D01*
X12568500Y3442500D01*
X12568500Y3422500D01*
X12441500Y3422500D01*
X12441500Y3442500D01*
X12138500Y3442500D01*
X12011500Y3442500D01*
X12001500Y3442500D01*
X12001500Y3569500D01*
X12011500Y3569500D01*
X12011500Y3963875D01*
X12138500Y3963875D01*
X12138500Y3569500D01*
X12441500Y3569500D01*
X12441500Y3963875D01*
X12568500Y3963875D01*
X12568500Y3569500D01*
X12871500Y3569500D01*
X12871500Y3956375D01*
X12998500Y3956375D01*
X12998500Y3569500D01*
X13217875Y3569500D01*
X13265500Y3617125D01*
X13266422Y3813500D01*
X13262744Y3850845D01*
X13251851Y3886754D01*
X13234162Y3919848D01*
X13210356Y3948856D01*
X13181348Y3972662D01*
X13148254Y3990351D01*
X13112345Y4001244D01*
X13075000Y4004922D01*
X13046125Y4004000D01*
X12998500Y3956375D01*
X12871500Y3956375D01*
X12823875Y4004000D01*
X12795000Y4004922D01*
X12757655Y4001244D01*
X12728470Y3992391D01*
X12718254Y3997851D01*
X12682345Y4008744D01*
X12645000Y4012422D01*
X12616125Y4011500D01*
X12568500Y3963875D01*
X12441500Y3963875D01*
X12393875Y4011500D01*
X12365000Y4012422D01*
X12327655Y4008744D01*
X12291746Y3997851D01*
X12290000Y3996918D01*
X12288254Y3997851D01*
X12252345Y4008744D01*
X12215000Y4012422D01*
X12186125Y4011500D01*
X12138500Y3963875D01*
X12011500Y3963875D01*
X12001500Y3973875D01*
X12001500Y4146078D01*
X12094913Y4239490D01*
X12542394Y4239490D01*
X12557990Y4237954D01*
X12573586Y4239490D01*
X12620231Y4244084D01*
X12680080Y4262239D01*
X12735237Y4291721D01*
X12783583Y4331397D01*
X12793531Y4343519D01*
X12831512Y4381500D01*
X13646245Y4381500D01*
X13724926Y4365849D01*
G37*
X13724926Y4365849D02*
X13786324Y4324824D01*
X13827349Y4263426D01*
X13843000Y4184745D01*
X13843000Y895255D01*
X13827349Y816574D01*
X13786324Y755176D01*
X13724926Y714151D01*
X13710091Y711200D01*
X13342994Y711200D01*
X13327545Y714287D01*
X13265990Y755649D01*
X13258296Y767273D01*
X13261398Y777499D01*
X13266421Y828500D01*
X13266421Y1303500D01*
X13265080Y1317119D01*
X13288254Y1324149D01*
X13321348Y1341838D01*
X13350356Y1365644D01*
X13374162Y1394652D01*
X13391851Y1427746D01*
X13402744Y1463655D01*
X13406422Y1501000D01*
X13405500Y1529875D01*
X13357875Y1577500D01*
X13035698Y1577500D01*
X13028105Y1582602D01*
X13017142Y1588499D01*
X13005131Y1592165D01*
X12907522Y1611669D01*
X12895080Y1612900D01*
X12029856Y1612900D01*
X11967566Y1622548D01*
X11911111Y1650589D01*
X11770873Y1749580D01*
X11707009Y1822824D01*
X11684000Y1917240D01*
X11684000Y1931000D01*
X12393578Y1931000D01*
X12397256Y1893655D01*
X12408149Y1857746D01*
X12409082Y1856000D01*
X12408149Y1854254D01*
X12397256Y1818345D01*
X12393578Y1781000D01*
X12394500Y1752125D01*
X12442125Y1704500D01*
X12836500Y1704500D01*
X12836500Y2007500D01*
X12963500Y2007500D01*
X12963500Y1704500D01*
X13357875Y1704500D01*
X13405500Y1752125D01*
X13406422Y1781000D01*
X13402744Y1818345D01*
X13391851Y1854254D01*
X13390918Y1856000D01*
X13391851Y1857746D01*
X13402744Y1893655D01*
X13406422Y1931000D01*
X13405500Y1959875D01*
X13357875Y2007500D01*
X12963500Y2007500D01*
X12836500Y2007500D01*
X12442125Y2007500D01*
X12394500Y1959875D01*
X12393578Y1931000D01*
X11684000Y1931000D01*
X11684000Y2361000D01*
X12393578Y2361000D01*
X12397256Y2323655D01*
X12408149Y2287746D01*
X12409082Y2286000D01*
X12408149Y2284254D01*
X12397256Y2248345D01*
X12393578Y2211000D01*
X12394500Y2182125D01*
X12442125Y2134500D01*
X12836500Y2134500D01*
X12836500Y2437500D01*
X12963500Y2437500D01*
X12963500Y2134500D01*
X13357875Y2134500D01*
X13405500Y2182125D01*
X13406422Y2211000D01*
X13402744Y2248345D01*
X13391851Y2284254D01*
X13390918Y2286000D01*
X13391851Y2287746D01*
X13402744Y2323655D01*
X13406422Y2361000D01*
X13405500Y2389875D01*
X13357875Y2437500D01*
X12963500Y2437500D01*
X12836500Y2437500D01*
X12442125Y2437500D01*
X12394500Y2389875D01*
X12393578Y2361000D01*
X11684000Y2361000D01*
X11684000Y2581221D01*
X11696019Y2650519D01*
X11727938Y2706894D01*
X11781176Y2752853D01*
X11844755Y2791000D01*
X12393578Y2791000D01*
X12397256Y2753655D01*
X12408149Y2717746D01*
X12409082Y2716000D01*
X12408149Y2714254D01*
X12397256Y2678345D01*
X12393578Y2641000D01*
X12394500Y2612125D01*
X12442125Y2564500D01*
X12836500Y2564500D01*
X12836500Y2867500D01*
X12963500Y2867500D01*
X12963500Y2564500D01*
X13357875Y2564500D01*
X13405500Y2612125D01*
X13406422Y2641000D01*
X13402744Y2678345D01*
X13391851Y2714254D01*
X13390918Y2716000D01*
X13391851Y2717746D01*
X13402744Y2753655D01*
X13406422Y2791000D01*
X13405500Y2819875D01*
X13357875Y2867500D01*
X12963500Y2867500D01*
X12836500Y2867500D01*
X12442125Y2867500D01*
X12394500Y2819875D01*
X12393578Y2791000D01*
X11844755Y2791000D01*
X11847352Y2792558D01*
X11856177Y2798942D01*
X11921889Y2855669D01*
X11930469Y2864688D01*
X11935652Y2872450D01*
X11978423Y2947993D01*
X11983465Y2959374D01*
X11985731Y2968427D01*
X11997047Y3033672D01*
X12011500Y3048125D01*
X12011500Y3442500D01*
X12138500Y3442500D01*
X12138500Y3048125D01*
X12186125Y3000500D01*
X12215000Y2999578D01*
X12252345Y3003256D01*
X12288254Y3014149D01*
X12290000Y3015082D01*
X12291746Y3014149D01*
X12327655Y3003256D01*
X12365000Y2999578D01*
X12393875Y3000500D01*
X12415000Y3021625D01*
X12442125Y2994500D01*
X12836500Y2994500D01*
X12836500Y3020625D01*
X12871500Y3055625D01*
X12871500Y3213875D01*
X12963500Y3213875D01*
X12963500Y2994500D01*
X13357875Y2994500D01*
X13405500Y3042125D01*
X13406422Y3071000D01*
X13402744Y3108345D01*
X13391851Y3144254D01*
X13374162Y3177348D01*
X13350356Y3206356D01*
X13321348Y3230162D01*
X13288254Y3247851D01*
X13266159Y3254554D01*
X13265500Y3394875D01*
X13217875Y3442500D01*
X12998500Y3442500D01*
X12998500Y3248875D01*
X12963500Y3213875D01*
X12871500Y3213875D01*
X12871500Y3442500D01*
X12568500Y3442500D01*
X12568500Y3422500D01*
X12441500Y3422500D01*
X12441500Y3442500D01*
X12138500Y3442500D01*
X12011500Y3442500D01*
X12001500Y3442500D01*
X12001500Y3569500D01*
X12011500Y3569500D01*
X12011500Y3963875D01*
X12138500Y3963875D01*
X12138500Y3569500D01*
X12441500Y3569500D01*
X12441500Y3963875D01*
X12568500Y3963875D01*
X12568500Y3569500D01*
X12871500Y3569500D01*
X12871500Y3956375D01*
X12998500Y3956375D01*
X12998500Y3569500D01*
X13217875Y3569500D01*
X13265500Y3617125D01*
X13266422Y3813500D01*
X13262744Y3850845D01*
X13251851Y3886754D01*
X13234162Y3919848D01*
X13210356Y3948856D01*
X13181348Y3972662D01*
X13148254Y3990351D01*
X13112345Y4001244D01*
X13075000Y4004922D01*
X13046125Y4004000D01*
X12998500Y3956375D01*
X12871500Y3956375D01*
X12823875Y4004000D01*
X12795000Y4004922D01*
X12757655Y4001244D01*
X12728470Y3992391D01*
X12718254Y3997851D01*
X12682345Y4008744D01*
X12645000Y4012422D01*
X12616125Y4011500D01*
X12568500Y3963875D01*
X12441500Y3963875D01*
X12393875Y4011500D01*
X12365000Y4012422D01*
X12327655Y4008744D01*
X12291746Y3997851D01*
X12290000Y3996918D01*
X12288254Y3997851D01*
X12252345Y4008744D01*
X12215000Y4012422D01*
X12186125Y4011500D01*
X12138500Y3963875D01*
X12011500Y3963875D01*
X12001500Y3973875D01*
X12001500Y4146078D01*
X12094913Y4239490D01*
X12542394Y4239490D01*
X12557990Y4237954D01*
X12573586Y4239490D01*
X12620231Y4244084D01*
X12680080Y4262239D01*
X12735237Y4291721D01*
X12783583Y4331397D01*
X12793531Y4343519D01*
X12831512Y4381500D01*
X13646245Y4381500D01*
X13724926Y4365849D01*
%TO.N,3V3*%
G36*
X11212500Y5447125D02*
G01*
X11260125Y5399500D01*
X11332930Y5399500D01*
X11331965Y5272500D01*
X11260125Y5272500D01*
X11212500Y5224875D01*
X11211578Y4811000D01*
X11215256Y4773655D01*
X11226149Y4737746D01*
X11243838Y4704652D01*
X11267644Y4675644D01*
X11296652Y4651838D01*
X11327125Y4635550D01*
X11322354Y4007729D01*
X11278500Y3963875D01*
X11278500Y3569500D01*
X11298500Y3569500D01*
X11298500Y3442500D01*
X11278500Y3442500D01*
X11278500Y3048125D01*
X11314787Y3011838D01*
X11304023Y1595337D01*
X11297392Y1571201D01*
X11285000Y1572421D01*
X11145000Y1572421D01*
X11093999Y1567398D01*
X11044959Y1552522D01*
X11026591Y1542704D01*
X10998254Y1557851D01*
X10962345Y1568744D01*
X10925000Y1572422D01*
X10896125Y1571500D01*
X10848500Y1523875D01*
X10848500Y1129500D01*
X10858500Y1129500D01*
X10858500Y1002500D01*
X10848500Y1002500D01*
X10848500Y608125D01*
X10858500Y598125D01*
X10858500Y516359D01*
X10848053Y477370D01*
X10825630Y454947D01*
X10786641Y444500D01*
X9025359Y444500D01*
X8986370Y454947D01*
X8963947Y477370D01*
X8953500Y516359D01*
X8953500Y758500D01*
X9593578Y758500D01*
X9597256Y721155D01*
X9608149Y685246D01*
X9625838Y652152D01*
X9649644Y623144D01*
X9678652Y599338D01*
X9711746Y581649D01*
X9747655Y570756D01*
X9785000Y567078D01*
X9813875Y568000D01*
X9861500Y615625D01*
X9861500Y1002500D01*
X9988500Y1002500D01*
X9988500Y615625D01*
X10036125Y568000D01*
X10065000Y567078D01*
X10102345Y570756D01*
X10131530Y579609D01*
X10141746Y574149D01*
X10177655Y563256D01*
X10215000Y559578D01*
X10243875Y560500D01*
X10291500Y608125D01*
X10291500Y1002500D01*
X10418500Y1002500D01*
X10418500Y608125D01*
X10466125Y560500D01*
X10495000Y559578D01*
X10532345Y563256D01*
X10568254Y574149D01*
X10570000Y575082D01*
X10571746Y574149D01*
X10607655Y563256D01*
X10645000Y559578D01*
X10673875Y560500D01*
X10721500Y608125D01*
X10721500Y1002500D01*
X10418500Y1002500D01*
X10291500Y1002500D01*
X9988500Y1002500D01*
X9861500Y1002500D01*
X9642125Y1002500D01*
X9594500Y954875D01*
X9593578Y758500D01*
X8953500Y758500D01*
X8953500Y1380690D01*
X9073810Y1501000D01*
X9453578Y1501000D01*
X9457256Y1463655D01*
X9468149Y1427746D01*
X9485838Y1394652D01*
X9509644Y1365644D01*
X9538652Y1341838D01*
X9571746Y1324149D01*
X9593841Y1317446D01*
X9594500Y1177125D01*
X9642125Y1129500D01*
X9861500Y1129500D01*
X9861500Y1323125D01*
X9896500Y1358125D01*
X9896500Y1516375D01*
X9988500Y1516375D01*
X9988500Y1129500D01*
X10291500Y1129500D01*
X10291500Y1149500D01*
X10418500Y1149500D01*
X10418500Y1129500D01*
X10721500Y1129500D01*
X10721500Y1523875D01*
X10673875Y1571500D01*
X10645000Y1572422D01*
X10607655Y1568744D01*
X10571746Y1557851D01*
X10570000Y1556918D01*
X10568254Y1557851D01*
X10532345Y1568744D01*
X10495000Y1572422D01*
X10466125Y1571500D01*
X10445000Y1550375D01*
X10417875Y1577500D01*
X10023500Y1577500D01*
X10023500Y1551375D01*
X9988500Y1516375D01*
X9896500Y1516375D01*
X9896500Y1577500D01*
X9502125Y1577500D01*
X9454500Y1529875D01*
X9453578Y1501000D01*
X9073810Y1501000D01*
X9287310Y1714500D01*
X9492125Y1714500D01*
X9502125Y1704500D01*
X9896500Y1704500D01*
X9896500Y1724500D01*
X10023500Y1724500D01*
X10023500Y1704500D01*
X10417875Y1704500D01*
X10465500Y1752125D01*
X10466422Y1781000D01*
X10462744Y1818345D01*
X10451851Y1854254D01*
X10436704Y1882591D01*
X10446522Y1900959D01*
X10461398Y1949999D01*
X10466421Y2001000D01*
X10466421Y2141000D01*
X10461398Y2192001D01*
X10446522Y2241041D01*
X10436704Y2259409D01*
X10451851Y2287746D01*
X10462744Y2323655D01*
X10466422Y2361000D01*
X10465500Y2389875D01*
X10417875Y2437500D01*
X10023500Y2437500D01*
X10023500Y2417500D01*
X10020300Y2417500D01*
X10020300Y2584500D01*
X10023500Y2584500D01*
X10023500Y2564500D01*
X10417875Y2564500D01*
X10465500Y2612125D01*
X10466422Y2641000D01*
X10462744Y2678345D01*
X10451851Y2714254D01*
X10436704Y2742591D01*
X10446522Y2760959D01*
X10461398Y2809999D01*
X10466421Y2861000D01*
X10466421Y3001000D01*
X10466162Y3003633D01*
X10476001Y3004602D01*
X10525041Y3019478D01*
X10543409Y3029296D01*
X10571746Y3014149D01*
X10607655Y3003256D01*
X10645000Y2999578D01*
X10673875Y3000500D01*
X10721500Y3048125D01*
X10721500Y3442500D01*
X10848500Y3442500D01*
X10848500Y3048125D01*
X10896125Y3000500D01*
X10925000Y2999578D01*
X10962345Y3003256D01*
X10998254Y3014149D01*
X11000000Y3015082D01*
X11001746Y3014149D01*
X11037655Y3003256D01*
X11075000Y2999578D01*
X11103875Y3000500D01*
X11151500Y3048125D01*
X11151500Y3442500D01*
X10848500Y3442500D01*
X10721500Y3442500D01*
X10701500Y3442500D01*
X10701500Y3569500D01*
X10721500Y3569500D01*
X10721500Y3963875D01*
X10848500Y3963875D01*
X10848500Y3569500D01*
X11151500Y3569500D01*
X11151500Y3963875D01*
X11103875Y4011500D01*
X11075000Y4012422D01*
X11037655Y4008744D01*
X11001746Y3997851D01*
X11000000Y3996918D01*
X10998254Y3997851D01*
X10962345Y4008744D01*
X10925000Y4012422D01*
X10896125Y4011500D01*
X10848500Y3963875D01*
X10721500Y3963875D01*
X10710639Y3974736D01*
X10710687Y3974822D01*
X10713410Y3982453D01*
X10731394Y4045272D01*
X10733835Y4061564D01*
X10750871Y4974661D01*
X10750939Y4974887D01*
X10759421Y5061005D01*
X10759421Y5432958D01*
X10760760Y5504728D01*
X10771688Y5543114D01*
X10794077Y5565090D01*
X10832662Y5575300D01*
X11212214Y5575300D01*
X11212500Y5447125D01*
G37*
X11212500Y5447125D02*
X11260125Y5399500D01*
X11332930Y5399500D01*
X11331965Y5272500D01*
X11260125Y5272500D01*
X11212500Y5224875D01*
X11211578Y4811000D01*
X11215256Y4773655D01*
X11226149Y4737746D01*
X11243838Y4704652D01*
X11267644Y4675644D01*
X11296652Y4651838D01*
X11327125Y4635550D01*
X11322354Y4007729D01*
X11278500Y3963875D01*
X11278500Y3569500D01*
X11298500Y3569500D01*
X11298500Y3442500D01*
X11278500Y3442500D01*
X11278500Y3048125D01*
X11314787Y3011838D01*
X11304023Y1595337D01*
X11297392Y1571201D01*
X11285000Y1572421D01*
X11145000Y1572421D01*
X11093999Y1567398D01*
X11044959Y1552522D01*
X11026591Y1542704D01*
X10998254Y1557851D01*
X10962345Y1568744D01*
X10925000Y1572422D01*
X10896125Y1571500D01*
X10848500Y1523875D01*
X10848500Y1129500D01*
X10858500Y1129500D01*
X10858500Y1002500D01*
X10848500Y1002500D01*
X10848500Y608125D01*
X10858500Y598125D01*
X10858500Y516359D01*
X10848053Y477370D01*
X10825630Y454947D01*
X10786641Y444500D01*
X9025359Y444500D01*
X8986370Y454947D01*
X8963947Y477370D01*
X8953500Y516359D01*
X8953500Y758500D01*
X9593578Y758500D01*
X9597256Y721155D01*
X9608149Y685246D01*
X9625838Y652152D01*
X9649644Y623144D01*
X9678652Y599338D01*
X9711746Y581649D01*
X9747655Y570756D01*
X9785000Y567078D01*
X9813875Y568000D01*
X9861500Y615625D01*
X9861500Y1002500D01*
X9988500Y1002500D01*
X9988500Y615625D01*
X10036125Y568000D01*
X10065000Y567078D01*
X10102345Y570756D01*
X10131530Y579609D01*
X10141746Y574149D01*
X10177655Y563256D01*
X10215000Y559578D01*
X10243875Y560500D01*
X10291500Y608125D01*
X10291500Y1002500D01*
X10418500Y1002500D01*
X10418500Y608125D01*
X10466125Y560500D01*
X10495000Y559578D01*
X10532345Y563256D01*
X10568254Y574149D01*
X10570000Y575082D01*
X10571746Y574149D01*
X10607655Y563256D01*
X10645000Y559578D01*
X10673875Y560500D01*
X10721500Y608125D01*
X10721500Y1002500D01*
X10418500Y1002500D01*
X10291500Y1002500D01*
X9988500Y1002500D01*
X9861500Y1002500D01*
X9642125Y1002500D01*
X9594500Y954875D01*
X9593578Y758500D01*
X8953500Y758500D01*
X8953500Y1380690D01*
X9073810Y1501000D01*
X9453578Y1501000D01*
X9457256Y1463655D01*
X9468149Y1427746D01*
X9485838Y1394652D01*
X9509644Y1365644D01*
X9538652Y1341838D01*
X9571746Y1324149D01*
X9593841Y1317446D01*
X9594500Y1177125D01*
X9642125Y1129500D01*
X9861500Y1129500D01*
X9861500Y1323125D01*
X9896500Y1358125D01*
X9896500Y1516375D01*
X9988500Y1516375D01*
X9988500Y1129500D01*
X10291500Y1129500D01*
X10291500Y1149500D01*
X10418500Y1149500D01*
X10418500Y1129500D01*
X10721500Y1129500D01*
X10721500Y1523875D01*
X10673875Y1571500D01*
X10645000Y1572422D01*
X10607655Y1568744D01*
X10571746Y1557851D01*
X10570000Y1556918D01*
X10568254Y1557851D01*
X10532345Y1568744D01*
X10495000Y1572422D01*
X10466125Y1571500D01*
X10445000Y1550375D01*
X10417875Y1577500D01*
X10023500Y1577500D01*
X10023500Y1551375D01*
X9988500Y1516375D01*
X9896500Y1516375D01*
X9896500Y1577500D01*
X9502125Y1577500D01*
X9454500Y1529875D01*
X9453578Y1501000D01*
X9073810Y1501000D01*
X9287310Y1714500D01*
X9492125Y1714500D01*
X9502125Y1704500D01*
X9896500Y1704500D01*
X9896500Y1724500D01*
X10023500Y1724500D01*
X10023500Y1704500D01*
X10417875Y1704500D01*
X10465500Y1752125D01*
X10466422Y1781000D01*
X10462744Y1818345D01*
X10451851Y1854254D01*
X10436704Y1882591D01*
X10446522Y1900959D01*
X10461398Y1949999D01*
X10466421Y2001000D01*
X10466421Y2141000D01*
X10461398Y2192001D01*
X10446522Y2241041D01*
X10436704Y2259409D01*
X10451851Y2287746D01*
X10462744Y2323655D01*
X10466422Y2361000D01*
X10465500Y2389875D01*
X10417875Y2437500D01*
X10023500Y2437500D01*
X10023500Y2417500D01*
X10020300Y2417500D01*
X10020300Y2584500D01*
X10023500Y2584500D01*
X10023500Y2564500D01*
X10417875Y2564500D01*
X10465500Y2612125D01*
X10466422Y2641000D01*
X10462744Y2678345D01*
X10451851Y2714254D01*
X10436704Y2742591D01*
X10446522Y2760959D01*
X10461398Y2809999D01*
X10466421Y2861000D01*
X10466421Y3001000D01*
X10466162Y3003633D01*
X10476001Y3004602D01*
X10525041Y3019478D01*
X10543409Y3029296D01*
X10571746Y3014149D01*
X10607655Y3003256D01*
X10645000Y2999578D01*
X10673875Y3000500D01*
X10721500Y3048125D01*
X10721500Y3442500D01*
X10848500Y3442500D01*
X10848500Y3048125D01*
X10896125Y3000500D01*
X10925000Y2999578D01*
X10962345Y3003256D01*
X10998254Y3014149D01*
X11000000Y3015082D01*
X11001746Y3014149D01*
X11037655Y3003256D01*
X11075000Y2999578D01*
X11103875Y3000500D01*
X11151500Y3048125D01*
X11151500Y3442500D01*
X10848500Y3442500D01*
X10721500Y3442500D01*
X10701500Y3442500D01*
X10701500Y3569500D01*
X10721500Y3569500D01*
X10721500Y3963875D01*
X10848500Y3963875D01*
X10848500Y3569500D01*
X11151500Y3569500D01*
X11151500Y3963875D01*
X11103875Y4011500D01*
X11075000Y4012422D01*
X11037655Y4008744D01*
X11001746Y3997851D01*
X11000000Y3996918D01*
X10998254Y3997851D01*
X10962345Y4008744D01*
X10925000Y4012422D01*
X10896125Y4011500D01*
X10848500Y3963875D01*
X10721500Y3963875D01*
X10710639Y3974736D01*
X10710687Y3974822D01*
X10713410Y3982453D01*
X10731394Y4045272D01*
X10733835Y4061564D01*
X10750871Y4974661D01*
X10750939Y4974887D01*
X10759421Y5061005D01*
X10759421Y5432958D01*
X10760760Y5504728D01*
X10771688Y5543114D01*
X10794077Y5565090D01*
X10832662Y5575300D01*
X11212214Y5575300D01*
X11212500Y5447125D01*
%TO.N,GND*%
G36*
X19629894Y17326973D02*
G01*
X19691550Y17286001D01*
X19732770Y17224511D01*
X19748500Y17145638D01*
X19748500Y12311940D01*
X19732655Y12232792D01*
X19691152Y12171173D01*
X19629122Y12130278D01*
X19549829Y12115215D01*
X18689089Y12123709D01*
X18679661Y12141348D01*
X18655855Y12170355D01*
X18626848Y12194161D01*
X18593754Y12211850D01*
X18557844Y12222743D01*
X18520500Y12226421D01*
X16520500Y12226421D01*
X16483156Y12222743D01*
X16447246Y12211850D01*
X16414152Y12194161D01*
X16385145Y12170355D01*
X16365680Y12146638D01*
X15041065Y12159710D01*
X15027743Y12158431D01*
X14923429Y12137147D01*
X14910672Y12133105D01*
X13492263Y11512552D01*
X13401661Y11493953D01*
X12705451Y11499158D01*
X12650241Y11515906D01*
X12588000Y11522036D01*
X12332875Y11520500D01*
X12314456Y11502081D01*
X11807755Y11505870D01*
X11793125Y11520500D01*
X11538000Y11522036D01*
X11475759Y11515906D01*
X11451455Y11508533D01*
X9474604Y11523313D01*
X9396328Y11539432D01*
X9335371Y11580623D01*
X9294728Y11641939D01*
X9286901Y11681745D01*
X9283861Y11712609D01*
X9279318Y11727584D01*
X9280312Y12424000D01*
X10391964Y12424000D01*
X10398094Y12361759D01*
X10416249Y12301910D01*
X10445731Y12246753D01*
X10485407Y12198407D01*
X10533753Y12158731D01*
X10588910Y12129249D01*
X10648759Y12111094D01*
X10711000Y12104964D01*
X11541125Y12106500D01*
X11620500Y12185875D01*
X11620500Y12658500D01*
X12001500Y12658500D01*
X12001500Y12185875D01*
X12080875Y12106500D01*
X12911000Y12104964D01*
X12973241Y12111094D01*
X13033090Y12129249D01*
X13088247Y12158731D01*
X13136593Y12198407D01*
X13176269Y12246753D01*
X13205751Y12301910D01*
X13223906Y12361759D01*
X13230036Y12424000D01*
X13228500Y12579125D01*
X13149125Y12658500D01*
X12001500Y12658500D01*
X11620500Y12658500D01*
X10472875Y12658500D01*
X10393500Y12579125D01*
X10391964Y12424000D01*
X9280312Y12424000D01*
X9280799Y12765000D01*
X16201464Y12765000D01*
X16207594Y12702759D01*
X16225749Y12642910D01*
X16255231Y12587753D01*
X16294907Y12539407D01*
X16343253Y12499731D01*
X16398410Y12470249D01*
X16458259Y12452094D01*
X16520500Y12445964D01*
X17250625Y12447500D01*
X17330000Y12526875D01*
X17330000Y13209500D01*
X17711000Y13209500D01*
X17711000Y12526875D01*
X17790375Y12447500D01*
X18520500Y12445964D01*
X18582741Y12452094D01*
X18642590Y12470249D01*
X18697747Y12499731D01*
X18746093Y12539407D01*
X18785769Y12587753D01*
X18815251Y12642910D01*
X18833406Y12702759D01*
X18839536Y12765000D01*
X18838000Y13130125D01*
X18758625Y13209500D01*
X17711000Y13209500D01*
X17330000Y13209500D01*
X16282375Y13209500D01*
X16203000Y13130125D01*
X16201464Y12765000D01*
X9280799Y12765000D01*
X9283598Y14724000D01*
X9569579Y14724000D01*
X9569579Y13724000D01*
X9573257Y13686656D01*
X9584150Y13650746D01*
X9601839Y13617652D01*
X9625645Y13588645D01*
X9654652Y13564839D01*
X9687746Y13547150D01*
X9723656Y13536257D01*
X9761000Y13532579D01*
X10525601Y13532579D01*
X10485407Y13499593D01*
X10445731Y13451247D01*
X10416249Y13396090D01*
X10398094Y13336241D01*
X10391964Y13274000D01*
X10393500Y13118875D01*
X10472875Y13039500D01*
X11620500Y13039500D01*
X11620500Y13059500D01*
X12001500Y13059500D01*
X12001500Y13039500D01*
X13149125Y13039500D01*
X13228500Y13118875D01*
X13230036Y13274000D01*
X13223906Y13336241D01*
X13205751Y13396090D01*
X13176269Y13451247D01*
X13136593Y13499593D01*
X13096399Y13532579D01*
X13861000Y13532579D01*
X13898344Y13536257D01*
X13934254Y13547150D01*
X13967348Y13564839D01*
X13996355Y13588645D01*
X14020161Y13617652D01*
X14037850Y13650746D01*
X14048743Y13686656D01*
X14052421Y13724000D01*
X14052421Y13865860D01*
X14274890Y13865860D01*
X14328378Y13736728D01*
X14440957Y13568242D01*
X14584242Y13424957D01*
X14752728Y13312378D01*
X14939939Y13234833D01*
X15138682Y13195300D01*
X15341318Y13195300D01*
X15540061Y13234833D01*
X15727272Y13312378D01*
X15895758Y13424957D01*
X16039043Y13568242D01*
X16151622Y13736728D01*
X16202205Y13858847D01*
X16203000Y13669875D01*
X16282375Y13590500D01*
X17330000Y13590500D01*
X17330000Y14273125D01*
X17711000Y14273125D01*
X17711000Y13590500D01*
X18758625Y13590500D01*
X18838000Y13669875D01*
X18839536Y14035000D01*
X18833406Y14097241D01*
X18815251Y14157090D01*
X18785769Y14212247D01*
X18746093Y14260593D01*
X18697747Y14300269D01*
X18642590Y14329751D01*
X18582741Y14347906D01*
X18520500Y14354036D01*
X17790375Y14352500D01*
X17711000Y14273125D01*
X17330000Y14273125D01*
X17250625Y14352500D01*
X16520500Y14354036D01*
X16458259Y14347906D01*
X16398410Y14329751D01*
X16343253Y14300269D01*
X16294907Y14260593D01*
X16268700Y14228659D01*
X16268700Y14325318D01*
X16229167Y14524061D01*
X16175679Y14653193D01*
X16329079Y14806593D01*
X16329079Y14765000D01*
X16332757Y14727656D01*
X16343650Y14691746D01*
X16361339Y14658652D01*
X16385145Y14629645D01*
X16414152Y14605839D01*
X16447246Y14588150D01*
X16483156Y14577257D01*
X16520500Y14573579D01*
X18520500Y14573579D01*
X18557844Y14577257D01*
X18593754Y14588150D01*
X18626848Y14605839D01*
X18655855Y14629645D01*
X18679661Y14658652D01*
X18697350Y14691746D01*
X18708243Y14727656D01*
X18711921Y14765000D01*
X18711921Y16035000D01*
X18708243Y16072344D01*
X18697350Y16108254D01*
X18679661Y16141348D01*
X18655855Y16170355D01*
X18626848Y16194161D01*
X18593754Y16211850D01*
X18557844Y16222743D01*
X18520500Y16226421D01*
X16520500Y16226421D01*
X16483156Y16222743D01*
X16447246Y16211850D01*
X16414152Y16194161D01*
X16385145Y16170355D01*
X16361339Y16141348D01*
X16343650Y16108254D01*
X16332757Y16072344D01*
X16329079Y16035000D01*
X16329079Y15747887D01*
X16278283Y15732478D01*
X16216066Y15699223D01*
X16161532Y15654468D01*
X16150319Y15640805D01*
X15669193Y15159679D01*
X15540061Y15213167D01*
X15341318Y15252700D01*
X15138682Y15252700D01*
X14939939Y15213167D01*
X14752728Y15135622D01*
X14584242Y15023043D01*
X14440957Y14879758D01*
X14328378Y14711272D01*
X14274890Y14582140D01*
X14052421Y14582140D01*
X14052421Y14724000D01*
X14048743Y14761344D01*
X14037850Y14797254D01*
X14020161Y14830348D01*
X13996355Y14859355D01*
X13967348Y14883161D01*
X13934254Y14900850D01*
X13898344Y14911743D01*
X13861000Y14915421D01*
X13096399Y14915421D01*
X13136593Y14948407D01*
X13176269Y14996753D01*
X13205751Y15051910D01*
X13223906Y15111759D01*
X13230036Y15174000D01*
X13228500Y15329125D01*
X13149125Y15408500D01*
X12001500Y15408500D01*
X12001500Y15388500D01*
X11620500Y15388500D01*
X11620500Y15408500D01*
X10472875Y15408500D01*
X10393500Y15329125D01*
X10391964Y15174000D01*
X10398094Y15111759D01*
X10416249Y15051910D01*
X10445731Y14996753D01*
X10485407Y14948407D01*
X10525601Y14915421D01*
X9761000Y14915421D01*
X9723656Y14911743D01*
X9687746Y14900850D01*
X9654652Y14883161D01*
X9625645Y14859355D01*
X9601839Y14830348D01*
X9584150Y14797254D01*
X9573257Y14761344D01*
X9569579Y14724000D01*
X9283598Y14724000D01*
X9285455Y16024000D01*
X10391964Y16024000D01*
X10393500Y15868875D01*
X10472875Y15789500D01*
X11620500Y15789500D01*
X11620500Y16262125D01*
X12001500Y16262125D01*
X12001500Y15789500D01*
X13149125Y15789500D01*
X13228500Y15868875D01*
X13230036Y16024000D01*
X13223906Y16086241D01*
X13205751Y16146090D01*
X13176269Y16201247D01*
X13136593Y16249593D01*
X13088247Y16289269D01*
X13033090Y16318751D01*
X12973241Y16336906D01*
X12911000Y16343036D01*
X12080875Y16341500D01*
X12001500Y16262125D01*
X11620500Y16262125D01*
X11541125Y16341500D01*
X10711000Y16343036D01*
X10648759Y16336906D01*
X10588910Y16318751D01*
X10533753Y16289269D01*
X10485407Y16249593D01*
X10445731Y16201247D01*
X10416249Y16146090D01*
X10398094Y16086241D01*
X10391964Y16024000D01*
X9285455Y16024000D01*
X9286504Y16758026D01*
X9302237Y16836612D01*
X9343283Y16897921D01*
X9404650Y16938878D01*
X9483260Y16954500D01*
X15054160Y16954500D01*
X15068491Y16956138D01*
X15180178Y16982011D01*
X15193769Y16986841D01*
X15844099Y17305231D01*
X15940754Y17327827D01*
X19550960Y17342385D01*
X19629894Y17326973D01*
G37*
X19629894Y17326973D02*
X19691550Y17286001D01*
X19732770Y17224511D01*
X19748500Y17145638D01*
X19748500Y12311940D01*
X19732655Y12232792D01*
X19691152Y12171173D01*
X19629122Y12130278D01*
X19549829Y12115215D01*
X18689089Y12123709D01*
X18679661Y12141348D01*
X18655855Y12170355D01*
X18626848Y12194161D01*
X18593754Y12211850D01*
X18557844Y12222743D01*
X18520500Y12226421D01*
X16520500Y12226421D01*
X16483156Y12222743D01*
X16447246Y12211850D01*
X16414152Y12194161D01*
X16385145Y12170355D01*
X16365680Y12146638D01*
X15041065Y12159710D01*
X15027743Y12158431D01*
X14923429Y12137147D01*
X14910672Y12133105D01*
X13492263Y11512552D01*
X13401661Y11493953D01*
X12705451Y11499158D01*
X12650241Y11515906D01*
X12588000Y11522036D01*
X12332875Y11520500D01*
X12314456Y11502081D01*
X11807755Y11505870D01*
X11793125Y11520500D01*
X11538000Y11522036D01*
X11475759Y11515906D01*
X11451455Y11508533D01*
X9474604Y11523313D01*
X9396328Y11539432D01*
X9335371Y11580623D01*
X9294728Y11641939D01*
X9286901Y11681745D01*
X9283861Y11712609D01*
X9279318Y11727584D01*
X9280312Y12424000D01*
X10391964Y12424000D01*
X10398094Y12361759D01*
X10416249Y12301910D01*
X10445731Y12246753D01*
X10485407Y12198407D01*
X10533753Y12158731D01*
X10588910Y12129249D01*
X10648759Y12111094D01*
X10711000Y12104964D01*
X11541125Y12106500D01*
X11620500Y12185875D01*
X11620500Y12658500D01*
X12001500Y12658500D01*
X12001500Y12185875D01*
X12080875Y12106500D01*
X12911000Y12104964D01*
X12973241Y12111094D01*
X13033090Y12129249D01*
X13088247Y12158731D01*
X13136593Y12198407D01*
X13176269Y12246753D01*
X13205751Y12301910D01*
X13223906Y12361759D01*
X13230036Y12424000D01*
X13228500Y12579125D01*
X13149125Y12658500D01*
X12001500Y12658500D01*
X11620500Y12658500D01*
X10472875Y12658500D01*
X10393500Y12579125D01*
X10391964Y12424000D01*
X9280312Y12424000D01*
X9280799Y12765000D01*
X16201464Y12765000D01*
X16207594Y12702759D01*
X16225749Y12642910D01*
X16255231Y12587753D01*
X16294907Y12539407D01*
X16343253Y12499731D01*
X16398410Y12470249D01*
X16458259Y12452094D01*
X16520500Y12445964D01*
X17250625Y12447500D01*
X17330000Y12526875D01*
X17330000Y13209500D01*
X17711000Y13209500D01*
X17711000Y12526875D01*
X17790375Y12447500D01*
X18520500Y12445964D01*
X18582741Y12452094D01*
X18642590Y12470249D01*
X18697747Y12499731D01*
X18746093Y12539407D01*
X18785769Y12587753D01*
X18815251Y12642910D01*
X18833406Y12702759D01*
X18839536Y12765000D01*
X18838000Y13130125D01*
X18758625Y13209500D01*
X17711000Y13209500D01*
X17330000Y13209500D01*
X16282375Y13209500D01*
X16203000Y13130125D01*
X16201464Y12765000D01*
X9280799Y12765000D01*
X9283598Y14724000D01*
X9569579Y14724000D01*
X9569579Y13724000D01*
X9573257Y13686656D01*
X9584150Y13650746D01*
X9601839Y13617652D01*
X9625645Y13588645D01*
X9654652Y13564839D01*
X9687746Y13547150D01*
X9723656Y13536257D01*
X9761000Y13532579D01*
X10525601Y13532579D01*
X10485407Y13499593D01*
X10445731Y13451247D01*
X10416249Y13396090D01*
X10398094Y13336241D01*
X10391964Y13274000D01*
X10393500Y13118875D01*
X10472875Y13039500D01*
X11620500Y13039500D01*
X11620500Y13059500D01*
X12001500Y13059500D01*
X12001500Y13039500D01*
X13149125Y13039500D01*
X13228500Y13118875D01*
X13230036Y13274000D01*
X13223906Y13336241D01*
X13205751Y13396090D01*
X13176269Y13451247D01*
X13136593Y13499593D01*
X13096399Y13532579D01*
X13861000Y13532579D01*
X13898344Y13536257D01*
X13934254Y13547150D01*
X13967348Y13564839D01*
X13996355Y13588645D01*
X14020161Y13617652D01*
X14037850Y13650746D01*
X14048743Y13686656D01*
X14052421Y13724000D01*
X14052421Y13865860D01*
X14274890Y13865860D01*
X14328378Y13736728D01*
X14440957Y13568242D01*
X14584242Y13424957D01*
X14752728Y13312378D01*
X14939939Y13234833D01*
X15138682Y13195300D01*
X15341318Y13195300D01*
X15540061Y13234833D01*
X15727272Y13312378D01*
X15895758Y13424957D01*
X16039043Y13568242D01*
X16151622Y13736728D01*
X16202205Y13858847D01*
X16203000Y13669875D01*
X16282375Y13590500D01*
X17330000Y13590500D01*
X17330000Y14273125D01*
X17711000Y14273125D01*
X17711000Y13590500D01*
X18758625Y13590500D01*
X18838000Y13669875D01*
X18839536Y14035000D01*
X18833406Y14097241D01*
X18815251Y14157090D01*
X18785769Y14212247D01*
X18746093Y14260593D01*
X18697747Y14300269D01*
X18642590Y14329751D01*
X18582741Y14347906D01*
X18520500Y14354036D01*
X17790375Y14352500D01*
X17711000Y14273125D01*
X17330000Y14273125D01*
X17250625Y14352500D01*
X16520500Y14354036D01*
X16458259Y14347906D01*
X16398410Y14329751D01*
X16343253Y14300269D01*
X16294907Y14260593D01*
X16268700Y14228659D01*
X16268700Y14325318D01*
X16229167Y14524061D01*
X16175679Y14653193D01*
X16329079Y14806593D01*
X16329079Y14765000D01*
X16332757Y14727656D01*
X16343650Y14691746D01*
X16361339Y14658652D01*
X16385145Y14629645D01*
X16414152Y14605839D01*
X16447246Y14588150D01*
X16483156Y14577257D01*
X16520500Y14573579D01*
X18520500Y14573579D01*
X18557844Y14577257D01*
X18593754Y14588150D01*
X18626848Y14605839D01*
X18655855Y14629645D01*
X18679661Y14658652D01*
X18697350Y14691746D01*
X18708243Y14727656D01*
X18711921Y14765000D01*
X18711921Y16035000D01*
X18708243Y16072344D01*
X18697350Y16108254D01*
X18679661Y16141348D01*
X18655855Y16170355D01*
X18626848Y16194161D01*
X18593754Y16211850D01*
X18557844Y16222743D01*
X18520500Y16226421D01*
X16520500Y16226421D01*
X16483156Y16222743D01*
X16447246Y16211850D01*
X16414152Y16194161D01*
X16385145Y16170355D01*
X16361339Y16141348D01*
X16343650Y16108254D01*
X16332757Y16072344D01*
X16329079Y16035000D01*
X16329079Y15747887D01*
X16278283Y15732478D01*
X16216066Y15699223D01*
X16161532Y15654468D01*
X16150319Y15640805D01*
X15669193Y15159679D01*
X15540061Y15213167D01*
X15341318Y15252700D01*
X15138682Y15252700D01*
X14939939Y15213167D01*
X14752728Y15135622D01*
X14584242Y15023043D01*
X14440957Y14879758D01*
X14328378Y14711272D01*
X14274890Y14582140D01*
X14052421Y14582140D01*
X14052421Y14724000D01*
X14048743Y14761344D01*
X14037850Y14797254D01*
X14020161Y14830348D01*
X13996355Y14859355D01*
X13967348Y14883161D01*
X13934254Y14900850D01*
X13898344Y14911743D01*
X13861000Y14915421D01*
X13096399Y14915421D01*
X13136593Y14948407D01*
X13176269Y14996753D01*
X13205751Y15051910D01*
X13223906Y15111759D01*
X13230036Y15174000D01*
X13228500Y15329125D01*
X13149125Y15408500D01*
X12001500Y15408500D01*
X12001500Y15388500D01*
X11620500Y15388500D01*
X11620500Y15408500D01*
X10472875Y15408500D01*
X10393500Y15329125D01*
X10391964Y15174000D01*
X10398094Y15111759D01*
X10416249Y15051910D01*
X10445731Y14996753D01*
X10485407Y14948407D01*
X10525601Y14915421D01*
X9761000Y14915421D01*
X9723656Y14911743D01*
X9687746Y14900850D01*
X9654652Y14883161D01*
X9625645Y14859355D01*
X9601839Y14830348D01*
X9584150Y14797254D01*
X9573257Y14761344D01*
X9569579Y14724000D01*
X9283598Y14724000D01*
X9285455Y16024000D01*
X10391964Y16024000D01*
X10393500Y15868875D01*
X10472875Y15789500D01*
X11620500Y15789500D01*
X11620500Y16262125D01*
X12001500Y16262125D01*
X12001500Y15789500D01*
X13149125Y15789500D01*
X13228500Y15868875D01*
X13230036Y16024000D01*
X13223906Y16086241D01*
X13205751Y16146090D01*
X13176269Y16201247D01*
X13136593Y16249593D01*
X13088247Y16289269D01*
X13033090Y16318751D01*
X12973241Y16336906D01*
X12911000Y16343036D01*
X12080875Y16341500D01*
X12001500Y16262125D01*
X11620500Y16262125D01*
X11541125Y16341500D01*
X10711000Y16343036D01*
X10648759Y16336906D01*
X10588910Y16318751D01*
X10533753Y16289269D01*
X10485407Y16249593D01*
X10445731Y16201247D01*
X10416249Y16146090D01*
X10398094Y16086241D01*
X10391964Y16024000D01*
X9285455Y16024000D01*
X9286504Y16758026D01*
X9302237Y16836612D01*
X9343283Y16897921D01*
X9404650Y16938878D01*
X9483260Y16954500D01*
X15054160Y16954500D01*
X15068491Y16956138D01*
X15180178Y16982011D01*
X15193769Y16986841D01*
X15844099Y17305231D01*
X15940754Y17327827D01*
X19550960Y17342385D01*
X19629894Y17326973D01*
%TD*%
M02*
