G75*
%MOIN*%
%OFA0B0*%
%FSLAX25Y25*%
%IPPOS*%
%LPD*%
%AMOC8*
5,1,8,0,0,1.08239X$1,22.5*
%
%ADD10C,0.12211*%
%ADD11R,0.02400X0.06200*%
%ADD12R,0.06200X0.02400*%
%ADD13R,0.05518X0.06699*%
%ADD14R,0.05124X0.05124*%
%ADD15R,0.06699X0.05518*%
%ADD16R,0.08274X0.05400*%
%ADD17R,0.05124X0.02565*%
%ADD18R,0.01975X0.06699*%
%ADD19R,0.03937X0.02756*%
%ADD20R,0.01463X0.03353*%
%ADD21R,0.03353X0.01463*%
%ADD22C,0.06400*%
%ADD23R,0.09061X0.03746*%
%ADD24R,0.04534X0.04337*%
%ADD25C,0.07000*%
D10*
X0099954Y0051644D03*
D11*
X0100717Y0125495D03*
X0097617Y0125495D03*
X0094417Y0125495D03*
X0091317Y0125495D03*
X0088117Y0125495D03*
X0085017Y0125495D03*
X0103917Y0125495D03*
X0107017Y0125495D03*
X0107017Y0158895D03*
X0103917Y0158895D03*
X0100717Y0158895D03*
X0097617Y0158895D03*
X0094417Y0158895D03*
X0091317Y0158895D03*
X0088117Y0158895D03*
X0085017Y0158895D03*
D12*
X0079317Y0153195D03*
X0079317Y0150095D03*
X0079317Y0146895D03*
X0079317Y0143795D03*
X0079317Y0140595D03*
X0079317Y0137495D03*
X0079317Y0134295D03*
X0079317Y0131195D03*
X0112717Y0131195D03*
X0112717Y0134295D03*
X0112717Y0137495D03*
X0112717Y0140595D03*
X0112717Y0143795D03*
X0112717Y0146895D03*
X0112717Y0150095D03*
X0112717Y0153195D03*
D13*
X0124954Y0139046D03*
X0132435Y0139046D03*
X0132435Y0128416D03*
X0124954Y0128416D03*
X0107435Y0112274D03*
X0099560Y0112274D03*
X0099757Y0102431D03*
X0107238Y0102431D03*
X0101923Y0091802D03*
X0094049Y0091802D03*
X0094049Y0082746D03*
X0101923Y0082746D03*
X0087356Y0112274D03*
X0079482Y0112274D03*
X0111360Y0045229D03*
X0119234Y0045229D03*
X0125757Y0045305D03*
X0133631Y0045305D03*
D14*
X0109994Y0170935D03*
X0101726Y0170935D03*
D15*
X0122395Y0173101D03*
X0122395Y0165620D03*
X0120820Y0082353D03*
X0112946Y0082353D03*
X0112946Y0074479D03*
X0120820Y0074479D03*
D16*
X0141381Y0068967D03*
X0141381Y0061093D03*
X0141373Y0052845D03*
X0141373Y0045345D03*
X0141381Y0092589D03*
X0141381Y0100463D03*
X0204403Y0100463D03*
X0204381Y0092339D03*
X0204373Y0084341D03*
X0204373Y0076841D03*
X0204403Y0068919D03*
X0204381Y0061093D03*
X0204403Y0053219D03*
X0204373Y0045345D03*
D17*
X0104285Y0066408D03*
X0104285Y0073888D03*
X0094049Y0073888D03*
X0094049Y0070148D03*
X0094049Y0066408D03*
D18*
X0093261Y0171723D03*
X0087356Y0171723D03*
X0081450Y0171723D03*
D19*
X0081450Y0175857D03*
X0087356Y0175857D03*
X0093261Y0175857D03*
X0093261Y0167589D03*
X0087356Y0167589D03*
X0081450Y0167589D03*
D20*
X0114108Y0063317D03*
X0115801Y0063317D03*
X0117494Y0063317D03*
X0119186Y0063317D03*
X0120879Y0063317D03*
X0122572Y0063317D03*
X0124265Y0063317D03*
X0125958Y0063317D03*
X0125958Y0052569D03*
X0124265Y0052569D03*
X0122572Y0052569D03*
X0120879Y0052569D03*
X0119186Y0052569D03*
X0117494Y0052569D03*
X0115801Y0052569D03*
X0114108Y0052569D03*
D21*
X0113675Y0055404D03*
X0113675Y0057097D03*
X0113675Y0058790D03*
X0113675Y0060483D03*
X0126391Y0060483D03*
X0126391Y0058790D03*
X0126391Y0057097D03*
X0126391Y0055404D03*
D22*
X0083269Y0046329D02*
X0077269Y0046329D01*
X0077269Y0056329D02*
X0083269Y0056329D01*
X0083269Y0066329D02*
X0077269Y0066329D01*
X0077269Y0076329D02*
X0083269Y0076329D01*
X0083269Y0086329D02*
X0077269Y0086329D01*
X0077269Y0096329D02*
X0083269Y0096329D01*
X0134639Y0166754D02*
X0134639Y0172754D01*
X0144639Y0172754D02*
X0144639Y0166754D01*
X0154639Y0166754D02*
X0154639Y0172754D01*
X0164639Y0172754D02*
X0164639Y0166754D01*
X0174639Y0166754D02*
X0174639Y0172754D01*
X0184639Y0172754D02*
X0184639Y0166754D01*
X0194639Y0166754D02*
X0194639Y0172754D01*
X0204639Y0172754D02*
X0204639Y0166754D01*
D23*
X0123183Y0105876D03*
X0123183Y0095050D03*
D24*
X0129186Y0100463D03*
X0117179Y0100463D03*
D25*
X0134206Y0100463D03*
M02*
