G75*
%MOIN*%
%OFA0B0*%
%FSLAX25Y25*%
%IPPOS*%
%LPD*%
%AMOC8*
5,1,8,0,0,1.08239X$1,22.5*
%
%ADD10R,0.02000X0.05800*%
%ADD11R,0.05800X0.02000*%
%ADD12R,0.05118X0.06299*%
%ADD13R,0.04724X0.04724*%
%ADD14R,0.06299X0.05118*%
%ADD15R,0.07874X0.05000*%
%ADD16R,0.04724X0.02165*%
%ADD17R,0.01575X0.06299*%
%ADD18R,0.03150X0.01969*%
%ADD19R,0.01063X0.02953*%
%ADD20R,0.02953X0.01063*%
%ADD21C,0.06000*%
%ADD22R,0.08661X0.03346*%
%ADD23R,0.04134X0.03937*%
%ADD24C,0.06600*%
%ADD25C,0.00600*%
%ADD26C,0.02400*%
%ADD27C,0.02578*%
%ADD28C,0.01600*%
%ADD29C,0.03200*%
%ADD30C,0.01000*%
D10*
X0085017Y0125495D03*
X0088117Y0125495D03*
X0091317Y0125495D03*
X0094417Y0125495D03*
X0097617Y0125495D03*
X0100717Y0125495D03*
X0103917Y0125495D03*
X0107017Y0125495D03*
X0107017Y0158895D03*
X0103917Y0158895D03*
X0100717Y0158895D03*
X0097617Y0158895D03*
X0094417Y0158895D03*
X0091317Y0158895D03*
X0088117Y0158895D03*
X0085017Y0158895D03*
D11*
X0079317Y0153195D03*
X0079317Y0150095D03*
X0079317Y0146895D03*
X0079317Y0143795D03*
X0079317Y0140595D03*
X0079317Y0137495D03*
X0079317Y0134295D03*
X0079317Y0131195D03*
X0112717Y0131195D03*
X0112717Y0134295D03*
X0112717Y0137495D03*
X0112717Y0140595D03*
X0112717Y0143795D03*
X0112717Y0146895D03*
X0112717Y0150095D03*
X0112717Y0153195D03*
D12*
X0124954Y0139046D03*
X0132435Y0139046D03*
X0132435Y0128416D03*
X0124954Y0128416D03*
X0107435Y0112274D03*
X0099560Y0112274D03*
X0099757Y0102431D03*
X0107238Y0102431D03*
X0101923Y0091802D03*
X0094049Y0091802D03*
X0094049Y0082746D03*
X0101923Y0082746D03*
X0087356Y0112274D03*
X0079482Y0112274D03*
X0111360Y0045229D03*
X0119234Y0045229D03*
X0125757Y0045305D03*
X0133631Y0045305D03*
D13*
X0109994Y0170935D03*
X0101726Y0170935D03*
D14*
X0122395Y0173101D03*
X0122395Y0165620D03*
X0120820Y0082353D03*
X0112946Y0082353D03*
X0112946Y0074479D03*
X0120820Y0074479D03*
D15*
X0141381Y0068967D03*
X0141381Y0061093D03*
X0141373Y0052845D03*
X0141373Y0045345D03*
X0141381Y0092589D03*
X0141381Y0100463D03*
X0204403Y0100463D03*
X0204381Y0092339D03*
X0204373Y0084341D03*
X0204373Y0076841D03*
X0204403Y0068919D03*
X0204381Y0061093D03*
X0204403Y0053219D03*
X0204373Y0045345D03*
D16*
X0104285Y0066408D03*
X0104285Y0073888D03*
X0094049Y0073888D03*
X0094049Y0070148D03*
X0094049Y0066408D03*
D17*
X0093261Y0171723D03*
X0087356Y0171723D03*
X0081450Y0171723D03*
D18*
X0081450Y0175857D03*
X0087356Y0175857D03*
X0093261Y0175857D03*
X0093261Y0167589D03*
X0087356Y0167589D03*
X0081450Y0167589D03*
D19*
X0114108Y0063317D03*
X0115801Y0063317D03*
X0117494Y0063317D03*
X0119186Y0063317D03*
X0120879Y0063317D03*
X0122572Y0063317D03*
X0124265Y0063317D03*
X0125958Y0063317D03*
X0125958Y0052569D03*
X0124265Y0052569D03*
X0122572Y0052569D03*
X0120879Y0052569D03*
X0119186Y0052569D03*
X0117494Y0052569D03*
X0115801Y0052569D03*
X0114108Y0052569D03*
D20*
X0113675Y0055404D03*
X0113675Y0057097D03*
X0113675Y0058790D03*
X0113675Y0060483D03*
X0126391Y0060483D03*
X0126391Y0058790D03*
X0126391Y0057097D03*
X0126391Y0055404D03*
D21*
X0083269Y0056329D02*
X0077269Y0056329D01*
X0077269Y0046329D02*
X0083269Y0046329D01*
X0083269Y0066329D02*
X0077269Y0066329D01*
X0077269Y0076329D02*
X0083269Y0076329D01*
X0083269Y0086329D02*
X0077269Y0086329D01*
X0077269Y0096329D02*
X0083269Y0096329D01*
X0134639Y0166754D02*
X0134639Y0172754D01*
X0144639Y0172754D02*
X0144639Y0166754D01*
X0154639Y0166754D02*
X0154639Y0172754D01*
X0164639Y0172754D02*
X0164639Y0166754D01*
X0174639Y0166754D02*
X0174639Y0172754D01*
X0184639Y0172754D02*
X0184639Y0166754D01*
X0194639Y0166754D02*
X0194639Y0172754D01*
X0204639Y0172754D02*
X0204639Y0166754D01*
D22*
X0123183Y0105876D03*
X0123183Y0095050D03*
D23*
X0129186Y0100463D03*
X0117179Y0100463D03*
D24*
X0134206Y0100463D03*
D25*
X0131057Y0095345D02*
X0130595Y0095033D01*
X0123395Y0095033D01*
X0123183Y0095050D01*
X0117395Y0094433D02*
X0117395Y0089633D01*
X0117995Y0086033D02*
X0112595Y0091433D01*
X0112595Y0117833D01*
X0119195Y0124433D01*
X0119195Y0125633D01*
X0116795Y0125033D02*
X0108395Y0116633D01*
X0104195Y0116633D01*
X0100595Y0113033D01*
X0099560Y0112274D01*
X0099995Y0111833D01*
X0099995Y0102833D01*
X0099757Y0102431D01*
X0103595Y0099233D02*
X0100595Y0096233D01*
X0098795Y0096233D01*
X0094595Y0092033D01*
X0094049Y0091802D01*
X0094595Y0091433D01*
X0094595Y0090233D01*
X0101795Y0083033D01*
X0101923Y0082746D01*
X0102395Y0082433D01*
X0112595Y0082433D01*
X0112946Y0082353D01*
X0113195Y0082433D01*
X0120395Y0082433D01*
X0120820Y0082353D01*
X0120995Y0081833D01*
X0125795Y0077033D01*
X0125795Y0063833D01*
X0125958Y0063317D01*
X0126395Y0063233D01*
X0126395Y0060833D01*
X0126391Y0060483D01*
X0126395Y0060233D01*
X0126395Y0059033D01*
X0126391Y0058790D01*
X0126395Y0058433D01*
X0126395Y0057233D01*
X0126391Y0057097D01*
X0126395Y0056633D01*
X0126395Y0055433D01*
X0126391Y0055404D01*
X0122795Y0059633D02*
X0121595Y0060833D01*
X0113795Y0060833D01*
X0113675Y0060483D01*
X0113795Y0059033D02*
X0113675Y0058790D01*
X0113195Y0059033D01*
X0111395Y0059033D01*
X0110795Y0059633D01*
X0110795Y0061433D01*
X0112595Y0063233D01*
X0113195Y0063233D01*
X0113195Y0066833D01*
X0113195Y0063233D02*
X0113795Y0063233D01*
X0114108Y0063317D01*
X0115595Y0063833D02*
X0115801Y0063317D01*
X0115595Y0063833D02*
X0115595Y0071633D01*
X0113195Y0074033D01*
X0112946Y0074479D01*
X0107795Y0080033D02*
X0107795Y0060833D01*
X0111395Y0057233D01*
X0113195Y0057233D01*
X0113675Y0057097D01*
X0112963Y0055665D02*
X0111266Y0055665D01*
X0107298Y0059633D01*
X0100595Y0059633D01*
X0100595Y0068033D01*
X0104195Y0071633D01*
X0104195Y0073433D01*
X0104285Y0073888D01*
X0101795Y0076433D02*
X0101795Y0082433D01*
X0101923Y0082746D01*
X0094595Y0082433D02*
X0094049Y0082746D01*
X0094595Y0082433D02*
X0094595Y0074033D01*
X0094049Y0073888D01*
X0093995Y0073433D01*
X0092195Y0073433D01*
X0090395Y0071633D01*
X0090395Y0066833D01*
X0093995Y0066833D01*
X0094049Y0066408D01*
X0090395Y0066833D02*
X0080795Y0066833D01*
X0080269Y0066329D01*
X0080269Y0076329D02*
X0080795Y0076433D01*
X0088595Y0084233D01*
X0088595Y0093833D01*
X0093995Y0099233D01*
X0093995Y0116033D01*
X0093395Y0118433D02*
X0095195Y0118433D01*
X0100595Y0113033D01*
X0099995Y0112433D01*
X0099560Y0112274D01*
X0103595Y0105833D02*
X0107195Y0109433D01*
X0107195Y0111833D01*
X0107435Y0112274D01*
X0113795Y0117233D02*
X0124595Y0128033D01*
X0124954Y0128416D01*
X0126995Y0134033D02*
X0132395Y0128633D01*
X0132435Y0128416D01*
X0133595Y0134633D02*
X0129395Y0134633D01*
X0125195Y0138833D01*
X0124954Y0139046D01*
X0124595Y0139433D01*
X0123995Y0140033D01*
X0119195Y0140033D01*
X0116795Y0141833D02*
X0116795Y0125033D01*
X0114395Y0128033D02*
X0113195Y0129233D01*
X0113195Y0131033D01*
X0112717Y0131195D01*
X0108995Y0129233D02*
X0108995Y0120233D01*
X0113795Y0117233D02*
X0113795Y0098033D01*
X0117395Y0094433D01*
X0117995Y0086033D02*
X0124595Y0086033D01*
X0127595Y0083033D01*
X0127595Y0066233D01*
X0140795Y0053033D01*
X0141373Y0052845D01*
X0146195Y0049433D02*
X0133595Y0049433D01*
X0133631Y0049398D01*
X0133631Y0045305D01*
X0133595Y0049433D02*
X0118595Y0049433D01*
X0117395Y0050633D01*
X0117395Y0052433D01*
X0117494Y0052569D01*
X0117395Y0052433D02*
X0116195Y0052433D01*
X0115801Y0052569D01*
X0115595Y0052433D01*
X0114395Y0052433D01*
X0114108Y0052569D01*
X0111360Y0049821D01*
X0111360Y0045229D01*
X0115695Y0048733D02*
X0115808Y0048846D01*
X0115808Y0049125D01*
X0115730Y0048733D02*
X0115695Y0048733D01*
X0115730Y0048733D02*
X0119234Y0045229D01*
X0125681Y0045229D01*
X0125757Y0045305D01*
X0116195Y0053033D02*
X0115801Y0052569D01*
X0116195Y0053033D02*
X0116195Y0058433D01*
X0115595Y0059033D01*
X0113795Y0059033D01*
X0112963Y0055665D02*
X0113195Y0055433D01*
X0113675Y0055404D01*
X0113795Y0055433D01*
X0113795Y0053033D01*
X0114108Y0052569D01*
X0117494Y0063317D02*
X0117995Y0063833D01*
X0117995Y0067433D01*
X0117494Y0063317D02*
X0117995Y0063233D01*
X0119195Y0063233D01*
X0119186Y0063317D01*
X0120879Y0063317D02*
X0120995Y0063833D01*
X0120995Y0074033D01*
X0120820Y0074479D01*
X0129995Y0069833D02*
X0129995Y0066833D01*
X0129995Y0069833D02*
X0153395Y0093233D01*
X0153395Y0114833D01*
X0149195Y0119033D01*
X0149795Y0119033D01*
X0184595Y0153833D01*
X0184595Y0169433D01*
X0184639Y0169754D01*
X0194639Y0169754D02*
X0194795Y0169433D01*
X0204395Y0159833D01*
X0204395Y0101033D01*
X0204403Y0100463D01*
X0204395Y0100433D01*
X0196595Y0092633D01*
X0196595Y0053033D01*
X0203795Y0045833D01*
X0204373Y0045345D01*
X0204403Y0053219D02*
X0204395Y0053633D01*
X0202595Y0053633D01*
X0198995Y0057233D01*
X0202595Y0061433D02*
X0198995Y0065033D01*
X0202595Y0061433D02*
X0203795Y0061433D01*
X0204381Y0061093D01*
X0204403Y0068919D02*
X0204395Y0069233D01*
X0202595Y0069233D01*
X0198995Y0072833D01*
X0202595Y0077033D02*
X0198995Y0080633D01*
X0202595Y0077033D02*
X0203795Y0077033D01*
X0204373Y0076841D01*
X0199595Y0103433D02*
X0146795Y0050633D01*
X0146795Y0050033D01*
X0146195Y0049433D01*
X0141395Y0060833D02*
X0141381Y0061093D01*
X0141395Y0060833D02*
X0154595Y0074033D01*
X0154595Y0115433D01*
X0152795Y0117233D01*
X0152795Y0119033D01*
X0149195Y0119033D02*
X0133595Y0134633D01*
X0136595Y0134633D02*
X0136595Y0135233D01*
X0132995Y0138833D01*
X0132435Y0139046D01*
X0134206Y0144557D02*
X0134338Y0144690D01*
X0149795Y0129233D01*
X0149795Y0122033D01*
X0143795Y0132233D02*
X0141395Y0134633D01*
X0136595Y0134633D01*
X0134206Y0144557D02*
X0123970Y0144557D01*
X0115894Y0152633D01*
X0113195Y0152633D01*
X0112717Y0153195D01*
X0112717Y0150095D02*
X0112595Y0149633D01*
X0104795Y0149633D01*
X0084995Y0129833D01*
X0083795Y0129833D01*
X0082595Y0128633D01*
X0082595Y0116633D01*
X0083795Y0115433D01*
X0083795Y0101633D01*
X0087395Y0098033D01*
X0087395Y0093233D01*
X0080795Y0086633D01*
X0080269Y0086329D01*
X0080269Y0096329D02*
X0080195Y0096833D01*
X0079595Y0097433D01*
X0079595Y0111833D01*
X0079482Y0112274D01*
X0075395Y0108833D02*
X0077195Y0107033D01*
X0075395Y0108833D02*
X0075395Y0135833D01*
X0076595Y0137033D01*
X0078995Y0137033D01*
X0079317Y0137495D01*
X0079317Y0140595D02*
X0079595Y0140633D01*
X0093995Y0140633D01*
X0118595Y0165233D01*
X0122195Y0165233D01*
X0122395Y0165620D01*
X0119195Y0169433D02*
X0126395Y0169433D01*
X0155795Y0140033D01*
X0162395Y0140033D01*
X0164795Y0142433D01*
X0164795Y0169433D01*
X0164639Y0169754D01*
X0163595Y0161033D02*
X0155195Y0169433D01*
X0154639Y0169754D01*
X0144995Y0169433D02*
X0144639Y0169754D01*
X0144995Y0169433D02*
X0161195Y0153233D01*
X0161195Y0149633D01*
X0162395Y0147833D02*
X0163595Y0149033D01*
X0163595Y0161033D01*
X0162395Y0147833D02*
X0162395Y0145433D01*
X0161795Y0142433D02*
X0134795Y0169433D01*
X0134639Y0169754D01*
X0122395Y0173101D02*
X0122195Y0173033D01*
X0120395Y0171233D01*
X0110195Y0171233D01*
X0109994Y0170935D01*
X0119195Y0169433D02*
X0108995Y0159233D01*
X0107195Y0159233D01*
X0107017Y0158895D01*
X0101195Y0159233D02*
X0101195Y0162833D01*
X0095795Y0162833D01*
X0094595Y0161633D01*
X0094595Y0159233D01*
X0094417Y0158895D01*
X0091595Y0158633D02*
X0091595Y0156233D01*
X0092795Y0155033D01*
X0096995Y0155033D01*
X0098195Y0156233D01*
X0097617Y0158895D01*
X0098195Y0158633D01*
X0098195Y0156233D01*
X0100595Y0153833D01*
X0100717Y0158895D02*
X0101195Y0159233D01*
X0101195Y0162833D02*
X0101195Y0165233D01*
X0101195Y0170633D01*
X0101726Y0170935D01*
X0093261Y0171723D02*
X0092795Y0171233D01*
X0090395Y0168833D01*
X0090395Y0166433D01*
X0088595Y0164633D01*
X0088595Y0159233D01*
X0088117Y0158895D01*
X0085017Y0158895D02*
X0084995Y0159233D01*
X0084995Y0165833D01*
X0084395Y0166433D01*
X0084395Y0168833D01*
X0081995Y0171233D01*
X0081450Y0171723D01*
X0084395Y0171833D02*
X0086795Y0171833D01*
X0087356Y0171723D01*
X0091317Y0158895D02*
X0091595Y0158633D01*
X0104195Y0147233D02*
X0107795Y0147233D01*
X0110195Y0146633D02*
X0093995Y0130433D01*
X0097595Y0130433D02*
X0097595Y0125633D01*
X0097617Y0125495D01*
X0093395Y0118433D02*
X0087395Y0112433D01*
X0087356Y0112274D01*
X0088117Y0125495D02*
X0088595Y0125633D01*
X0088595Y0128633D01*
X0100595Y0140633D01*
X0107795Y0140033D02*
X0112595Y0140033D01*
X0112717Y0140595D01*
X0112717Y0137495D02*
X0112595Y0137033D01*
X0110195Y0137033D01*
X0108395Y0135233D01*
X0108395Y0129833D01*
X0108995Y0129233D01*
X0116795Y0141833D02*
X0114995Y0143633D01*
X0113195Y0143633D01*
X0112717Y0143795D01*
X0112595Y0146633D02*
X0110195Y0146633D01*
X0112595Y0146633D02*
X0112717Y0146895D01*
X0104195Y0147233D02*
X0085595Y0128633D01*
X0085595Y0125633D01*
X0085017Y0125495D01*
X0083795Y0131633D02*
X0079595Y0131633D01*
X0079317Y0131195D01*
X0079317Y0134295D02*
X0079595Y0134633D01*
X0083795Y0134633D01*
X0087395Y0138233D01*
X0090395Y0138233D02*
X0083795Y0131633D01*
X0103595Y0105833D02*
X0103595Y0099233D01*
X0104195Y0098033D02*
X0104795Y0097433D01*
X0104195Y0098033D02*
X0102395Y0096233D01*
X0102395Y0092033D01*
X0101923Y0091802D01*
X0104195Y0098033D02*
X0107195Y0101033D01*
X0107195Y0102233D01*
X0107238Y0102431D01*
X0101795Y0076433D02*
X0095795Y0070433D01*
X0094049Y0070148D01*
X0094595Y0070433D01*
X0095795Y0070433D01*
X0097595Y0068633D01*
X0097595Y0065033D01*
X0092795Y0060233D01*
X0092195Y0060233D01*
X0090995Y0059033D01*
X0090995Y0048233D01*
X0082595Y0048233D01*
X0080795Y0046433D01*
X0080269Y0046329D01*
X0122572Y0063317D02*
X0122795Y0063233D01*
X0123995Y0063233D01*
X0124265Y0063317D01*
X0124595Y0063233D01*
X0125795Y0063233D01*
X0125958Y0063317D01*
X0132995Y0069233D02*
X0140795Y0069233D01*
X0141381Y0068967D01*
X0148379Y0091802D02*
X0147995Y0092033D01*
X0141395Y0092033D01*
X0141381Y0092589D01*
X0168995Y0132233D02*
X0199595Y0132233D01*
X0199595Y0161033D01*
X0199595Y0132233D02*
X0199595Y0103433D01*
D26*
X0198995Y0080633D03*
X0198995Y0072833D03*
X0198995Y0065033D03*
X0198995Y0057233D03*
X0132995Y0069233D03*
X0129995Y0066833D03*
X0122795Y0059633D03*
X0117995Y0067433D03*
X0113195Y0066833D03*
X0107795Y0080033D03*
X0117395Y0089633D03*
X0104795Y0097433D03*
X0093995Y0116033D03*
X0108995Y0120233D03*
X0114395Y0128033D03*
X0119195Y0125633D03*
X0126995Y0134033D03*
X0119195Y0140033D03*
X0107795Y0140033D03*
X0107795Y0147233D03*
X0100595Y0140633D03*
X0090395Y0138233D03*
X0087395Y0138233D03*
X0093995Y0130433D03*
X0097595Y0130433D03*
X0100595Y0153833D03*
X0101195Y0165233D03*
X0084395Y0171833D03*
X0136595Y0134633D03*
X0143795Y0132233D03*
X0149795Y0122033D03*
X0152795Y0119033D03*
X0168995Y0132233D03*
X0161795Y0142433D03*
X0162395Y0145433D03*
X0161195Y0149633D03*
X0199595Y0161033D03*
X0077195Y0107033D03*
D27*
X0099560Y0119361D03*
X0130663Y0106369D03*
X0134206Y0107156D03*
X0137749Y0107156D03*
X0141293Y0107156D03*
X0144836Y0107156D03*
X0147986Y0106762D03*
X0150348Y0104400D03*
X0150742Y0101250D03*
X0150742Y0098101D03*
X0149560Y0095345D03*
X0148379Y0091802D03*
X0134994Y0094557D03*
X0131057Y0095345D03*
X0131844Y0086683D03*
X0130663Y0074479D03*
X0123970Y0068180D03*
X0115808Y0049125D03*
X0108616Y0090620D03*
X0165309Y0092589D03*
X0192868Y0126841D03*
X0174364Y0154794D03*
X0154285Y0137077D03*
X0142080Y0145345D03*
X0120033Y0152038D03*
X0089324Y0148888D03*
X0079088Y0161093D03*
D28*
X0074995Y0052509D02*
X0074995Y0050558D01*
X0075427Y0050777D01*
X0076145Y0051011D01*
X0076891Y0051129D01*
X0080069Y0051129D01*
X0080069Y0046529D01*
X0080469Y0046529D01*
X0080469Y0051129D01*
X0083647Y0051129D01*
X0084393Y0051011D01*
X0085112Y0050777D01*
X0085785Y0050434D01*
X0086396Y0049990D01*
X0086930Y0049456D01*
X0087374Y0048845D01*
X0087717Y0048172D01*
X0087951Y0047453D01*
X0088069Y0046707D01*
X0088069Y0046529D01*
X0080469Y0046529D01*
X0080469Y0046129D01*
X0088069Y0046129D01*
X0088069Y0045951D01*
X0087951Y0045205D01*
X0087717Y0044487D01*
X0087374Y0043813D01*
X0086930Y0043202D01*
X0086396Y0042668D01*
X0086073Y0042433D01*
X0107401Y0042433D01*
X0107401Y0048959D01*
X0108221Y0049779D01*
X0109660Y0049779D01*
X0109660Y0050525D01*
X0112038Y0052904D01*
X0112095Y0053197D01*
X0112095Y0053472D01*
X0111618Y0053472D01*
X0111125Y0053965D01*
X0110562Y0053965D01*
X0109566Y0054961D01*
X0109566Y0054961D01*
X0106594Y0057933D01*
X0104562Y0057933D01*
X0106487Y0056009D01*
X0107660Y0053177D01*
X0107660Y0050111D01*
X0106487Y0047279D01*
X0104319Y0045112D01*
X0101487Y0043939D01*
X0098421Y0043939D01*
X0095589Y0045112D01*
X0093422Y0047279D01*
X0092249Y0050111D01*
X0092249Y0053177D01*
X0093422Y0056009D01*
X0095589Y0058177D01*
X0098421Y0059350D01*
X0098895Y0059350D01*
X0098895Y0068737D01*
X0099891Y0069733D01*
X0101563Y0071406D01*
X0101343Y0071406D01*
X0100523Y0072226D01*
X0100523Y0075551D01*
X0101343Y0076371D01*
X0106095Y0076371D01*
X0106095Y0078056D01*
X0105791Y0078360D01*
X0105587Y0078156D01*
X0105177Y0077920D01*
X0104719Y0077797D01*
X0102402Y0077797D01*
X0102402Y0082267D01*
X0101443Y0082267D01*
X0101443Y0077797D01*
X0099127Y0077797D01*
X0098669Y0077920D01*
X0098258Y0078156D01*
X0097923Y0078492D01*
X0097762Y0078771D01*
X0097188Y0078197D01*
X0098218Y0078197D01*
X0097188Y0078197D02*
X0096295Y0078197D01*
X0096295Y0076371D01*
X0096991Y0076371D01*
X0097811Y0075551D01*
X0097811Y0072376D01*
X0097851Y0072336D01*
X0098088Y0071925D01*
X0098211Y0071468D01*
X0098211Y0070148D01*
X0098211Y0068828D01*
X0098088Y0068371D01*
X0097851Y0067960D01*
X0097811Y0067920D01*
X0097811Y0064745D01*
X0096991Y0063925D01*
X0091107Y0063925D01*
X0090286Y0064745D01*
X0090286Y0065133D01*
X0087536Y0065133D01*
X0086999Y0063837D01*
X0085762Y0062599D01*
X0084144Y0061929D01*
X0076394Y0061929D01*
X0074995Y0062509D01*
X0074995Y0060150D01*
X0076394Y0060729D01*
X0084144Y0060729D01*
X0085762Y0060059D01*
X0086999Y0058822D01*
X0087669Y0057204D01*
X0087669Y0055454D01*
X0086999Y0053837D01*
X0085762Y0052599D01*
X0084144Y0051929D01*
X0076394Y0051929D01*
X0074995Y0052509D01*
X0074995Y0051023D02*
X0076219Y0051023D01*
X0080069Y0051023D02*
X0080469Y0051023D01*
X0080469Y0049424D02*
X0080069Y0049424D01*
X0080069Y0047826D02*
X0080469Y0047826D01*
X0080469Y0046227D02*
X0094474Y0046227D01*
X0093195Y0047826D02*
X0087830Y0047826D01*
X0086954Y0049424D02*
X0092533Y0049424D01*
X0092249Y0051023D02*
X0084319Y0051023D01*
X0085784Y0052621D02*
X0092249Y0052621D01*
X0092681Y0054220D02*
X0087158Y0054220D01*
X0087669Y0055818D02*
X0093343Y0055818D01*
X0094830Y0057417D02*
X0087581Y0057417D01*
X0086806Y0059015D02*
X0097614Y0059015D01*
X0098895Y0060614D02*
X0084423Y0060614D01*
X0084828Y0062212D02*
X0098895Y0062212D01*
X0098895Y0063811D02*
X0086973Y0063811D01*
X0094049Y0070148D02*
X0094049Y0070148D01*
X0098211Y0070148D01*
X0094049Y0070148D01*
X0098211Y0070205D02*
X0100363Y0070205D01*
X0100945Y0071803D02*
X0098121Y0071803D01*
X0097811Y0073402D02*
X0100523Y0073402D01*
X0100523Y0075000D02*
X0097811Y0075000D01*
X0096295Y0076599D02*
X0106095Y0076599D01*
X0105954Y0078197D02*
X0105628Y0078197D01*
X0102402Y0078197D02*
X0101443Y0078197D01*
X0101443Y0079796D02*
X0102402Y0079796D01*
X0102402Y0081394D02*
X0101443Y0081394D01*
X0102402Y0082267D02*
X0102402Y0083226D01*
X0106282Y0083226D01*
X0106282Y0086133D01*
X0106159Y0086591D01*
X0105922Y0087001D01*
X0105587Y0087336D01*
X0105307Y0087498D01*
X0105882Y0088072D01*
X0105882Y0095069D01*
X0106268Y0095229D01*
X0106999Y0095960D01*
X0107395Y0096916D01*
X0107395Y0097882D01*
X0110377Y0097882D01*
X0110895Y0098400D01*
X0110895Y0090729D01*
X0114912Y0086712D01*
X0113426Y0086712D01*
X0113426Y0082832D01*
X0117896Y0082832D01*
X0120341Y0082832D01*
X0120341Y0081873D01*
X0121300Y0081873D01*
X0121300Y0078438D01*
X0120341Y0078438D01*
X0120341Y0081873D01*
X0113426Y0081873D01*
X0113426Y0082832D01*
X0112467Y0082832D01*
X0112467Y0081873D01*
X0109632Y0081873D01*
X0109268Y0082237D01*
X0108312Y0082633D01*
X0107278Y0082633D01*
X0106322Y0082237D01*
X0106282Y0082197D01*
X0106282Y0082267D01*
X0102402Y0082267D01*
X0102402Y0082993D02*
X0107997Y0082993D01*
X0107997Y0082832D02*
X0107997Y0085149D01*
X0108119Y0085607D01*
X0108356Y0086017D01*
X0108691Y0086352D01*
X0109102Y0086589D01*
X0109560Y0086712D01*
X0112467Y0086712D01*
X0112467Y0082832D01*
X0107997Y0082832D01*
X0107997Y0084591D02*
X0106282Y0084591D01*
X0106267Y0086190D02*
X0108529Y0086190D01*
X0105598Y0087788D02*
X0113836Y0087788D01*
X0113426Y0086190D02*
X0112467Y0086190D01*
X0112467Y0084591D02*
X0113426Y0084591D01*
X0113426Y0082993D02*
X0112467Y0082993D01*
X0112237Y0089387D02*
X0105882Y0089387D01*
X0105882Y0090985D02*
X0110895Y0090985D01*
X0110895Y0092584D02*
X0105882Y0092584D01*
X0105882Y0094182D02*
X0110895Y0094182D01*
X0110895Y0095781D02*
X0106820Y0095781D01*
X0107395Y0097379D02*
X0110895Y0097379D01*
X0115495Y0103831D02*
X0115495Y0116529D01*
X0122832Y0123866D01*
X0128093Y0123866D01*
X0128694Y0124467D01*
X0129296Y0123866D01*
X0135573Y0123866D01*
X0136394Y0124686D01*
X0136394Y0129430D01*
X0147495Y0118329D01*
X0151695Y0114129D01*
X0151695Y0093937D01*
X0146782Y0089024D01*
X0146996Y0089394D01*
X0147118Y0089852D01*
X0147118Y0092139D01*
X0141831Y0092139D01*
X0141831Y0088289D01*
X0145555Y0088289D01*
X0146013Y0088412D01*
X0146383Y0088625D01*
X0129295Y0071537D01*
X0129295Y0083737D01*
X0128299Y0084733D01*
X0125299Y0087733D01*
X0119172Y0087733D01*
X0119599Y0088160D01*
X0119995Y0089116D01*
X0119995Y0090150D01*
X0119599Y0091106D01*
X0119129Y0091576D01*
X0123146Y0091576D01*
X0123146Y0095013D01*
X0123219Y0095013D01*
X0123219Y0091576D01*
X0127750Y0091576D01*
X0128208Y0091699D01*
X0128618Y0091936D01*
X0128954Y0092271D01*
X0129191Y0092682D01*
X0129313Y0093139D01*
X0129313Y0095013D01*
X0123219Y0095013D01*
X0123219Y0095086D01*
X0129313Y0095086D01*
X0129313Y0096960D01*
X0129277Y0097094D01*
X0130928Y0097094D01*
X0131544Y0096479D01*
X0133271Y0095763D01*
X0135141Y0095763D01*
X0135948Y0096097D01*
X0135767Y0095784D01*
X0135644Y0095326D01*
X0135644Y0093039D01*
X0140931Y0093039D01*
X0140931Y0092139D01*
X0135644Y0092139D01*
X0135644Y0089852D01*
X0135767Y0089394D01*
X0136004Y0088984D01*
X0136339Y0088649D01*
X0136750Y0088412D01*
X0137207Y0088289D01*
X0140931Y0088289D01*
X0140931Y0092139D01*
X0141831Y0092139D01*
X0141831Y0093039D01*
X0147118Y0093039D01*
X0147118Y0095326D01*
X0146996Y0095784D01*
X0146759Y0096194D01*
X0146424Y0096529D01*
X0146069Y0096734D01*
X0146718Y0097383D01*
X0146718Y0103543D01*
X0145898Y0104363D01*
X0136953Y0104363D01*
X0136868Y0104447D01*
X0135141Y0105163D01*
X0133271Y0105163D01*
X0131544Y0104447D01*
X0130928Y0103831D01*
X0128913Y0103831D01*
X0128913Y0108130D01*
X0128093Y0108950D01*
X0118272Y0108950D01*
X0117452Y0108130D01*
X0117452Y0103831D01*
X0115495Y0103831D01*
X0115495Y0105372D02*
X0117452Y0105372D01*
X0117452Y0106971D02*
X0115495Y0106971D01*
X0115495Y0108569D02*
X0117891Y0108569D01*
X0115495Y0110168D02*
X0151695Y0110168D01*
X0151695Y0111766D02*
X0115495Y0111766D01*
X0115495Y0113365D02*
X0151695Y0113365D01*
X0150861Y0114963D02*
X0115495Y0114963D01*
X0115528Y0116562D02*
X0149262Y0116562D01*
X0147664Y0118160D02*
X0117126Y0118160D01*
X0118725Y0119759D02*
X0146065Y0119759D01*
X0144467Y0121357D02*
X0120323Y0121357D01*
X0121922Y0122956D02*
X0142868Y0122956D01*
X0141270Y0124554D02*
X0136261Y0124554D01*
X0136394Y0126153D02*
X0139671Y0126153D01*
X0138073Y0127751D02*
X0136394Y0127751D01*
X0136394Y0129350D02*
X0136474Y0129350D01*
X0145689Y0135744D02*
X0164102Y0135744D01*
X0165700Y0137342D02*
X0144090Y0137342D01*
X0142492Y0138941D02*
X0154483Y0138941D01*
X0154095Y0139329D02*
X0155091Y0138333D01*
X0163099Y0138333D01*
X0165499Y0140733D01*
X0166495Y0141729D01*
X0166495Y0162761D01*
X0167132Y0163024D01*
X0168369Y0164262D01*
X0169039Y0165879D01*
X0169039Y0173630D01*
X0168460Y0175028D01*
X0170819Y0175028D01*
X0170239Y0173630D01*
X0170239Y0165879D01*
X0170909Y0164262D01*
X0172147Y0163024D01*
X0173764Y0162354D01*
X0175514Y0162354D01*
X0177132Y0163024D01*
X0178369Y0164262D01*
X0179039Y0165879D01*
X0179039Y0173630D01*
X0178460Y0175028D01*
X0180819Y0175028D01*
X0180239Y0173630D01*
X0180239Y0165879D01*
X0180909Y0164262D01*
X0182147Y0163024D01*
X0182895Y0162714D01*
X0182895Y0154537D01*
X0151932Y0123574D01*
X0151495Y0124010D01*
X0151495Y0129937D01*
X0135043Y0146390D01*
X0133634Y0146390D01*
X0133502Y0146257D01*
X0124674Y0146257D01*
X0117594Y0153337D01*
X0117017Y0153914D01*
X0117017Y0154775D01*
X0116197Y0155595D01*
X0111361Y0155595D01*
X0118047Y0162280D01*
X0118666Y0161661D01*
X0126125Y0161661D01*
X0126945Y0162482D01*
X0126945Y0166479D01*
X0154095Y0139329D01*
X0152885Y0140539D02*
X0140893Y0140539D01*
X0139295Y0142138D02*
X0151286Y0142138D01*
X0149688Y0143736D02*
X0137696Y0143736D01*
X0136098Y0145335D02*
X0148089Y0145335D01*
X0146491Y0146933D02*
X0123998Y0146933D01*
X0122400Y0148532D02*
X0144892Y0148532D01*
X0143294Y0150130D02*
X0120801Y0150130D01*
X0119203Y0151729D02*
X0141695Y0151729D01*
X0140097Y0153327D02*
X0117604Y0153327D01*
X0116866Y0154926D02*
X0138498Y0154926D01*
X0136900Y0156524D02*
X0112291Y0156524D01*
X0113889Y0158123D02*
X0135301Y0158123D01*
X0133703Y0159721D02*
X0115488Y0159721D01*
X0117086Y0161320D02*
X0132104Y0161320D01*
X0130506Y0162918D02*
X0126945Y0162918D01*
X0126945Y0164517D02*
X0128907Y0164517D01*
X0127309Y0166115D02*
X0126945Y0166115D01*
X0117846Y0172933D02*
X0113756Y0172933D01*
X0113756Y0173878D01*
X0112936Y0174698D01*
X0107051Y0174698D01*
X0106231Y0173878D01*
X0106231Y0167993D01*
X0107051Y0167173D01*
X0112936Y0167173D01*
X0113756Y0167993D01*
X0113756Y0169533D01*
X0116891Y0169533D01*
X0109417Y0162059D01*
X0109417Y0162375D01*
X0108597Y0163195D01*
X0102863Y0163195D01*
X0102822Y0163236D01*
X0102412Y0163473D01*
X0101954Y0163595D01*
X0100717Y0163595D01*
X0099480Y0163595D01*
X0099022Y0163473D01*
X0098612Y0163236D01*
X0098572Y0163195D01*
X0096563Y0163195D01*
X0096522Y0163236D01*
X0096112Y0163473D01*
X0095654Y0163595D01*
X0094417Y0163595D01*
X0093180Y0163595D01*
X0092722Y0163473D01*
X0092312Y0163236D01*
X0092272Y0163195D01*
X0090295Y0163195D01*
X0090295Y0163929D01*
X0091099Y0164733D01*
X0091571Y0165205D01*
X0095416Y0165205D01*
X0096236Y0166025D01*
X0096236Y0169153D01*
X0095449Y0169941D01*
X0095449Y0173505D01*
X0096236Y0174293D01*
X0096236Y0175028D01*
X0098868Y0175028D01*
X0098669Y0174975D01*
X0098258Y0174738D01*
X0097923Y0174403D01*
X0097686Y0173992D01*
X0097564Y0173535D01*
X0097564Y0171317D01*
X0101345Y0171317D01*
X0101345Y0170554D01*
X0102107Y0170554D01*
X0102107Y0166773D01*
X0104325Y0166773D01*
X0104783Y0166896D01*
X0105193Y0167133D01*
X0105528Y0167468D01*
X0105765Y0167878D01*
X0105888Y0168336D01*
X0105888Y0170554D01*
X0102107Y0170554D01*
X0102107Y0171317D01*
X0105888Y0171317D01*
X0105888Y0173535D01*
X0105765Y0173992D01*
X0105528Y0174403D01*
X0105193Y0174738D01*
X0104783Y0174975D01*
X0104584Y0175028D01*
X0117846Y0175028D01*
X0117846Y0172933D01*
X0117846Y0174108D02*
X0113525Y0174108D01*
X0113756Y0169312D02*
X0116670Y0169312D01*
X0115072Y0167714D02*
X0113476Y0167714D01*
X0113473Y0166115D02*
X0096236Y0166115D01*
X0096236Y0167714D02*
X0097781Y0167714D01*
X0097686Y0167878D02*
X0097923Y0167468D01*
X0098258Y0167133D01*
X0098669Y0166896D01*
X0099127Y0166773D01*
X0101345Y0166773D01*
X0101345Y0170554D01*
X0097564Y0170554D01*
X0097564Y0168336D01*
X0097686Y0167878D01*
X0097564Y0169312D02*
X0096077Y0169312D01*
X0095449Y0170911D02*
X0101345Y0170911D01*
X0102107Y0170911D02*
X0106231Y0170911D01*
X0106231Y0169312D02*
X0105888Y0169312D01*
X0105670Y0167714D02*
X0106511Y0167714D01*
X0102107Y0167714D02*
X0101345Y0167714D01*
X0101345Y0169312D02*
X0102107Y0169312D01*
X0105888Y0172510D02*
X0106231Y0172510D01*
X0106462Y0174108D02*
X0105699Y0174108D01*
X0097753Y0174108D02*
X0096052Y0174108D01*
X0095449Y0172510D02*
X0097564Y0172510D01*
X0091074Y0172510D02*
X0089943Y0172510D01*
X0089943Y0171723D02*
X0089943Y0173905D01*
X0090309Y0174270D01*
X0091074Y0173505D01*
X0091074Y0171916D01*
X0089943Y0170785D01*
X0089943Y0171723D01*
X0087356Y0171723D01*
X0087356Y0171723D01*
X0089943Y0171723D01*
X0089943Y0170911D02*
X0090069Y0170911D01*
X0087356Y0171723D02*
X0084768Y0171723D01*
X0087356Y0171723D01*
X0087356Y0171723D01*
X0084768Y0171723D02*
X0084768Y0170864D01*
X0083658Y0171974D01*
X0083655Y0172027D01*
X0083638Y0172042D01*
X0083638Y0173505D01*
X0084403Y0174270D01*
X0084768Y0173905D01*
X0084768Y0171723D01*
X0084768Y0172510D02*
X0083638Y0172510D01*
X0084241Y0174108D02*
X0084565Y0174108D01*
X0084721Y0170911D02*
X0084768Y0170911D01*
X0079263Y0170911D02*
X0074995Y0170911D01*
X0074995Y0169312D02*
X0078635Y0169312D01*
X0078475Y0169153D02*
X0079263Y0169941D01*
X0079263Y0173505D01*
X0078475Y0174293D01*
X0078475Y0175028D01*
X0074995Y0175028D01*
X0074995Y0137837D01*
X0075017Y0137859D01*
X0075017Y0142175D01*
X0075037Y0142195D01*
X0075017Y0142215D01*
X0075017Y0148475D01*
X0075037Y0148495D01*
X0075017Y0148515D01*
X0075017Y0154775D01*
X0075837Y0155595D01*
X0082617Y0155595D01*
X0082617Y0162375D01*
X0083295Y0163053D01*
X0083295Y0165129D01*
X0083219Y0165205D01*
X0079296Y0165205D01*
X0078475Y0166025D01*
X0078475Y0169153D01*
X0078475Y0167714D02*
X0074995Y0167714D01*
X0074995Y0166115D02*
X0078475Y0166115D01*
X0074995Y0164517D02*
X0083295Y0164517D01*
X0083160Y0162918D02*
X0074995Y0162918D01*
X0074995Y0161320D02*
X0082617Y0161320D01*
X0082617Y0159721D02*
X0074995Y0159721D01*
X0074995Y0158123D02*
X0082617Y0158123D01*
X0082617Y0156524D02*
X0074995Y0156524D01*
X0074995Y0154926D02*
X0075168Y0154926D01*
X0075017Y0153327D02*
X0074995Y0153327D01*
X0074995Y0151729D02*
X0075017Y0151729D01*
X0074995Y0150130D02*
X0075017Y0150130D01*
X0074995Y0148532D02*
X0075017Y0148532D01*
X0074995Y0146933D02*
X0075017Y0146933D01*
X0074995Y0145335D02*
X0075017Y0145335D01*
X0074995Y0143736D02*
X0075017Y0143736D01*
X0074995Y0142138D02*
X0075017Y0142138D01*
X0074995Y0140539D02*
X0075017Y0140539D01*
X0074995Y0138941D02*
X0075017Y0138941D01*
X0083617Y0142333D02*
X0093291Y0142333D01*
X0105553Y0154595D01*
X0103094Y0154595D01*
X0103195Y0154350D01*
X0103195Y0153316D01*
X0102799Y0152360D01*
X0102068Y0151629D01*
X0101112Y0151233D01*
X0100078Y0151233D01*
X0099122Y0151629D01*
X0098391Y0152360D01*
X0097995Y0153316D01*
X0097995Y0153629D01*
X0097699Y0153333D01*
X0092091Y0153333D01*
X0091095Y0154329D01*
X0090829Y0154595D01*
X0089737Y0154595D01*
X0089717Y0154615D01*
X0089697Y0154595D01*
X0083617Y0154595D01*
X0083617Y0148515D01*
X0083597Y0148495D01*
X0083617Y0148475D01*
X0083617Y0142333D01*
X0083617Y0143736D02*
X0094694Y0143736D01*
X0096293Y0145335D02*
X0083617Y0145335D01*
X0083617Y0146933D02*
X0097891Y0146933D01*
X0099490Y0148532D02*
X0083617Y0148532D01*
X0083617Y0150130D02*
X0101088Y0150130D01*
X0102168Y0151729D02*
X0102687Y0151729D01*
X0103195Y0153327D02*
X0104285Y0153327D01*
X0099022Y0151729D02*
X0083617Y0151729D01*
X0083617Y0153327D02*
X0097995Y0153327D01*
X0100717Y0158895D02*
X0100717Y0163595D01*
X0100717Y0158895D01*
X0100717Y0158895D01*
X0100717Y0159721D02*
X0100717Y0159721D01*
X0100717Y0161320D02*
X0100717Y0161320D01*
X0100717Y0162918D02*
X0100717Y0162918D01*
X0094417Y0162918D02*
X0094417Y0162918D01*
X0094417Y0163595D02*
X0094417Y0158895D01*
X0094417Y0158895D01*
X0094417Y0163595D01*
X0094417Y0161320D02*
X0094417Y0161320D01*
X0094417Y0159721D02*
X0094417Y0159721D01*
X0090883Y0164517D02*
X0111875Y0164517D01*
X0110276Y0162918D02*
X0108874Y0162918D01*
X0090471Y0174108D02*
X0090146Y0174108D01*
X0079263Y0172510D02*
X0074995Y0172510D01*
X0074995Y0174108D02*
X0078660Y0174108D01*
X0105279Y0139313D02*
X0105591Y0138560D01*
X0106322Y0137829D01*
X0107278Y0137433D01*
X0108191Y0137433D01*
X0107691Y0136933D01*
X0106695Y0135937D01*
X0106695Y0129795D01*
X0102337Y0129795D01*
X0102317Y0129775D01*
X0102297Y0129795D01*
X0099763Y0129795D01*
X0099722Y0129836D01*
X0099312Y0130073D01*
X0098854Y0130195D01*
X0097617Y0130195D01*
X0096595Y0130195D01*
X0096595Y0130629D01*
X0105279Y0139313D01*
X0105433Y0138941D02*
X0104907Y0138941D01*
X0103308Y0137342D02*
X0108100Y0137342D01*
X0106695Y0135744D02*
X0101710Y0135744D01*
X0100111Y0134145D02*
X0106695Y0134145D01*
X0106695Y0132547D02*
X0098513Y0132547D01*
X0096914Y0130948D02*
X0106695Y0130948D01*
X0097617Y0130195D02*
X0097617Y0125495D01*
X0097617Y0125495D01*
X0097617Y0120795D01*
X0096380Y0120795D01*
X0095922Y0120918D01*
X0095512Y0121155D01*
X0095472Y0121195D01*
X0089737Y0121195D01*
X0089717Y0121215D01*
X0089697Y0121195D01*
X0086537Y0121195D01*
X0084295Y0121195D01*
X0084295Y0117337D01*
X0084499Y0117133D01*
X0084809Y0116824D01*
X0089382Y0116824D01*
X0091695Y0119137D01*
X0091695Y0119137D01*
X0092691Y0120133D01*
X0095899Y0120133D01*
X0099209Y0116824D01*
X0101982Y0116824D01*
X0103491Y0118333D01*
X0107218Y0118333D01*
X0106791Y0118760D01*
X0106395Y0119716D01*
X0106395Y0120750D01*
X0106579Y0121195D01*
X0102337Y0121195D01*
X0102317Y0121215D01*
X0102297Y0121195D01*
X0099763Y0121195D01*
X0099722Y0121155D01*
X0099312Y0120918D01*
X0098854Y0120795D01*
X0097617Y0120795D01*
X0097617Y0125495D01*
X0097617Y0130195D01*
X0097617Y0129350D02*
X0097617Y0129350D01*
X0097617Y0127751D02*
X0097617Y0127751D01*
X0097617Y0126153D02*
X0097617Y0126153D01*
X0097617Y0125495D02*
X0097617Y0125495D01*
X0097617Y0124554D02*
X0097617Y0124554D01*
X0097617Y0122956D02*
X0097617Y0122956D01*
X0097617Y0121357D02*
X0097617Y0121357D01*
X0096274Y0119759D02*
X0106395Y0119759D01*
X0103318Y0118160D02*
X0097872Y0118160D01*
X0092317Y0119759D02*
X0084295Y0119759D01*
X0084295Y0118160D02*
X0090718Y0118160D01*
X0095695Y0108451D02*
X0095695Y0099937D01*
X0095695Y0098529D01*
X0093569Y0096403D01*
X0093569Y0092281D01*
X0094528Y0092281D01*
X0094528Y0096751D01*
X0096845Y0096751D01*
X0097303Y0096629D01*
X0097713Y0096392D01*
X0098048Y0096056D01*
X0098209Y0095777D01*
X0098784Y0096351D01*
X0100695Y0096351D01*
X0100695Y0096937D01*
X0101640Y0097882D01*
X0096618Y0097882D01*
X0095798Y0098702D01*
X0095798Y0106161D01*
X0096618Y0106981D01*
X0098295Y0106981D01*
X0098295Y0107724D01*
X0096422Y0107724D01*
X0095695Y0108451D01*
X0095695Y0106971D02*
X0096608Y0106971D01*
X0095798Y0105372D02*
X0095695Y0105372D01*
X0095695Y0103774D02*
X0095798Y0103774D01*
X0095798Y0102175D02*
X0095695Y0102175D01*
X0095695Y0100577D02*
X0095798Y0100577D01*
X0095798Y0098978D02*
X0095695Y0098978D01*
X0094546Y0097379D02*
X0101137Y0097379D01*
X0098214Y0095781D02*
X0098207Y0095781D01*
X0097964Y0092281D02*
X0094528Y0092281D01*
X0094528Y0091322D01*
X0097964Y0091322D01*
X0097964Y0092281D01*
X0094528Y0092584D02*
X0093569Y0092584D01*
X0093569Y0094182D02*
X0094528Y0094182D01*
X0094528Y0095781D02*
X0093569Y0095781D01*
X0103497Y0106380D02*
X0102896Y0106981D01*
X0101695Y0106981D01*
X0101695Y0107724D01*
X0102699Y0107724D01*
X0103274Y0108299D01*
X0103435Y0108019D01*
X0103770Y0107684D01*
X0104181Y0107447D01*
X0104638Y0107324D01*
X0106955Y0107324D01*
X0106955Y0111794D01*
X0107914Y0111794D01*
X0107914Y0107324D01*
X0110231Y0107324D01*
X0110688Y0107447D01*
X0110895Y0107566D01*
X0110895Y0106463D01*
X0110377Y0106981D01*
X0104099Y0106981D01*
X0103497Y0106380D01*
X0102907Y0106971D02*
X0104088Y0106971D01*
X0106955Y0108569D02*
X0107914Y0108569D01*
X0107914Y0110168D02*
X0106955Y0110168D01*
X0106955Y0111766D02*
X0107914Y0111766D01*
X0110387Y0106971D02*
X0110895Y0106971D01*
X0120646Y0102803D02*
X0120646Y0098523D01*
X0123146Y0098523D01*
X0123146Y0095086D01*
X0123219Y0095086D01*
X0123219Y0098523D01*
X0125720Y0098523D01*
X0125720Y0102803D01*
X0120646Y0102803D01*
X0120646Y0102175D02*
X0125720Y0102175D01*
X0125720Y0100577D02*
X0120646Y0100577D01*
X0120646Y0098978D02*
X0125720Y0098978D01*
X0123219Y0097379D02*
X0123146Y0097379D01*
X0123146Y0095781D02*
X0123219Y0095781D01*
X0123219Y0094182D02*
X0123146Y0094182D01*
X0123146Y0092584D02*
X0123219Y0092584D01*
X0119649Y0090985D02*
X0135644Y0090985D01*
X0135771Y0089387D02*
X0119995Y0089387D01*
X0119227Y0087788D02*
X0145546Y0087788D01*
X0146991Y0089387D02*
X0147145Y0089387D01*
X0147118Y0090985D02*
X0148743Y0090985D01*
X0150342Y0092584D02*
X0141831Y0092584D01*
X0140931Y0092584D02*
X0129134Y0092584D01*
X0129313Y0094182D02*
X0135644Y0094182D01*
X0135766Y0095781D02*
X0135184Y0095781D01*
X0133228Y0095781D02*
X0129313Y0095781D01*
X0126842Y0086190D02*
X0143948Y0086190D01*
X0142349Y0084591D02*
X0128441Y0084591D01*
X0129295Y0082993D02*
X0140751Y0082993D01*
X0139152Y0081394D02*
X0129295Y0081394D01*
X0129295Y0079796D02*
X0137554Y0079796D01*
X0135955Y0078197D02*
X0129295Y0078197D01*
X0129295Y0076599D02*
X0134357Y0076599D01*
X0132758Y0075000D02*
X0129295Y0075000D01*
X0129295Y0073402D02*
X0131160Y0073402D01*
X0129561Y0071803D02*
X0129295Y0071803D01*
X0125895Y0071803D02*
X0125370Y0071803D01*
X0125370Y0071340D02*
X0125370Y0077618D01*
X0124796Y0078192D01*
X0125075Y0078353D01*
X0125410Y0078688D01*
X0125647Y0079099D01*
X0125770Y0079557D01*
X0125770Y0081873D01*
X0121300Y0081873D01*
X0121300Y0082832D01*
X0125392Y0082832D01*
X0125895Y0082329D01*
X0125895Y0066594D01*
X0125190Y0066594D01*
X0125112Y0066573D01*
X0125034Y0066594D01*
X0124265Y0066594D01*
X0123497Y0066594D01*
X0123419Y0066573D01*
X0123341Y0066594D01*
X0122695Y0066594D01*
X0122695Y0070520D01*
X0124550Y0070520D01*
X0125370Y0071340D01*
X0125895Y0070205D02*
X0122695Y0070205D01*
X0122695Y0068606D02*
X0125895Y0068606D01*
X0125895Y0067008D02*
X0122695Y0067008D01*
X0124265Y0066594D02*
X0124265Y0066178D01*
X0124265Y0066178D01*
X0124265Y0066178D01*
X0124265Y0066594D01*
X0124265Y0063317D02*
X0122811Y0063317D01*
X0122811Y0063317D01*
X0124265Y0063317D01*
X0124265Y0063317D01*
X0124265Y0063317D01*
X0125958Y0063317D01*
X0125958Y0063317D01*
X0124904Y0063317D01*
X0124265Y0063317D01*
X0126391Y0060041D02*
X0126391Y0060041D01*
X0126391Y0058790D01*
X0126391Y0058790D01*
X0126391Y0060041D01*
X0126391Y0059015D02*
X0126391Y0059015D01*
X0126391Y0058790D02*
X0126391Y0058151D01*
X0126391Y0057735D01*
X0126391Y0057097D01*
X0126391Y0058790D01*
X0126391Y0058790D01*
X0126391Y0057417D02*
X0126391Y0057417D01*
X0126391Y0057097D02*
X0126391Y0057097D01*
X0126391Y0057097D01*
X0126391Y0055446D01*
X0126391Y0055446D01*
X0126391Y0057097D01*
X0126391Y0055818D02*
X0126391Y0055818D01*
X0125277Y0045784D02*
X0123593Y0045784D01*
X0123593Y0045709D01*
X0119713Y0045709D01*
X0119713Y0044750D01*
X0121398Y0044750D01*
X0121398Y0044825D01*
X0125277Y0044825D01*
X0125277Y0045784D01*
X0111755Y0052621D02*
X0107660Y0052621D01*
X0107660Y0051023D02*
X0110157Y0051023D01*
X0107866Y0049424D02*
X0107375Y0049424D01*
X0107401Y0047826D02*
X0106713Y0047826D01*
X0107401Y0046227D02*
X0105434Y0046227D01*
X0107401Y0044629D02*
X0103153Y0044629D01*
X0107401Y0043030D02*
X0086758Y0043030D01*
X0087764Y0044629D02*
X0096756Y0044629D01*
X0107228Y0054220D02*
X0110307Y0054220D01*
X0108709Y0055818D02*
X0106566Y0055818D01*
X0107110Y0057417D02*
X0105079Y0057417D01*
X0098895Y0065409D02*
X0097811Y0065409D01*
X0097811Y0067008D02*
X0098895Y0067008D01*
X0098895Y0068606D02*
X0098151Y0068606D01*
X0076115Y0060614D02*
X0074995Y0060614D01*
X0074995Y0062212D02*
X0075710Y0062212D01*
X0120341Y0079796D02*
X0121300Y0079796D01*
X0121300Y0081394D02*
X0120341Y0081394D01*
X0124805Y0078197D02*
X0125895Y0078197D01*
X0125895Y0076599D02*
X0125370Y0076599D01*
X0125370Y0075000D02*
X0125895Y0075000D01*
X0125895Y0073402D02*
X0125370Y0073402D01*
X0125770Y0079796D02*
X0125895Y0079796D01*
X0125895Y0081394D02*
X0125770Y0081394D01*
X0140931Y0089387D02*
X0141831Y0089387D01*
X0141831Y0090985D02*
X0140931Y0090985D01*
X0147118Y0094182D02*
X0151695Y0094182D01*
X0151695Y0095781D02*
X0146996Y0095781D01*
X0146715Y0097379D02*
X0151695Y0097379D01*
X0151695Y0098978D02*
X0146718Y0098978D01*
X0146718Y0100577D02*
X0151695Y0100577D01*
X0151695Y0102175D02*
X0146718Y0102175D01*
X0146488Y0103774D02*
X0151695Y0103774D01*
X0151695Y0105372D02*
X0128913Y0105372D01*
X0128913Y0106971D02*
X0151695Y0106971D01*
X0151695Y0108569D02*
X0128474Y0108569D01*
X0151495Y0124554D02*
X0152912Y0124554D01*
X0151495Y0126153D02*
X0154511Y0126153D01*
X0156109Y0127751D02*
X0151495Y0127751D01*
X0151495Y0129350D02*
X0157708Y0129350D01*
X0159306Y0130948D02*
X0150484Y0130948D01*
X0148886Y0132547D02*
X0160905Y0132547D01*
X0162503Y0134145D02*
X0147287Y0134145D01*
X0157720Y0124554D02*
X0197895Y0124554D01*
X0197895Y0122956D02*
X0156122Y0122956D01*
X0154523Y0121357D02*
X0197895Y0121357D01*
X0197895Y0119759D02*
X0155309Y0119759D01*
X0155395Y0119550D02*
X0154999Y0120506D01*
X0154336Y0121169D01*
X0166734Y0133567D01*
X0166395Y0132750D01*
X0166395Y0131716D01*
X0166791Y0130760D01*
X0167522Y0130029D01*
X0168478Y0129633D01*
X0169512Y0129633D01*
X0170468Y0130029D01*
X0170972Y0130533D01*
X0197895Y0130533D01*
X0197895Y0104137D01*
X0146710Y0052953D01*
X0146710Y0055925D01*
X0145890Y0056745D01*
X0139487Y0056745D01*
X0139039Y0057193D01*
X0145898Y0057193D01*
X0146718Y0058013D01*
X0146718Y0063752D01*
X0156295Y0073329D01*
X0156295Y0116137D01*
X0155299Y0117133D01*
X0154936Y0117497D01*
X0154999Y0117560D01*
X0155395Y0118516D01*
X0155395Y0119550D01*
X0155248Y0118160D02*
X0197895Y0118160D01*
X0197895Y0116562D02*
X0155871Y0116562D01*
X0156295Y0114963D02*
X0197895Y0114963D01*
X0197895Y0113365D02*
X0156295Y0113365D01*
X0156295Y0111766D02*
X0197895Y0111766D01*
X0197895Y0110168D02*
X0156295Y0110168D01*
X0156295Y0108569D02*
X0197895Y0108569D01*
X0197895Y0106971D02*
X0156295Y0106971D01*
X0156295Y0105372D02*
X0197895Y0105372D01*
X0197531Y0103774D02*
X0156295Y0103774D01*
X0156295Y0102175D02*
X0195933Y0102175D01*
X0194334Y0100577D02*
X0156295Y0100577D01*
X0156295Y0098978D02*
X0192736Y0098978D01*
X0191137Y0097379D02*
X0156295Y0097379D01*
X0156295Y0095781D02*
X0189539Y0095781D01*
X0187940Y0094182D02*
X0156295Y0094182D01*
X0156295Y0092584D02*
X0186342Y0092584D01*
X0184743Y0090985D02*
X0156295Y0090985D01*
X0156295Y0089387D02*
X0183145Y0089387D01*
X0181546Y0087788D02*
X0156295Y0087788D01*
X0156295Y0086190D02*
X0179948Y0086190D01*
X0178349Y0084591D02*
X0156295Y0084591D01*
X0156295Y0082993D02*
X0176751Y0082993D01*
X0175152Y0081394D02*
X0156295Y0081394D01*
X0156295Y0079796D02*
X0173554Y0079796D01*
X0171955Y0078197D02*
X0156295Y0078197D01*
X0156295Y0076599D02*
X0170357Y0076599D01*
X0168758Y0075000D02*
X0156295Y0075000D01*
X0156295Y0073402D02*
X0167160Y0073402D01*
X0165561Y0071803D02*
X0154770Y0071803D01*
X0153171Y0070205D02*
X0163963Y0070205D01*
X0162364Y0068606D02*
X0151572Y0068606D01*
X0149974Y0067008D02*
X0160766Y0067008D01*
X0159167Y0065409D02*
X0148375Y0065409D01*
X0146777Y0063811D02*
X0157569Y0063811D01*
X0155970Y0062212D02*
X0146718Y0062212D01*
X0146718Y0060614D02*
X0154372Y0060614D01*
X0152773Y0059015D02*
X0146718Y0059015D01*
X0146122Y0057417D02*
X0151175Y0057417D01*
X0149576Y0055818D02*
X0146710Y0055818D01*
X0146710Y0054220D02*
X0147978Y0054220D01*
X0151187Y0052621D02*
X0199066Y0052621D01*
X0199066Y0051023D02*
X0149589Y0051023D01*
X0148495Y0049929D02*
X0199479Y0100913D01*
X0203953Y0100913D01*
X0203953Y0104763D01*
X0201295Y0104763D01*
X0201295Y0159056D01*
X0201799Y0159560D01*
X0202195Y0160516D01*
X0202195Y0161550D01*
X0201799Y0162506D01*
X0201068Y0163237D01*
X0200112Y0163633D01*
X0199078Y0163633D01*
X0198122Y0163237D01*
X0197391Y0162506D01*
X0196995Y0161550D01*
X0196995Y0160516D01*
X0197391Y0159560D01*
X0197895Y0159056D01*
X0197895Y0133933D01*
X0170972Y0133933D01*
X0170468Y0134437D01*
X0169512Y0134833D01*
X0168478Y0134833D01*
X0167661Y0134495D01*
X0186295Y0153129D01*
X0186295Y0154537D01*
X0186295Y0162678D01*
X0187132Y0163024D01*
X0188369Y0164262D01*
X0189039Y0165879D01*
X0189039Y0173630D01*
X0188460Y0175028D01*
X0190411Y0175028D01*
X0190191Y0174597D01*
X0189957Y0173878D01*
X0189839Y0173132D01*
X0189839Y0169954D01*
X0194439Y0169954D01*
X0194439Y0169554D01*
X0194839Y0169554D01*
X0194839Y0161954D01*
X0195017Y0161954D01*
X0195763Y0162073D01*
X0196482Y0162306D01*
X0197155Y0162649D01*
X0197766Y0163093D01*
X0198300Y0163627D01*
X0198745Y0164239D01*
X0199088Y0164912D01*
X0199321Y0165630D01*
X0199439Y0166377D01*
X0199439Y0169554D01*
X0194839Y0169554D01*
X0194839Y0169954D01*
X0199439Y0169954D01*
X0199439Y0173132D01*
X0199321Y0173878D01*
X0199088Y0174597D01*
X0198868Y0175028D01*
X0200819Y0175028D01*
X0200239Y0173630D01*
X0200239Y0165879D01*
X0200909Y0164262D01*
X0202147Y0163024D01*
X0203764Y0162354D01*
X0205514Y0162354D01*
X0207132Y0163024D01*
X0207590Y0163483D01*
X0207590Y0104763D01*
X0204853Y0104763D01*
X0204853Y0100913D01*
X0203953Y0100913D01*
X0203953Y0100013D01*
X0198666Y0100013D01*
X0198666Y0097726D01*
X0198789Y0097268D01*
X0199026Y0096858D01*
X0199361Y0096523D01*
X0199771Y0096286D01*
X0199946Y0096239D01*
X0199864Y0096239D01*
X0199044Y0095419D01*
X0199044Y0089259D01*
X0199864Y0088439D01*
X0207590Y0088439D01*
X0207590Y0088241D01*
X0199857Y0088241D01*
X0199036Y0087421D01*
X0199036Y0083233D01*
X0198478Y0083233D01*
X0197522Y0082837D01*
X0196791Y0082106D01*
X0196395Y0081150D01*
X0196395Y0080116D01*
X0196791Y0079160D01*
X0197522Y0078429D01*
X0198478Y0078033D01*
X0199036Y0078033D01*
X0199036Y0075433D01*
X0198478Y0075433D01*
X0197522Y0075037D01*
X0196791Y0074306D01*
X0196395Y0073350D01*
X0196395Y0072316D01*
X0196791Y0071360D01*
X0197522Y0070629D01*
X0198478Y0070233D01*
X0199066Y0070233D01*
X0199066Y0067633D01*
X0198478Y0067633D01*
X0197522Y0067237D01*
X0196791Y0066506D01*
X0196395Y0065550D01*
X0196395Y0064516D01*
X0196791Y0063560D01*
X0197522Y0062829D01*
X0198478Y0062433D01*
X0199044Y0062433D01*
X0199044Y0059833D01*
X0198478Y0059833D01*
X0197522Y0059437D01*
X0196791Y0058706D01*
X0196395Y0057750D01*
X0196395Y0056716D01*
X0196791Y0055760D01*
X0197522Y0055029D01*
X0198478Y0054633D01*
X0199066Y0054633D01*
X0199066Y0050139D01*
X0199704Y0049501D01*
X0199331Y0049285D01*
X0198996Y0048950D01*
X0198759Y0048540D01*
X0198636Y0048082D01*
X0198636Y0045795D01*
X0203923Y0045795D01*
X0203923Y0044895D01*
X0198636Y0044895D01*
X0198636Y0042608D01*
X0198683Y0042433D01*
X0146710Y0042433D01*
X0146710Y0047733D01*
X0146899Y0047733D01*
X0147895Y0048729D01*
X0148495Y0049329D01*
X0148495Y0049929D01*
X0148495Y0049424D02*
X0199572Y0049424D01*
X0198636Y0047826D02*
X0146992Y0047826D01*
X0146710Y0046227D02*
X0198636Y0046227D01*
X0198636Y0044629D02*
X0146710Y0044629D01*
X0146710Y0043030D02*
X0198636Y0043030D01*
X0199066Y0054220D02*
X0152786Y0054220D01*
X0154384Y0055818D02*
X0196767Y0055818D01*
X0196395Y0057417D02*
X0155983Y0057417D01*
X0157581Y0059015D02*
X0197100Y0059015D01*
X0199044Y0060614D02*
X0159180Y0060614D01*
X0160778Y0062212D02*
X0199044Y0062212D01*
X0196687Y0063811D02*
X0162377Y0063811D01*
X0163975Y0065409D02*
X0196395Y0065409D01*
X0197293Y0067008D02*
X0165574Y0067008D01*
X0167172Y0068606D02*
X0199066Y0068606D01*
X0199066Y0070205D02*
X0168771Y0070205D01*
X0170370Y0071803D02*
X0196607Y0071803D01*
X0196417Y0073402D02*
X0171968Y0073402D01*
X0173567Y0075000D02*
X0197485Y0075000D01*
X0199036Y0076599D02*
X0175165Y0076599D01*
X0176764Y0078197D02*
X0198081Y0078197D01*
X0196528Y0079796D02*
X0178362Y0079796D01*
X0179961Y0081394D02*
X0196496Y0081394D01*
X0197898Y0082993D02*
X0181559Y0082993D01*
X0183158Y0084591D02*
X0199036Y0084591D01*
X0199036Y0086190D02*
X0184756Y0086190D01*
X0186355Y0087788D02*
X0199404Y0087788D01*
X0199044Y0089387D02*
X0187953Y0089387D01*
X0189552Y0090985D02*
X0199044Y0090985D01*
X0199044Y0092584D02*
X0191150Y0092584D01*
X0192749Y0094182D02*
X0199044Y0094182D01*
X0199406Y0095781D02*
X0194347Y0095781D01*
X0195946Y0097379D02*
X0198759Y0097379D01*
X0198666Y0098978D02*
X0197544Y0098978D01*
X0199143Y0100577D02*
X0203953Y0100577D01*
X0203953Y0102175D02*
X0204853Y0102175D01*
X0204853Y0103774D02*
X0203953Y0103774D01*
X0201295Y0105372D02*
X0207590Y0105372D01*
X0207590Y0106971D02*
X0201295Y0106971D01*
X0201295Y0108569D02*
X0207590Y0108569D01*
X0207590Y0110168D02*
X0201295Y0110168D01*
X0201295Y0111766D02*
X0207590Y0111766D01*
X0207590Y0113365D02*
X0201295Y0113365D01*
X0201295Y0114963D02*
X0207590Y0114963D01*
X0207590Y0116562D02*
X0201295Y0116562D01*
X0201295Y0118160D02*
X0207590Y0118160D01*
X0207590Y0119759D02*
X0201295Y0119759D01*
X0201295Y0121357D02*
X0207590Y0121357D01*
X0207590Y0122956D02*
X0201295Y0122956D01*
X0201295Y0124554D02*
X0207590Y0124554D01*
X0207590Y0126153D02*
X0201295Y0126153D01*
X0201295Y0127751D02*
X0207590Y0127751D01*
X0207590Y0129350D02*
X0201295Y0129350D01*
X0201295Y0130948D02*
X0207590Y0130948D01*
X0207590Y0132547D02*
X0201295Y0132547D01*
X0201295Y0134145D02*
X0207590Y0134145D01*
X0207590Y0135744D02*
X0201295Y0135744D01*
X0201295Y0137342D02*
X0207590Y0137342D01*
X0207590Y0138941D02*
X0201295Y0138941D01*
X0201295Y0140539D02*
X0207590Y0140539D01*
X0207590Y0142138D02*
X0201295Y0142138D01*
X0201295Y0143736D02*
X0207590Y0143736D01*
X0207590Y0145335D02*
X0201295Y0145335D01*
X0201295Y0146933D02*
X0207590Y0146933D01*
X0207590Y0148532D02*
X0201295Y0148532D01*
X0201295Y0150130D02*
X0207590Y0150130D01*
X0207590Y0151729D02*
X0201295Y0151729D01*
X0201295Y0153327D02*
X0207590Y0153327D01*
X0207590Y0154926D02*
X0201295Y0154926D01*
X0201295Y0156524D02*
X0207590Y0156524D01*
X0207590Y0158123D02*
X0201295Y0158123D01*
X0201866Y0159721D02*
X0207590Y0159721D01*
X0207590Y0161320D02*
X0202195Y0161320D01*
X0202402Y0162918D02*
X0201387Y0162918D01*
X0200803Y0164517D02*
X0198886Y0164517D01*
X0199398Y0166115D02*
X0200239Y0166115D01*
X0200239Y0167714D02*
X0199439Y0167714D01*
X0199439Y0169312D02*
X0200239Y0169312D01*
X0200239Y0170911D02*
X0199439Y0170911D01*
X0199439Y0172510D02*
X0200239Y0172510D01*
X0200437Y0174108D02*
X0199246Y0174108D01*
X0194839Y0169312D02*
X0194439Y0169312D01*
X0194439Y0169554D02*
X0194439Y0161954D01*
X0194261Y0161954D01*
X0193515Y0162073D01*
X0192797Y0162306D01*
X0192123Y0162649D01*
X0191512Y0163093D01*
X0190978Y0163627D01*
X0190534Y0164239D01*
X0190191Y0164912D01*
X0189957Y0165630D01*
X0189839Y0166377D01*
X0189839Y0169554D01*
X0194439Y0169554D01*
X0194439Y0167714D02*
X0194839Y0167714D01*
X0194839Y0166115D02*
X0194439Y0166115D01*
X0194439Y0164517D02*
X0194839Y0164517D01*
X0194839Y0162918D02*
X0194439Y0162918D01*
X0191753Y0162918D02*
X0186876Y0162918D01*
X0186295Y0161320D02*
X0196995Y0161320D01*
X0197324Y0159721D02*
X0186295Y0159721D01*
X0186295Y0158123D02*
X0197895Y0158123D01*
X0197895Y0156524D02*
X0186295Y0156524D01*
X0186295Y0154926D02*
X0197895Y0154926D01*
X0197895Y0153327D02*
X0186295Y0153327D01*
X0184895Y0151729D02*
X0197895Y0151729D01*
X0197895Y0150130D02*
X0183297Y0150130D01*
X0181698Y0148532D02*
X0197895Y0148532D01*
X0197895Y0146933D02*
X0180100Y0146933D01*
X0178501Y0145335D02*
X0197895Y0145335D01*
X0197895Y0143736D02*
X0176903Y0143736D01*
X0175304Y0142138D02*
X0197895Y0142138D01*
X0197895Y0140539D02*
X0173705Y0140539D01*
X0172107Y0138941D02*
X0197895Y0138941D01*
X0197895Y0137342D02*
X0170508Y0137342D01*
X0168910Y0135744D02*
X0197895Y0135744D01*
X0197895Y0134145D02*
X0170760Y0134145D01*
X0166395Y0132547D02*
X0165713Y0132547D01*
X0166713Y0130948D02*
X0164114Y0130948D01*
X0162516Y0129350D02*
X0197895Y0129350D01*
X0197895Y0127751D02*
X0160917Y0127751D01*
X0159319Y0126153D02*
X0197895Y0126153D01*
X0175291Y0146933D02*
X0166495Y0146933D01*
X0166495Y0145335D02*
X0173693Y0145335D01*
X0172094Y0143736D02*
X0166495Y0143736D01*
X0166495Y0142138D02*
X0170496Y0142138D01*
X0168897Y0140539D02*
X0165306Y0140539D01*
X0163707Y0138941D02*
X0167299Y0138941D01*
X0166495Y0148532D02*
X0176890Y0148532D01*
X0178488Y0150130D02*
X0166495Y0150130D01*
X0166495Y0151729D02*
X0180087Y0151729D01*
X0181685Y0153327D02*
X0166495Y0153327D01*
X0166495Y0154926D02*
X0182895Y0154926D01*
X0182895Y0156524D02*
X0166495Y0156524D01*
X0166495Y0158123D02*
X0182895Y0158123D01*
X0182895Y0159721D02*
X0166495Y0159721D01*
X0166495Y0161320D02*
X0182895Y0161320D01*
X0182402Y0162918D02*
X0176876Y0162918D01*
X0178475Y0164517D02*
X0180803Y0164517D01*
X0180239Y0166115D02*
X0179039Y0166115D01*
X0179039Y0167714D02*
X0180239Y0167714D01*
X0180239Y0169312D02*
X0179039Y0169312D01*
X0179039Y0170911D02*
X0180239Y0170911D01*
X0180239Y0172510D02*
X0179039Y0172510D01*
X0178841Y0174108D02*
X0180437Y0174108D01*
X0170437Y0174108D02*
X0168841Y0174108D01*
X0169039Y0172510D02*
X0170239Y0172510D01*
X0170239Y0170911D02*
X0169039Y0170911D01*
X0169039Y0169312D02*
X0170239Y0169312D01*
X0170239Y0167714D02*
X0169039Y0167714D01*
X0169039Y0166115D02*
X0170239Y0166115D01*
X0170803Y0164517D02*
X0168475Y0164517D01*
X0166876Y0162918D02*
X0172402Y0162918D01*
X0188475Y0164517D02*
X0190392Y0164517D01*
X0189881Y0166115D02*
X0189039Y0166115D01*
X0189039Y0167714D02*
X0189839Y0167714D01*
X0189839Y0169312D02*
X0189039Y0169312D01*
X0189039Y0170911D02*
X0189839Y0170911D01*
X0189839Y0172510D02*
X0189039Y0172510D01*
X0188841Y0174108D02*
X0190032Y0174108D01*
X0197526Y0162918D02*
X0197804Y0162918D01*
X0206876Y0162918D02*
X0207590Y0162918D01*
D29*
X0141381Y0100463D02*
X0129186Y0100463D01*
D30*
X0134206Y0100463D02*
X0141381Y0100463D01*
M02*
