G75*
%MOIN*%
%OFA0B0*%
%FSLAX25Y25*%
%IPPOS*%
%LPD*%
%AMOC8*
5,1,8,0,0,1.08239X$1,22.5*
%
%ADD10C,0.01600*%
%ADD11C,0.01400*%
%ADD12C,0.00600*%
%ADD13C,0.00400*%
%ADD14C,0.00000*%
%ADD15C,0.00800*%
%ADD16C,0.00300*%
%ADD17R,0.01181X0.00591*%
%ADD18R,0.01181X0.01181*%
%ADD19C,0.00500*%
%ADD20C,0.01100*%
%ADD21C,0.00700*%
%ADD22C,0.01300*%
%ADD23C,0.01575*%
D10*
X0072395Y0039833D02*
X0210190Y0039833D01*
X0210190Y0177628D01*
X0072395Y0177628D01*
X0072395Y0039833D01*
D11*
X0139333Y0121242D02*
X0138056Y0122519D01*
X0139333Y0121242D02*
X0141887Y0121242D01*
X0143164Y0122519D01*
X0143164Y0123796D01*
X0141887Y0125073D01*
X0139333Y0125073D01*
X0138056Y0126350D01*
X0138056Y0127626D01*
X0139333Y0128903D01*
X0141887Y0128903D01*
X0143164Y0127626D01*
X0147671Y0126350D02*
X0150224Y0126350D01*
X0151501Y0125073D01*
X0151501Y0121242D01*
X0147671Y0121242D01*
X0146394Y0122519D01*
X0147671Y0123796D01*
X0151501Y0123796D01*
X0154731Y0126350D02*
X0157285Y0126350D01*
X0156008Y0127626D02*
X0156008Y0122519D01*
X0157285Y0121242D01*
X0160290Y0122519D02*
X0160290Y0125073D01*
X0161567Y0126350D01*
X0164121Y0126350D01*
X0165398Y0125073D01*
X0165398Y0123796D01*
X0160290Y0123796D01*
X0160290Y0122519D02*
X0161567Y0121242D01*
X0164121Y0121242D01*
X0168628Y0121242D02*
X0171182Y0121242D01*
X0169905Y0121242D02*
X0169905Y0128903D01*
X0168628Y0128903D01*
X0174186Y0128903D02*
X0175463Y0128903D01*
X0175463Y0121242D01*
X0174186Y0121242D02*
X0176740Y0121242D01*
X0179745Y0121242D02*
X0182299Y0121242D01*
X0181022Y0121242D02*
X0181022Y0126350D01*
X0179745Y0126350D01*
X0181022Y0128903D02*
X0181022Y0130180D01*
X0185303Y0126350D02*
X0187857Y0126350D01*
X0186580Y0127626D02*
X0186580Y0122519D01*
X0187857Y0121242D01*
X0190862Y0122519D02*
X0190862Y0125073D01*
X0192139Y0126350D01*
X0194693Y0126350D01*
X0195970Y0125073D01*
X0195970Y0123796D01*
X0190862Y0123796D01*
X0190862Y0122519D02*
X0192139Y0121242D01*
X0194693Y0121242D01*
X0190637Y0134824D02*
X0189360Y0136101D01*
X0189360Y0141209D01*
X0188083Y0139932D02*
X0190637Y0139932D01*
X0193641Y0138655D02*
X0198749Y0138655D01*
X0201979Y0139932D02*
X0204533Y0142486D01*
X0204533Y0134824D01*
X0201979Y0134824D02*
X0207087Y0134824D01*
X0184853Y0134824D02*
X0181022Y0134824D01*
X0179745Y0136101D01*
X0181022Y0137378D01*
X0184853Y0137378D01*
X0184853Y0138655D02*
X0184853Y0134824D01*
X0184853Y0138655D02*
X0183576Y0139932D01*
X0181022Y0139932D01*
X0176515Y0141209D02*
X0175238Y0142486D01*
X0172684Y0142486D01*
X0171407Y0141209D01*
X0171407Y0139932D01*
X0172684Y0138655D01*
X0175238Y0138655D01*
X0176515Y0137378D01*
X0176515Y0136101D01*
X0175238Y0134824D01*
X0172684Y0134824D01*
X0171407Y0136101D01*
X0168177Y0134824D02*
X0168177Y0138655D01*
X0166900Y0139932D01*
X0164346Y0139932D01*
X0164346Y0137378D02*
X0168177Y0137378D01*
X0168177Y0134824D02*
X0164346Y0134824D01*
X0163069Y0136101D01*
X0164346Y0137378D01*
X0159839Y0136101D02*
X0159839Y0138655D01*
X0158562Y0139932D01*
X0154731Y0139932D01*
X0154731Y0142486D02*
X0154731Y0134824D01*
X0158562Y0134824D01*
X0159839Y0136101D01*
X0151501Y0134824D02*
X0151501Y0138655D01*
X0150224Y0139932D01*
X0148947Y0138655D01*
X0148947Y0134824D01*
X0146394Y0134824D02*
X0146394Y0139932D01*
X0147671Y0139932D01*
X0148947Y0138655D01*
X0143164Y0138655D02*
X0138056Y0138655D01*
X0138056Y0139932D02*
X0138056Y0134824D01*
X0143164Y0134824D02*
X0143164Y0139932D01*
X0140610Y0142486D01*
X0138056Y0139932D01*
X0195121Y0100356D02*
X0197857Y0100356D01*
D12*
X0210190Y0113061D02*
X0210190Y0177628D01*
X0140505Y0177628D01*
X0142139Y0174754D02*
X0147139Y0174754D01*
X0149639Y0172254D01*
X0152139Y0174754D01*
X0157139Y0174754D01*
X0159639Y0172254D01*
X0162139Y0174754D01*
X0167139Y0174754D01*
X0169639Y0172254D01*
X0172139Y0174754D01*
X0177139Y0174754D01*
X0179639Y0172254D01*
X0182139Y0174754D01*
X0187139Y0174754D01*
X0189639Y0172254D01*
X0192139Y0174754D01*
X0197139Y0174754D01*
X0199639Y0172254D01*
X0202139Y0174754D01*
X0207139Y0174754D01*
X0209639Y0172254D01*
X0209639Y0167254D01*
X0207139Y0164754D01*
X0202139Y0164754D01*
X0199639Y0167254D01*
X0197139Y0164754D01*
X0192139Y0164754D01*
X0189639Y0167254D01*
X0189639Y0172254D01*
X0189639Y0167254D02*
X0187139Y0164754D01*
X0182139Y0164754D01*
X0179639Y0167254D01*
X0177139Y0164754D01*
X0172139Y0164754D01*
X0169639Y0167254D01*
X0167139Y0164754D01*
X0162139Y0164754D01*
X0159639Y0167254D01*
X0159639Y0172254D01*
X0159639Y0167254D02*
X0157139Y0164754D01*
X0152139Y0164754D01*
X0149639Y0167254D01*
X0147139Y0164754D01*
X0142139Y0164754D01*
X0139639Y0167254D01*
X0137139Y0164754D01*
X0132139Y0164754D01*
X0129639Y0167254D01*
X0129639Y0172254D01*
X0132139Y0174754D01*
X0137139Y0174754D01*
X0139639Y0172254D01*
X0142139Y0174754D01*
X0139639Y0172254D02*
X0139639Y0167254D01*
X0136177Y0162606D02*
X0134876Y0161305D01*
X0135310Y0160872D02*
X0133575Y0162606D01*
X0133575Y0160872D02*
X0136177Y0160872D01*
X0135743Y0159660D02*
X0136177Y0159226D01*
X0136177Y0158359D01*
X0135743Y0157925D01*
X0134009Y0157925D01*
X0133575Y0158359D01*
X0133575Y0159226D01*
X0134009Y0159660D01*
X0134009Y0156713D02*
X0133575Y0156280D01*
X0133575Y0155412D01*
X0134009Y0154979D01*
X0134442Y0154979D01*
X0134876Y0155412D01*
X0134876Y0156280D01*
X0135310Y0156713D01*
X0135743Y0156713D01*
X0136177Y0156280D01*
X0136177Y0155412D01*
X0135743Y0154979D01*
X0143181Y0154749D02*
X0145783Y0154749D01*
X0145783Y0155961D02*
X0145783Y0156828D01*
X0145783Y0156394D02*
X0143181Y0156394D01*
X0143181Y0155961D02*
X0143181Y0156828D01*
X0143615Y0157925D02*
X0144049Y0157925D01*
X0144482Y0158359D01*
X0144482Y0159226D01*
X0144916Y0159660D01*
X0145350Y0159660D01*
X0145783Y0159226D01*
X0145783Y0158359D01*
X0145350Y0157925D01*
X0143615Y0157925D02*
X0143181Y0158359D01*
X0143181Y0159226D01*
X0143615Y0159660D01*
X0143615Y0160872D02*
X0145350Y0160872D01*
X0145783Y0161305D01*
X0145783Y0162173D01*
X0145350Y0162606D01*
X0143615Y0162606D01*
X0143181Y0162173D01*
X0143181Y0161305D01*
X0143615Y0160872D01*
X0143181Y0154749D02*
X0144049Y0153882D01*
X0143181Y0153014D01*
X0145783Y0153014D01*
X0153181Y0153014D02*
X0154049Y0153882D01*
X0153181Y0154749D01*
X0155783Y0154749D01*
X0155350Y0155961D02*
X0155783Y0156394D01*
X0155783Y0157262D01*
X0155350Y0157696D01*
X0153615Y0157696D01*
X0153181Y0157262D01*
X0153181Y0156394D01*
X0153615Y0155961D01*
X0155350Y0155961D01*
X0155783Y0153014D02*
X0153181Y0153014D01*
X0153615Y0158907D02*
X0154049Y0158907D01*
X0154482Y0159341D01*
X0154482Y0160208D01*
X0154916Y0160642D01*
X0155350Y0160642D01*
X0155783Y0160208D01*
X0155783Y0159341D01*
X0155350Y0158907D01*
X0153615Y0158907D02*
X0153181Y0159341D01*
X0153181Y0160208D01*
X0153615Y0160642D01*
X0153181Y0161854D02*
X0153181Y0162721D01*
X0153181Y0162287D02*
X0155783Y0162287D01*
X0155783Y0161854D02*
X0155783Y0162721D01*
X0149639Y0167254D02*
X0149639Y0172254D01*
X0163981Y0162003D02*
X0164415Y0162436D01*
X0164849Y0162436D01*
X0165282Y0162003D01*
X0165716Y0162436D01*
X0166150Y0162436D01*
X0166583Y0162003D01*
X0166583Y0161135D01*
X0166150Y0160702D01*
X0166150Y0159490D02*
X0164415Y0159490D01*
X0163981Y0159056D01*
X0163981Y0157755D01*
X0166583Y0157755D01*
X0166583Y0159056D01*
X0166150Y0159490D01*
X0164415Y0160702D02*
X0163981Y0161135D01*
X0163981Y0162003D01*
X0165282Y0162003D02*
X0165282Y0161569D01*
X0169639Y0167254D02*
X0169639Y0172254D01*
X0179639Y0172254D02*
X0179639Y0167254D01*
X0175796Y0162627D02*
X0174061Y0162627D01*
X0173194Y0161760D01*
X0174061Y0160892D01*
X0175796Y0160892D01*
X0175362Y0159681D02*
X0173627Y0159681D01*
X0173194Y0159247D01*
X0173194Y0157946D01*
X0175796Y0157946D01*
X0175796Y0159247D01*
X0175362Y0159681D01*
X0174495Y0160892D02*
X0174495Y0162627D01*
X0174929Y0156734D02*
X0175362Y0156734D01*
X0175796Y0156300D01*
X0175796Y0155433D01*
X0175362Y0154999D01*
X0174495Y0155433D02*
X0174495Y0156300D01*
X0174929Y0156734D01*
X0173627Y0156734D02*
X0173194Y0156300D01*
X0173194Y0155433D01*
X0173627Y0154999D01*
X0174061Y0154999D01*
X0174495Y0155433D01*
X0183194Y0155827D02*
X0183627Y0155393D01*
X0184061Y0155393D01*
X0184495Y0155827D01*
X0184495Y0156694D01*
X0184929Y0157128D01*
X0185362Y0157128D01*
X0185796Y0156694D01*
X0185796Y0155827D01*
X0185362Y0155393D01*
X0183194Y0155827D02*
X0183194Y0156694D01*
X0183627Y0157128D01*
X0183627Y0158339D02*
X0185362Y0158339D01*
X0185796Y0158773D01*
X0185796Y0159641D01*
X0185362Y0160074D01*
X0185796Y0161286D02*
X0183194Y0161286D01*
X0183627Y0160074D02*
X0183194Y0159641D01*
X0183194Y0158773D01*
X0183627Y0158339D01*
X0185796Y0161286D02*
X0185796Y0163021D01*
X0193194Y0162587D02*
X0193194Y0161286D01*
X0195796Y0161286D01*
X0195796Y0162587D01*
X0195362Y0163021D01*
X0193627Y0163021D01*
X0193194Y0162587D01*
X0193194Y0160074D02*
X0195796Y0160074D01*
X0193194Y0158339D01*
X0195796Y0158339D01*
X0195362Y0157128D02*
X0194495Y0157128D01*
X0194495Y0156260D01*
X0195362Y0155393D02*
X0195796Y0155827D01*
X0195796Y0156694D01*
X0195362Y0157128D01*
X0193627Y0157128D02*
X0193194Y0156694D01*
X0193194Y0155827D01*
X0193627Y0155393D01*
X0195362Y0155393D01*
X0203556Y0155393D02*
X0205291Y0155393D01*
X0206158Y0156260D01*
X0205291Y0157128D01*
X0203556Y0157128D01*
X0203990Y0158339D02*
X0205724Y0158339D01*
X0206158Y0158773D01*
X0206158Y0159641D01*
X0205724Y0160074D01*
X0205724Y0161286D02*
X0203990Y0161286D01*
X0203556Y0161720D01*
X0203556Y0162587D01*
X0203990Y0163021D01*
X0205724Y0163021D02*
X0206158Y0162587D01*
X0206158Y0161720D01*
X0205724Y0161286D01*
X0203990Y0160074D02*
X0203556Y0159641D01*
X0203556Y0158773D01*
X0203990Y0158339D01*
X0199639Y0167254D02*
X0199639Y0172254D01*
X0129068Y0172342D02*
X0126466Y0172342D01*
X0127334Y0171474D01*
X0127767Y0170262D02*
X0128201Y0169829D01*
X0128201Y0168528D01*
X0129068Y0168528D02*
X0126466Y0168528D01*
X0126466Y0169829D01*
X0126900Y0170262D01*
X0127767Y0170262D01*
X0129068Y0171474D02*
X0129068Y0173209D01*
X0128635Y0166882D02*
X0126466Y0166882D01*
X0126466Y0166448D02*
X0126466Y0167316D01*
X0128635Y0166882D02*
X0129068Y0166448D01*
X0129068Y0166015D01*
X0128635Y0165581D01*
X0117697Y0168768D02*
X0115095Y0168768D01*
X0115095Y0170069D01*
X0115528Y0170502D01*
X0116396Y0170502D01*
X0116829Y0170069D01*
X0116829Y0168768D01*
X0116829Y0169635D02*
X0117697Y0170502D01*
X0117697Y0171714D02*
X0117697Y0173449D01*
X0117697Y0172582D02*
X0115095Y0172582D01*
X0115962Y0171714D01*
X0107506Y0168000D02*
X0107506Y0165398D01*
X0108373Y0165398D02*
X0106638Y0165398D01*
X0105427Y0165831D02*
X0105427Y0167566D01*
X0104993Y0168000D01*
X0103692Y0168000D01*
X0103692Y0165398D01*
X0104993Y0165398D01*
X0105427Y0165831D01*
X0106638Y0167132D02*
X0107506Y0168000D01*
X0109317Y0156195D02*
X0110017Y0156195D01*
X0110017Y0155495D01*
X0108517Y0152595D02*
X0106417Y0154695D01*
X0102979Y0151660D02*
X0102112Y0152527D01*
X0101245Y0151660D01*
X0101245Y0149925D01*
X0100033Y0150359D02*
X0100033Y0151226D01*
X0099166Y0151226D01*
X0100033Y0150359D02*
X0099599Y0149925D01*
X0098732Y0149925D01*
X0098298Y0150359D01*
X0098298Y0152094D01*
X0098732Y0152527D01*
X0099599Y0152527D01*
X0100033Y0152094D01*
X0101245Y0151226D02*
X0102979Y0151226D01*
X0102979Y0151660D02*
X0102979Y0149925D01*
X0097086Y0149925D02*
X0095352Y0149925D01*
X0095352Y0152527D01*
X0097086Y0152527D01*
X0096219Y0151226D02*
X0095352Y0151226D01*
X0094140Y0152527D02*
X0094140Y0149925D01*
X0092405Y0149925D02*
X0092405Y0152527D01*
X0093273Y0151660D01*
X0094140Y0152527D01*
X0091193Y0152527D02*
X0089459Y0152527D01*
X0090326Y0152527D02*
X0090326Y0149925D01*
X0088247Y0149925D02*
X0088247Y0151660D01*
X0087379Y0152527D01*
X0086512Y0151660D01*
X0086512Y0149925D01*
X0086512Y0151226D02*
X0088247Y0151226D01*
X0087813Y0147727D02*
X0088247Y0147294D01*
X0088247Y0146860D01*
X0087813Y0146426D01*
X0088247Y0145993D01*
X0088247Y0145559D01*
X0087813Y0145125D01*
X0086946Y0145125D01*
X0086512Y0145559D01*
X0087379Y0146426D02*
X0087813Y0146426D01*
X0087813Y0147727D02*
X0086946Y0147727D01*
X0086512Y0147294D01*
X0089459Y0147294D02*
X0089892Y0147727D01*
X0090760Y0147727D01*
X0091193Y0147294D01*
X0091193Y0146860D01*
X0089459Y0145125D01*
X0091193Y0145125D01*
X0092405Y0145559D02*
X0092405Y0145993D01*
X0092839Y0146426D01*
X0093706Y0146426D01*
X0094140Y0145993D01*
X0094140Y0145559D01*
X0093706Y0145125D01*
X0092839Y0145125D01*
X0092405Y0145559D01*
X0092839Y0146426D02*
X0092405Y0146860D01*
X0092405Y0147294D01*
X0092839Y0147727D01*
X0093706Y0147727D01*
X0094140Y0147294D01*
X0094140Y0146860D01*
X0093706Y0146426D01*
X0082017Y0155495D02*
X0082017Y0156195D01*
X0082717Y0156195D01*
X0085812Y0163223D02*
X0085812Y0164324D01*
X0086545Y0165058D01*
X0086545Y0165425D01*
X0085812Y0164324D02*
X0085078Y0165058D01*
X0085078Y0165425D01*
X0087656Y0164691D02*
X0088390Y0165425D01*
X0088390Y0163223D01*
X0087656Y0163223D02*
X0089124Y0163223D01*
X0075117Y0150195D02*
X0071117Y0150195D01*
X0075117Y0150195D01*
X0071117Y0150195D01*
X0082017Y0128895D02*
X0082017Y0128195D01*
X0082717Y0128195D01*
X0081883Y0119555D02*
X0081015Y0119555D01*
X0080582Y0119121D01*
X0080582Y0117386D01*
X0081015Y0116953D01*
X0081883Y0116953D01*
X0082316Y0117386D01*
X0083528Y0116953D02*
X0085263Y0116953D01*
X0084396Y0116953D02*
X0084396Y0119555D01*
X0083528Y0118688D01*
X0082316Y0119121D02*
X0081883Y0119555D01*
X0094517Y0121195D02*
X0094517Y0117195D01*
X0094517Y0121195D01*
X0094517Y0117195D01*
X0094517Y0121195D01*
X0101435Y0118975D02*
X0101435Y0117240D01*
X0101869Y0116806D01*
X0102736Y0116806D01*
X0103170Y0117240D01*
X0104382Y0117240D02*
X0104816Y0116806D01*
X0105683Y0116806D01*
X0106117Y0117240D01*
X0106117Y0117674D01*
X0105683Y0118107D01*
X0105249Y0118107D01*
X0105683Y0118107D02*
X0106117Y0118541D01*
X0106117Y0118975D01*
X0105683Y0119409D01*
X0104816Y0119409D01*
X0104382Y0118975D01*
X0103170Y0118975D02*
X0102736Y0119409D01*
X0101869Y0119409D01*
X0101435Y0118975D01*
X0109317Y0128195D02*
X0110017Y0128195D01*
X0110017Y0128895D01*
X0116917Y0146895D02*
X0120917Y0146895D01*
X0135585Y0108203D02*
X0136453Y0108203D01*
X0136019Y0108203D02*
X0136019Y0106034D01*
X0135585Y0105601D01*
X0135152Y0105601D01*
X0134718Y0106034D01*
X0137664Y0105601D02*
X0137664Y0108203D01*
X0138966Y0108203D01*
X0139399Y0107769D01*
X0139399Y0106902D01*
X0138966Y0106468D01*
X0137664Y0106468D01*
X0140611Y0106034D02*
X0141045Y0105601D01*
X0141912Y0105601D01*
X0142346Y0106034D01*
X0142346Y0106468D01*
X0141912Y0106902D01*
X0141478Y0106902D01*
X0141912Y0106902D02*
X0142346Y0107336D01*
X0142346Y0107769D01*
X0141912Y0108203D01*
X0141045Y0108203D01*
X0140611Y0107769D01*
X0107874Y0093999D02*
X0107874Y0093132D01*
X0107440Y0092698D01*
X0106573Y0092698D02*
X0106139Y0093566D01*
X0106139Y0093999D01*
X0106573Y0094433D01*
X0107440Y0094433D01*
X0107874Y0093999D01*
X0106573Y0092698D02*
X0105272Y0092698D01*
X0105272Y0094433D01*
X0105705Y0091487D02*
X0105272Y0091053D01*
X0105272Y0090186D01*
X0105705Y0089752D01*
X0107440Y0089752D01*
X0107874Y0090186D01*
X0107874Y0091053D01*
X0107440Y0091487D01*
X0106719Y0085366D02*
X0106719Y0083631D01*
X0105418Y0084932D01*
X0108020Y0084932D01*
X0107587Y0082419D02*
X0108020Y0081985D01*
X0108020Y0081118D01*
X0107587Y0080684D01*
X0105852Y0080684D01*
X0105418Y0081118D01*
X0105418Y0081985D01*
X0105852Y0082419D01*
X0102257Y0075746D02*
X0102257Y0075376D01*
X0102257Y0075746D02*
X0096076Y0075746D01*
X0096076Y0075376D01*
X0096076Y0072203D02*
X0096076Y0071833D01*
X0096076Y0068463D02*
X0096076Y0068093D01*
X0096076Y0064920D02*
X0096076Y0064550D01*
X0102257Y0064550D01*
X0102257Y0064920D01*
X0101359Y0062834D02*
X0100492Y0062834D01*
X0100058Y0062400D01*
X0100058Y0061966D01*
X0100492Y0061533D01*
X0101793Y0061533D01*
X0101793Y0062400D02*
X0101793Y0060665D01*
X0101359Y0060231D01*
X0100492Y0060231D01*
X0100058Y0060665D01*
X0098847Y0060231D02*
X0097112Y0060231D01*
X0098847Y0061966D01*
X0098847Y0062400D01*
X0098413Y0062834D01*
X0097545Y0062834D01*
X0097112Y0062400D01*
X0095900Y0062400D02*
X0095900Y0061533D01*
X0095466Y0061099D01*
X0094165Y0061099D01*
X0094165Y0060231D02*
X0094165Y0062834D01*
X0095466Y0062834D01*
X0095900Y0062400D01*
X0092954Y0060231D02*
X0091219Y0060231D01*
X0091219Y0062834D01*
X0089863Y0063410D02*
X0088995Y0064277D01*
X0087261Y0064277D01*
X0087261Y0065489D02*
X0087261Y0066356D01*
X0087261Y0065923D02*
X0089863Y0065923D01*
X0089863Y0066356D02*
X0089863Y0065489D01*
X0089863Y0067453D02*
X0087261Y0067453D01*
X0089863Y0069188D01*
X0087261Y0069188D01*
X0085269Y0068829D02*
X0085269Y0063829D01*
X0082769Y0061329D01*
X0085269Y0058829D01*
X0085269Y0053829D01*
X0082769Y0051329D01*
X0085269Y0048829D01*
X0085269Y0043829D01*
X0082769Y0041329D01*
X0077769Y0041329D01*
X0075269Y0043829D01*
X0075269Y0048829D01*
X0077769Y0051329D01*
X0075269Y0053829D01*
X0075269Y0058829D01*
X0077769Y0061329D01*
X0082769Y0061329D01*
X0087261Y0062543D02*
X0088995Y0062543D01*
X0089863Y0063410D01*
X0088925Y0057881D02*
X0088058Y0057881D01*
X0087624Y0057447D01*
X0087624Y0057014D01*
X0088058Y0056580D01*
X0088925Y0056580D01*
X0089359Y0056146D01*
X0089359Y0055712D01*
X0088925Y0055279D01*
X0088058Y0055279D01*
X0087624Y0055712D01*
X0089359Y0057447D02*
X0088925Y0057881D01*
X0090571Y0057447D02*
X0090571Y0057014D01*
X0091004Y0056580D01*
X0091872Y0056580D01*
X0092306Y0056146D01*
X0092306Y0055712D01*
X0091872Y0055279D01*
X0091004Y0055279D01*
X0090571Y0055712D01*
X0090571Y0057447D02*
X0091004Y0057881D01*
X0091872Y0057881D01*
X0092306Y0057447D01*
X0089350Y0050485D02*
X0087616Y0050485D01*
X0087182Y0050052D01*
X0087182Y0048751D01*
X0089784Y0048751D01*
X0089784Y0050052D01*
X0089350Y0050485D01*
X0089784Y0047539D02*
X0087182Y0047539D01*
X0087182Y0045804D02*
X0089784Y0047539D01*
X0089784Y0045804D02*
X0087182Y0045804D01*
X0087616Y0044592D02*
X0087182Y0044159D01*
X0087182Y0043291D01*
X0087616Y0042857D01*
X0089350Y0042857D01*
X0089784Y0043291D01*
X0089784Y0044159D01*
X0089350Y0044592D01*
X0088483Y0044592D01*
X0088483Y0043725D01*
X0082769Y0051329D02*
X0077769Y0051329D01*
X0077769Y0061329D02*
X0075269Y0063829D01*
X0075269Y0068829D01*
X0077769Y0071329D01*
X0075269Y0073829D01*
X0075269Y0078829D01*
X0077769Y0081329D01*
X0075269Y0083829D01*
X0075269Y0088829D01*
X0077769Y0091329D01*
X0075269Y0093829D01*
X0075269Y0098829D01*
X0077769Y0101329D01*
X0082769Y0101329D01*
X0085269Y0098829D01*
X0085269Y0093829D01*
X0082769Y0091329D01*
X0085269Y0088829D01*
X0085269Y0083829D01*
X0082769Y0081329D01*
X0085269Y0078829D01*
X0085269Y0073829D01*
X0082769Y0071329D01*
X0085269Y0068829D01*
X0082769Y0071329D02*
X0077769Y0071329D01*
X0086837Y0075279D02*
X0086837Y0077881D01*
X0088138Y0077881D01*
X0088572Y0077447D01*
X0088572Y0076580D01*
X0088138Y0076146D01*
X0086837Y0076146D01*
X0087704Y0076146D02*
X0088572Y0075279D01*
X0089783Y0075279D02*
X0091518Y0077881D01*
X0089783Y0077881D02*
X0091518Y0075279D01*
X0082769Y0081329D02*
X0077769Y0081329D01*
X0077769Y0091329D02*
X0082769Y0091329D01*
X0086837Y0087881D02*
X0088572Y0087881D01*
X0087704Y0087881D02*
X0087704Y0085279D01*
X0089783Y0085279D02*
X0091518Y0087881D01*
X0089783Y0087881D02*
X0091518Y0085279D01*
X0091151Y0095066D02*
X0091151Y0097668D01*
X0092018Y0097668D02*
X0090283Y0097668D01*
X0089072Y0097235D02*
X0088638Y0097668D01*
X0087337Y0097668D01*
X0087337Y0095066D01*
X0088638Y0095066D01*
X0089072Y0095500D01*
X0089072Y0097235D01*
X0093230Y0097668D02*
X0093230Y0095066D01*
X0093230Y0095934D02*
X0094531Y0095934D01*
X0094965Y0096367D01*
X0094965Y0097235D01*
X0094531Y0097668D01*
X0093230Y0097668D01*
X0094097Y0095934D02*
X0094965Y0095066D01*
X0095362Y0100094D02*
X0095362Y0101395D01*
X0094928Y0101829D01*
X0094060Y0101829D01*
X0093627Y0101395D01*
X0093627Y0100094D01*
X0096229Y0100094D01*
X0095362Y0100961D02*
X0096229Y0101829D01*
X0096229Y0103040D02*
X0094494Y0104775D01*
X0094060Y0104775D01*
X0093627Y0104341D01*
X0093627Y0103474D01*
X0094060Y0103040D01*
X0096229Y0103040D02*
X0096229Y0104775D01*
X0084067Y0104736D02*
X0083633Y0105170D01*
X0082766Y0105170D01*
X0082332Y0104736D01*
X0081120Y0104736D02*
X0081120Y0103869D01*
X0080687Y0103435D01*
X0079386Y0103435D01*
X0079386Y0102568D02*
X0079386Y0105170D01*
X0080687Y0105170D01*
X0081120Y0104736D01*
X0082332Y0102568D02*
X0084067Y0104303D01*
X0084067Y0104736D01*
X0084067Y0102568D02*
X0082332Y0102568D01*
X0077740Y0103001D02*
X0077740Y0105170D01*
X0077306Y0105170D02*
X0078174Y0105170D01*
X0077740Y0103001D02*
X0077306Y0102568D01*
X0076873Y0102568D01*
X0076439Y0103001D01*
X0102257Y0072203D02*
X0102257Y0068093D01*
X0101359Y0062834D02*
X0101793Y0062400D01*
X0103005Y0062400D02*
X0103005Y0061966D01*
X0103439Y0061533D01*
X0104306Y0061533D01*
X0104740Y0061099D01*
X0104740Y0060665D01*
X0104306Y0060231D01*
X0103439Y0060231D01*
X0103005Y0060665D01*
X0103005Y0061099D01*
X0103439Y0061533D01*
X0104306Y0061533D02*
X0104740Y0061966D01*
X0104740Y0062400D01*
X0104306Y0062834D01*
X0103439Y0062834D01*
X0103005Y0062400D01*
X0105951Y0062834D02*
X0105951Y0061533D01*
X0106819Y0061966D01*
X0107252Y0061966D01*
X0107686Y0061533D01*
X0107686Y0060665D01*
X0107252Y0060231D01*
X0106385Y0060231D01*
X0105951Y0060665D01*
X0105951Y0062834D02*
X0107686Y0062834D01*
X0105840Y0047061D02*
X0107575Y0045326D01*
X0108009Y0045326D01*
X0107575Y0044114D02*
X0108009Y0043681D01*
X0108009Y0042813D01*
X0107575Y0042380D01*
X0105840Y0042380D01*
X0105406Y0042813D01*
X0105406Y0043681D01*
X0105840Y0044114D01*
X0105406Y0045326D02*
X0105406Y0047061D01*
X0105840Y0047061D01*
X0129822Y0051704D02*
X0130256Y0051270D01*
X0131123Y0051270D01*
X0131557Y0051704D01*
X0132768Y0051704D02*
X0133202Y0051270D01*
X0134070Y0051270D01*
X0134503Y0051704D01*
X0134503Y0052137D01*
X0134070Y0052571D01*
X0132768Y0052571D01*
X0132768Y0051704D01*
X0132768Y0052571D02*
X0133636Y0053439D01*
X0134503Y0053872D01*
X0131557Y0053439D02*
X0131123Y0053872D01*
X0130256Y0053872D01*
X0129822Y0053439D01*
X0129822Y0051704D01*
D13*
X0127316Y0051644D02*
X0112749Y0051644D01*
X0112749Y0064243D01*
X0127316Y0064243D01*
X0127316Y0051644D01*
X0166270Y0047509D02*
X0166270Y0045507D01*
X0166270Y0046174D02*
X0167271Y0046174D01*
X0167605Y0046508D01*
X0167605Y0047175D01*
X0167271Y0047509D01*
X0166270Y0047509D01*
X0166937Y0046174D02*
X0167605Y0045507D01*
X0168480Y0045507D02*
X0168480Y0047509D01*
X0169814Y0047509D01*
X0170690Y0047509D02*
X0171357Y0046842D01*
X0172024Y0047509D01*
X0172024Y0045507D01*
X0172900Y0045841D02*
X0173233Y0045507D01*
X0173901Y0045507D01*
X0174234Y0045841D01*
X0174234Y0047175D01*
X0173901Y0047509D01*
X0173233Y0047509D01*
X0172900Y0047175D01*
X0172900Y0046842D01*
X0173233Y0046508D01*
X0174234Y0046508D01*
X0175110Y0046508D02*
X0175777Y0046842D01*
X0176110Y0046842D01*
X0176444Y0046508D01*
X0176444Y0045841D01*
X0176110Y0045507D01*
X0175443Y0045507D01*
X0175110Y0045841D01*
X0175110Y0046508D02*
X0175110Y0047509D01*
X0176444Y0047509D01*
X0170690Y0047509D02*
X0170690Y0045507D01*
X0169147Y0046508D02*
X0168480Y0046508D01*
D14*
X0094048Y0051644D02*
X0094050Y0051797D01*
X0094056Y0051951D01*
X0094066Y0052104D01*
X0094080Y0052256D01*
X0094098Y0052409D01*
X0094120Y0052560D01*
X0094145Y0052711D01*
X0094175Y0052862D01*
X0094209Y0053012D01*
X0094246Y0053160D01*
X0094287Y0053308D01*
X0094332Y0053454D01*
X0094381Y0053600D01*
X0094434Y0053744D01*
X0094490Y0053886D01*
X0094550Y0054027D01*
X0094614Y0054167D01*
X0094681Y0054305D01*
X0094752Y0054441D01*
X0094827Y0054575D01*
X0094904Y0054707D01*
X0094986Y0054837D01*
X0095070Y0054965D01*
X0095158Y0055091D01*
X0095249Y0055214D01*
X0095343Y0055335D01*
X0095441Y0055453D01*
X0095541Y0055569D01*
X0095645Y0055682D01*
X0095751Y0055793D01*
X0095860Y0055901D01*
X0095972Y0056006D01*
X0096086Y0056107D01*
X0096204Y0056206D01*
X0096323Y0056302D01*
X0096445Y0056395D01*
X0096570Y0056484D01*
X0096697Y0056571D01*
X0096826Y0056653D01*
X0096957Y0056733D01*
X0097090Y0056809D01*
X0097225Y0056882D01*
X0097362Y0056951D01*
X0097501Y0057016D01*
X0097641Y0057078D01*
X0097783Y0057136D01*
X0097926Y0057191D01*
X0098071Y0057242D01*
X0098217Y0057289D01*
X0098364Y0057332D01*
X0098512Y0057371D01*
X0098661Y0057407D01*
X0098811Y0057438D01*
X0098962Y0057466D01*
X0099113Y0057490D01*
X0099266Y0057510D01*
X0099418Y0057526D01*
X0099571Y0057538D01*
X0099724Y0057546D01*
X0099877Y0057550D01*
X0100031Y0057550D01*
X0100184Y0057546D01*
X0100337Y0057538D01*
X0100490Y0057526D01*
X0100642Y0057510D01*
X0100795Y0057490D01*
X0100946Y0057466D01*
X0101097Y0057438D01*
X0101247Y0057407D01*
X0101396Y0057371D01*
X0101544Y0057332D01*
X0101691Y0057289D01*
X0101837Y0057242D01*
X0101982Y0057191D01*
X0102125Y0057136D01*
X0102267Y0057078D01*
X0102407Y0057016D01*
X0102546Y0056951D01*
X0102683Y0056882D01*
X0102818Y0056809D01*
X0102951Y0056733D01*
X0103082Y0056653D01*
X0103211Y0056571D01*
X0103338Y0056484D01*
X0103463Y0056395D01*
X0103585Y0056302D01*
X0103704Y0056206D01*
X0103822Y0056107D01*
X0103936Y0056006D01*
X0104048Y0055901D01*
X0104157Y0055793D01*
X0104263Y0055682D01*
X0104367Y0055569D01*
X0104467Y0055453D01*
X0104565Y0055335D01*
X0104659Y0055214D01*
X0104750Y0055091D01*
X0104838Y0054965D01*
X0104922Y0054837D01*
X0105004Y0054707D01*
X0105081Y0054575D01*
X0105156Y0054441D01*
X0105227Y0054305D01*
X0105294Y0054167D01*
X0105358Y0054027D01*
X0105418Y0053886D01*
X0105474Y0053744D01*
X0105527Y0053600D01*
X0105576Y0053454D01*
X0105621Y0053308D01*
X0105662Y0053160D01*
X0105699Y0053012D01*
X0105733Y0052862D01*
X0105763Y0052711D01*
X0105788Y0052560D01*
X0105810Y0052409D01*
X0105828Y0052256D01*
X0105842Y0052104D01*
X0105852Y0051951D01*
X0105858Y0051797D01*
X0105860Y0051644D01*
X0105858Y0051491D01*
X0105852Y0051337D01*
X0105842Y0051184D01*
X0105828Y0051032D01*
X0105810Y0050879D01*
X0105788Y0050728D01*
X0105763Y0050577D01*
X0105733Y0050426D01*
X0105699Y0050276D01*
X0105662Y0050128D01*
X0105621Y0049980D01*
X0105576Y0049834D01*
X0105527Y0049688D01*
X0105474Y0049544D01*
X0105418Y0049402D01*
X0105358Y0049261D01*
X0105294Y0049121D01*
X0105227Y0048983D01*
X0105156Y0048847D01*
X0105081Y0048713D01*
X0105004Y0048581D01*
X0104922Y0048451D01*
X0104838Y0048323D01*
X0104750Y0048197D01*
X0104659Y0048074D01*
X0104565Y0047953D01*
X0104467Y0047835D01*
X0104367Y0047719D01*
X0104263Y0047606D01*
X0104157Y0047495D01*
X0104048Y0047387D01*
X0103936Y0047282D01*
X0103822Y0047181D01*
X0103704Y0047082D01*
X0103585Y0046986D01*
X0103463Y0046893D01*
X0103338Y0046804D01*
X0103211Y0046717D01*
X0103082Y0046635D01*
X0102951Y0046555D01*
X0102818Y0046479D01*
X0102683Y0046406D01*
X0102546Y0046337D01*
X0102407Y0046272D01*
X0102267Y0046210D01*
X0102125Y0046152D01*
X0101982Y0046097D01*
X0101837Y0046046D01*
X0101691Y0045999D01*
X0101544Y0045956D01*
X0101396Y0045917D01*
X0101247Y0045881D01*
X0101097Y0045850D01*
X0100946Y0045822D01*
X0100795Y0045798D01*
X0100642Y0045778D01*
X0100490Y0045762D01*
X0100337Y0045750D01*
X0100184Y0045742D01*
X0100031Y0045738D01*
X0099877Y0045738D01*
X0099724Y0045742D01*
X0099571Y0045750D01*
X0099418Y0045762D01*
X0099266Y0045778D01*
X0099113Y0045798D01*
X0098962Y0045822D01*
X0098811Y0045850D01*
X0098661Y0045881D01*
X0098512Y0045917D01*
X0098364Y0045956D01*
X0098217Y0045999D01*
X0098071Y0046046D01*
X0097926Y0046097D01*
X0097783Y0046152D01*
X0097641Y0046210D01*
X0097501Y0046272D01*
X0097362Y0046337D01*
X0097225Y0046406D01*
X0097090Y0046479D01*
X0096957Y0046555D01*
X0096826Y0046635D01*
X0096697Y0046717D01*
X0096570Y0046804D01*
X0096445Y0046893D01*
X0096323Y0046986D01*
X0096204Y0047082D01*
X0096086Y0047181D01*
X0095972Y0047282D01*
X0095860Y0047387D01*
X0095751Y0047495D01*
X0095645Y0047606D01*
X0095541Y0047719D01*
X0095441Y0047835D01*
X0095343Y0047953D01*
X0095249Y0048074D01*
X0095158Y0048197D01*
X0095070Y0048323D01*
X0094986Y0048451D01*
X0094904Y0048581D01*
X0094827Y0048713D01*
X0094752Y0048847D01*
X0094681Y0048983D01*
X0094614Y0049121D01*
X0094550Y0049261D01*
X0094490Y0049402D01*
X0094434Y0049544D01*
X0094381Y0049688D01*
X0094332Y0049834D01*
X0094287Y0049980D01*
X0094246Y0050128D01*
X0094209Y0050276D01*
X0094175Y0050426D01*
X0094145Y0050577D01*
X0094120Y0050728D01*
X0094098Y0050879D01*
X0094080Y0051032D01*
X0094066Y0051184D01*
X0094056Y0051337D01*
X0094050Y0051491D01*
X0094048Y0051644D01*
D15*
X0139724Y0076321D02*
X0140379Y0076975D01*
X0142343Y0076975D01*
X0142343Y0077630D02*
X0142343Y0075666D01*
X0140379Y0075666D01*
X0139724Y0076321D01*
X0140379Y0078285D02*
X0141688Y0078285D01*
X0142343Y0077630D01*
X0144074Y0078285D02*
X0144074Y0075666D01*
X0145384Y0075666D02*
X0145384Y0077630D01*
X0146038Y0078285D01*
X0146693Y0077630D01*
X0146693Y0075666D01*
X0148425Y0075666D02*
X0150388Y0075666D01*
X0151043Y0076321D01*
X0151043Y0077630D01*
X0150388Y0078285D01*
X0148425Y0078285D01*
X0148425Y0079594D02*
X0148425Y0075666D01*
X0145384Y0077630D02*
X0144729Y0078285D01*
X0144074Y0078285D01*
X0144074Y0082753D02*
X0144729Y0082753D01*
X0144729Y0083407D01*
X0144074Y0083407D01*
X0144074Y0082753D01*
X0142343Y0082753D02*
X0139724Y0082753D01*
X0142343Y0085371D01*
X0142343Y0086026D01*
X0141688Y0086681D01*
X0140379Y0086681D01*
X0139724Y0086026D01*
X0146250Y0086026D02*
X0146250Y0083407D01*
X0148868Y0086026D01*
X0148868Y0083407D01*
X0148213Y0082753D01*
X0146904Y0082753D01*
X0146250Y0083407D01*
X0146250Y0086026D02*
X0146904Y0086681D01*
X0148213Y0086681D01*
X0148868Y0086026D01*
X0150600Y0086026D02*
X0151254Y0086681D01*
X0152564Y0086681D01*
X0153218Y0086026D01*
X0153218Y0085371D01*
X0150600Y0082753D01*
X0153218Y0082753D01*
X0154950Y0084717D02*
X0157568Y0084717D01*
X0159300Y0082753D02*
X0159300Y0086681D01*
X0161919Y0082753D01*
X0161919Y0086681D01*
X0163650Y0086026D02*
X0163650Y0085371D01*
X0164305Y0084717D01*
X0165614Y0084717D01*
X0166269Y0084062D01*
X0166269Y0083407D01*
X0165614Y0082753D01*
X0164305Y0082753D01*
X0163650Y0083407D01*
X0163650Y0086026D02*
X0164305Y0086681D01*
X0165614Y0086681D01*
X0166269Y0086026D01*
X0168000Y0085371D02*
X0169310Y0086681D01*
X0170619Y0085371D01*
X0170619Y0082753D01*
X0170619Y0084717D02*
X0168000Y0084717D01*
X0168000Y0085371D02*
X0168000Y0082753D01*
X0172351Y0084717D02*
X0174969Y0084717D01*
X0176701Y0086026D02*
X0177355Y0086681D01*
X0178665Y0086681D01*
X0179319Y0086026D01*
X0179319Y0085371D01*
X0176701Y0082753D01*
X0179319Y0082753D01*
X0181051Y0083407D02*
X0183669Y0086026D01*
X0183669Y0083407D01*
X0183015Y0082753D01*
X0181706Y0082753D01*
X0181051Y0083407D01*
X0181051Y0086026D01*
X0181706Y0086681D01*
X0183015Y0086681D01*
X0183669Y0086026D01*
X0185401Y0085371D02*
X0186710Y0086681D01*
X0186710Y0082753D01*
X0185401Y0082753D02*
X0188020Y0082753D01*
X0189751Y0083407D02*
X0190406Y0082753D01*
X0191715Y0082753D01*
X0192370Y0083407D01*
X0192370Y0086026D01*
X0191715Y0086681D01*
X0190406Y0086681D01*
X0189751Y0086026D01*
X0189751Y0085371D01*
X0190406Y0084717D01*
X0192370Y0084717D01*
X0182219Y0077630D02*
X0182219Y0075666D01*
X0180910Y0075666D02*
X0180910Y0077630D01*
X0181565Y0078285D01*
X0182219Y0077630D01*
X0180910Y0077630D02*
X0180255Y0078285D01*
X0179601Y0078285D01*
X0179601Y0075666D01*
X0177869Y0076321D02*
X0177869Y0077630D01*
X0177215Y0078285D01*
X0175905Y0078285D01*
X0175251Y0077630D01*
X0175251Y0076321D01*
X0175905Y0075666D01*
X0177215Y0075666D01*
X0177869Y0076321D01*
X0173519Y0075666D02*
X0171555Y0075666D01*
X0170901Y0076321D01*
X0170901Y0077630D01*
X0171555Y0078285D01*
X0173519Y0078285D01*
X0169380Y0076321D02*
X0169380Y0075666D01*
X0168725Y0075666D01*
X0168725Y0076321D01*
X0169380Y0076321D01*
X0167135Y0075666D02*
X0166480Y0076321D01*
X0166480Y0078939D01*
X0165825Y0078285D02*
X0167135Y0078285D01*
X0164094Y0077630D02*
X0164094Y0075666D01*
X0162130Y0075666D01*
X0161475Y0076321D01*
X0162130Y0076975D01*
X0164094Y0076975D01*
X0164094Y0077630D02*
X0163439Y0078285D01*
X0162130Y0078285D01*
X0159743Y0078285D02*
X0157780Y0078285D01*
X0157125Y0077630D01*
X0157780Y0076975D01*
X0159089Y0076975D01*
X0159743Y0076321D01*
X0159089Y0075666D01*
X0157125Y0075666D01*
X0155393Y0075666D02*
X0155393Y0077630D01*
X0154739Y0078285D01*
X0153429Y0078285D01*
X0153429Y0076975D02*
X0155393Y0076975D01*
X0155393Y0075666D02*
X0153429Y0075666D01*
X0152775Y0076321D01*
X0153429Y0076975D01*
X0096608Y0167392D02*
X0095623Y0167392D01*
X0096608Y0167392D02*
X0096608Y0176054D01*
X0095623Y0176054D01*
X0079088Y0176054D02*
X0078104Y0176054D01*
X0078104Y0167392D01*
X0079088Y0167392D01*
D16*
X0108551Y0166445D02*
X0111687Y0163309D01*
X0110119Y0163309D02*
X0110119Y0166445D01*
X0111687Y0166445D02*
X0108551Y0163309D01*
X0108551Y0164877D02*
X0111687Y0164877D01*
D17*
X0105269Y0168573D03*
X0105269Y0173298D03*
D18*
X0105269Y0170935D03*
D19*
X0126307Y0145423D02*
X0127658Y0145423D01*
X0128108Y0144973D01*
X0128108Y0144072D01*
X0127658Y0143622D01*
X0126307Y0143622D01*
X0127207Y0143622D02*
X0128108Y0142721D01*
X0129253Y0144072D02*
X0131055Y0144072D01*
X0130604Y0142721D02*
X0130604Y0145423D01*
X0129253Y0144072D01*
X0126307Y0142721D02*
X0126307Y0145423D01*
X0127488Y0123376D02*
X0128839Y0123376D01*
X0129289Y0122926D01*
X0129289Y0122025D01*
X0128839Y0121574D01*
X0127488Y0121574D01*
X0127488Y0120674D02*
X0127488Y0123376D01*
X0128388Y0121574D02*
X0129289Y0120674D01*
X0130434Y0121124D02*
X0130885Y0120674D01*
X0131785Y0120674D01*
X0132236Y0121124D01*
X0132236Y0121574D01*
X0131785Y0122025D01*
X0131335Y0122025D01*
X0131785Y0122025D02*
X0132236Y0122475D01*
X0132236Y0122926D01*
X0131785Y0123376D01*
X0130885Y0123376D01*
X0130434Y0122926D01*
X0121989Y0111827D02*
X0121989Y0109926D01*
X0123256Y0109926D01*
X0121047Y0111827D02*
X0119779Y0111827D01*
X0119779Y0109926D01*
X0118991Y0109926D02*
X0118674Y0109926D01*
X0118674Y0110243D01*
X0118991Y0110243D01*
X0118991Y0109926D01*
X0119779Y0110876D02*
X0120413Y0110876D01*
X0118064Y0108337D02*
X0118064Y0103219D01*
X0118064Y0108337D02*
X0128301Y0108337D01*
X0129088Y0108337D01*
X0129088Y0103219D01*
X0128301Y0103219D01*
X0128301Y0108337D01*
X0128694Y0108337D02*
X0128694Y0103219D01*
X0128694Y0097707D02*
X0128694Y0092589D01*
X0128301Y0092589D02*
X0129088Y0092589D01*
X0129088Y0097707D01*
X0128301Y0097707D01*
X0128301Y0092589D01*
X0118064Y0092589D01*
X0118064Y0097707D01*
X0113919Y0090894D02*
X0112118Y0090894D01*
X0111667Y0090444D01*
X0111667Y0089543D01*
X0112118Y0089093D01*
X0112568Y0089093D01*
X0113018Y0089543D01*
X0113018Y0090894D01*
X0113919Y0090894D02*
X0114370Y0090444D01*
X0114370Y0089543D01*
X0113919Y0089093D01*
X0113919Y0087948D02*
X0114370Y0087497D01*
X0114370Y0086596D01*
X0113919Y0086146D01*
X0112118Y0086146D01*
X0111667Y0086596D01*
X0111667Y0087497D01*
X0112118Y0087948D01*
X0126628Y0080208D02*
X0127078Y0080658D01*
X0127529Y0080658D01*
X0127979Y0080208D01*
X0127979Y0079307D01*
X0127529Y0078856D01*
X0127078Y0078856D01*
X0126628Y0079307D01*
X0126628Y0080208D01*
X0127979Y0080208D02*
X0128429Y0080658D01*
X0128880Y0080658D01*
X0129330Y0080208D01*
X0129330Y0079307D01*
X0128880Y0078856D01*
X0128429Y0078856D01*
X0127979Y0079307D01*
X0127078Y0077711D02*
X0126628Y0077261D01*
X0126628Y0076360D01*
X0127078Y0075910D01*
X0128880Y0075910D01*
X0129330Y0076360D01*
X0129330Y0077261D01*
X0128880Y0077711D01*
X0117130Y0067896D02*
X0117130Y0065193D01*
X0116229Y0065193D02*
X0118031Y0065193D01*
X0116229Y0066995D02*
X0117130Y0067896D01*
X0115084Y0067896D02*
X0115084Y0065644D01*
X0114634Y0065193D01*
X0113733Y0065193D01*
X0113283Y0065644D01*
X0113283Y0067896D01*
X0141381Y0041408D02*
X0204403Y0041408D01*
X0192877Y0049154D02*
X0192877Y0069154D01*
X0171627Y0069154D01*
X0171627Y0049154D01*
X0192877Y0049154D01*
X0159127Y0051654D02*
X0150377Y0051654D01*
X0150377Y0064154D01*
X0159127Y0064154D01*
X0159127Y0051654D01*
X0141381Y0104400D02*
X0204403Y0104400D01*
X0117732Y0110243D02*
X0117732Y0111827D01*
X0116464Y0111827D02*
X0116464Y0110243D01*
X0116781Y0109926D01*
X0117415Y0109926D01*
X0117732Y0110243D01*
D20*
X0147689Y0070575D02*
X0147689Y0067639D01*
X0146221Y0069107D02*
X0149157Y0069107D01*
D21*
X0148432Y0099293D02*
X0148432Y0101162D01*
X0147498Y0102096D01*
X0146564Y0101162D01*
X0146564Y0099293D01*
X0146564Y0100695D02*
X0148432Y0100695D01*
D22*
X0149001Y0092606D02*
X0146532Y0092606D01*
X0195532Y0045606D02*
X0198001Y0045606D01*
D23*
X0111962Y0065030D03*
M02*
