%
M48
M72
T01C0.01200
T02C0.01378
T03C0.03937
T04C0.04000
T05C0.11811
%
T01
X107795Y80033
X117395Y89633
X104795Y97433
X93995Y116033
X108995Y120233
X114395Y128033
X119195Y125633
X126995Y134033
X119195Y140033
X107795Y140033
X107795Y147233
X100595Y140633
X90395Y138233
X87395Y138233
X93995Y130433
X97595Y130433
X100595Y153833
X101195Y165233
X84395Y171833
X136595Y134633
X143795Y132233
X149795Y122033
X152795Y119033
X168995Y132233
X161795Y142433
X162395Y145433
X161195Y149633
X199595Y161033
X198995Y80633
X198995Y72833
X198995Y65033
X198995Y57233
X132995Y69233
X129995Y66833
X122795Y59633
X117995Y67433
X113195Y66833
X77195Y107033
T02
X99560Y119361
X130663Y106369
X134206Y107156
X137749Y107156
X141293Y107156
X144836Y107156
X147986Y106762
X150348Y104400
X150742Y101250
X150742Y98101
X149560Y95345
X148379Y91802
X134994Y94557
X131057Y95345
X131844Y86683
X130663Y74479
X123970Y68180
X115808Y49125
X108616Y90620
X165309Y92589
X192868Y126841
X174364Y154794
X154285Y137077
X142080Y145345
X120033Y152038
X89324Y148888
X79088Y161093
T03
X134206Y100463
T04
X80269Y46329
X80269Y56329
X80269Y66329
X80269Y76329
X80269Y86329
X80269Y96329
X134639Y169754
X144639Y169754
X154639Y169754
X164639Y169754
X174639Y169754
X184639Y169754
X194639Y169754
X204639Y169754
T05
X99954Y51644
M30
