G75*
%MOIN*%
%OFA0B0*%
%FSLAX25Y25*%
%IPPOS*%
%LPD*%
%AMOC8*
5,1,8,0,0,1.08239X$1,22.5*
%
%ADD10C,0.12211*%
%ADD11C,0.06400*%
%ADD12C,0.08274*%
%ADD13C,0.02369*%
D10*
X0111836Y0049144D03*
D11*
X0128521Y0043829D02*
X0134521Y0043829D01*
X0134521Y0063829D02*
X0128521Y0063829D01*
D12*
X0123813Y0091243D02*
X0123813Y0162109D01*
X0085520Y0151343D02*
X0014654Y0151343D01*
X0014654Y0119217D02*
X0085520Y0119217D01*
X0085520Y0087091D02*
X0014654Y0087091D01*
X0014654Y0054965D02*
X0085520Y0054965D01*
D13*
X0004024Y0065004D02*
X0004024Y0043350D01*
X0004024Y0065004D02*
X0004024Y0065004D01*
X0004024Y0043350D01*
X0004024Y0043350D01*
X0004024Y0045718D02*
X0004024Y0045718D01*
X0004024Y0048086D02*
X0004024Y0048086D01*
X0004024Y0050454D02*
X0004024Y0050454D01*
X0004024Y0052822D02*
X0004024Y0052822D01*
X0004024Y0055190D02*
X0004024Y0055190D01*
X0004024Y0057558D02*
X0004024Y0057558D01*
X0004024Y0059926D02*
X0004024Y0059926D01*
X0004024Y0062294D02*
X0004024Y0062294D01*
X0004024Y0064662D02*
X0004024Y0064662D01*
X0004024Y0075476D02*
X0004024Y0097130D01*
X0004024Y0097130D01*
X0004024Y0075476D01*
X0004024Y0075476D01*
X0004024Y0077844D02*
X0004024Y0077844D01*
X0004024Y0080212D02*
X0004024Y0080212D01*
X0004024Y0082580D02*
X0004024Y0082580D01*
X0004024Y0084948D02*
X0004024Y0084948D01*
X0004024Y0087316D02*
X0004024Y0087316D01*
X0004024Y0089684D02*
X0004024Y0089684D01*
X0004024Y0092052D02*
X0004024Y0092052D01*
X0004024Y0094420D02*
X0004024Y0094420D01*
X0004024Y0096788D02*
X0004024Y0096788D01*
X0004024Y0107602D02*
X0004024Y0129256D01*
X0004024Y0129256D01*
X0004024Y0107602D01*
X0004024Y0107602D01*
X0004024Y0109970D02*
X0004024Y0109970D01*
X0004024Y0112338D02*
X0004024Y0112338D01*
X0004024Y0114706D02*
X0004024Y0114706D01*
X0004024Y0117074D02*
X0004024Y0117074D01*
X0004024Y0119442D02*
X0004024Y0119442D01*
X0004024Y0121810D02*
X0004024Y0121810D01*
X0004024Y0124178D02*
X0004024Y0124178D01*
X0004024Y0126546D02*
X0004024Y0126546D01*
X0004024Y0128914D02*
X0004024Y0128914D01*
X0004024Y0139728D02*
X0004024Y0161382D01*
X0004024Y0161382D01*
X0004024Y0139728D01*
X0004024Y0139728D01*
X0004024Y0142096D02*
X0004024Y0142096D01*
X0004024Y0144464D02*
X0004024Y0144464D01*
X0004024Y0146832D02*
X0004024Y0146832D01*
X0004024Y0149200D02*
X0004024Y0149200D01*
X0004024Y0151568D02*
X0004024Y0151568D01*
X0004024Y0153936D02*
X0004024Y0153936D01*
X0004024Y0156304D02*
X0004024Y0156304D01*
X0004024Y0158672D02*
X0004024Y0158672D01*
X0004024Y0161040D02*
X0004024Y0161040D01*
X0112199Y0172739D02*
X0133853Y0172739D01*
X0133853Y0172739D01*
X0112199Y0172739D01*
X0112199Y0172739D01*
M02*
