G75*
%MOIN*%
%OFA0B0*%
%FSLAX25Y25*%
%IPPOS*%
%LPD*%
%AMOC8*
5,1,8,0,0,1.08239X$1,22.5*
%
%ADD10C,0.00000*%
%ADD11C,0.00600*%
%ADD12C,0.00500*%
%ADD13C,0.00200*%
D10*
X0005874Y0001600D02*
X0005874Y0139395D01*
X0151543Y0139395D01*
X0151543Y0001600D01*
X0005874Y0001600D01*
D11*
X0024161Y0124356D02*
X0029161Y0124356D01*
X0031661Y0126856D01*
X0034161Y0124356D01*
X0039161Y0124356D01*
X0041661Y0126856D01*
X0041661Y0131856D01*
X0039161Y0134356D01*
X0034161Y0134356D01*
X0031661Y0131856D01*
X0031661Y0126856D01*
X0031661Y0131856D02*
X0029161Y0134356D01*
X0024161Y0134356D01*
X0021661Y0131856D01*
X0021661Y0126856D01*
X0024161Y0124356D01*
D12*
X0023113Y0136806D02*
X0022362Y0136806D01*
X0021611Y0137557D01*
X0023113Y0136806D02*
X0023863Y0137557D01*
X0023863Y0141310D01*
X0023113Y0141310D02*
X0024614Y0141310D01*
X0026215Y0141310D02*
X0028467Y0141310D01*
X0029218Y0140559D01*
X0029218Y0139058D01*
X0028467Y0138307D01*
X0026215Y0138307D01*
X0026215Y0136806D02*
X0026215Y0141310D01*
X0030819Y0139808D02*
X0032321Y0141310D01*
X0032321Y0136806D01*
X0033822Y0136806D02*
X0030819Y0136806D01*
X0008000Y0112899D02*
X0029654Y0094986D01*
X0039496Y0075301D01*
X0039496Y0065655D01*
X0039496Y0009356D01*
X0008000Y0009356D01*
X0008000Y0112899D01*
X0040244Y0108608D02*
X0058157Y0130261D01*
X0077843Y0140104D01*
X0087488Y0140104D01*
X0143787Y0140104D01*
X0143787Y0108608D01*
X0040244Y0108608D01*
X0058157Y0098135D02*
X0040244Y0076482D01*
X0143787Y0076482D01*
X0143787Y0107978D01*
X0087488Y0107978D01*
X0077843Y0107978D01*
X0058157Y0098135D01*
X0077843Y0075852D02*
X0058157Y0066009D01*
X0040244Y0044356D01*
X0143787Y0044356D01*
X0143787Y0075852D01*
X0087488Y0075852D01*
X0077843Y0075852D01*
X0077843Y0043726D02*
X0058157Y0033883D01*
X0040244Y0012230D01*
X0143787Y0012230D01*
X0143787Y0043726D01*
X0087488Y0043726D01*
X0077843Y0043726D01*
D13*
X0047565Y0041291D02*
X0047565Y0040924D01*
X0047198Y0040557D01*
X0047565Y0040190D01*
X0047565Y0039823D01*
X0047198Y0039456D01*
X0046464Y0039456D01*
X0046097Y0039823D01*
X0045355Y0039823D02*
X0044988Y0039456D01*
X0044254Y0039456D01*
X0043887Y0039823D01*
X0044254Y0040557D02*
X0044988Y0040557D01*
X0045355Y0040190D01*
X0045355Y0039823D01*
X0044254Y0040557D02*
X0043887Y0040924D01*
X0043887Y0041291D01*
X0044254Y0041658D01*
X0044988Y0041658D01*
X0045355Y0041291D01*
X0046097Y0041291D02*
X0046464Y0041658D01*
X0047198Y0041658D01*
X0047565Y0041291D01*
X0047198Y0040557D02*
X0046831Y0040557D01*
X0047198Y0071582D02*
X0047198Y0073784D01*
X0046097Y0072683D01*
X0047565Y0072683D01*
X0045355Y0072316D02*
X0045355Y0071949D01*
X0044988Y0071582D01*
X0044254Y0071582D01*
X0043887Y0071949D01*
X0044254Y0072683D02*
X0044988Y0072683D01*
X0045355Y0072316D01*
X0045355Y0073417D02*
X0044988Y0073784D01*
X0044254Y0073784D01*
X0043887Y0073417D01*
X0043887Y0073050D01*
X0044254Y0072683D01*
X0044254Y0103708D02*
X0043887Y0104075D01*
X0044254Y0103708D02*
X0044988Y0103708D01*
X0045355Y0104075D01*
X0045355Y0104442D01*
X0044988Y0104809D01*
X0044254Y0104809D01*
X0043887Y0105176D01*
X0043887Y0105543D01*
X0044254Y0105910D01*
X0044988Y0105910D01*
X0045355Y0105543D01*
X0046097Y0105910D02*
X0046097Y0104809D01*
X0046831Y0105176D01*
X0047198Y0105176D01*
X0047565Y0104809D01*
X0047565Y0104075D01*
X0047198Y0103708D01*
X0046464Y0103708D01*
X0046097Y0104075D01*
X0046097Y0105910D02*
X0047565Y0105910D01*
X0005300Y0106137D02*
X0005300Y0105403D01*
X0004933Y0105036D01*
X0004199Y0105403D02*
X0004199Y0106137D01*
X0004566Y0106504D01*
X0004933Y0106504D01*
X0005300Y0106137D01*
X0005300Y0107246D02*
X0005300Y0108714D01*
X0005300Y0107980D02*
X0003098Y0107980D01*
X0003832Y0107246D01*
X0003465Y0106504D02*
X0003098Y0106137D01*
X0003098Y0105403D01*
X0003465Y0105036D01*
X0003832Y0105036D01*
X0004199Y0105403D01*
X0044254Y0009532D02*
X0043887Y0009165D01*
X0043887Y0008798D01*
X0044254Y0008431D01*
X0044988Y0008431D01*
X0045355Y0008064D01*
X0045355Y0007697D01*
X0044988Y0007330D01*
X0044254Y0007330D01*
X0043887Y0007697D01*
X0044254Y0009532D02*
X0044988Y0009532D01*
X0045355Y0009165D01*
X0046097Y0009165D02*
X0046464Y0009532D01*
X0047198Y0009532D01*
X0047565Y0009165D01*
X0047565Y0008798D01*
X0046097Y0007330D01*
X0047565Y0007330D01*
M02*
