G75*
%MOIN*%
%OFA0B0*%
%FSLAX25Y25*%
%IPPOS*%
%LPD*%
%AMOC8*
5,1,8,0,0,1.08239X$1,22.5*
%
%ADD10C,0.00300*%
%ADD11C,0.06000*%
%ADD12C,0.07874*%
%ADD13C,0.01969*%
%ADD14C,0.03962*%
%ADD15C,0.01600*%
%ADD16C,0.01200*%
%ADD17C,0.05600*%
%ADD18C,0.02400*%
D10*
X0022740Y0115923D02*
X0023707Y0116891D01*
X0023707Y0118826D01*
X0024719Y0118342D02*
X0024719Y0116407D01*
X0025202Y0115923D01*
X0026170Y0115923D01*
X0026654Y0116407D01*
X0027665Y0116407D02*
X0028149Y0115923D01*
X0029116Y0115923D01*
X0029600Y0116407D01*
X0027665Y0116407D02*
X0027665Y0118342D01*
X0028149Y0118826D01*
X0029116Y0118826D01*
X0029600Y0118342D01*
X0026654Y0118342D02*
X0026170Y0118826D01*
X0025202Y0118826D01*
X0024719Y0118342D01*
X0021772Y0118826D02*
X0021772Y0116891D01*
X0022740Y0115923D01*
X0033583Y0116407D02*
X0034067Y0115923D01*
X0035034Y0115923D01*
X0035518Y0116407D01*
X0035518Y0117374D01*
X0034551Y0117374D01*
X0033583Y0118342D02*
X0033583Y0116407D01*
X0033583Y0118342D02*
X0034067Y0118826D01*
X0035034Y0118826D01*
X0035518Y0118342D01*
X0036530Y0118826D02*
X0038465Y0115923D01*
X0038465Y0118826D01*
X0039476Y0118826D02*
X0040927Y0118826D01*
X0041411Y0118342D01*
X0041411Y0116407D01*
X0040927Y0115923D01*
X0039476Y0115923D01*
X0039476Y0118826D01*
X0036530Y0118826D02*
X0036530Y0115923D01*
D11*
X0036661Y0126356D02*
X0036661Y0132356D01*
X0026661Y0132356D02*
X0026661Y0126356D01*
D12*
X0064654Y0123569D02*
X0135520Y0123569D01*
X0135520Y0091443D02*
X0064654Y0091443D01*
X0064654Y0059317D02*
X0135520Y0059317D01*
X0135520Y0027191D02*
X0064654Y0027191D01*
X0022961Y0017624D02*
X0022961Y0088490D01*
D13*
X0012921Y0006994D02*
X0034575Y0006994D01*
X0012921Y0006994D02*
X0012921Y0006994D01*
X0034575Y0006994D01*
X0034575Y0006994D01*
X0146150Y0017151D02*
X0146150Y0038805D01*
X0146150Y0017151D02*
X0146150Y0017151D01*
X0146150Y0038805D01*
X0146150Y0038805D01*
X0146150Y0019119D02*
X0146150Y0019119D01*
X0146150Y0021087D02*
X0146150Y0021087D01*
X0146150Y0023055D02*
X0146150Y0023055D01*
X0146150Y0025023D02*
X0146150Y0025023D01*
X0146150Y0026991D02*
X0146150Y0026991D01*
X0146150Y0028959D02*
X0146150Y0028959D01*
X0146150Y0030927D02*
X0146150Y0030927D01*
X0146150Y0032895D02*
X0146150Y0032895D01*
X0146150Y0034863D02*
X0146150Y0034863D01*
X0146150Y0036831D02*
X0146150Y0036831D01*
X0146150Y0038799D02*
X0146150Y0038799D01*
X0146150Y0049277D02*
X0146150Y0070931D01*
X0146150Y0049277D02*
X0146150Y0049277D01*
X0146150Y0070931D01*
X0146150Y0070931D01*
X0146150Y0051245D02*
X0146150Y0051245D01*
X0146150Y0053213D02*
X0146150Y0053213D01*
X0146150Y0055181D02*
X0146150Y0055181D01*
X0146150Y0057149D02*
X0146150Y0057149D01*
X0146150Y0059117D02*
X0146150Y0059117D01*
X0146150Y0061085D02*
X0146150Y0061085D01*
X0146150Y0063053D02*
X0146150Y0063053D01*
X0146150Y0065021D02*
X0146150Y0065021D01*
X0146150Y0066989D02*
X0146150Y0066989D01*
X0146150Y0068957D02*
X0146150Y0068957D01*
X0146150Y0070925D02*
X0146150Y0070925D01*
X0146150Y0081403D02*
X0146150Y0103057D01*
X0146150Y0081403D02*
X0146150Y0081403D01*
X0146150Y0103057D01*
X0146150Y0103057D01*
X0146150Y0083371D02*
X0146150Y0083371D01*
X0146150Y0085339D02*
X0146150Y0085339D01*
X0146150Y0087307D02*
X0146150Y0087307D01*
X0146150Y0089275D02*
X0146150Y0089275D01*
X0146150Y0091243D02*
X0146150Y0091243D01*
X0146150Y0093211D02*
X0146150Y0093211D01*
X0146150Y0095179D02*
X0146150Y0095179D01*
X0146150Y0097147D02*
X0146150Y0097147D01*
X0146150Y0099115D02*
X0146150Y0099115D01*
X0146150Y0101083D02*
X0146150Y0101083D01*
X0146150Y0103051D02*
X0146150Y0103051D01*
X0146150Y0113529D02*
X0146150Y0135183D01*
X0146150Y0113529D02*
X0146150Y0113529D01*
X0146150Y0135183D01*
X0146150Y0135183D01*
X0146150Y0115497D02*
X0146150Y0115497D01*
X0146150Y0117465D02*
X0146150Y0117465D01*
X0146150Y0119433D02*
X0146150Y0119433D01*
X0146150Y0121401D02*
X0146150Y0121401D01*
X0146150Y0123369D02*
X0146150Y0123369D01*
X0146150Y0125337D02*
X0146150Y0125337D01*
X0146150Y0127305D02*
X0146150Y0127305D01*
X0146150Y0129273D02*
X0146150Y0129273D01*
X0146150Y0131241D02*
X0146150Y0131241D01*
X0146150Y0133209D02*
X0146150Y0133209D01*
X0146150Y0135177D02*
X0146150Y0135177D01*
D14*
X0029496Y0111836D03*
X0013748Y0115773D03*
D15*
X0029496Y0111836D02*
X0049181Y0111836D01*
X0049181Y0137427D01*
X0145638Y0137427D01*
X0145638Y0119710D01*
X0146150Y0006994D02*
X0023748Y0006994D01*
D16*
X0146150Y0006994D02*
X0146150Y0027978D01*
X0146150Y0060104D01*
X0146150Y0092230D01*
X0146150Y0124356D01*
D17*
X0100087Y0123569D02*
X0100087Y0091443D01*
X0100087Y0059317D01*
X0100087Y0027191D01*
X0080677Y0058687D02*
X0021622Y0058687D01*
D18*
X0021622Y0056718D01*
X0022961Y0056718D01*
X0022961Y0053057D01*
X0021622Y0058687D02*
X0021622Y0080340D01*
X0013748Y0080340D01*
X0013748Y0115773D01*
M02*
